<svg width="667" height="375" viewBox="0 0 667 375" fill="none" xmlns="http://www.w3.org/2000/svg">
<g clip-path="url(#clip0_1337_86)">
<g filter="url(#filter0_b_1337_86)">
<mask id="path-1-inside-1_1337_86" fill="white">
<path fill-rule="evenodd" clip-rule="evenodd" d="M639.639 359.921C645.881 359.921 650.941 354.861 650.941 348.619L650.941 143.691C650.941 139.653 648.787 135.922 645.29 133.903L465.556 30.1337C463.838 29.1417 461.889 28.6195 459.905 28.6195L37.3019 28.6195C31.0601 28.6195 26 33.6796 26 39.9214L26 320.878C26 327.12 31.06 332.18 37.3019 332.18L254.334 332.18C257.156 332.18 259.876 333.236 261.96 335.14L285.831 356.961C287.914 358.865 290.634 359.921 293.456 359.921L639.639 359.921ZM699.768 36.7203C700.428 37.1013 701.176 37.3019 701.938 37.3019L716.698 37.3019C722.94 37.3019 728 42.362 728 48.6038L728 370.196C728 374.168 724.78 377.388 720.808 377.388C716.836 377.388 713.616 380.608 713.616 384.58L713.616 425.678C713.616 431.92 708.556 436.98 702.314 436.98L-27.1751 436.98C-33.417 436.98 -38.477 431.92 -38.477 425.678L-38.477 423.51L-38.477 386.762C-38.477 381.37 -42.8474 377 -48.2385 377C-53.6297 377 -58 372.63 -58 367.238L-58.0001 27.7618C-58.0001 22.3705 -53.6296 18 -48.2383 18C-42.847 18 -38.4766 13.6295 -38.4766 8.23825L-38.4766 -20.6981C-38.4766 -26.9399 -33.4165 -32 -27.1746 -32L472.29 -32C476.328 -32 480.059 -34.1541 482.078 -37.651L498.646 -66.3472C501.767 -71.7528 508.679 -73.6049 514.085 -70.4839L578.118 -33.5142C579.836 -32.5222 581.785 -32 583.769 -32L702.314 -32C708.556 -32 713.616 -26.9399 713.616 -20.6981L713.616 22.7279C713.616 25.9817 710.979 28.6195 707.725 28.6195L701.938 28.6195C697.497 28.6195 695.921 34.4995 699.768 36.7203Z"/>
</mask>
<path fill-rule="evenodd" clip-rule="evenodd" d="M639.639 359.921C645.881 359.921 650.941 354.861 650.941 348.619L650.941 143.691C650.941 139.653 648.787 135.922 645.29 133.903L465.556 30.1337C463.838 29.1417 461.889 28.6195 459.905 28.6195L37.3019 28.6195C31.0601 28.6195 26 33.6796 26 39.9214L26 320.878C26 327.12 31.06 332.18 37.3019 332.18L254.334 332.18C257.156 332.18 259.876 333.236 261.96 335.14L285.831 356.961C287.914 358.865 290.634 359.921 293.456 359.921L639.639 359.921ZM699.768 36.7203C700.428 37.1013 701.176 37.3019 701.938 37.3019L716.698 37.3019C722.94 37.3019 728 42.362 728 48.6038L728 370.196C728 374.168 724.78 377.388 720.808 377.388C716.836 377.388 713.616 380.608 713.616 384.58L713.616 425.678C713.616 431.92 708.556 436.98 702.314 436.98L-27.1751 436.98C-33.417 436.98 -38.477 431.92 -38.477 425.678L-38.477 423.51L-38.477 386.762C-38.477 381.37 -42.8474 377 -48.2385 377C-53.6297 377 -58 372.63 -58 367.238L-58.0001 27.7618C-58.0001 22.3705 -53.6296 18 -48.2383 18C-42.847 18 -38.4766 13.6295 -38.4766 8.23825L-38.4766 -20.6981C-38.4766 -26.9399 -33.4165 -32 -27.1746 -32L472.29 -32C476.328 -32 480.059 -34.1541 482.078 -37.651L498.646 -66.3472C501.767 -71.7528 508.679 -73.6049 514.085 -70.4839L578.118 -33.5142C579.836 -32.5222 581.785 -32 583.769 -32L702.314 -32C708.556 -32 713.616 -26.9399 713.616 -20.6981L713.616 22.7279C713.616 25.9817 710.979 28.6195 707.725 28.6195L701.938 28.6195C697.497 28.6195 695.921 34.4995 699.768 36.7203Z" fill="#2773FF" fill-opacity="0.7"/>
<path d="M702.314 -32L702.314 -33L702.314 -32ZM578.118 -33.5142L577.618 -32.6481L578.118 -33.5142ZM498.646 -66.3472L497.78 -66.8472L498.646 -66.3472ZM472.29 -32L472.29 -33L472.29 -32ZM482.078 -37.651L482.944 -37.151L482.078 -37.651ZM-58.0001 27.7618L-59.0001 27.7618L-58.0001 27.7618ZM-58 367.238L-57 367.238L-58 367.238ZM-27.1751 436.98L-27.1751 437.98L-27.1751 436.98ZM713.616 425.678L714.616 425.678L713.616 425.678ZM702.314 436.98L702.314 437.98L702.314 436.98ZM285.831 356.961L286.505 356.223L285.831 356.961ZM293.456 359.921L293.456 360.921L293.456 359.921ZM261.96 335.14L262.634 334.402L261.96 335.14ZM26 320.878L27 320.878L26 320.878ZM26 39.9214L25 39.9214L26 39.9214ZM465.556 30.1337L466.056 29.2677L465.556 30.1337ZM459.905 28.6195L459.905 29.6195L459.905 28.6195ZM645.29 133.903L644.79 134.769L645.29 133.903ZM713.616 22.7279L714.616 22.7279L713.616 22.7279ZM650.941 348.619L651.941 348.619L650.941 348.619ZM651.941 348.619L651.941 143.691L649.941 143.691L649.941 348.619L651.941 348.619ZM645.79 133.037L466.056 29.2677L465.056 30.9997L644.79 134.769L645.79 133.037ZM459.905 27.6195L37.3019 27.6195L37.3019 29.6195L459.905 29.6195L459.905 27.6195ZM25 39.9214L25 320.878L27 320.878L27 39.9214L25 39.9214ZM37.3019 333.18L254.334 333.18L254.334 331.18L37.3019 331.18L37.3019 333.18ZM261.285 335.878L285.156 357.699L286.505 356.223L262.634 334.402L261.285 335.878ZM293.456 360.921L639.639 360.921L639.639 358.921L293.456 358.921L293.456 360.921ZM701.938 38.3019L716.698 38.3019L716.698 36.3019L701.938 36.3019L701.938 38.3019ZM727 48.6038L727 370.196L729 370.196L729 48.6038L727 48.6038ZM712.616 384.58L712.616 425.678L714.616 425.678L714.616 384.58L712.616 384.58ZM702.314 435.98L-27.1751 435.98L-27.1751 437.98L702.314 437.98L702.314 435.98ZM-37.477 425.678L-37.477 423.51L-39.477 423.51L-39.477 425.678L-37.477 425.678ZM-37.477 423.51L-37.477 386.762L-39.477 386.762L-39.477 423.51L-37.477 423.51ZM-57 367.238L-57.0001 27.7618L-59.0001 27.7618L-59 367.238L-57 367.238ZM-37.4766 8.23825L-37.4766 -20.6981L-39.4766 -20.6981L-39.4766 8.23825L-37.4766 8.23825ZM-27.1746 -31L472.29 -31L472.29 -33L-27.1746 -33L-27.1746 -31ZM482.944 -37.151L499.512 -65.8472L497.78 -66.8472L481.212 -38.151L482.944 -37.151ZM513.585 -69.6179L577.618 -32.6481L578.618 -34.3802L514.585 -71.35L513.585 -69.6179ZM583.769 -31L702.314 -31L702.314 -33L583.769 -33L583.769 -31ZM712.616 -20.6981L712.616 22.7279L714.616 22.7279L714.616 -20.6981L712.616 -20.6981ZM707.725 27.6195L701.938 27.6195L701.938 29.6195L707.725 29.6195L707.725 27.6195ZM701.938 27.6195C696.474 27.6195 694.535 34.854 699.268 37.5863L700.268 35.8543C697.307 34.1451 698.52 29.6195 701.938 29.6195L701.938 27.6195ZM702.314 -31C708.004 -31 712.616 -26.3877 712.616 -20.6981L714.616 -20.6981C714.616 -27.4922 709.109 -33 702.314 -33L702.314 -31ZM577.618 -32.6481C579.488 -31.5684 581.61 -31 583.769 -31L583.769 -33C581.961 -33 580.184 -33.476 578.618 -34.3802L577.618 -32.6481ZM499.512 -65.8472C502.357 -70.7745 508.657 -72.4627 513.585 -69.6179L514.585 -71.35C508.701 -74.7471 501.177 -72.7311 497.78 -66.8472L499.512 -65.8472ZM472.29 -31C476.685 -31 480.747 -33.3447 482.944 -37.151L481.212 -38.151C479.372 -34.9635 475.971 -33 472.29 -33L472.29 -31ZM-37.4766 -20.6981C-37.4766 -26.3877 -32.8642 -31 -27.1746 -31L-27.1746 -33C-33.9688 -33 -39.4766 -27.4922 -39.4766 -20.6981L-37.4766 -20.6981ZM-48.2383 19C-42.2947 19 -37.4766 14.1818 -37.4766 8.23825L-39.4766 8.23825C-39.4766 13.0772 -43.3994 17 -48.2383 17L-48.2383 19ZM-57.0001 27.7618C-57.0001 22.9228 -53.0773 19 -48.2383 19L-48.2383 17C-54.1819 17 -59.0001 21.8182 -59.0001 27.7618L-57.0001 27.7618ZM-48.2385 376C-53.0774 376 -57 372.077 -57 367.238L-59 367.238C-59 373.182 -54.1819 378 -48.2385 378L-48.2385 376ZM-37.477 386.762C-37.477 380.818 -42.2951 376 -48.2385 376L-48.2385 378C-43.3997 378 -39.477 381.923 -39.477 386.762L-37.477 386.762ZM-27.1751 435.98C-32.8647 435.98 -37.477 431.368 -37.477 425.678L-39.477 425.678C-39.477 432.472 -33.9693 437.98 -27.1751 437.98L-27.1751 435.98ZM712.616 425.678C712.616 431.368 708.003 435.98 702.314 435.98L702.314 437.98C709.108 437.98 714.616 432.472 714.616 425.678L712.616 425.678ZM720.808 376.388C716.284 376.388 712.616 380.055 712.616 384.58L714.616 384.58C714.616 381.16 717.388 378.388 720.808 378.388L720.808 376.388ZM727 370.196C727 373.615 724.228 376.388 720.808 376.388L720.808 378.388C725.332 378.388 729 374.72 729 370.196L727 370.196ZM716.698 38.3019C722.388 38.3019 727 42.9142 727 48.6038L729 48.6038C729 41.8097 723.492 36.3019 716.698 36.3019L716.698 38.3019ZM701.938 36.3019C701.352 36.3019 700.776 36.1475 700.268 35.8543L699.268 37.5863C700.08 38.0551 701.001 38.3019 701.938 38.3019L701.938 36.3019ZM285.156 357.699C287.423 359.772 290.384 360.921 293.456 360.921L293.456 358.921C290.884 358.921 288.404 357.959 286.505 356.223L285.156 357.699ZM254.334 333.18C256.907 333.18 259.386 334.142 261.285 335.878L262.634 334.402C260.367 332.329 257.406 331.18 254.334 331.18L254.334 333.18ZM25 320.878C25 327.672 30.5077 333.18 37.3019 333.18L37.3019 331.18C31.6123 331.18 27 326.568 27 320.878L25 320.878ZM37.3019 27.6195C30.5077 27.6195 25 33.1273 25 39.9214L27 39.9214C27 34.2318 31.6124 29.6195 37.3019 29.6195L37.3019 27.6195ZM466.056 29.2677C464.186 28.1879 462.065 27.6195 459.905 27.6195L459.905 29.6195C461.714 29.6195 463.49 30.0955 465.056 30.9997L466.056 29.2677ZM651.941 143.691C651.941 139.296 649.597 135.235 645.79 133.037L644.79 134.769C647.978 136.609 649.941 140.01 649.941 143.691L651.941 143.691ZM712.616 22.7279C712.616 25.4295 710.426 27.6195 707.725 27.6195L707.725 29.6195C711.531 29.6195 714.616 26.534 714.616 22.7279L712.616 22.7279ZM649.941 348.619C649.941 354.309 645.329 358.921 639.639 358.921L639.639 360.921C646.433 360.921 651.941 355.413 651.941 348.619L649.941 348.619Z" fill="#9FD1FF" mask="url(#path-1-inside-1_1337_86)"/>
</g>
<mask id="mask0_1337_86" style="mask-type:alpha" maskUnits="userSpaceOnUse" x="-55" y="-72" width="783" height="509">
<path fill-rule="evenodd" clip-rule="evenodd" d="M639.637 359.921C645.879 359.921 650.939 354.861 650.939 348.619L650.939 143.691C650.939 139.653 648.785 135.922 645.288 133.903L462.09 28.1337C460.372 27.1417 458.423 26.6195 456.439 26.6195L-27.1766 26.6195C-33.4185 26.6195 -38.4785 21.5595 -38.4785 15.3176L-38.4785 -22.6981C-38.4785 -28.94 -33.4185 -34 -27.1766 -34L473.443 -34C477.481 -34 481.212 -36.1541 483.231 -39.651L498.644 -66.3471C501.765 -71.7528 508.677 -73.6049 514.083 -70.484L574.652 -35.5142C576.37 -34.5222 578.319 -34 580.303 -34L702.312 -34C708.554 -34 713.614 -28.9399 713.614 -22.6981L713.614 19.9958C713.614 23.654 710.649 26.6195 706.991 26.6195L702.204 26.6195C696.74 26.6195 694.801 33.854 699.534 36.5863C700.346 37.0551 701.267 37.3019 702.204 37.3019L716.696 37.3019C722.938 37.3019 727.998 42.362 727.998 48.6038L727.998 370.196C727.998 374.168 724.778 377.388 720.806 377.388C716.834 377.388 713.614 380.608 713.614 384.58L713.614 425.678C713.614 431.92 708.554 436.98 702.312 436.98L-27.177 436.98C-33.4189 436.98 -38.4789 431.92 -38.4789 425.678L-38.4789 423.51L-38.4789 385.149C-38.4789 380.862 -41.9536 377.388 -46.2399 377.388C-50.5262 377.388 -54.0009 373.913 -54.0009 369.627L-54.001 38.3019C-54.001 32.06 -48.9409 27 -42.699 27L14.0901 27C20.332 27 25.392 32.06 25.392 38.3019L25.3921 320.878C25.3921 327.12 30.4521 332.18 36.694 332.18L254.332 332.18C257.154 332.18 259.875 333.236 261.958 335.14L285.829 356.961C287.912 358.865 290.632 359.921 293.454 359.921L639.637 359.921Z" fill="#2773FF" fill-opacity="0.7"/>
</mask>
<g mask="url(#mask0_1337_86)">
<line x1="663.003" y1="499.963" x2="663.003" y2="-77.0233" stroke="#9FD1FF" stroke-width="0.564014" stroke-linecap="round" stroke-dasharray="5.08 5.08"/>
<line x1="636.494" y1="499.963" x2="636.494" y2="-77.0233" stroke="#9FD1FF" stroke-width="0.564014" stroke-linecap="round" stroke-dasharray="5.08 5.08"/>
<line x1="609.986" y1="499.963" x2="609.986" y2="-77.0233" stroke="#9FD1FF" stroke-width="0.564014" stroke-linecap="round" stroke-dasharray="5.08 5.08"/>
<line x1="583.478" y1="499.963" x2="583.478" y2="-77.0233" stroke="#9FD1FF" stroke-width="0.564014" stroke-linecap="round" stroke-dasharray="5.08 5.08"/>
<line x1="556.969" y1="499.963" x2="556.969" y2="-77.0233" stroke="#9FD1FF" stroke-width="0.564014" stroke-linecap="round" stroke-dasharray="5.08 5.08"/>
<line x1="530.46" y1="499.963" x2="530.46" y2="-77.0233" stroke="#9FD1FF" stroke-width="0.564014" stroke-linecap="round" stroke-dasharray="5.08 5.08"/>
<line x1="503.951" y1="499.963" x2="503.951" y2="-77.0233" stroke="#9FD1FF" stroke-width="0.564014" stroke-linecap="round" stroke-dasharray="5.08 5.08"/>
<line x1="477.443" y1="499.963" x2="477.443" y2="-77.0233" stroke="#9FD1FF" stroke-width="0.564014" stroke-linecap="round" stroke-dasharray="5.08 5.08"/>
<line x1="450.934" y1="499.963" x2="450.934" y2="-77.0233" stroke="#9FD1FF" stroke-width="0.564014" stroke-linecap="round" stroke-dasharray="5.08 5.08"/>
<line x1="424.425" y1="499.963" x2="424.425" y2="-77.0233" stroke="#9FD1FF" stroke-width="0.564014" stroke-linecap="round" stroke-dasharray="5.08 5.08"/>
<line x1="397.916" y1="499.963" x2="397.916" y2="-77.0233" stroke="#9FD1FF" stroke-width="0.564014" stroke-linecap="round" stroke-dasharray="5.08 5.08"/>
<line x1="371.408" y1="499.963" x2="371.408" y2="-77.0233" stroke="#9FD1FF" stroke-width="0.564014" stroke-linecap="round" stroke-dasharray="5.08 5.08"/>
<line x1="344.899" y1="499.963" x2="344.899" y2="-77.0233" stroke="#9FD1FF" stroke-width="0.564014" stroke-linecap="round" stroke-dasharray="5.08 5.08"/>
<line x1="318.391" y1="499.963" x2="318.391" y2="-77.0233" stroke="#9FD1FF" stroke-width="0.564014" stroke-linecap="round" stroke-dasharray="5.08 5.08"/>
<line x1="291.882" y1="499.963" x2="291.882" y2="-77.0233" stroke="#9FD1FF" stroke-width="0.564014" stroke-linecap="round" stroke-dasharray="5.08 5.08"/>
<line x1="265.372" y1="499.963" x2="265.372" y2="-77.0233" stroke="#9FD1FF" stroke-width="0.564014" stroke-linecap="round" stroke-dasharray="5.08 5.08"/>
<line x1="238.865" y1="499.963" x2="238.865" y2="-77.0233" stroke="#9FD1FF" stroke-width="0.564014" stroke-linecap="round" stroke-dasharray="5.08 5.08"/>
<line x1="212.356" y1="499.963" x2="212.356" y2="-77.0233" stroke="#9FD1FF" stroke-width="0.564014" stroke-linecap="round" stroke-dasharray="5.08 5.08"/>
<line x1="185.848" y1="499.963" x2="185.848" y2="-77.0233" stroke="#9FD1FF" stroke-width="0.564014" stroke-linecap="round" stroke-dasharray="5.08 5.08"/>
<line x1="159.339" y1="499.963" x2="159.339" y2="-77.0233" stroke="#9FD1FF" stroke-width="0.564014" stroke-linecap="round" stroke-dasharray="5.08 5.08"/>
<line x1="132.829" y1="499.963" x2="132.829" y2="-77.0233" stroke="#9FD1FF" stroke-width="0.564014" stroke-linecap="round" stroke-dasharray="5.08 5.08"/>
<line x1="106.322" y1="499.963" x2="106.323" y2="-77.0233" stroke="#9FD1FF" stroke-width="0.564014" stroke-linecap="round" stroke-dasharray="5.08 5.08"/>
<line x1="79.8127" y1="499.963" x2="79.8127" y2="-77.0233" stroke="#9FD1FF" stroke-width="0.564014" stroke-linecap="round" stroke-dasharray="5.08 5.08"/>
<line x1="53.3039" y1="499.963" x2="53.304" y2="-77.0233" stroke="#9FD1FF" stroke-width="0.564014" stroke-linecap="round" stroke-dasharray="5.08 5.08"/>
<line x1="26.7961" y1="499.963" x2="26.7961" y2="-77.0233" stroke="#9FD1FF" stroke-width="0.564014" stroke-linecap="round" stroke-dasharray="5.08 5.08"/>
<line x1="0.286353" y1="499.963" x2="0.286378" y2="-77.0233" stroke="#9FD1FF" stroke-width="0.564014" stroke-linecap="round" stroke-dasharray="5.08 5.08"/>
<line x1="-241.674" y1="351.626" x2="840.104" y2="351.626" stroke="#9FD1FF" stroke-width="0.564014" stroke-linecap="round" stroke-dasharray="5.08 5.08"/>
<line x1="-241.674" y1="325.119" x2="840.104" y2="325.119" stroke="#9FD1FF" stroke-width="0.564014" stroke-linecap="round" stroke-dasharray="5.08 5.08"/>
<line x1="-241.674" y1="298.609" x2="840.104" y2="298.609" stroke="#9FD1FF" stroke-width="0.564014" stroke-linecap="round" stroke-dasharray="5.08 5.08"/>
<line x1="-241.674" y1="272.101" x2="840.104" y2="272.101" stroke="#9FD1FF" stroke-width="0.564014" stroke-linecap="round" stroke-dasharray="5.08 5.08"/>
<line x1="-241.674" y1="245.591" x2="840.104" y2="245.591" stroke="#9FD1FF" stroke-width="0.564014" stroke-linecap="round" stroke-dasharray="5.08 5.08"/>
<line x1="-241.674" y1="219.083" x2="840.104" y2="219.083" stroke="#9FD1FF" stroke-width="0.564014" stroke-linecap="round" stroke-dasharray="5.08 5.08"/>
<path d="M-241.674 192.575C180.787 192.778 417.644 192.915 840.104 192.575" stroke="#9FD1FF" stroke-width="0.564014" stroke-linecap="round" stroke-dasharray="5.08 5.08"/>
<line x1="-241.674" y1="166.066" x2="840.104" y2="166.066" stroke="#9FD1FF" stroke-width="0.564014" stroke-linecap="round" stroke-dasharray="5.08 5.08"/>
<line x1="-241.674" y1="139.558" x2="840.104" y2="139.558" stroke="#9FD1FF" stroke-width="0.564014" stroke-linecap="round" stroke-dasharray="5.08 5.08"/>
<line x1="-241.674" y1="113.048" x2="840.104" y2="113.048" stroke="#9FD1FF" stroke-width="0.564014" stroke-linecap="round" stroke-dasharray="5.08 5.08"/>
<line x1="-241.674" y1="86.5398" x2="840.104" y2="86.5399" stroke="#9FD1FF" stroke-width="0.564014" stroke-linecap="round" stroke-dasharray="5.08 5.08"/>
<line x1="-241.674" y1="60.0324" x2="840.104" y2="60.0325" stroke="#9FD1FF" stroke-width="0.564014" stroke-linecap="round" stroke-dasharray="5.08 5.08"/>
<line x1="-241.674" y1="33.5222" x2="840.104" y2="33.5223" stroke="#9FD1FF" stroke-width="0.564014" stroke-linecap="round" stroke-dasharray="5.08 5.08"/>
<line x1="-241.674" y1="7.01438" x2="840.104" y2="7.01447" stroke="#9FD1FF" stroke-width="0.564014" stroke-linecap="round" stroke-dasharray="5.08 5.08"/>
</g>
</g>
<defs>
<filter id="filter0_b_1337_86" x="-62.1098" y="-76.1098" width="794.22" height="517.2" filterUnits="userSpaceOnUse" color-interpolation-filters="sRGB">
<feFlood flood-opacity="0" result="BackgroundImageFix"/>
<feGaussianBlur in="BackgroundImageFix" stdDeviation="2.0549"/>
<feComposite in2="SourceAlpha" operator="in" result="effect1_backgroundBlur_1337_86"/>
<feBlend mode="normal" in="SourceGraphic" in2="effect1_backgroundBlur_1337_86" result="shape"/>
</filter>
<clipPath id="clip0_1337_86">
<rect width="375" height="667" fill="white" transform="translate(667) rotate(90)"/>
</clipPath>
</defs>
</svg>
