<svg width="219" height="304" viewBox="0 0 219 304" fill="none" xmlns="http://www.w3.org/2000/svg">
<g filter="url(#filter0_i_1330_185)">
<rect x="145.85" y="142.741" width="66.8911" height="74.058" rx="33.4455" transform="rotate(90 145.85 142.741)" fill="#D3E3FF"/>
<rect x="145.85" y="142.741" width="66.8911" height="74.058" rx="33.4455" transform="rotate(90 145.85 142.741)" fill="url(#paint0_radial_1330_185)" fill-opacity="0.2"/>
</g>
<g filter="url(#filter1_i_1330_185)">
<rect x="105.627" width="7.1669" height="16.7228" rx="3.58345" fill="#FF26AC"/>
</g>
<g filter="url(#filter2_i_1330_185)">
<rect x="179.295" y="74.0581" width="12.5421" height="41.2097" rx="6.27104" fill="#A91AB0"/>
</g>
<g filter="url(#filter3_i_1330_185)">
<rect x="27" y="74.0581" width="12.5421" height="41.2097" rx="6.27104" fill="#FF26AC"/>
</g>
<g filter="url(#filter4_ii_1330_185)">
<path d="M41.125 81.8224C41.125 44.2198 71.6079 13.7368 109.211 13.7368C146.813 13.7368 177.296 44.2198 177.296 81.8224V118.254C177.296 129.799 167.937 139.158 156.393 139.158H62.0284C50.4838 139.158 41.125 129.799 41.125 118.254V81.8224Z" fill="#D3E3FF"/>
</g>
<g filter="url(#filter5_i_1330_185)">
<path d="M157.589 86.8986C157.589 95.3097 150.369 102.128 141.463 102.128C132.558 102.128 125.338 95.3097 125.338 86.8986C125.338 78.4875 132.558 71.6689 141.463 71.6689C150.369 71.6689 157.589 78.4875 157.589 86.8986Z" fill="#48D0D0"/>
</g>
<path fill-rule="evenodd" clip-rule="evenodd" d="M141.463 100.337C149.478 100.337 155.797 94.2251 155.797 86.8986C155.797 79.5722 149.478 73.4607 141.463 73.4607C133.449 73.4607 127.13 79.5722 127.13 86.8986C127.13 94.2251 133.449 100.337 141.463 100.337ZM141.463 102.128C150.369 102.128 157.589 95.3097 157.589 86.8986C157.589 78.4875 150.369 71.6689 141.463 71.6689C132.558 71.6689 125.338 78.4875 125.338 86.8986C125.338 95.3097 132.558 102.128 141.463 102.128Z" fill="#193285"/>
<path fill-rule="evenodd" clip-rule="evenodd" d="M141.463 100.337C149.478 100.337 155.797 94.2251 155.797 86.8986C155.797 79.5722 149.478 73.4607 141.463 73.4607C133.449 73.4607 127.13 79.5722 127.13 86.8986C127.13 94.2251 133.449 100.337 141.463 100.337ZM141.463 102.128C150.369 102.128 157.589 95.3097 157.589 86.8986C157.589 78.4875 150.369 71.6689 141.463 71.6689C132.558 71.6689 125.338 78.4875 125.338 86.8986C125.338 95.3097 132.558 102.128 141.463 102.128Z" fill="#020070"/>
<circle cx="142.657" cy="86.6" r="7.1669" fill="#020070"/>
<g filter="url(#filter6_i_1330_185)">
<path d="M92.5167 86.8986C92.5167 95.3097 85.297 102.128 76.3912 102.128C67.4853 102.128 60.2656 95.3097 60.2656 86.8986C60.2656 78.4875 67.4853 71.6689 76.3912 71.6689C85.297 71.6689 92.5167 78.4875 92.5167 86.8986Z" fill="#48D0D0"/>
</g>
<circle cx="77.1669" cy="86.6" r="7.1669" fill="#020070"/>
<circle cx="138.177" cy="79.1344" r="3.28483" fill="white" fill-opacity="0.7"/>
<circle cx="133.399" cy="84.5098" r="2.09035" fill="white" fill-opacity="0.7"/>
<rect x="143.254" y="111.685" width="6.56966" height="7.1669" rx="3.28483" fill="#FF26AC"/>
<rect x="151.018" y="111.685" width="6.56966" height="7.1669" rx="3.28483" fill="#FF26AC"/>
<rect x="158.781" y="111.685" width="6.56966" height="7.1669" rx="3.28483" fill="#FF26AC"/>
<rect x="52.4727" y="111.685" width="6.56966" height="7.1669" rx="3.28483" fill="#FF26AC"/>
<rect x="60.2363" y="111.685" width="6.56966" height="7.1669" rx="3.28483" fill="#FF26AC"/>
<rect x="68" y="111.685" width="6.56966" height="7.1669" rx="3.28483" fill="#FF26AC"/>
<line x1="101.447" y1="121.076" x2="116.378" y2="121.076" stroke="#020070" stroke-width="6.30145"/>
<path fill-rule="evenodd" clip-rule="evenodd" d="M76.3619 100.337C84.3761 100.337 90.6957 94.2251 90.6957 86.8986C90.6957 79.5722 84.3761 73.4607 76.3619 73.4607C68.3476 73.4607 62.0281 79.5722 62.0281 86.8986C62.0281 94.2251 68.3476 100.337 76.3619 100.337ZM76.3619 102.128C85.2677 102.128 92.4874 95.3097 92.4874 86.8986C92.4874 78.4875 85.2677 71.6689 76.3619 71.6689C67.456 71.6689 60.2363 78.4875 60.2363 86.8986C60.2363 95.3097 67.456 102.128 76.3619 102.128Z" fill="#020070"/>
<path fill-rule="evenodd" clip-rule="evenodd" d="M76.3619 100.337C84.3761 100.337 90.6957 94.2251 90.6957 86.8986C90.6957 79.5722 84.3761 73.4607 76.3619 73.4607C68.3476 73.4607 62.0281 79.5722 62.0281 86.8986C62.0281 94.2251 68.3476 100.337 76.3619 100.337ZM76.3619 102.128C85.2677 102.128 92.4874 95.3097 92.4874 86.8986C92.4874 78.4875 85.2677 71.6689 76.3619 71.6689C67.456 71.6689 60.2363 78.4875 60.2363 86.8986C60.2363 95.3097 67.456 102.128 76.3619 102.128Z" fill="url(#paint1_linear_1330_185)" fill-opacity="0.2"/>
<circle cx="70.6887" cy="79.7317" r="3.88207" fill="white" fill-opacity="0.7"/>
<g filter="url(#filter7_dddd_1330_185)">
<mask id="path-22-outside-1_1330_185" maskUnits="userSpaceOnUse" x="8" y="252" width="202" height="38" fill="black">
<rect fill="white" x="8" y="252" width="202" height="38"/>
<path d="M10.7 262.45C9.83333 262.45 9.56667 262.017 9.9 261.15L12.65 254.35C13.05 253.45 13.6667 253 14.5 253H45.9C46.8333 253 47.1 253.45 46.7 254.35L43.95 261.15C43.6167 262.017 43 262.45 42.1 262.45H10.7ZM29.45 264.6C30.3167 264.6 30.5833 265.033 30.25 265.9L21.45 287.65C21.05 288.55 20.4333 289 19.6 289H11.75C10.8167 289 10.55 288.55 10.95 287.65L19.75 265.9C20.0833 265.033 20.7 264.6 21.6 264.6H29.45ZM55.4477 268.3C55.8477 267.4 56.4643 266.95 57.2977 266.95H69.8977C70.7977 266.95 71.0477 267.4 70.6477 268.3L68.4977 273.7C68.0977 274.6 67.481 275.05 66.6477 275.05H54.0477C53.1477 275.05 52.8977 274.6 53.2977 273.7L55.4477 268.3ZM66.9977 279.55C67.8643 279.55 68.131 279.983 67.7977 280.85L65.0477 287.65C64.6477 288.55 64.031 289 63.1977 289H35.6477C34.7477 289 34.4977 288.55 34.8977 287.65L48.3477 254.35C48.7477 253.45 49.3643 253 50.1977 253H77.7477C78.6477 253 78.8977 253.45 78.4977 254.35L75.7477 261.15C75.4143 262.017 74.8143 262.45 73.9477 262.45H55.9977C55.631 262.45 55.3977 262.617 55.2977 262.95L48.7477 279.05C48.6477 279.383 48.7477 279.55 49.0477 279.55H66.9977ZM65.2191 287.55L92.8191 254.1C93.4191 253.367 94.1025 253 94.8691 253H102.769C103.536 253 103.919 253.367 103.919 254.1L104.519 287.55C104.519 288.517 104.002 289 102.969 289H95.0691C94.2691 289 93.8858 288.633 93.9191 287.9V283.4C93.9191 283.1 93.7525 282.95 93.4191 282.95H85.0191C83.9525 282.95 83.8191 282.467 84.6191 281.5L89.0191 275.95C89.3858 275.483 89.6858 275.2 89.9191 275.1C90.1858 274.967 90.5858 274.9 91.1191 274.9H93.4691C93.8025 274.9 93.9691 274.75 93.9691 274.45L93.9191 266.8L77.1191 287.9C76.7525 288.367 76.4358 288.667 76.1691 288.8C75.9358 288.933 75.5691 289 75.0691 289H65.5691C64.5358 289 64.4191 288.517 65.2191 287.55ZM106.236 287.7L119.736 254.3C120.069 253.433 120.669 253 121.536 253H128.686C129.419 253 129.836 253.317 129.936 253.95L131.786 271.05C131.852 271.25 131.902 271.35 131.936 271.35C132.002 271.35 132.086 271.3 132.186 271.2L147.786 253.95C148.386 253.317 149.036 253 149.736 253H157.636C158.502 253 158.769 253.433 158.436 254.3L144.936 287.7C144.602 288.567 143.986 289 143.086 289H135.236C134.369 289 134.102 288.567 134.436 287.7L138.936 276.5L131.436 284.25C130.836 284.883 130.186 285.2 129.486 285.2H123.636C122.869 285.2 122.436 284.883 122.336 284.25L121.236 276.55L116.736 287.7C116.402 288.567 115.769 289 114.836 289H106.986C106.152 289 105.902 288.567 106.236 287.7ZM165.073 287.7L178.523 254.35C178.857 253.483 179.457 253.05 180.323 253.05H202.273C204.64 253.05 206.34 253.8 207.373 255.3C208.407 256.767 208.39 258.833 207.323 261.5L206.223 264.25C205.923 265.017 205.457 265.867 204.823 266.8C204.223 267.7 203.49 268.483 202.623 269.15C203.257 269.883 203.64 270.883 203.773 272.15C203.907 273.417 203.64 274.9 202.973 276.6L201.373 280.55C200.107 283.683 198.59 285.883 196.823 287.15C195.09 288.383 192.657 289 189.523 289H178.723C177.823 289 177.573 288.567 177.973 287.7L180.673 280.9C181.073 280 181.69 279.55 182.523 279.55H189.473C190.773 279.55 191.673 278.9 192.173 277.6L192.523 276.7C192.757 276.167 192.773 275.7 192.573 275.3C192.373 274.9 192.007 274.7 191.473 274.7H184.073C183.473 274.7 183.29 274.417 183.523 273.85L185.973 267.8C186.207 267.233 186.607 266.95 187.173 266.95H192.873C194.107 266.95 195.023 266.283 195.623 264.95L195.873 264.4C196.073 263.867 196.073 263.4 195.873 263C195.673 262.6 195.29 262.4 194.723 262.4H186.323C185.99 262.4 185.757 262.55 185.623 262.85L175.573 287.7C175.24 288.567 174.607 289 173.673 289H165.823C164.923 289 164.673 288.567 165.073 287.7Z"/>
</mask>
<path d="M10.7 262.45C9.83333 262.45 9.56667 262.017 9.9 261.15L12.65 254.35C13.05 253.45 13.6667 253 14.5 253H45.9C46.8333 253 47.1 253.45 46.7 254.35L43.95 261.15C43.6167 262.017 43 262.45 42.1 262.45H10.7ZM29.45 264.6C30.3167 264.6 30.5833 265.033 30.25 265.9L21.45 287.65C21.05 288.55 20.4333 289 19.6 289H11.75C10.8167 289 10.55 288.55 10.95 287.65L19.75 265.9C20.0833 265.033 20.7 264.6 21.6 264.6H29.45ZM55.4477 268.3C55.8477 267.4 56.4643 266.95 57.2977 266.95H69.8977C70.7977 266.95 71.0477 267.4 70.6477 268.3L68.4977 273.7C68.0977 274.6 67.481 275.05 66.6477 275.05H54.0477C53.1477 275.05 52.8977 274.6 53.2977 273.7L55.4477 268.3ZM66.9977 279.55C67.8643 279.55 68.131 279.983 67.7977 280.85L65.0477 287.65C64.6477 288.55 64.031 289 63.1977 289H35.6477C34.7477 289 34.4977 288.55 34.8977 287.65L48.3477 254.35C48.7477 253.45 49.3643 253 50.1977 253H77.7477C78.6477 253 78.8977 253.45 78.4977 254.35L75.7477 261.15C75.4143 262.017 74.8143 262.45 73.9477 262.45H55.9977C55.631 262.45 55.3977 262.617 55.2977 262.95L48.7477 279.05C48.6477 279.383 48.7477 279.55 49.0477 279.55H66.9977ZM65.2191 287.55L92.8191 254.1C93.4191 253.367 94.1025 253 94.8691 253H102.769C103.536 253 103.919 253.367 103.919 254.1L104.519 287.55C104.519 288.517 104.002 289 102.969 289H95.0691C94.2691 289 93.8858 288.633 93.9191 287.9V283.4C93.9191 283.1 93.7525 282.95 93.4191 282.95H85.0191C83.9525 282.95 83.8191 282.467 84.6191 281.5L89.0191 275.95C89.3858 275.483 89.6858 275.2 89.9191 275.1C90.1858 274.967 90.5858 274.9 91.1191 274.9H93.4691C93.8025 274.9 93.9691 274.75 93.9691 274.45L93.9191 266.8L77.1191 287.9C76.7525 288.367 76.4358 288.667 76.1691 288.8C75.9358 288.933 75.5691 289 75.0691 289H65.5691C64.5358 289 64.4191 288.517 65.2191 287.55ZM106.236 287.7L119.736 254.3C120.069 253.433 120.669 253 121.536 253H128.686C129.419 253 129.836 253.317 129.936 253.95L131.786 271.05C131.852 271.25 131.902 271.35 131.936 271.35C132.002 271.35 132.086 271.3 132.186 271.2L147.786 253.95C148.386 253.317 149.036 253 149.736 253H157.636C158.502 253 158.769 253.433 158.436 254.3L144.936 287.7C144.602 288.567 143.986 289 143.086 289H135.236C134.369 289 134.102 288.567 134.436 287.7L138.936 276.5L131.436 284.25C130.836 284.883 130.186 285.2 129.486 285.2H123.636C122.869 285.2 122.436 284.883 122.336 284.25L121.236 276.55L116.736 287.7C116.402 288.567 115.769 289 114.836 289H106.986C106.152 289 105.902 288.567 106.236 287.7ZM165.073 287.7L178.523 254.35C178.857 253.483 179.457 253.05 180.323 253.05H202.273C204.64 253.05 206.34 253.8 207.373 255.3C208.407 256.767 208.39 258.833 207.323 261.5L206.223 264.25C205.923 265.017 205.457 265.867 204.823 266.8C204.223 267.7 203.49 268.483 202.623 269.15C203.257 269.883 203.64 270.883 203.773 272.15C203.907 273.417 203.64 274.9 202.973 276.6L201.373 280.55C200.107 283.683 198.59 285.883 196.823 287.15C195.09 288.383 192.657 289 189.523 289H178.723C177.823 289 177.573 288.567 177.973 287.7L180.673 280.9C181.073 280 181.69 279.55 182.523 279.55H189.473C190.773 279.55 191.673 278.9 192.173 277.6L192.523 276.7C192.757 276.167 192.773 275.7 192.573 275.3C192.373 274.9 192.007 274.7 191.473 274.7H184.073C183.473 274.7 183.29 274.417 183.523 273.85L185.973 267.8C186.207 267.233 186.607 266.95 187.173 266.95H192.873C194.107 266.95 195.023 266.283 195.623 264.95L195.873 264.4C196.073 263.867 196.073 263.4 195.873 263C195.673 262.6 195.29 262.4 194.723 262.4H186.323C185.99 262.4 185.757 262.55 185.623 262.85L175.573 287.7C175.24 288.567 174.607 289 173.673 289H165.823C164.923 289 164.673 288.567 165.073 287.7Z" fill="#FF26AC"/>
<path d="M10.7 262.45C9.83333 262.45 9.56667 262.017 9.9 261.15L12.65 254.35C13.05 253.45 13.6667 253 14.5 253H45.9C46.8333 253 47.1 253.45 46.7 254.35L43.95 261.15C43.6167 262.017 43 262.45 42.1 262.45H10.7ZM29.45 264.6C30.3167 264.6 30.5833 265.033 30.25 265.9L21.45 287.65C21.05 288.55 20.4333 289 19.6 289H11.75C10.8167 289 10.55 288.55 10.95 287.65L19.75 265.9C20.0833 265.033 20.7 264.6 21.6 264.6H29.45ZM55.4477 268.3C55.8477 267.4 56.4643 266.95 57.2977 266.95H69.8977C70.7977 266.95 71.0477 267.4 70.6477 268.3L68.4977 273.7C68.0977 274.6 67.481 275.05 66.6477 275.05H54.0477C53.1477 275.05 52.8977 274.6 53.2977 273.7L55.4477 268.3ZM66.9977 279.55C67.8643 279.55 68.131 279.983 67.7977 280.85L65.0477 287.65C64.6477 288.55 64.031 289 63.1977 289H35.6477C34.7477 289 34.4977 288.55 34.8977 287.65L48.3477 254.35C48.7477 253.45 49.3643 253 50.1977 253H77.7477C78.6477 253 78.8977 253.45 78.4977 254.35L75.7477 261.15C75.4143 262.017 74.8143 262.45 73.9477 262.45H55.9977C55.631 262.45 55.3977 262.617 55.2977 262.95L48.7477 279.05C48.6477 279.383 48.7477 279.55 49.0477 279.55H66.9977ZM65.2191 287.55L92.8191 254.1C93.4191 253.367 94.1025 253 94.8691 253H102.769C103.536 253 103.919 253.367 103.919 254.1L104.519 287.55C104.519 288.517 104.002 289 102.969 289H95.0691C94.2691 289 93.8858 288.633 93.9191 287.9V283.4C93.9191 283.1 93.7525 282.95 93.4191 282.95H85.0191C83.9525 282.95 83.8191 282.467 84.6191 281.5L89.0191 275.95C89.3858 275.483 89.6858 275.2 89.9191 275.1C90.1858 274.967 90.5858 274.9 91.1191 274.9H93.4691C93.8025 274.9 93.9691 274.75 93.9691 274.45L93.9191 266.8L77.1191 287.9C76.7525 288.367 76.4358 288.667 76.1691 288.8C75.9358 288.933 75.5691 289 75.0691 289H65.5691C64.5358 289 64.4191 288.517 65.2191 287.55ZM106.236 287.7L119.736 254.3C120.069 253.433 120.669 253 121.536 253H128.686C129.419 253 129.836 253.317 129.936 253.95L131.786 271.05C131.852 271.25 131.902 271.35 131.936 271.35C132.002 271.35 132.086 271.3 132.186 271.2L147.786 253.95C148.386 253.317 149.036 253 149.736 253H157.636C158.502 253 158.769 253.433 158.436 254.3L144.936 287.7C144.602 288.567 143.986 289 143.086 289H135.236C134.369 289 134.102 288.567 134.436 287.7L138.936 276.5L131.436 284.25C130.836 284.883 130.186 285.2 129.486 285.2H123.636C122.869 285.2 122.436 284.883 122.336 284.25L121.236 276.55L116.736 287.7C116.402 288.567 115.769 289 114.836 289H106.986C106.152 289 105.902 288.567 106.236 287.7ZM165.073 287.7L178.523 254.35C178.857 253.483 179.457 253.05 180.323 253.05H202.273C204.64 253.05 206.34 253.8 207.373 255.3C208.407 256.767 208.39 258.833 207.323 261.5L206.223 264.25C205.923 265.017 205.457 265.867 204.823 266.8C204.223 267.7 203.49 268.483 202.623 269.15C203.257 269.883 203.64 270.883 203.773 272.15C203.907 273.417 203.64 274.9 202.973 276.6L201.373 280.55C200.107 283.683 198.59 285.883 196.823 287.15C195.09 288.383 192.657 289 189.523 289H178.723C177.823 289 177.573 288.567 177.973 287.7L180.673 280.9C181.073 280 181.69 279.55 182.523 279.55H189.473C190.773 279.55 191.673 278.9 192.173 277.6L192.523 276.7C192.757 276.167 192.773 275.7 192.573 275.3C192.373 274.9 192.007 274.7 191.473 274.7H184.073C183.473 274.7 183.29 274.417 183.523 273.85L185.973 267.8C186.207 267.233 186.607 266.95 187.173 266.95H192.873C194.107 266.95 195.023 266.283 195.623 264.95L195.873 264.4C196.073 263.867 196.073 263.4 195.873 263C195.673 262.6 195.29 262.4 194.723 262.4H186.323C185.99 262.4 185.757 262.55 185.623 262.85L175.573 287.7C175.24 288.567 174.607 289 173.673 289H165.823C164.923 289 164.673 288.567 165.073 287.7Z" fill="url(#paint2_linear_1330_185)" fill-opacity="0.5"/>
<path d="M9.9 261.15L8.97294 260.775L8.96973 260.783L8.96665 260.791L9.9 261.15ZM12.65 254.35L11.7362 253.944L11.7293 253.959L11.7229 253.975L12.65 254.35ZM46.7 254.35L45.7862 253.944L45.7793 253.959L45.7729 253.975L46.7 254.35ZM43.95 261.15L43.0229 260.775L43.0197 260.783L43.0167 260.791L43.95 261.15ZM30.25 265.9L31.177 266.275L31.1802 266.267L31.1833 266.259L30.25 265.9ZM21.45 287.65L22.3638 288.056L22.3707 288.041L22.377 288.025L21.45 287.65ZM10.95 287.65L11.8638 288.056L11.8707 288.041L11.877 288.025L10.95 287.65ZM19.75 265.9L20.677 266.275L20.6802 266.267L20.6833 266.259L19.75 265.9ZM10.7 261.45C10.6323 261.45 10.5842 261.446 10.5526 261.441C10.5207 261.436 10.5119 261.432 10.5196 261.435C10.5281 261.438 10.5564 261.45 10.5932 261.479C10.6314 261.509 10.6701 261.55 10.7017 261.601C10.7673 261.708 10.7603 261.787 10.7612 261.77C10.7616 261.761 10.764 261.736 10.7751 261.69C10.7862 261.644 10.8044 261.584 10.8333 261.509L8.96665 260.791C8.77551 261.288 8.60632 262.012 8.99834 262.649C9.41394 263.324 10.1676 263.45 10.7 263.45V261.45ZM10.8271 261.525L13.5771 254.725L11.7229 253.975L8.97294 260.775L10.8271 261.525ZM13.5638 254.756C13.7129 254.421 13.8704 254.241 14.002 254.145C14.1233 254.057 14.2748 254 14.5 254V252C13.8919 252 13.3184 252.168 12.823 252.53C12.338 252.884 11.9871 253.379 11.7362 253.944L13.5638 254.756ZM14.5 254H45.9V252H14.5V254ZM45.9 254C45.9776 254 46.0343 254.005 46.0736 254.01C46.1131 254.016 46.1276 254.022 46.1239 254.021C46.1195 254.019 46.092 254.008 46.0543 253.979C46.0148 253.948 45.9733 253.904 45.9397 253.847C45.9065 253.791 45.8908 253.739 45.8842 253.702C45.878 253.668 45.8808 253.651 45.8798 253.661C45.8789 253.671 45.8748 253.7 45.86 253.75C45.8453 253.799 45.8219 253.863 45.7862 253.944L47.6138 254.756C47.8357 254.257 48.06 253.502 47.6603 252.828C47.2403 252.119 46.4426 252 45.9 252V254ZM45.7729 253.975L43.0229 260.775L44.8771 261.525L47.6271 254.725L45.7729 253.975ZM43.0167 260.791C42.9046 261.082 42.7743 261.228 42.6626 261.307C42.5532 261.384 42.385 261.45 42.1 261.45V263.45C42.715 263.45 43.3052 263.3 43.8124 262.943C44.3174 262.588 44.6621 262.084 44.8834 261.509L43.0167 260.791ZM42.1 261.45H10.7V263.45H42.1V261.45ZM29.45 265.6C29.5177 265.6 29.5658 265.604 29.5974 265.609C29.6293 265.614 29.6381 265.618 29.6304 265.615C29.6219 265.612 29.5936 265.6 29.5568 265.571C29.5186 265.541 29.4799 265.5 29.4483 265.449C29.3827 265.342 29.3897 265.263 29.3888 265.28C29.3884 265.289 29.386 265.314 29.3749 265.36C29.3638 265.406 29.3456 265.466 29.3167 265.541L31.1833 266.259C31.3745 265.762 31.5437 265.038 31.1517 264.401C30.7361 263.726 29.9824 263.6 29.45 263.6V265.6ZM29.323 265.525L20.523 287.275L22.377 288.025L31.177 266.275L29.323 265.525ZM20.5362 287.244C20.3871 287.579 20.2296 287.759 20.098 287.855C19.9767 287.943 19.8252 288 19.6 288V290C20.2081 290 20.7817 289.832 21.277 289.47C21.762 289.116 22.1129 288.621 22.3638 288.056L20.5362 287.244ZM19.6 288H11.75V290H19.6V288ZM11.75 288C11.6725 288 11.6157 287.995 11.5764 287.99C11.5369 287.984 11.5224 287.978 11.5261 287.979C11.5305 287.981 11.5581 287.992 11.5957 288.021C11.6352 288.052 11.6767 288.096 11.7103 288.153C11.7435 288.209 11.7592 288.261 11.7658 288.298C11.772 288.332 11.7692 288.349 11.7702 288.339C11.7711 288.329 11.7752 288.3 11.79 288.25C11.8047 288.201 11.8281 288.137 11.8638 288.056L10.0362 287.244C9.81431 287.743 9.58997 288.498 9.98971 289.172C10.4097 289.881 11.2074 290 11.75 290V288ZM11.877 288.025L20.677 266.275L18.823 265.525L10.023 287.275L11.877 288.025ZM20.6833 266.259C20.7954 265.968 20.9257 265.822 21.0374 265.743C21.1468 265.666 21.315 265.6 21.6 265.6V263.6C20.985 263.6 20.3948 263.75 19.8876 264.107C19.3826 264.462 19.0379 264.966 18.8167 265.541L20.6833 266.259ZM21.6 265.6H29.45V263.6H21.6V265.6ZM55.4477 268.3L54.5338 267.894L54.5259 267.912L54.5186 267.93L55.4477 268.3ZM70.6477 268.3L69.7338 267.894L69.7259 267.912L69.7186 267.93L70.6477 268.3ZM68.4977 273.7L69.4115 274.106L69.4195 274.088L69.4267 274.07L68.4977 273.7ZM53.2977 273.7L54.2115 274.106L54.2195 274.088L54.2267 274.07L53.2977 273.7ZM67.7977 280.85L68.7247 281.225L68.7279 281.217L68.731 281.209L67.7977 280.85ZM65.0477 287.65L65.9615 288.056L65.9684 288.041L65.9747 288.025L65.0477 287.65ZM34.8977 287.65L35.8115 288.056L35.8184 288.04L35.8249 288.025L34.8977 287.65ZM48.3477 254.35L47.4338 253.944L47.4269 253.96L47.4204 253.975L48.3477 254.35ZM78.4977 254.35L77.5838 253.944L77.577 253.959L77.5706 253.975L78.4977 254.35ZM75.7477 261.15L74.8206 260.775L74.8174 260.783L74.8143 260.791L75.7477 261.15ZM55.2977 262.95L56.2239 263.327L56.2418 263.283L56.2555 263.237L55.2977 262.95ZM48.7477 279.05L47.8214 278.673L47.8035 278.717L47.7898 278.763L48.7477 279.05ZM56.3615 268.706C56.5105 268.371 56.668 268.191 56.7996 268.095C56.921 268.007 57.0724 267.95 57.2977 267.95V265.95C56.6896 265.95 56.116 266.118 55.6207 266.48C55.1356 266.834 54.7848 267.329 54.5338 267.894L56.3615 268.706ZM57.2977 267.95H69.8977V265.95H57.2977V267.95ZM69.8977 267.95C69.9696 267.95 70.0205 267.955 70.0539 267.96C70.0875 267.965 70.0959 267.969 70.0864 267.966C70.0761 267.962 70.0436 267.947 70.0027 267.914C69.96 267.879 69.9183 267.831 69.886 267.773C69.8199 267.654 69.835 267.571 69.8319 267.599C69.8305 267.612 69.8254 267.643 69.8098 267.695C69.7942 267.746 69.7701 267.812 69.7338 267.894L71.5615 268.706C71.781 268.212 72.0062 267.471 71.6343 266.802C71.2302 266.074 70.433 265.95 69.8977 265.95V267.95ZM69.7186 267.93L67.5686 273.33L69.4267 274.07L71.5767 268.67L69.7186 267.93ZM67.5838 273.294C67.4348 273.629 67.2773 273.809 67.1457 273.905C67.0243 273.993 66.8729 274.05 66.6477 274.05V276.05C67.2558 276.05 67.8293 275.882 68.3246 275.52C68.8097 275.166 69.1605 274.671 69.4115 274.106L67.5838 273.294ZM66.6477 274.05H54.0477V276.05H66.6477V274.05ZM54.0477 274.05C53.9757 274.05 53.9248 274.045 53.8914 274.04C53.8578 274.035 53.8495 274.031 53.8589 274.034C53.8692 274.038 53.9017 274.053 53.9426 274.086C53.9853 274.121 54.027 274.169 54.0593 274.227C54.1254 274.346 54.1103 274.429 54.1134 274.401C54.1148 274.388 54.1199 274.357 54.1355 274.305C54.1511 274.254 54.1752 274.188 54.2115 274.106L52.3838 273.294C52.1643 273.788 51.9391 274.529 52.311 275.198C52.7151 275.926 53.5123 276.05 54.0477 276.05V274.05ZM54.2267 274.07L56.3767 268.67L54.5186 267.93L52.3686 273.33L54.2267 274.07ZM66.9977 280.55C67.0653 280.55 67.1134 280.554 67.1451 280.559C67.1769 280.564 67.1857 280.568 67.178 280.565C67.1696 280.562 67.1413 280.55 67.1045 280.521C67.0663 280.491 67.0275 280.45 66.996 280.399C66.9304 280.292 66.9373 280.213 66.9365 280.23C66.936 280.239 66.9336 280.264 66.9225 280.31C66.9115 280.356 66.8932 280.416 66.8643 280.491L68.731 281.209C68.9221 280.712 69.0913 279.988 68.6993 279.351C68.2837 278.676 67.5301 278.55 66.9977 278.55V280.55ZM66.8706 280.475L64.1206 287.275L65.9747 288.025L68.7247 281.225L66.8706 280.475ZM64.1338 287.244C63.9848 287.579 63.8273 287.759 63.6957 287.855C63.5743 287.943 63.4229 288 63.1977 288V290C63.8058 290 64.3793 289.832 64.8746 289.47C65.3597 289.116 65.7105 288.621 65.9615 288.056L64.1338 287.244ZM63.1977 288H35.6477V290H63.1977V288ZM35.6477 288C35.5757 288 35.5248 287.995 35.4914 287.99C35.4578 287.985 35.4495 287.981 35.4589 287.984C35.4692 287.988 35.5017 288.003 35.5426 288.036C35.5853 288.071 35.627 288.119 35.6593 288.177C35.7254 288.296 35.7103 288.379 35.7134 288.351C35.7148 288.338 35.7199 288.307 35.7355 288.255C35.7511 288.204 35.7752 288.138 35.8115 288.056L33.9838 287.244C33.7643 287.738 33.5391 288.479 33.911 289.148C34.3151 289.876 35.1123 290 35.6477 290V288ZM35.8249 288.025L49.2749 254.725L47.4204 253.975L33.9704 287.275L35.8249 288.025ZM49.2615 254.756C49.4105 254.421 49.568 254.241 49.6996 254.145C49.821 254.057 49.9724 254 50.1977 254V252C49.5896 252 49.016 252.168 48.5207 252.53C48.0356 252.884 47.6848 253.379 47.4338 253.944L49.2615 254.756ZM50.1977 254H77.7477V252H50.1977V254ZM77.7477 254C77.8196 254 77.8705 254.005 77.9039 254.01C77.9375 254.015 77.9459 254.019 77.9364 254.016C77.9261 254.012 77.8936 253.997 77.8527 253.964C77.81 253.929 77.7683 253.881 77.736 253.823C77.6699 253.704 77.685 253.621 77.6819 253.649C77.6805 253.662 77.6755 253.693 77.6598 253.745C77.6442 253.796 77.6201 253.862 77.5838 253.944L79.4115 254.756C79.631 254.262 79.8562 253.521 79.4843 252.852C79.0802 252.124 78.283 252 77.7477 252V254ZM77.5706 253.975L74.8206 260.775L76.6747 261.525L79.4247 254.725L77.5706 253.975ZM74.8143 260.791C74.6996 261.089 74.5691 261.237 74.4622 261.314C74.3604 261.388 74.2079 261.45 73.9477 261.45V263.45C74.5541 263.45 75.135 263.295 75.6331 262.936C76.1262 262.58 76.4624 262.077 76.681 261.509L74.8143 260.791ZM73.9477 261.45H55.9977V263.45H73.9477V261.45ZM55.9977 261.45C55.6641 261.45 55.2946 261.527 54.9664 261.761C54.6333 261.999 54.4395 262.33 54.3398 262.663L56.2555 263.237C56.2558 263.236 56.2286 263.317 56.1289 263.389C56.0341 263.456 55.9646 263.45 55.9977 263.45V261.45ZM54.3714 262.573L47.8214 278.673L49.6739 279.427L56.2239 263.327L54.3714 262.573ZM47.7898 278.763C47.7183 279.001 47.6154 279.482 47.8902 279.939C48.2055 280.465 48.75 280.55 49.0477 280.55V278.55C49.0573 278.55 49.1357 278.55 49.2448 278.596C49.3683 278.647 49.5077 278.748 49.6052 278.911C49.6965 279.063 49.7102 279.201 49.7102 279.269C49.7102 279.333 49.6984 279.361 49.7055 279.337L47.7898 278.763ZM49.0477 280.55H66.9977V278.55H49.0477V280.55ZM65.2191 287.55L65.9895 288.188L65.9905 288.186L65.2191 287.55ZM92.8191 254.1L93.5905 254.736L93.5931 254.733L92.8191 254.1ZM103.919 254.1H102.919V254.109L102.919 254.118L103.919 254.1ZM104.519 287.55H105.519V287.541L105.519 287.532L104.519 287.55ZM93.9191 287.9L94.9181 287.945L94.9191 287.923V287.9H93.9191ZM84.6191 281.5L85.3895 282.138L85.3962 282.129L85.4028 282.121L84.6191 281.5ZM89.0191 275.95L89.8028 276.571L89.8055 276.568L89.0191 275.95ZM89.9191 275.1L90.3131 276.019L90.3401 276.008L90.3664 275.994L89.9191 275.1ZM93.9691 274.45H94.9692L94.9691 274.443L93.9691 274.45ZM93.9191 266.8L94.9191 266.793L94.9006 263.962L93.1368 266.177L93.9191 266.8ZM77.1191 287.9L76.3368 287.277L76.3328 287.282L77.1191 287.9ZM76.1691 288.8L75.7219 287.906L75.6971 287.918L75.673 287.932L76.1691 288.8ZM65.9905 288.186L93.5905 254.736L92.0478 253.464L64.4478 286.914L65.9905 288.186ZM93.5931 254.733C94.0523 254.172 94.4722 254 94.8691 254V252C93.7328 252 92.786 252.561 92.0452 253.467L93.5931 254.733ZM94.8691 254H102.769V252H94.8691V254ZM102.769 254C102.884 254 102.945 254.014 102.968 254.021C102.987 254.027 102.969 254.025 102.94 253.998C102.911 253.97 102.902 253.945 102.903 253.948C102.906 253.956 102.919 254.001 102.919 254.1H104.919C104.919 253.568 104.778 252.987 104.323 252.552C103.876 252.125 103.296 252 102.769 252V254ZM102.919 254.118L103.519 287.568L105.519 287.532L104.919 254.082L102.919 254.118ZM103.519 287.55C103.519 287.705 103.498 287.799 103.48 287.849C103.464 287.893 103.451 287.905 103.448 287.907C103.445 287.91 103.348 288 102.969 288V290C103.624 290 104.301 289.848 104.815 289.368C105.341 288.876 105.519 288.205 105.519 287.55H103.519ZM102.969 288H95.0691V290H102.969V288ZM95.0691 288C94.9419 288 94.8721 287.985 94.8432 287.976C94.8186 287.968 94.8394 287.97 94.8729 288.002C94.8885 288.017 94.9017 288.034 94.9115 288.05C94.9211 288.066 94.9247 288.076 94.9252 288.078C94.9255 288.079 94.9137 288.041 94.9181 287.945L92.9202 287.855C92.8956 288.394 93.0191 288.997 93.4904 289.448C93.9438 289.881 94.5398 290 95.0691 290V288ZM94.9191 287.9V283.4H92.9191V287.9H94.9191ZM94.9191 283.4C94.9191 283.067 94.8218 282.642 94.4631 282.319C94.1244 282.014 93.7155 281.95 93.4191 281.95V283.95C93.4562 283.95 93.2972 283.961 93.1252 283.806C92.9331 283.633 92.9191 283.433 92.9191 283.4H94.9191ZM93.4191 281.95H85.0191V283.95H93.4191V281.95ZM85.0191 281.95C84.9218 281.95 84.8525 281.944 84.8064 281.938C84.7589 281.931 84.7505 281.925 84.7678 281.932C84.7856 281.939 84.8467 281.967 84.9159 282.035C84.9909 282.109 85.0519 282.208 85.0831 282.322C85.1126 282.428 85.1055 282.51 85.0995 282.547C85.0938 282.581 85.0877 282.585 85.1027 282.552C85.1352 282.481 85.2172 282.346 85.3895 282.138L83.8487 280.862C83.6211 281.138 83.4198 281.425 83.2856 281.717C83.1586 281.993 83.0313 282.405 83.1552 282.853C83.2946 283.359 83.6731 283.647 84.0205 283.787C84.3417 283.916 84.6968 283.95 85.0191 283.95V281.95ZM85.4028 282.121L89.8028 276.571L88.2355 275.329L83.8355 280.879L85.4028 282.121ZM89.8055 276.568C89.9703 276.358 90.1034 276.211 90.2058 276.115C90.3169 276.01 90.3509 276.003 90.3131 276.019L89.5252 274.181C89.254 274.297 89.0214 274.482 88.8325 274.66C88.6348 274.847 88.4347 275.075 88.2328 275.332L89.8055 276.568ZM90.3664 275.994C90.4241 275.966 90.6369 275.9 91.1191 275.9V273.9C90.5347 273.9 89.9476 273.968 89.4719 274.206L90.3664 275.994ZM91.1191 275.9H93.4691V273.9H91.1191V275.9ZM93.4691 275.9C93.7655 275.9 94.1744 275.836 94.5131 275.531C94.8718 275.208 94.9691 274.783 94.9691 274.45H92.9691C92.9691 274.417 92.9831 274.217 93.1752 274.044C93.3472 273.889 93.5062 273.9 93.4691 273.9V275.9ZM94.9691 274.443L94.9191 266.793L92.9192 266.807L92.9692 274.457L94.9691 274.443ZM93.1368 266.177L76.3368 287.277L77.9015 288.523L94.7015 267.423L93.1368 266.177ZM76.3328 287.282C75.9845 287.725 75.781 287.876 75.7219 287.906L76.6164 289.694C77.0907 289.457 77.5204 289.008 77.9055 288.518L76.3328 287.282ZM75.673 287.932C75.6847 287.925 75.652 287.946 75.5403 287.966C75.432 287.986 75.278 288 75.0691 288V290C75.6168 290 76.1998 289.934 76.6653 289.668L75.673 287.932ZM75.0691 288H65.5691V290H75.0691V288ZM65.5691 288C65.4771 288 65.4135 287.994 65.3732 287.988C65.3314 287.982 65.3298 287.978 65.3535 287.987C65.3783 287.998 65.445 288.03 65.5169 288.106C65.5942 288.187 65.6517 288.291 65.6787 288.403C65.704 288.508 65.6948 288.586 65.689 288.617C65.6835 288.646 65.679 288.646 65.6956 288.611C65.7311 288.535 65.8165 288.397 65.9895 288.188L64.4487 286.912C64.2218 287.187 64.0217 287.471 63.8864 287.758C63.7592 288.028 63.6278 288.43 63.7346 288.872C63.8571 289.38 64.2247 289.683 64.5786 289.831C64.8997 289.966 65.2538 290 65.5691 290V288ZM106.236 287.7L105.308 287.325L105.305 287.333L105.302 287.341L106.236 287.7ZM119.736 254.3L120.663 254.675L120.666 254.667L120.669 254.659L119.736 254.3ZM129.936 253.95L130.93 253.842L130.927 253.818L130.923 253.794L129.936 253.95ZM131.786 271.05L130.791 271.158L130.803 271.264L130.837 271.366L131.786 271.05ZM132.186 271.2L132.893 271.907L132.91 271.889L132.927 271.871L132.186 271.2ZM147.786 253.95L147.06 253.262L147.052 253.271L147.044 253.279L147.786 253.95ZM158.436 254.3L159.363 254.675L159.366 254.667L159.369 254.659L158.436 254.3ZM144.936 287.7L144.008 287.325L144.005 287.333L144.002 287.341L144.936 287.7ZM134.436 287.7L133.508 287.327L133.505 287.334L133.502 287.341L134.436 287.7ZM138.936 276.5L139.863 276.873L138.217 275.805L138.936 276.5ZM131.436 284.25L130.717 283.555L130.71 283.562L131.436 284.25ZM122.336 284.25L121.346 284.391L121.347 284.399L121.348 284.406L122.336 284.25ZM121.236 276.55L122.225 276.409L121.7 272.728L120.308 276.176L121.236 276.55ZM116.736 287.7L115.808 287.326L115.805 287.333L115.802 287.341L116.736 287.7ZM107.163 288.075L120.663 254.675L118.808 253.925L105.308 287.325L107.163 288.075ZM120.669 254.659C120.784 254.361 120.914 254.213 121.021 254.136C121.123 254.062 121.275 254 121.536 254V252C120.929 252 120.348 252.155 119.85 252.514C119.357 252.87 119.021 253.373 118.802 253.941L120.669 254.659ZM121.536 254H128.686V252H121.536V254ZM128.686 254C128.919 254 128.966 254.051 128.943 254.034C128.938 254.03 128.933 254.025 128.928 254.02C128.924 254.015 128.922 254.011 128.923 254.012C128.924 254.014 128.937 254.04 128.948 254.106L130.923 253.794C130.843 253.283 130.611 252.789 130.153 252.441C129.713 252.107 129.185 252 128.686 252V254ZM128.941 254.058L130.791 271.158L132.78 270.942L130.93 253.842L128.941 254.058ZM130.837 271.366C130.875 271.479 130.921 271.608 130.979 271.722C131.005 271.775 131.057 271.872 131.139 271.971C131.176 272.016 131.446 272.35 131.936 272.35V270.35C132.187 270.35 132.374 270.444 132.477 270.513C132.579 270.581 132.644 270.653 132.676 270.691C132.737 270.765 132.766 270.825 132.767 270.828C132.775 270.842 132.763 270.821 132.734 270.734L130.837 271.366ZM131.936 272.35C132.215 272.35 132.432 272.248 132.563 272.17C132.698 272.089 132.809 271.991 132.893 271.907L131.478 270.493C131.463 270.509 131.481 270.486 131.534 270.455C131.58 270.427 131.723 270.35 131.936 270.35V272.35ZM132.927 271.871L148.527 254.621L147.044 253.279L131.444 270.529L132.927 271.871ZM148.512 254.638C148.972 254.151 149.375 254 149.736 254V252C148.696 252 147.799 252.482 147.06 253.262L148.512 254.638ZM149.736 254H157.636V252H149.736V254ZM157.636 254C157.703 254 157.751 254.004 157.783 254.009C157.815 254.014 157.824 254.018 157.816 254.015C157.807 254.012 157.779 254 157.742 253.971C157.704 253.941 157.665 253.9 157.634 253.849C157.568 253.742 157.575 253.663 157.574 253.68C157.574 253.689 157.572 253.714 157.56 253.76C157.549 253.806 157.531 253.866 157.502 253.941L159.369 254.659C159.56 254.162 159.729 253.438 159.337 252.801C158.922 252.126 158.168 252 157.636 252V254ZM157.508 253.925L144.008 287.325L145.863 288.075L159.363 254.675L157.508 253.925ZM144.002 287.341C143.89 287.632 143.76 287.778 143.648 287.857C143.539 287.934 143.371 288 143.086 288V290C143.701 290 144.291 289.85 144.798 289.493C145.303 289.138 145.648 288.634 145.869 288.059L144.002 287.341ZM143.086 288H135.236V290H143.086V288ZM135.236 288C135.168 288 135.12 287.996 135.088 287.991C135.056 287.986 135.047 287.982 135.055 287.985C135.064 287.988 135.092 288 135.129 288.029C135.167 288.059 135.206 288.1 135.237 288.151C135.303 288.258 135.296 288.337 135.297 288.32C135.297 288.311 135.3 288.286 135.311 288.24C135.322 288.194 135.34 288.134 135.369 288.059L133.502 287.341C133.311 287.838 133.142 288.562 133.534 289.199C133.949 289.874 134.703 290 135.236 290V288ZM135.363 288.073L139.863 276.873L138.008 276.127L133.508 287.327L135.363 288.073ZM138.217 275.805L130.717 283.555L132.154 284.945L139.654 277.195L138.217 275.805ZM130.71 283.562C130.249 284.049 129.846 284.2 129.486 284.2V286.2C130.525 286.2 131.422 285.718 132.161 284.938L130.71 283.562ZM129.486 284.2H123.636V286.2H129.486V284.2ZM123.636 284.2C123.377 284.2 123.312 284.145 123.326 284.155C123.335 284.162 123.343 284.172 123.345 284.176C123.346 284.177 123.333 284.156 123.323 284.094L121.348 284.406C121.43 284.929 121.675 285.426 122.146 285.77C122.593 286.097 123.128 286.2 123.636 286.2V284.2ZM123.326 284.109L122.225 276.409L120.246 276.691L121.346 284.391L123.326 284.109ZM120.308 276.176L115.808 287.326L117.663 288.074L122.163 276.924L120.308 276.176ZM115.802 287.341C115.693 287.626 115.563 287.77 115.446 287.85C115.329 287.93 115.145 288 114.836 288V290C115.46 290 116.059 289.853 116.575 289.5C117.092 289.147 117.445 288.641 117.669 288.059L115.802 287.341ZM114.836 288H106.986V290H114.836V288ZM106.986 288C106.924 288 106.882 287.996 106.856 287.992C106.83 287.988 106.828 287.985 106.841 287.99C106.856 287.996 106.889 288.012 106.929 288.044C106.97 288.078 107.009 288.123 107.039 288.175C107.101 288.282 107.091 288.357 107.093 288.333C107.094 288.321 107.097 288.293 107.109 288.245C107.12 288.197 107.139 288.135 107.169 288.059L105.302 287.341C105.113 287.832 104.942 288.542 105.307 289.175C105.707 289.868 106.459 290 106.986 290V288ZM165.073 287.7L165.981 288.119L165.992 288.097L166.001 288.074L165.073 287.7ZM178.523 254.35L179.451 254.724L179.454 254.717L179.457 254.709L178.523 254.35ZM207.373 255.3L206.55 255.867L206.556 255.876L207.373 255.3ZM207.323 261.5L208.252 261.871V261.871L207.323 261.5ZM206.223 264.25L205.295 263.879L205.292 263.886L206.223 264.25ZM204.823 266.8L203.996 266.238L203.991 266.245L204.823 266.8ZM202.623 269.15L202.014 268.357L201.175 269.003L201.867 269.804L202.623 269.15ZM203.773 272.15L202.779 272.255L203.773 272.15ZM202.973 276.6L203.9 276.975L203.904 276.965L202.973 276.6ZM201.373 280.55L200.447 280.175L200.446 280.175L201.373 280.55ZM196.823 287.15L197.403 287.965L197.406 287.963L196.823 287.15ZM177.973 287.7L178.881 288.119L178.893 288.094L178.903 288.069L177.973 287.7ZM180.673 280.9L179.76 280.494L179.751 280.512L179.744 280.531L180.673 280.9ZM192.173 277.6L191.241 277.238L191.24 277.241L192.173 277.6ZM192.523 276.7L191.607 276.299L191.599 276.318L191.591 276.338L192.523 276.7ZM192.573 275.3L193.468 274.853V274.853L192.573 275.3ZM183.523 273.85L184.448 274.231L184.45 274.225L183.523 273.85ZM185.973 267.8L185.049 267.419L185.047 267.425L185.973 267.8ZM195.623 264.95L194.713 264.536L194.712 264.54L195.623 264.95ZM195.873 264.4L196.784 264.814L196.798 264.783L196.81 264.751L195.873 264.4ZM195.873 263L196.768 262.553V262.553L195.873 263ZM185.623 262.85L184.71 262.444L184.703 262.459L184.696 262.475L185.623 262.85ZM175.573 287.7L174.646 287.325L174.643 287.333L174.64 287.341L175.573 287.7ZM166.001 288.074L179.451 254.724L177.596 253.976L164.146 287.326L166.001 288.074ZM179.457 254.709C179.571 254.411 179.702 254.263 179.809 254.186C179.911 254.112 180.063 254.05 180.323 254.05V252.05C179.717 252.05 179.136 252.205 178.638 252.564C178.145 252.92 177.809 253.423 177.59 253.991L179.457 254.709ZM180.323 254.05H202.273V252.05H180.323V254.05ZM202.273 254.05C204.421 254.05 205.758 254.717 206.55 255.867L208.197 254.733C206.922 252.883 204.86 252.05 202.273 252.05V254.05ZM206.556 255.876C207.298 256.929 207.414 258.581 206.395 261.129L208.252 261.871C209.366 259.086 209.515 256.604 208.191 254.724L206.556 255.876ZM206.395 261.129L205.295 263.879L207.152 264.621L208.252 261.871L206.395 261.129ZM205.292 263.886C205.027 264.563 204.602 265.346 203.996 266.238L205.651 267.361C206.312 266.387 206.82 265.471 207.155 264.614L205.292 263.886ZM203.991 266.245C203.453 267.053 202.795 267.757 202.014 268.357L203.233 269.943C204.185 269.21 204.994 268.347 205.655 267.355L203.991 266.245ZM201.867 269.804C202.33 270.341 202.66 271.128 202.779 272.255L204.768 272.045C204.62 270.639 204.183 269.426 203.38 268.496L201.867 269.804ZM202.779 272.255C202.89 273.308 202.674 274.624 202.042 276.235L203.904 276.965C204.606 275.176 204.924 273.525 204.768 272.045L202.779 272.255ZM202.047 276.225L200.447 280.175L202.3 280.925L203.9 276.975L202.047 276.225ZM200.446 280.175C199.214 283.223 197.79 285.226 196.241 286.337L197.406 287.963C199.39 286.54 200.999 284.144 202.301 280.925L200.446 280.175ZM196.244 286.335C194.743 287.403 192.542 288 189.523 288V290C192.771 290 195.438 289.363 197.403 287.965L196.244 286.335ZM189.523 288H178.723V290H189.523V288ZM178.723 288C178.65 288 178.597 287.996 178.562 287.99C178.526 287.985 178.515 287.98 178.523 287.983C178.531 287.986 178.563 287.999 178.604 288.032C178.647 288.066 178.692 288.114 178.727 288.175C178.801 288.303 178.787 288.398 178.789 288.383C178.79 288.376 178.793 288.351 178.808 288.304C178.823 288.257 178.846 288.196 178.881 288.119L177.065 287.281C176.845 287.758 176.606 288.501 176.995 289.175C177.406 289.887 178.202 290 178.723 290V288ZM178.903 288.069L181.603 281.269L179.744 280.531L177.044 287.331L178.903 288.069ZM181.587 281.306C181.736 280.971 181.894 280.791 182.025 280.695C182.147 280.607 182.298 280.55 182.523 280.55V278.55C181.915 278.55 181.342 278.718 180.846 279.08C180.361 279.434 180.011 279.929 179.76 280.494L181.587 281.306ZM182.523 280.55H189.473V278.55H182.523V280.55ZM189.473 280.55C190.297 280.55 191.061 280.341 191.709 279.873C192.352 279.409 192.805 278.744 193.107 277.959L191.24 277.241C191.042 277.756 190.795 278.066 190.538 278.252C190.286 278.434 189.95 278.55 189.473 278.55V280.55ZM193.105 277.962L193.455 277.062L191.591 276.338L191.241 277.238L193.105 277.962ZM193.44 277.101C193.753 276.384 193.838 275.594 193.468 274.853L191.679 275.747C191.709 275.806 191.76 275.95 191.607 276.299L193.44 277.101ZM193.468 274.853C193.283 274.484 193.003 274.177 192.627 273.972C192.262 273.773 191.862 273.7 191.473 273.7V275.7C191.618 275.7 191.668 275.727 191.67 275.728C191.67 275.728 191.667 275.726 191.665 275.724C191.663 275.722 191.669 275.727 191.679 275.747L193.468 274.853ZM191.473 273.7H184.073V275.7H191.473V273.7ZM184.073 273.7C183.993 273.7 183.994 273.689 184.042 273.706C184.1 273.728 184.227 273.792 184.326 273.944C184.422 274.094 184.428 274.23 184.425 274.281C184.422 274.322 184.415 274.311 184.448 274.231L182.599 273.469C182.456 273.817 182.271 274.451 182.646 275.031C183.029 275.622 183.695 275.7 184.073 275.7V273.7ZM184.45 274.225L186.9 268.175L185.047 267.425L182.597 273.475L184.45 274.225ZM186.898 268.181C186.961 268.029 187.015 267.986 187.026 267.979C187.032 267.975 187.064 267.95 187.173 267.95V265.95C186.716 265.95 186.265 266.067 185.87 266.346C185.482 266.622 185.22 267.005 185.049 267.419L186.898 268.181ZM187.173 267.95H192.873V265.95H187.173V267.95ZM192.873 267.95C193.682 267.95 194.43 267.727 195.074 267.259C195.708 266.798 196.184 266.141 196.535 265.36L194.712 264.54C194.463 265.093 194.18 265.436 193.898 265.641C193.626 265.839 193.298 265.95 192.873 265.95V267.95ZM196.534 265.364L196.784 264.814L194.963 263.986L194.713 264.536L196.534 265.364ZM196.81 264.751C197.079 264.033 197.124 263.266 196.768 262.553L194.979 263.447C195.023 263.534 195.068 263.7 194.937 264.049L196.81 264.751ZM196.768 262.553C196.351 261.718 195.548 261.4 194.723 261.4V263.4C194.894 263.4 194.962 263.431 194.973 263.437C194.978 263.439 194.976 263.438 194.972 263.435C194.969 263.431 194.972 263.433 194.979 263.447L196.768 262.553ZM194.723 261.4H186.323V263.4H194.723V261.4ZM186.323 261.4C186.004 261.4 185.666 261.473 185.358 261.671C185.049 261.87 184.841 262.149 184.71 262.444L186.537 263.256C186.539 263.251 186.515 263.305 186.439 263.354C186.365 263.402 186.309 263.4 186.323 263.4V261.4ZM184.696 262.475L174.646 287.325L176.5 288.075L186.55 263.225L184.696 262.475ZM174.64 287.341C174.531 287.626 174.401 287.77 174.284 287.85C174.166 287.93 173.983 288 173.673 288V290C174.297 290 174.897 289.853 175.413 289.5C175.93 289.147 176.283 288.641 176.507 288.059L174.64 287.341ZM173.673 288H165.823V290H173.673V288ZM165.823 288C165.75 288 165.697 287.996 165.662 287.99C165.626 287.985 165.615 287.98 165.623 287.983C165.631 287.986 165.663 287.999 165.704 288.032C165.747 288.066 165.792 288.114 165.827 288.175C165.901 288.303 165.887 288.398 165.889 288.383C165.89 288.376 165.893 288.351 165.908 288.304C165.923 288.257 165.946 288.196 165.981 288.119L164.165 287.281C163.945 287.758 163.706 288.501 164.095 289.175C164.506 289.887 165.302 290 165.823 290V288Z" fill="white" mask="url(#path-22-outside-1_1330_185)"/>
</g>
<g filter="url(#filter8_f_1330_185)">
<ellipse cx="109.5" cy="230.5" rx="42.5" ry="5.5" fill="#2C2A2A" fill-opacity="0.5"/>
</g>
<defs>
<filter id="filter0_i_1330_185" x="59.1881" y="142.741" width="86.6615" height="71.9323" filterUnits="userSpaceOnUse" color-interpolation-filters="sRGB">
<feFlood flood-opacity="0" result="BackgroundImageFix"/>
<feBlend mode="normal" in="SourceGraphic" in2="BackgroundImageFix" result="shape"/>
<feColorMatrix in="SourceAlpha" type="matrix" values="0 0 0 0 0 0 0 0 0 0 0 0 0 0 0 0 0 0 127 0" result="hardAlpha"/>
<feOffset dx="-13.8632" dy="5.04116"/>
<feGaussianBlur stdDeviation="6.30145"/>
<feComposite in2="hardAlpha" operator="arithmetic" k2="-1" k3="1"/>
<feColorMatrix type="matrix" values="0 0 0 0 0 0 0 0 0 0 0 0 0 0 0 0 0 0 0.25 0"/>
<feBlend mode="normal" in2="shape" result="effect1_innerShadow_1330_185"/>
</filter>
<filter id="filter1_i_1330_185" x="105.627" y="0" width="7.16602" height="16.7227" filterUnits="userSpaceOnUse" color-interpolation-filters="sRGB">
<feFlood flood-opacity="0" result="BackgroundImageFix"/>
<feBlend mode="normal" in="SourceGraphic" in2="BackgroundImageFix" result="shape"/>
<feColorMatrix in="SourceAlpha" type="matrix" values="0 0 0 0 0 0 0 0 0 0 0 0 0 0 0 0 0 0 127 0" result="hardAlpha"/>
<feOffset dx="-5.04116" dy="5.04116"/>
<feComposite in2="hardAlpha" operator="arithmetic" k2="-1" k3="1"/>
<feColorMatrix type="matrix" values="0 0 0 0 0.184314 0 0 0 0 0.0235294 0 0 0 0 0.482353 0 0 0 1 0"/>
<feBlend mode="normal" in2="shape" result="effect1_innerShadow_1330_185"/>
</filter>
<filter id="filter2_i_1330_185" x="179.295" y="74.0581" width="12.543" height="41.2095" filterUnits="userSpaceOnUse" color-interpolation-filters="sRGB">
<feFlood flood-opacity="0" result="BackgroundImageFix"/>
<feBlend mode="normal" in="SourceGraphic" in2="BackgroundImageFix" result="shape"/>
<feColorMatrix in="SourceAlpha" type="matrix" values="0 0 0 0 0 0 0 0 0 0 0 0 0 0 0 0 0 0 127 0" result="hardAlpha"/>
<feOffset dx="-5.25586" dy="-12.6175"/>
<feComposite in2="hardAlpha" operator="arithmetic" k2="-1" k3="1"/>
<feColorMatrix type="matrix" values="0 0 0 0 0.00784314 0 0 0 0 0 0 0 0 0 0.439216 0 0 0 1 0"/>
<feBlend mode="normal" in2="shape" result="effect1_innerShadow_1330_185"/>
</filter>
<filter id="filter3_i_1330_185" x="25.7397" y="72.7978" width="13.8033" height="42.4698" filterUnits="userSpaceOnUse" color-interpolation-filters="sRGB">
<feFlood flood-opacity="0" result="BackgroundImageFix"/>
<feBlend mode="normal" in="SourceGraphic" in2="BackgroundImageFix" result="shape"/>
<feColorMatrix in="SourceAlpha" type="matrix" values="0 0 0 0 0 0 0 0 0 0 0 0 0 0 0 0 0 0 127 0" result="hardAlpha"/>
<feOffset dx="-7.56174" dy="-7.56174"/>
<feGaussianBlur stdDeviation="0.630145"/>
<feComposite in2="hardAlpha" operator="arithmetic" k2="-1" k3="1"/>
<feColorMatrix type="matrix" values="0 0 0 0 0.00784314 0 0 0 0 0 0 0 0 0 0.439216 0 0 0 1 0"/>
<feBlend mode="normal" in2="shape" result="effect1_innerShadow_1330_185"/>
</filter>
<filter id="filter4_ii_1330_185" x="31.0427" y="6.17508" width="147.514" height="134.243" filterUnits="userSpaceOnUse" color-interpolation-filters="sRGB">
<feFlood flood-opacity="0" result="BackgroundImageFix"/>
<feBlend mode="normal" in="SourceGraphic" in2="BackgroundImageFix" result="shape"/>
<feColorMatrix in="SourceAlpha" type="matrix" values="0 0 0 0 0 0 0 0 0 0 0 0 0 0 0 0 0 0 127 0" result="hardAlpha"/>
<feOffset dx="26.4661" dy="26.4661"/>
<feGaussianBlur stdDeviation="0.630145"/>
<feComposite in2="hardAlpha" operator="arithmetic" k2="-1" k3="1"/>
<feColorMatrix type="matrix" values="0 0 0 0 1 0 0 0 0 1 0 0 0 0 1 0 0 0 0.5 0"/>
<feBlend mode="normal" in2="shape" result="effect1_innerShadow_1330_185"/>
<feColorMatrix in="SourceAlpha" type="matrix" values="0 0 0 0 0 0 0 0 0 0 0 0 0 0 0 0 0 0 127 0" result="hardAlpha"/>
<feOffset dx="-10.0823" dy="-7.56174"/>
<feGaussianBlur stdDeviation="7.56174"/>
<feComposite in2="hardAlpha" operator="arithmetic" k2="-1" k3="1"/>
<feColorMatrix type="matrix" values="0 0 0 0 0 0 0 0 0 0 0 0 0 0 0 0 0 0 0.25 0"/>
<feBlend mode="normal" in2="effect1_innerShadow_1330_185" result="effect2_innerShadow_1330_185"/>
</filter>
<filter id="filter5_i_1330_185" x="120.297" y="66.6278" width="37.2931" height="35.5006" filterUnits="userSpaceOnUse" color-interpolation-filters="sRGB">
<feFlood flood-opacity="0" result="BackgroundImageFix"/>
<feBlend mode="normal" in="SourceGraphic" in2="BackgroundImageFix" result="shape"/>
<feColorMatrix in="SourceAlpha" type="matrix" values="0 0 0 0 0 0 0 0 0 0 0 0 0 0 0 0 0 0 127 0" result="hardAlpha"/>
<feOffset dx="-6.30145" dy="-7.56174"/>
<feGaussianBlur stdDeviation="2.52058"/>
<feComposite in2="hardAlpha" operator="arithmetic" k2="-1" k3="1"/>
<feColorMatrix type="matrix" values="0 0 0 0 0.00784314 0 0 0 0 0.678431 0 0 0 0 0.588235 0 0 0 1 0"/>
<feBlend mode="normal" in2="shape" result="effect1_innerShadow_1330_185"/>
</filter>
<filter id="filter6_i_1330_185" x="55.2245" y="66.6278" width="37.2931" height="35.5006" filterUnits="userSpaceOnUse" color-interpolation-filters="sRGB">
<feFlood flood-opacity="0" result="BackgroundImageFix"/>
<feBlend mode="normal" in="SourceGraphic" in2="BackgroundImageFix" result="shape"/>
<feColorMatrix in="SourceAlpha" type="matrix" values="0 0 0 0 0 0 0 0 0 0 0 0 0 0 0 0 0 0 127 0" result="hardAlpha"/>
<feOffset dx="-6.30145" dy="-7.56174"/>
<feGaussianBlur stdDeviation="2.52058"/>
<feComposite in2="hardAlpha" operator="arithmetic" k2="-1" k3="1"/>
<feColorMatrix type="matrix" values="0 0 0 0 0.00784314 0 0 0 0 0.678431 0 0 0 0 0.588235 0 0 0 1 0"/>
<feBlend mode="normal" in2="shape" result="effect1_innerShadow_1330_185"/>
</filter>
<filter id="filter7_dddd_1330_185" x="1.40039" y="245" width="215.523" height="52" filterUnits="userSpaceOnUse" color-interpolation-filters="sRGB">
<feFlood flood-opacity="0" result="BackgroundImageFix"/>
<feColorMatrix in="SourceAlpha" type="matrix" values="0 0 0 0 0 0 0 0 0 0 0 0 0 0 0 0 0 0 127 0" result="hardAlpha"/>
<feOffset dy="4"/>
<feGaussianBlur stdDeviation="2"/>
<feComposite in2="hardAlpha" operator="out"/>
<feColorMatrix type="matrix" values="0 0 0 0 1 0 0 0 0 1 0 0 0 0 1 0 0 0 0.25 0"/>
<feBlend mode="normal" in2="BackgroundImageFix" result="effect1_dropShadow_1330_185"/>
<feColorMatrix in="SourceAlpha" type="matrix" values="0 0 0 0 0 0 0 0 0 0 0 0 0 0 0 0 0 0 127 0" result="hardAlpha"/>
<feOffset dy="-4"/>
<feGaussianBlur stdDeviation="2"/>
<feComposite in2="hardAlpha" operator="out"/>
<feColorMatrix type="matrix" values="0 0 0 0 1 0 0 0 0 1 0 0 0 0 1 0 0 0 0.25 0"/>
<feBlend mode="normal" in2="effect1_dropShadow_1330_185" result="effect2_dropShadow_1330_185"/>
<feColorMatrix in="SourceAlpha" type="matrix" values="0 0 0 0 0 0 0 0 0 0 0 0 0 0 0 0 0 0 127 0" result="hardAlpha"/>
<feOffset dx="-4"/>
<feGaussianBlur stdDeviation="2"/>
<feComposite in2="hardAlpha" operator="out"/>
<feColorMatrix type="matrix" values="0 0 0 0 1 0 0 0 0 1 0 0 0 0 1 0 0 0 0.25 0"/>
<feBlend mode="normal" in2="effect2_dropShadow_1330_185" result="effect3_dropShadow_1330_185"/>
<feColorMatrix in="SourceAlpha" type="matrix" values="0 0 0 0 0 0 0 0 0 0 0 0 0 0 0 0 0 0 127 0" result="hardAlpha"/>
<feOffset dx="4"/>
<feGaussianBlur stdDeviation="2"/>
<feComposite in2="hardAlpha" operator="out"/>
<feColorMatrix type="matrix" values="0 0 0 0 1 0 0 0 0 1 0 0 0 0 1 0 0 0 0.25 0"/>
<feBlend mode="normal" in2="effect3_dropShadow_1330_185" result="effect4_dropShadow_1330_185"/>
<feBlend mode="normal" in="SourceGraphic" in2="effect4_dropShadow_1330_185" result="shape"/>
</filter>
<filter id="filter8_f_1330_185" x="62" y="220" width="95" height="21" filterUnits="userSpaceOnUse" color-interpolation-filters="sRGB">
<feFlood flood-opacity="0" result="BackgroundImageFix"/>
<feBlend mode="normal" in="SourceGraphic" in2="BackgroundImageFix" result="shape"/>
<feGaussianBlur stdDeviation="2.5" result="effect1_foregroundBlur_1330_185"/>
</filter>
<radialGradient id="paint0_radial_1330_185" cx="0" cy="0" r="1" gradientUnits="userSpaceOnUse" gradientTransform="translate(162.748 193.598) rotate(-15.4614) scale(51.8694 59.0182)">
<stop stop-color="white"/>
<stop offset="1" stop-opacity="0"/>
</radialGradient>
<linearGradient id="paint1_linear_1330_185" x1="76.3619" y1="84.8083" x2="74.5701" y2="74.9538" gradientUnits="userSpaceOnUse">
<stop offset="0.525" stop-color="white" stop-opacity="0"/>
<stop offset="1" stop-color="white"/>
</linearGradient>
<linearGradient id="paint2_linear_1330_185" x1="0" y1="274.5" x2="219" y2="274.5" gradientUnits="userSpaceOnUse">
<stop stop-color="#FF26AC"/>
<stop offset="1" stop-color="#820050"/>
</linearGradient>
</defs>
</svg>
