<svg width="209" height="314" viewBox="0 0 209 314" fill="none" xmlns="http://www.w3.org/2000/svg">
<g filter="url(#filter0_ii_1330_186)">
<rect x="48.0977" y="16.6616" width="101.531" height="133.782" rx="31.5073" fill="#D8BCFF"/>
</g>
<rect x="48.0977" y="71.6079" width="101.531" height="43.0014" fill="#020070"/>
<line x1="74.1318" y1="8.30029" x2="74.1318" y2="22.7719" stroke="#FF7700" stroke-width="5.48226"/>
<g filter="url(#filter1_i_1330_186)">
<circle cx="74.1742" cy="5.48086" r="5.48086" fill="#E24A4C"/>
</g>
<ellipse cx="72.3575" cy="2.25636" rx="2.49118" ry="0.996473" transform="rotate(-35.4324 72.3575 2.25636)" fill="white" fill-opacity="0.54"/>
<line x1="121.558" y1="8.30029" x2="121.558" y2="22.7719" stroke="#FF7700" stroke-width="5.48226"/>
<g filter="url(#filter2_i_1330_186)">
<circle cx="121.483" cy="5.48086" r="5.48086" fill="#E24A4C"/>
</g>
<ellipse cx="119.664" cy="2.25636" rx="2.49118" ry="0.996473" transform="rotate(-35.4324 119.664 2.25636)" fill="white" fill-opacity="0.54"/>
<path d="M52.877 81.8806C52.877 77.8564 54.7487 74.5942 57.0576 74.5942H140.074C142.383 74.5942 144.255 77.8564 144.255 81.8806V103.74C144.255 107.764 142.383 111.026 140.074 111.026H57.0576C54.7487 111.026 52.877 107.764 52.877 103.74V81.8806Z" fill="#FFB825"/>
<path fill-rule="evenodd" clip-rule="evenodd" d="M140.074 80.8397H57.0576C56.7278 80.8397 56.4604 81.3057 56.4604 81.8806V103.74C56.4604 104.315 56.7278 104.781 57.0576 104.781H140.074C140.404 104.781 140.672 104.315 140.672 103.74V81.8806C140.672 81.3057 140.404 80.8397 140.074 80.8397ZM57.0576 74.5942C52.877 74.5942 52.877 74.5942 52.877 79.5142V103.74C52.877 111.026 52.877 111.026 57.0576 111.026H140.074C144.255 111.026 144.255 111.026 144.255 107.002V78.6184C144.255 74.5942 144.255 74.5942 140.074 74.5942H57.0576Z" fill="#EF5027"/>
<path fill-rule="evenodd" clip-rule="evenodd" d="M140.074 80.8397H57.0576C56.7278 80.8397 56.4604 81.3057 56.4604 81.8806V103.74C56.4604 104.315 56.7278 104.781 57.0576 104.781H140.074C140.404 104.781 140.672 104.315 140.672 103.74V81.8806C140.672 81.3057 140.404 80.8397 140.074 80.8397ZM57.0576 74.5942C52.877 74.5942 52.877 74.5942 52.877 79.5142V103.74C52.877 111.026 52.877 111.026 57.0576 111.026H140.074C144.255 111.026 144.255 111.026 144.255 107.002V78.6184C144.255 74.5942 144.255 74.5942 140.074 74.5942H57.0576Z" fill="url(#paint0_radial_1330_186)" fill-opacity="0.8"/>
<rect x="119.17" y="83.9624" width="5.37518" height="16.6545" rx="2.68759" fill="#4B08DE"/>
<rect x="72.5859" y="83.9624" width="5.37518" height="16.6545" rx="2.68759" fill="#4B08DE"/>
<path d="M75.5716 80.5669H87.5164L69.5991 105.054H57.6543L75.5716 80.5669Z" fill="white" fill-opacity="0.2"/>
<path d="M90.5012 80.5669H92.8902L74.973 105.054H72.584L90.5012 80.5669Z" fill="white" fill-opacity="0.2"/>
<g filter="url(#filter3_i_1330_186)">
<path d="M66.8255 165.101C65.5132 160.201 69.2049 155.391 74.2768 155.391H123.452C128.524 155.391 132.216 160.201 130.904 165.101L119.914 206.128C117.362 215.656 108.728 222.282 98.8646 222.282C89.0009 222.282 80.3672 215.656 77.8151 206.128L66.8255 165.101Z" fill="#DABFFF"/>
</g>
<g filter="url(#filter4_i_1330_186)">
<rect x="26" y="82.9556" width="10.7504" height="22.6952" rx="5.04116" fill="#05006D"/>
</g>
<g filter="url(#filter5_i_1330_186)">
<rect x="37.9434" y="79.9692" width="8.95863" height="28.6676" rx="4.47931" fill="#020070"/>
</g>
<g filter="url(#filter6_i_1330_186)">
<rect width="10.7504" height="22.6952" rx="5.04116" transform="matrix(-1 0 0 1 171.727 82.9556)" fill="#020070"/>
</g>
<g filter="url(#filter7_i_1330_186)">
<rect width="8.95863" height="28.6676" rx="4.47931" transform="matrix(-1 0 0 1 159.781 79.9692)" fill="#020070"/>
</g>
<line x1="37.9434" y1="105.074" x2="46.902" y2="105.074" stroke="#240C61" stroke-width="1.15387"/>
<line x1="37.9434" y1="100.893" x2="46.902" y2="100.893" stroke="#240C61" stroke-width="1.15387"/>
<line x1="37.9434" y1="96.7126" x2="46.902" y2="96.7126" stroke="#240C61" stroke-width="1.15387"/>
<line x1="37.9434" y1="92.532" x2="46.902" y2="92.532" stroke="#240C61" stroke-width="1.15387"/>
<line x1="37.9434" y1="88.3513" x2="46.902" y2="88.3513" stroke="#240C61" stroke-width="1.15387"/>
<line x1="37.9434" y1="84.1701" x2="46.902" y2="84.1701" stroke="#240C61" stroke-width="1.15387"/>
<line x1="150.824" y1="105.074" x2="159.783" y2="105.074" stroke="#1E0259" stroke-width="1.15387"/>
<line x1="150.824" y1="100.893" x2="159.783" y2="100.893" stroke="#1E0259" stroke-width="1.15387"/>
<line x1="150.824" y1="96.7126" x2="159.783" y2="96.7126" stroke="#1E0259" stroke-width="1.15387"/>
<line x1="150.824" y1="92.532" x2="159.783" y2="92.532" stroke="#1E0259" stroke-width="1.15387"/>
<line x1="150.824" y1="88.3513" x2="159.783" y2="88.3513" stroke="#1E0259" stroke-width="1.15387"/>
<line x1="150.824" y1="84.1701" x2="159.783" y2="84.1701" stroke="#1E0259" stroke-width="1.15387"/>
<path d="M92.293 131.93H105.432C105.432 135.558 102.491 138.499 98.8626 138.499C95.2343 138.499 92.293 135.558 92.293 131.93Z" fill="#EF5027"/>
<g filter="url(#filter8_dddd_1330_186)">
<mask id="path-33-outside-1_1330_186" maskUnits="userSpaceOnUse" x="8" y="262" width="194" height="38" fill="black">
<rect fill="white" x="8" y="262" width="194" height="38"/>
<path d="M10.7 272.45C9.83333 272.45 9.56667 272.017 9.9 271.15L12.65 264.35C13.05 263.45 13.6667 263 14.5 263H45.9C46.8333 263 47.1 263.45 46.7 264.35L43.95 271.15C43.6167 272.017 43 272.45 42.1 272.45H10.7ZM29.45 274.6C30.3167 274.6 30.5833 275.033 30.25 275.9L21.45 297.65C21.05 298.55 20.4333 299 19.6 299H11.75C10.8167 299 10.55 298.55 10.95 297.65L19.75 275.9C20.0833 275.033 20.7 274.6 21.6 274.6H29.45ZM55.4477 278.3C55.8477 277.4 56.4643 276.95 57.2977 276.95H69.8977C70.7977 276.95 71.0477 277.4 70.6477 278.3L68.4977 283.7C68.0977 284.6 67.481 285.05 66.6477 285.05H54.0477C53.1477 285.05 52.8977 284.6 53.2977 283.7L55.4477 278.3ZM66.9977 289.55C67.8643 289.55 68.131 289.983 67.7977 290.85L65.0477 297.65C64.6477 298.55 64.031 299 63.1977 299H35.6477C34.7477 299 34.4977 298.55 34.8977 297.65L48.3477 264.35C48.7477 263.45 49.3643 263 50.1977 263H77.7477C78.6477 263 78.8977 263.45 78.4977 264.35L75.7477 271.15C75.4143 272.017 74.8143 272.45 73.9477 272.45H55.9977C55.631 272.45 55.3977 272.617 55.2977 272.95L48.7477 289.05C48.6477 289.383 48.7477 289.55 49.0477 289.55H66.9977ZM65.2191 297.55L92.8191 264.1C93.4191 263.367 94.1025 263 94.8691 263H102.769C103.536 263 103.919 263.367 103.919 264.1L104.519 297.55C104.519 298.517 104.002 299 102.969 299H95.0691C94.2691 299 93.8858 298.633 93.9191 297.9V293.4C93.9191 293.1 93.7525 292.95 93.4191 292.95H85.0191C83.9525 292.95 83.8191 292.467 84.6191 291.5L89.0191 285.95C89.3858 285.483 89.6858 285.2 89.9191 285.1C90.1858 284.967 90.5858 284.9 91.1191 284.9H93.4691C93.8025 284.9 93.9691 284.75 93.9691 284.45L93.9191 276.8L77.1191 297.9C76.7525 298.367 76.4358 298.667 76.1691 298.8C75.9358 298.933 75.5691 299 75.0691 299H65.5691C64.5358 299 64.4191 298.517 65.2191 297.55ZM106.236 297.7L119.736 264.3C120.069 263.433 120.669 263 121.536 263H128.686C129.419 263 129.836 263.317 129.936 263.95L131.786 281.05C131.852 281.25 131.902 281.35 131.936 281.35C132.002 281.35 132.086 281.3 132.186 281.2L147.786 263.95C148.386 263.317 149.036 263 149.736 263H157.636C158.502 263 158.769 263.433 158.436 264.3L144.936 297.7C144.602 298.567 143.986 299 143.086 299H135.236C134.369 299 134.102 298.567 134.436 297.7L138.936 286.5L131.436 294.25C130.836 294.883 130.186 295.2 129.486 295.2H123.636C122.869 295.2 122.436 294.883 122.336 294.25L121.236 286.55L116.736 297.7C116.402 298.567 115.769 299 114.836 299H106.986C106.152 299 105.902 298.567 106.236 297.7ZM160.873 297.55L188.473 264.1C189.073 263.367 189.757 263 190.523 263H198.423C199.19 263 199.573 263.367 199.573 264.1L200.173 297.55C200.173 298.517 199.657 299 198.623 299H190.723C189.923 299 189.54 298.633 189.573 297.9V293.4C189.573 293.1 189.407 292.95 189.073 292.95H180.673C179.607 292.95 179.473 292.467 180.273 291.5L184.673 285.95C185.04 285.483 185.34 285.2 185.573 285.1C185.84 284.967 186.24 284.9 186.773 284.9H189.123C189.457 284.9 189.623 284.75 189.623 284.45L189.573 276.8L172.773 297.9C172.407 298.367 172.09 298.667 171.823 298.8C171.59 298.933 171.223 299 170.723 299H161.223C160.19 299 160.073 298.517 160.873 297.55Z"/>
</mask>
<path d="M10.7 272.45C9.83333 272.45 9.56667 272.017 9.9 271.15L12.65 264.35C13.05 263.45 13.6667 263 14.5 263H45.9C46.8333 263 47.1 263.45 46.7 264.35L43.95 271.15C43.6167 272.017 43 272.45 42.1 272.45H10.7ZM29.45 274.6C30.3167 274.6 30.5833 275.033 30.25 275.9L21.45 297.65C21.05 298.55 20.4333 299 19.6 299H11.75C10.8167 299 10.55 298.55 10.95 297.65L19.75 275.9C20.0833 275.033 20.7 274.6 21.6 274.6H29.45ZM55.4477 278.3C55.8477 277.4 56.4643 276.95 57.2977 276.95H69.8977C70.7977 276.95 71.0477 277.4 70.6477 278.3L68.4977 283.7C68.0977 284.6 67.481 285.05 66.6477 285.05H54.0477C53.1477 285.05 52.8977 284.6 53.2977 283.7L55.4477 278.3ZM66.9977 289.55C67.8643 289.55 68.131 289.983 67.7977 290.85L65.0477 297.65C64.6477 298.55 64.031 299 63.1977 299H35.6477C34.7477 299 34.4977 298.55 34.8977 297.65L48.3477 264.35C48.7477 263.45 49.3643 263 50.1977 263H77.7477C78.6477 263 78.8977 263.45 78.4977 264.35L75.7477 271.15C75.4143 272.017 74.8143 272.45 73.9477 272.45H55.9977C55.631 272.45 55.3977 272.617 55.2977 272.95L48.7477 289.05C48.6477 289.383 48.7477 289.55 49.0477 289.55H66.9977ZM65.2191 297.55L92.8191 264.1C93.4191 263.367 94.1025 263 94.8691 263H102.769C103.536 263 103.919 263.367 103.919 264.1L104.519 297.55C104.519 298.517 104.002 299 102.969 299H95.0691C94.2691 299 93.8858 298.633 93.9191 297.9V293.4C93.9191 293.1 93.7525 292.95 93.4191 292.95H85.0191C83.9525 292.95 83.8191 292.467 84.6191 291.5L89.0191 285.95C89.3858 285.483 89.6858 285.2 89.9191 285.1C90.1858 284.967 90.5858 284.9 91.1191 284.9H93.4691C93.8025 284.9 93.9691 284.75 93.9691 284.45L93.9191 276.8L77.1191 297.9C76.7525 298.367 76.4358 298.667 76.1691 298.8C75.9358 298.933 75.5691 299 75.0691 299H65.5691C64.5358 299 64.4191 298.517 65.2191 297.55ZM106.236 297.7L119.736 264.3C120.069 263.433 120.669 263 121.536 263H128.686C129.419 263 129.836 263.317 129.936 263.95L131.786 281.05C131.852 281.25 131.902 281.35 131.936 281.35C132.002 281.35 132.086 281.3 132.186 281.2L147.786 263.95C148.386 263.317 149.036 263 149.736 263H157.636C158.502 263 158.769 263.433 158.436 264.3L144.936 297.7C144.602 298.567 143.986 299 143.086 299H135.236C134.369 299 134.102 298.567 134.436 297.7L138.936 286.5L131.436 294.25C130.836 294.883 130.186 295.2 129.486 295.2H123.636C122.869 295.2 122.436 294.883 122.336 294.25L121.236 286.55L116.736 297.7C116.402 298.567 115.769 299 114.836 299H106.986C106.152 299 105.902 298.567 106.236 297.7ZM160.873 297.55L188.473 264.1C189.073 263.367 189.757 263 190.523 263H198.423C199.19 263 199.573 263.367 199.573 264.1L200.173 297.55C200.173 298.517 199.657 299 198.623 299H190.723C189.923 299 189.54 298.633 189.573 297.9V293.4C189.573 293.1 189.407 292.95 189.073 292.95H180.673C179.607 292.95 179.473 292.467 180.273 291.5L184.673 285.95C185.04 285.483 185.34 285.2 185.573 285.1C185.84 284.967 186.24 284.9 186.773 284.9H189.123C189.457 284.9 189.623 284.75 189.623 284.45L189.573 276.8L172.773 297.9C172.407 298.367 172.09 298.667 171.823 298.8C171.59 298.933 171.223 299 170.723 299H161.223C160.19 299 160.073 298.517 160.873 297.55Z" fill="#FFB825"/>
<path d="M10.7 272.45C9.83333 272.45 9.56667 272.017 9.9 271.15L12.65 264.35C13.05 263.45 13.6667 263 14.5 263H45.9C46.8333 263 47.1 263.45 46.7 264.35L43.95 271.15C43.6167 272.017 43 272.45 42.1 272.45H10.7ZM29.45 274.6C30.3167 274.6 30.5833 275.033 30.25 275.9L21.45 297.65C21.05 298.55 20.4333 299 19.6 299H11.75C10.8167 299 10.55 298.55 10.95 297.65L19.75 275.9C20.0833 275.033 20.7 274.6 21.6 274.6H29.45ZM55.4477 278.3C55.8477 277.4 56.4643 276.95 57.2977 276.95H69.8977C70.7977 276.95 71.0477 277.4 70.6477 278.3L68.4977 283.7C68.0977 284.6 67.481 285.05 66.6477 285.05H54.0477C53.1477 285.05 52.8977 284.6 53.2977 283.7L55.4477 278.3ZM66.9977 289.55C67.8643 289.55 68.131 289.983 67.7977 290.85L65.0477 297.65C64.6477 298.55 64.031 299 63.1977 299H35.6477C34.7477 299 34.4977 298.55 34.8977 297.65L48.3477 264.35C48.7477 263.45 49.3643 263 50.1977 263H77.7477C78.6477 263 78.8977 263.45 78.4977 264.35L75.7477 271.15C75.4143 272.017 74.8143 272.45 73.9477 272.45H55.9977C55.631 272.45 55.3977 272.617 55.2977 272.95L48.7477 289.05C48.6477 289.383 48.7477 289.55 49.0477 289.55H66.9977ZM65.2191 297.55L92.8191 264.1C93.4191 263.367 94.1025 263 94.8691 263H102.769C103.536 263 103.919 263.367 103.919 264.1L104.519 297.55C104.519 298.517 104.002 299 102.969 299H95.0691C94.2691 299 93.8858 298.633 93.9191 297.9V293.4C93.9191 293.1 93.7525 292.95 93.4191 292.95H85.0191C83.9525 292.95 83.8191 292.467 84.6191 291.5L89.0191 285.95C89.3858 285.483 89.6858 285.2 89.9191 285.1C90.1858 284.967 90.5858 284.9 91.1191 284.9H93.4691C93.8025 284.9 93.9691 284.75 93.9691 284.45L93.9191 276.8L77.1191 297.9C76.7525 298.367 76.4358 298.667 76.1691 298.8C75.9358 298.933 75.5691 299 75.0691 299H65.5691C64.5358 299 64.4191 298.517 65.2191 297.55ZM106.236 297.7L119.736 264.3C120.069 263.433 120.669 263 121.536 263H128.686C129.419 263 129.836 263.317 129.936 263.95L131.786 281.05C131.852 281.25 131.902 281.35 131.936 281.35C132.002 281.35 132.086 281.3 132.186 281.2L147.786 263.95C148.386 263.317 149.036 263 149.736 263H157.636C158.502 263 158.769 263.433 158.436 264.3L144.936 297.7C144.602 298.567 143.986 299 143.086 299H135.236C134.369 299 134.102 298.567 134.436 297.7L138.936 286.5L131.436 294.25C130.836 294.883 130.186 295.2 129.486 295.2H123.636C122.869 295.2 122.436 294.883 122.336 294.25L121.236 286.55L116.736 297.7C116.402 298.567 115.769 299 114.836 299H106.986C106.152 299 105.902 298.567 106.236 297.7ZM160.873 297.55L188.473 264.1C189.073 263.367 189.757 263 190.523 263H198.423C199.19 263 199.573 263.367 199.573 264.1L200.173 297.55C200.173 298.517 199.657 299 198.623 299H190.723C189.923 299 189.54 298.633 189.573 297.9V293.4C189.573 293.1 189.407 292.95 189.073 292.95H180.673C179.607 292.95 179.473 292.467 180.273 291.5L184.673 285.95C185.04 285.483 185.34 285.2 185.573 285.1C185.84 284.967 186.24 284.9 186.773 284.9H189.123C189.457 284.9 189.623 284.75 189.623 284.45L189.573 276.8L172.773 297.9C172.407 298.367 172.09 298.667 171.823 298.8C171.59 298.933 171.223 299 170.723 299H161.223C160.19 299 160.073 298.517 160.873 297.55Z" fill="url(#paint1_linear_1330_186)" fill-opacity="0.5"/>
<path d="M9.9 271.15L8.97294 270.775L8.96973 270.783L8.96665 270.791L9.9 271.15ZM12.65 264.35L11.7362 263.944L11.7293 263.959L11.7229 263.975L12.65 264.35ZM46.7 264.35L45.7862 263.944L45.7793 263.959L45.7729 263.975L46.7 264.35ZM43.95 271.15L43.0229 270.775L43.0197 270.783L43.0167 270.791L43.95 271.15ZM30.25 275.9L31.177 276.275L31.1802 276.267L31.1833 276.259L30.25 275.9ZM21.45 297.65L22.3638 298.056L22.3707 298.041L22.377 298.025L21.45 297.65ZM10.95 297.65L11.8638 298.056L11.8707 298.041L11.877 298.025L10.95 297.65ZM19.75 275.9L20.677 276.275L20.6802 276.267L20.6833 276.259L19.75 275.9ZM10.7 271.45C10.6323 271.45 10.5842 271.446 10.5526 271.441C10.5207 271.436 10.5119 271.432 10.5196 271.435C10.5281 271.438 10.5564 271.45 10.5932 271.479C10.6314 271.509 10.6701 271.55 10.7017 271.601C10.7673 271.708 10.7603 271.787 10.7612 271.77C10.7616 271.761 10.764 271.736 10.7751 271.69C10.7862 271.644 10.8044 271.584 10.8333 271.509L8.96665 270.791C8.77551 271.288 8.60632 272.012 8.99834 272.649C9.41394 273.324 10.1676 273.45 10.7 273.45V271.45ZM10.8271 271.525L13.5771 264.725L11.7229 263.975L8.97294 270.775L10.8271 271.525ZM13.5638 264.756C13.7129 264.421 13.8704 264.241 14.002 264.145C14.1233 264.057 14.2748 264 14.5 264V262C13.8919 262 13.3184 262.168 12.823 262.53C12.338 262.884 11.9871 263.379 11.7362 263.944L13.5638 264.756ZM14.5 264H45.9V262H14.5V264ZM45.9 264C45.9776 264 46.0343 264.005 46.0736 264.01C46.1131 264.016 46.1276 264.022 46.1239 264.021C46.1195 264.019 46.092 264.008 46.0543 263.979C46.0148 263.948 45.9733 263.904 45.9397 263.847C45.9065 263.791 45.8908 263.739 45.8842 263.702C45.878 263.668 45.8808 263.651 45.8798 263.661C45.8789 263.671 45.8748 263.7 45.86 263.75C45.8453 263.799 45.8219 263.863 45.7862 263.944L47.6138 264.756C47.8357 264.257 48.06 263.502 47.6603 262.828C47.2403 262.119 46.4426 262 45.9 262V264ZM45.7729 263.975L43.0229 270.775L44.8771 271.525L47.6271 264.725L45.7729 263.975ZM43.0167 270.791C42.9046 271.082 42.7743 271.228 42.6626 271.307C42.5532 271.384 42.385 271.45 42.1 271.45V273.45C42.715 273.45 43.3052 273.3 43.8124 272.943C44.3174 272.588 44.6621 272.084 44.8834 271.509L43.0167 270.791ZM42.1 271.45H10.7V273.45H42.1V271.45ZM29.45 275.6C29.5177 275.6 29.5658 275.604 29.5974 275.609C29.6293 275.614 29.6381 275.618 29.6304 275.615C29.6219 275.612 29.5936 275.6 29.5568 275.571C29.5186 275.541 29.4799 275.5 29.4483 275.449C29.3827 275.342 29.3897 275.263 29.3888 275.28C29.3884 275.289 29.386 275.314 29.3749 275.36C29.3638 275.406 29.3456 275.466 29.3167 275.541L31.1833 276.259C31.3745 275.762 31.5437 275.038 31.1517 274.401C30.7361 273.726 29.9824 273.6 29.45 273.6V275.6ZM29.323 275.525L20.523 297.275L22.377 298.025L31.177 276.275L29.323 275.525ZM20.5362 297.244C20.3871 297.579 20.2296 297.759 20.098 297.855C19.9767 297.943 19.8252 298 19.6 298V300C20.2081 300 20.7817 299.832 21.277 299.47C21.762 299.116 22.1129 298.621 22.3638 298.056L20.5362 297.244ZM19.6 298H11.75V300H19.6V298ZM11.75 298C11.6725 298 11.6157 297.995 11.5764 297.99C11.5369 297.984 11.5224 297.978 11.5261 297.979C11.5305 297.981 11.5581 297.992 11.5957 298.021C11.6352 298.052 11.6767 298.096 11.7103 298.153C11.7435 298.209 11.7592 298.261 11.7658 298.298C11.772 298.332 11.7692 298.349 11.7702 298.339C11.7711 298.329 11.7752 298.3 11.79 298.25C11.8047 298.201 11.8281 298.137 11.8638 298.056L10.0362 297.244C9.81431 297.743 9.58997 298.498 9.98971 299.172C10.4097 299.881 11.2074 300 11.75 300V298ZM11.877 298.025L20.677 276.275L18.823 275.525L10.023 297.275L11.877 298.025ZM20.6833 276.259C20.7954 275.968 20.9257 275.822 21.0374 275.743C21.1468 275.666 21.315 275.6 21.6 275.6V273.6C20.985 273.6 20.3948 273.75 19.8876 274.107C19.3826 274.462 19.0379 274.966 18.8167 275.541L20.6833 276.259ZM21.6 275.6H29.45V273.6H21.6V275.6ZM55.4477 278.3L54.5338 277.894L54.5259 277.912L54.5186 277.93L55.4477 278.3ZM70.6477 278.3L69.7338 277.894L69.7259 277.912L69.7186 277.93L70.6477 278.3ZM68.4977 283.7L69.4115 284.106L69.4195 284.088L69.4267 284.07L68.4977 283.7ZM53.2977 283.7L54.2115 284.106L54.2195 284.088L54.2267 284.07L53.2977 283.7ZM67.7977 290.85L68.7247 291.225L68.7279 291.217L68.731 291.209L67.7977 290.85ZM65.0477 297.65L65.9615 298.056L65.9684 298.041L65.9747 298.025L65.0477 297.65ZM34.8977 297.65L35.8115 298.056L35.8184 298.04L35.8249 298.025L34.8977 297.65ZM48.3477 264.35L47.4338 263.944L47.4269 263.96L47.4204 263.975L48.3477 264.35ZM78.4977 264.35L77.5838 263.944L77.577 263.959L77.5706 263.975L78.4977 264.35ZM75.7477 271.15L74.8206 270.775L74.8174 270.783L74.8143 270.791L75.7477 271.15ZM55.2977 272.95L56.2239 273.327L56.2418 273.283L56.2555 273.237L55.2977 272.95ZM48.7477 289.05L47.8214 288.673L47.8035 288.717L47.7898 288.763L48.7477 289.05ZM56.3615 278.706C56.5105 278.371 56.668 278.191 56.7996 278.095C56.921 278.007 57.0724 277.95 57.2977 277.95V275.95C56.6896 275.95 56.116 276.118 55.6207 276.48C55.1356 276.834 54.7848 277.329 54.5338 277.894L56.3615 278.706ZM57.2977 277.95H69.8977V275.95H57.2977V277.95ZM69.8977 277.95C69.9696 277.95 70.0205 277.955 70.0539 277.96C70.0875 277.965 70.0959 277.969 70.0864 277.966C70.0761 277.962 70.0436 277.947 70.0027 277.914C69.96 277.879 69.9183 277.831 69.886 277.773C69.8199 277.654 69.835 277.571 69.8319 277.599C69.8305 277.612 69.8254 277.643 69.8098 277.695C69.7942 277.746 69.7701 277.812 69.7338 277.894L71.5615 278.706C71.781 278.212 72.0062 277.471 71.6343 276.802C71.2302 276.074 70.433 275.95 69.8977 275.95V277.95ZM69.7186 277.93L67.5686 283.33L69.4267 284.07L71.5767 278.67L69.7186 277.93ZM67.5838 283.294C67.4348 283.629 67.2773 283.809 67.1457 283.905C67.0243 283.993 66.8729 284.05 66.6477 284.05V286.05C67.2558 286.05 67.8293 285.882 68.3246 285.52C68.8097 285.166 69.1605 284.671 69.4115 284.106L67.5838 283.294ZM66.6477 284.05H54.0477V286.05H66.6477V284.05ZM54.0477 284.05C53.9757 284.05 53.9248 284.045 53.8914 284.04C53.8578 284.035 53.8495 284.031 53.8589 284.034C53.8692 284.038 53.9017 284.053 53.9426 284.086C53.9853 284.121 54.027 284.169 54.0593 284.227C54.1254 284.346 54.1103 284.429 54.1134 284.401C54.1148 284.388 54.1199 284.357 54.1355 284.305C54.1511 284.254 54.1752 284.188 54.2115 284.106L52.3838 283.294C52.1643 283.788 51.9391 284.529 52.311 285.198C52.7151 285.926 53.5123 286.05 54.0477 286.05V284.05ZM54.2267 284.07L56.3767 278.67L54.5186 277.93L52.3686 283.33L54.2267 284.07ZM66.9977 290.55C67.0653 290.55 67.1134 290.554 67.1451 290.559C67.1769 290.564 67.1857 290.568 67.178 290.565C67.1696 290.562 67.1413 290.55 67.1045 290.521C67.0663 290.491 67.0275 290.45 66.996 290.399C66.9304 290.292 66.9373 290.213 66.9365 290.23C66.936 290.239 66.9336 290.264 66.9225 290.31C66.9115 290.356 66.8932 290.416 66.8643 290.491L68.731 291.209C68.9221 290.712 69.0913 289.988 68.6993 289.351C68.2837 288.676 67.5301 288.55 66.9977 288.55V290.55ZM66.8706 290.475L64.1206 297.275L65.9747 298.025L68.7247 291.225L66.8706 290.475ZM64.1338 297.244C63.9848 297.579 63.8273 297.759 63.6957 297.855C63.5743 297.943 63.4229 298 63.1977 298V300C63.8058 300 64.3793 299.832 64.8746 299.47C65.3597 299.116 65.7105 298.621 65.9615 298.056L64.1338 297.244ZM63.1977 298H35.6477V300H63.1977V298ZM35.6477 298C35.5757 298 35.5248 297.995 35.4914 297.99C35.4578 297.985 35.4495 297.981 35.4589 297.984C35.4692 297.988 35.5017 298.003 35.5426 298.036C35.5853 298.071 35.627 298.119 35.6593 298.177C35.7254 298.296 35.7103 298.379 35.7134 298.351C35.7148 298.338 35.7199 298.307 35.7355 298.255C35.7511 298.204 35.7752 298.138 35.8115 298.056L33.9838 297.244C33.7643 297.738 33.5391 298.479 33.911 299.148C34.3151 299.876 35.1123 300 35.6477 300V298ZM35.8249 298.025L49.2749 264.725L47.4204 263.975L33.9704 297.275L35.8249 298.025ZM49.2615 264.756C49.4105 264.421 49.568 264.241 49.6996 264.145C49.821 264.057 49.9724 264 50.1977 264V262C49.5896 262 49.016 262.168 48.5207 262.53C48.0356 262.884 47.6848 263.379 47.4338 263.944L49.2615 264.756ZM50.1977 264H77.7477V262H50.1977V264ZM77.7477 264C77.8196 264 77.8705 264.005 77.9039 264.01C77.9375 264.015 77.9459 264.019 77.9364 264.016C77.9261 264.012 77.8936 263.997 77.8527 263.964C77.81 263.929 77.7683 263.881 77.736 263.823C77.6699 263.704 77.685 263.621 77.6819 263.649C77.6805 263.662 77.6755 263.693 77.6598 263.745C77.6442 263.796 77.6201 263.862 77.5838 263.944L79.4115 264.756C79.631 264.262 79.8562 263.521 79.4843 262.852C79.0802 262.124 78.283 262 77.7477 262V264ZM77.5706 263.975L74.8206 270.775L76.6747 271.525L79.4247 264.725L77.5706 263.975ZM74.8143 270.791C74.6996 271.089 74.5691 271.237 74.4622 271.314C74.3604 271.388 74.2079 271.45 73.9477 271.45V273.45C74.5541 273.45 75.135 273.295 75.6331 272.936C76.1262 272.58 76.4624 272.077 76.681 271.509L74.8143 270.791ZM73.9477 271.45H55.9977V273.45H73.9477V271.45ZM55.9977 271.45C55.6641 271.45 55.2946 271.527 54.9664 271.761C54.6333 271.999 54.4395 272.33 54.3398 272.663L56.2555 273.237C56.2558 273.236 56.2286 273.317 56.1289 273.389C56.0341 273.456 55.9646 273.45 55.9977 273.45V271.45ZM54.3714 272.573L47.8214 288.673L49.6739 289.427L56.2239 273.327L54.3714 272.573ZM47.7898 288.763C47.7183 289.001 47.6154 289.482 47.8902 289.939C48.2055 290.465 48.75 290.55 49.0477 290.55V288.55C49.0573 288.55 49.1357 288.55 49.2448 288.596C49.3683 288.647 49.5077 288.748 49.6052 288.911C49.6965 289.063 49.7102 289.201 49.7102 289.269C49.7102 289.333 49.6984 289.361 49.7055 289.337L47.7898 288.763ZM49.0477 290.55H66.9977V288.55H49.0477V290.55ZM65.2191 297.55L65.9895 298.188L65.9905 298.186L65.2191 297.55ZM92.8191 264.1L93.5905 264.736L93.5931 264.733L92.8191 264.1ZM103.919 264.1H102.919V264.109L102.919 264.118L103.919 264.1ZM104.519 297.55H105.519V297.541L105.519 297.532L104.519 297.55ZM93.9191 297.9L94.9181 297.945L94.9191 297.923V297.9H93.9191ZM84.6191 291.5L85.3895 292.138L85.3962 292.129L85.4028 292.121L84.6191 291.5ZM89.0191 285.95L89.8028 286.571L89.8055 286.568L89.0191 285.95ZM89.9191 285.1L90.3131 286.019L90.3401 286.008L90.3664 285.994L89.9191 285.1ZM93.9691 284.45H94.9692L94.9691 284.443L93.9691 284.45ZM93.9191 276.8L94.9191 276.793L94.9006 273.962L93.1368 276.177L93.9191 276.8ZM77.1191 297.9L76.3368 297.277L76.3328 297.282L77.1191 297.9ZM76.1691 298.8L75.7219 297.906L75.6971 297.918L75.673 297.932L76.1691 298.8ZM65.9905 298.186L93.5905 264.736L92.0478 263.464L64.4478 296.914L65.9905 298.186ZM93.5931 264.733C94.0523 264.172 94.4722 264 94.8691 264V262C93.7328 262 92.786 262.561 92.0452 263.467L93.5931 264.733ZM94.8691 264H102.769V262H94.8691V264ZM102.769 264C102.884 264 102.945 264.014 102.968 264.021C102.987 264.027 102.969 264.025 102.94 263.998C102.911 263.97 102.902 263.945 102.903 263.948C102.906 263.956 102.919 264.001 102.919 264.1H104.919C104.919 263.568 104.778 262.987 104.323 262.552C103.876 262.125 103.296 262 102.769 262V264ZM102.919 264.118L103.519 297.568L105.519 297.532L104.919 264.082L102.919 264.118ZM103.519 297.55C103.519 297.705 103.498 297.799 103.48 297.849C103.464 297.893 103.451 297.905 103.448 297.907C103.445 297.91 103.348 298 102.969 298V300C103.624 300 104.301 299.848 104.815 299.368C105.341 298.876 105.519 298.205 105.519 297.55H103.519ZM102.969 298H95.0691V300H102.969V298ZM95.0691 298C94.9419 298 94.8721 297.985 94.8432 297.976C94.8186 297.968 94.8394 297.97 94.8729 298.002C94.8885 298.017 94.9017 298.034 94.9115 298.05C94.9211 298.066 94.9247 298.076 94.9252 298.078C94.9255 298.079 94.9137 298.041 94.9181 297.945L92.9202 297.855C92.8956 298.394 93.0191 298.997 93.4904 299.448C93.9438 299.881 94.5398 300 95.0691 300V298ZM94.9191 297.9V293.4H92.9191V297.9H94.9191ZM94.9191 293.4C94.9191 293.067 94.8218 292.642 94.4631 292.319C94.1244 292.014 93.7155 291.95 93.4191 291.95V293.95C93.4562 293.95 93.2972 293.961 93.1252 293.806C92.9331 293.633 92.9191 293.433 92.9191 293.4H94.9191ZM93.4191 291.95H85.0191V293.95H93.4191V291.95ZM85.0191 291.95C84.9218 291.95 84.8525 291.944 84.8064 291.938C84.7589 291.931 84.7505 291.925 84.7678 291.932C84.7856 291.939 84.8467 291.967 84.9159 292.035C84.9909 292.109 85.0519 292.208 85.0831 292.322C85.1126 292.428 85.1055 292.51 85.0995 292.547C85.0938 292.581 85.0877 292.585 85.1027 292.552C85.1352 292.481 85.2172 292.346 85.3895 292.138L83.8487 290.862C83.6211 291.138 83.4198 291.425 83.2856 291.717C83.1586 291.993 83.0313 292.405 83.1552 292.853C83.2946 293.359 83.6731 293.647 84.0205 293.787C84.3417 293.916 84.6968 293.95 85.0191 293.95V291.95ZM85.4028 292.121L89.8028 286.571L88.2355 285.329L83.8355 290.879L85.4028 292.121ZM89.8055 286.568C89.9703 286.358 90.1034 286.211 90.2058 286.115C90.3169 286.01 90.3509 286.003 90.3131 286.019L89.5252 284.181C89.254 284.297 89.0214 284.482 88.8325 284.66C88.6348 284.847 88.4347 285.075 88.2328 285.332L89.8055 286.568ZM90.3664 285.994C90.4241 285.966 90.6369 285.9 91.1191 285.9V283.9C90.5347 283.9 89.9476 283.968 89.4719 284.206L90.3664 285.994ZM91.1191 285.9H93.4691V283.9H91.1191V285.9ZM93.4691 285.9C93.7655 285.9 94.1744 285.836 94.5131 285.531C94.8718 285.208 94.9691 284.783 94.9691 284.45H92.9691C92.9691 284.417 92.9831 284.217 93.1752 284.044C93.3472 283.889 93.5062 283.9 93.4691 283.9V285.9ZM94.9691 284.443L94.9191 276.793L92.9192 276.807L92.9692 284.457L94.9691 284.443ZM93.1368 276.177L76.3368 297.277L77.9015 298.523L94.7015 277.423L93.1368 276.177ZM76.3328 297.282C75.9845 297.725 75.781 297.876 75.7219 297.906L76.6164 299.694C77.0907 299.457 77.5204 299.008 77.9055 298.518L76.3328 297.282ZM75.673 297.932C75.6847 297.925 75.652 297.946 75.5403 297.966C75.432 297.986 75.278 298 75.0691 298V300C75.6168 300 76.1998 299.934 76.6653 299.668L75.673 297.932ZM75.0691 298H65.5691V300H75.0691V298ZM65.5691 298C65.4771 298 65.4135 297.994 65.3732 297.988C65.3314 297.982 65.3298 297.978 65.3535 297.987C65.3783 297.998 65.445 298.03 65.5169 298.106C65.5942 298.187 65.6517 298.291 65.6787 298.403C65.704 298.508 65.6948 298.586 65.689 298.617C65.6835 298.646 65.679 298.646 65.6956 298.611C65.7311 298.535 65.8165 298.397 65.9895 298.188L64.4487 296.912C64.2218 297.187 64.0217 297.471 63.8864 297.758C63.7592 298.028 63.6278 298.43 63.7346 298.872C63.8571 299.38 64.2247 299.683 64.5786 299.831C64.8997 299.966 65.2538 300 65.5691 300V298ZM106.236 297.7L105.308 297.325L105.305 297.333L105.302 297.341L106.236 297.7ZM119.736 264.3L120.663 264.675L120.666 264.667L120.669 264.659L119.736 264.3ZM129.936 263.95L130.93 263.842L130.927 263.818L130.923 263.794L129.936 263.95ZM131.786 281.05L130.791 281.158L130.803 281.264L130.837 281.366L131.786 281.05ZM132.186 281.2L132.893 281.907L132.91 281.889L132.927 281.871L132.186 281.2ZM147.786 263.95L147.06 263.262L147.052 263.271L147.044 263.279L147.786 263.95ZM158.436 264.3L159.363 264.675L159.366 264.667L159.369 264.659L158.436 264.3ZM144.936 297.7L144.008 297.325L144.005 297.333L144.002 297.341L144.936 297.7ZM134.436 297.7L133.508 297.327L133.505 297.334L133.502 297.341L134.436 297.7ZM138.936 286.5L139.863 286.873L138.217 285.805L138.936 286.5ZM131.436 294.25L130.717 293.555L130.71 293.562L131.436 294.25ZM122.336 294.25L121.346 294.391L121.347 294.399L121.348 294.406L122.336 294.25ZM121.236 286.55L122.225 286.409L121.7 282.728L120.308 286.176L121.236 286.55ZM116.736 297.7L115.808 297.326L115.805 297.333L115.802 297.341L116.736 297.7ZM107.163 298.075L120.663 264.675L118.808 263.925L105.308 297.325L107.163 298.075ZM120.669 264.659C120.784 264.361 120.914 264.213 121.021 264.136C121.123 264.062 121.275 264 121.536 264V262C120.929 262 120.348 262.155 119.85 262.514C119.357 262.87 119.021 263.373 118.802 263.941L120.669 264.659ZM121.536 264H128.686V262H121.536V264ZM128.686 264C128.919 264 128.966 264.051 128.943 264.034C128.938 264.03 128.933 264.025 128.928 264.02C128.924 264.015 128.922 264.011 128.923 264.012C128.924 264.014 128.937 264.04 128.948 264.106L130.923 263.794C130.843 263.283 130.611 262.789 130.153 262.441C129.713 262.107 129.185 262 128.686 262V264ZM128.941 264.058L130.791 281.158L132.78 280.942L130.93 263.842L128.941 264.058ZM130.837 281.366C130.875 281.479 130.921 281.608 130.979 281.722C131.005 281.775 131.057 281.872 131.139 281.971C131.176 282.016 131.446 282.35 131.936 282.35V280.35C132.187 280.35 132.374 280.444 132.477 280.513C132.579 280.581 132.644 280.653 132.676 280.691C132.737 280.765 132.766 280.825 132.767 280.828C132.775 280.842 132.763 280.821 132.734 280.734L130.837 281.366ZM131.936 282.35C132.215 282.35 132.432 282.248 132.563 282.17C132.698 282.089 132.809 281.991 132.893 281.907L131.478 280.493C131.463 280.509 131.481 280.486 131.534 280.455C131.58 280.427 131.723 280.35 131.936 280.35V282.35ZM132.927 281.871L148.527 264.621L147.044 263.279L131.444 280.529L132.927 281.871ZM148.512 264.638C148.972 264.151 149.375 264 149.736 264V262C148.696 262 147.799 262.482 147.06 263.262L148.512 264.638ZM149.736 264H157.636V262H149.736V264ZM157.636 264C157.703 264 157.751 264.004 157.783 264.009C157.815 264.014 157.824 264.018 157.816 264.015C157.807 264.012 157.779 264 157.742 263.971C157.704 263.941 157.665 263.9 157.634 263.849C157.568 263.742 157.575 263.663 157.574 263.68C157.574 263.689 157.572 263.714 157.56 263.76C157.549 263.806 157.531 263.866 157.502 263.941L159.369 264.659C159.56 264.162 159.729 263.438 159.337 262.801C158.922 262.126 158.168 262 157.636 262V264ZM157.508 263.925L144.008 297.325L145.863 298.075L159.363 264.675L157.508 263.925ZM144.002 297.341C143.89 297.632 143.76 297.778 143.648 297.857C143.539 297.934 143.371 298 143.086 298V300C143.701 300 144.291 299.85 144.798 299.493C145.303 299.138 145.648 298.634 145.869 298.059L144.002 297.341ZM143.086 298H135.236V300H143.086V298ZM135.236 298C135.168 298 135.12 297.996 135.088 297.991C135.056 297.986 135.047 297.982 135.055 297.985C135.064 297.988 135.092 298 135.129 298.029C135.167 298.059 135.206 298.1 135.237 298.151C135.303 298.258 135.296 298.337 135.297 298.32C135.297 298.311 135.3 298.286 135.311 298.24C135.322 298.194 135.34 298.134 135.369 298.059L133.502 297.341C133.311 297.838 133.142 298.562 133.534 299.199C133.949 299.874 134.703 300 135.236 300V298ZM135.363 298.073L139.863 286.873L138.008 286.127L133.508 297.327L135.363 298.073ZM138.217 285.805L130.717 293.555L132.154 294.945L139.654 287.195L138.217 285.805ZM130.71 293.562C130.249 294.049 129.846 294.2 129.486 294.2V296.2C130.525 296.2 131.422 295.718 132.161 294.938L130.71 293.562ZM129.486 294.2H123.636V296.2H129.486V294.2ZM123.636 294.2C123.377 294.2 123.312 294.145 123.326 294.155C123.335 294.162 123.343 294.172 123.345 294.176C123.346 294.177 123.333 294.156 123.323 294.094L121.348 294.406C121.43 294.929 121.675 295.426 122.146 295.77C122.593 296.097 123.128 296.2 123.636 296.2V294.2ZM123.326 294.109L122.225 286.409L120.246 286.691L121.346 294.391L123.326 294.109ZM120.308 286.176L115.808 297.326L117.663 298.074L122.163 286.924L120.308 286.176ZM115.802 297.341C115.693 297.626 115.563 297.77 115.446 297.85C115.329 297.93 115.145 298 114.836 298V300C115.46 300 116.059 299.853 116.575 299.5C117.092 299.147 117.445 298.641 117.669 298.059L115.802 297.341ZM114.836 298H106.986V300H114.836V298ZM106.986 298C106.924 298 106.882 297.996 106.856 297.992C106.83 297.988 106.828 297.985 106.841 297.99C106.856 297.996 106.889 298.012 106.929 298.044C106.97 298.078 107.009 298.123 107.039 298.175C107.101 298.282 107.091 298.357 107.093 298.333C107.094 298.321 107.097 298.293 107.109 298.245C107.12 298.197 107.139 298.135 107.169 298.059L105.302 297.341C105.113 297.832 104.942 298.542 105.307 299.175C105.707 299.868 106.459 300 106.986 300V298ZM160.873 297.55L161.644 298.188L161.645 298.186L160.873 297.55ZM188.473 264.1L189.245 264.736L189.247 264.733L188.473 264.1ZM199.573 264.1H198.573V264.109L198.574 264.118L199.573 264.1ZM200.173 297.55H201.173V297.541L201.173 297.532L200.173 297.55ZM189.573 297.9L190.572 297.945L190.573 297.923V297.9H189.573ZM180.273 291.5L181.044 292.138L181.051 292.129L181.057 292.121L180.273 291.5ZM184.673 285.95L185.457 286.571L185.46 286.568L184.673 285.95ZM185.573 285.1L185.967 286.019L185.994 286.008L186.021 285.994L185.573 285.1ZM189.623 284.45H190.623L190.623 284.443L189.623 284.45ZM189.573 276.8L190.573 276.793L190.555 273.962L188.791 276.177L189.573 276.8ZM172.773 297.9L171.991 297.277L171.987 297.282L172.773 297.9ZM171.823 298.8L171.376 297.906L171.351 297.918L171.327 297.932L171.823 298.8ZM161.645 298.186L189.245 264.736L187.702 263.464L160.102 296.914L161.645 298.186ZM189.247 264.733C189.707 264.172 190.126 264 190.523 264V262C189.387 262 188.44 262.561 187.699 263.467L189.247 264.733ZM190.523 264H198.423V262H190.523V264ZM198.423 264C198.538 264 198.6 264.014 198.623 264.021C198.642 264.027 198.623 264.025 198.595 263.998C198.565 263.97 198.556 263.945 198.557 263.948C198.56 263.956 198.573 264.001 198.573 264.1H200.573C200.573 263.568 200.432 262.987 199.977 262.552C199.531 262.125 198.95 262 198.423 262V264ZM198.574 264.118L199.174 297.568L201.173 297.532L200.573 264.082L198.574 264.118ZM199.173 297.55C199.173 297.705 199.152 297.799 199.135 297.849C199.119 297.893 199.105 297.905 199.103 297.907C199.1 297.91 199.002 298 198.623 298V300C199.278 300 199.956 299.848 200.469 299.368C200.995 298.876 201.173 298.205 201.173 297.55H199.173ZM198.623 298H190.723V300H198.623V298ZM190.723 298C190.596 298 190.526 297.985 190.498 297.976C190.473 297.968 190.494 297.97 190.527 298.002C190.543 298.017 190.556 298.034 190.566 298.05C190.575 298.066 190.579 298.076 190.579 298.078C190.58 298.079 190.568 298.041 190.572 297.945L188.574 297.855C188.55 298.394 188.673 298.997 189.145 299.448C189.598 299.881 190.194 300 190.723 300V298ZM190.573 297.9V293.4H188.573V297.9H190.573ZM190.573 293.4C190.573 293.067 190.476 292.642 190.117 292.319C189.779 292.014 189.37 291.95 189.073 291.95V293.95C189.11 293.95 188.951 293.961 188.779 293.806C188.587 293.633 188.573 293.433 188.573 293.4H190.573ZM189.073 291.95H180.673V293.95H189.073V291.95ZM180.673 291.95C180.576 291.95 180.507 291.944 180.461 291.938C180.413 291.931 180.405 291.925 180.422 291.932C180.44 291.939 180.501 291.967 180.57 292.035C180.645 292.109 180.706 292.208 180.737 292.322C180.767 292.428 180.76 292.51 180.754 292.547C180.748 292.581 180.742 292.585 180.757 292.552C180.789 292.481 180.872 292.346 181.044 292.138L179.503 290.862C179.275 291.138 179.074 291.425 178.94 291.717C178.813 291.993 178.686 292.405 178.809 292.853C178.949 293.359 179.327 293.647 179.675 293.787C179.996 293.916 180.351 293.95 180.673 293.95V291.95ZM181.057 292.121L185.457 286.571L183.89 285.329L179.49 290.879L181.057 292.121ZM185.46 286.568C185.625 286.358 185.758 286.211 185.86 286.115C185.971 286.01 186.005 286.003 185.967 286.019L185.18 284.181C184.908 284.297 184.676 284.482 184.487 284.66C184.289 284.847 184.089 285.075 183.887 285.332L185.46 286.568ZM186.021 285.994C186.078 285.966 186.291 285.9 186.773 285.9V283.9C186.189 283.9 185.602 283.968 185.126 284.206L186.021 285.994ZM186.773 285.9H189.123V283.9H186.773V285.9ZM189.123 285.9C189.42 285.9 189.829 285.836 190.167 285.531C190.526 285.208 190.623 284.783 190.623 284.45H188.623C188.623 284.417 188.637 284.217 188.829 284.044C189.001 283.889 189.16 283.9 189.123 283.9V285.9ZM190.623 284.443L190.573 276.793L188.573 276.807L188.623 284.457L190.623 284.443ZM188.791 276.177L171.991 297.277L173.556 298.523L190.356 277.423L188.791 276.177ZM171.987 297.282C171.639 297.725 171.435 297.876 171.376 297.906L172.271 299.694C172.745 299.457 173.175 299.008 173.56 298.518L171.987 297.282ZM171.327 297.932C171.339 297.925 171.306 297.946 171.195 297.966C171.086 297.986 170.932 298 170.723 298V300C171.271 300 171.854 299.934 172.32 299.668L171.327 297.932ZM170.723 298H161.223V300H170.723V298ZM161.223 298C161.131 298 161.068 297.994 161.027 297.988C160.986 297.982 160.984 297.978 161.008 297.987C161.033 297.998 161.099 298.03 161.171 298.106C161.249 298.187 161.306 298.291 161.333 298.403C161.358 298.508 161.349 298.586 161.343 298.617C161.338 298.646 161.333 298.646 161.35 298.611C161.385 298.535 161.471 298.397 161.644 298.188L160.103 296.912C159.876 297.187 159.676 297.471 159.541 297.758C159.413 298.028 159.282 298.43 159.389 298.872C159.511 299.38 159.879 299.683 160.233 299.831C160.554 299.966 160.908 300 161.223 300V298Z" fill="white" mask="url(#path-33-outside-1_1330_186)"/>
</g>
<g filter="url(#filter9_f_1330_186)">
<ellipse cx="99.5" cy="238.5" rx="42.5" ry="5.5" fill="#2C2A2A" fill-opacity="0.5"/>
</g>
<defs>
<filter id="filter0_ii_1330_186" x="41.7962" y="11.6205" width="107.833" height="138.823" filterUnits="userSpaceOnUse" color-interpolation-filters="sRGB">
<feFlood flood-opacity="0" result="BackgroundImageFix"/>
<feBlend mode="normal" in="SourceGraphic" in2="BackgroundImageFix" result="shape"/>
<feColorMatrix in="SourceAlpha" type="matrix" values="0 0 0 0 0 0 0 0 0 0 0 0 0 0 0 0 0 0 127 0" result="hardAlpha"/>
<feOffset dx="15.1235" dy="18.9044"/>
<feComposite in2="hardAlpha" operator="arithmetic" k2="-1" k3="1"/>
<feColorMatrix type="matrix" values="0 0 0 0 1 0 0 0 0 1 0 0 0 0 1 0 0 0 0.25 0"/>
<feBlend mode="normal" in2="shape" result="effect1_innerShadow_1330_186"/>
<feColorMatrix in="SourceAlpha" type="matrix" values="0 0 0 0 0 0 0 0 0 0 0 0 0 0 0 0 0 0 127 0" result="hardAlpha"/>
<feOffset dx="-6.30145" dy="-5.04116"/>
<feGaussianBlur stdDeviation="5.67131"/>
<feComposite in2="hardAlpha" operator="arithmetic" k2="-1" k3="1"/>
<feColorMatrix type="matrix" values="0 0 0 0 0.0791493 0 0 0 0 0.106234 0 0 0 0 0.404167 0 0 0 0.25 0"/>
<feBlend mode="normal" in2="effect1_innerShadow_1330_186" result="effect2_innerShadow_1330_186"/>
</filter>
<filter id="filter1_i_1330_186" x="65.3003" y="-3.39308" width="14.354" height="14.355" filterUnits="userSpaceOnUse" color-interpolation-filters="sRGB">
<feFlood flood-opacity="0" result="BackgroundImageFix"/>
<feBlend mode="normal" in="SourceGraphic" in2="BackgroundImageFix" result="shape"/>
<feColorMatrix in="SourceAlpha" type="matrix" values="0 0 0 0 0 0 0 0 0 0 0 0 0 0 0 0 0 0 127 0" result="hardAlpha"/>
<feOffset dx="-3.39308" dy="-3.39308"/>
<feGaussianBlur stdDeviation="3.39308"/>
<feComposite in2="hardAlpha" operator="arithmetic" k2="-1" k3="1"/>
<feColorMatrix type="matrix" values="0 0 0 0 0.479167 0 0 0 0 0 0 0 0 0 0 0 0 0 0.25 0"/>
<feBlend mode="normal" in2="shape" result="effect1_innerShadow_1330_186"/>
</filter>
<filter id="filter2_i_1330_186" x="112.609" y="-3.39308" width="14.354" height="14.355" filterUnits="userSpaceOnUse" color-interpolation-filters="sRGB">
<feFlood flood-opacity="0" result="BackgroundImageFix"/>
<feBlend mode="normal" in="SourceGraphic" in2="BackgroundImageFix" result="shape"/>
<feColorMatrix in="SourceAlpha" type="matrix" values="0 0 0 0 0 0 0 0 0 0 0 0 0 0 0 0 0 0 127 0" result="hardAlpha"/>
<feOffset dx="-3.39308" dy="-3.39308"/>
<feGaussianBlur stdDeviation="3.39308"/>
<feComposite in2="hardAlpha" operator="arithmetic" k2="-1" k3="1"/>
<feColorMatrix type="matrix" values="0 0 0 0 0.479167 0 0 0 0 0 0 0 0 0 0 0 0 0 0.25 0"/>
<feBlend mode="normal" in2="shape" result="effect1_innerShadow_1330_186"/>
</filter>
<filter id="filter3_i_1330_186" x="61.5174" y="155.391" width="69.6525" height="71.9323" filterUnits="userSpaceOnUse" color-interpolation-filters="sRGB">
<feFlood flood-opacity="0" result="BackgroundImageFix"/>
<feBlend mode="normal" in="SourceGraphic" in2="BackgroundImageFix" result="shape"/>
<feColorMatrix in="SourceAlpha" type="matrix" values="0 0 0 0 0 0 0 0 0 0 0 0 0 0 0 0 0 0 127 0" result="hardAlpha"/>
<feOffset dx="-15.1235" dy="5.04116"/>
<feGaussianBlur stdDeviation="2.52058"/>
<feComposite in2="hardAlpha" operator="arithmetic" k2="-1" k3="1"/>
<feColorMatrix type="matrix" values="0 0 0 0 0.0184722 0 0 0 0 0.0681713 0 0 0 0 0.316667 0 0 0 0.25 0"/>
<feBlend mode="normal" in2="shape" result="effect1_innerShadow_1330_186"/>
</filter>
<filter id="filter4_i_1330_186" x="22.2191" y="77.9144" width="14.5309" height="27.7365" filterUnits="userSpaceOnUse" color-interpolation-filters="sRGB">
<feFlood flood-opacity="0" result="BackgroundImageFix"/>
<feBlend mode="normal" in="SourceGraphic" in2="BackgroundImageFix" result="shape"/>
<feColorMatrix in="SourceAlpha" type="matrix" values="0 0 0 0 0 0 0 0 0 0 0 0 0 0 0 0 0 0 127 0" result="hardAlpha"/>
<feOffset dx="-3.78087" dy="-6.30145"/>
<feGaussianBlur stdDeviation="2.52058"/>
<feComposite in2="hardAlpha" operator="arithmetic" k2="-1" k3="1"/>
<feColorMatrix type="matrix" values="0 0 0 0 0.483333 0 0 0 0 0.0422917 0 0 0 0 0.0422917 0 0 0 0.25 0"/>
<feBlend mode="normal" in2="shape" result="effect1_innerShadow_1330_186"/>
</filter>
<filter id="filter5_i_1330_186" x="35.4228" y="77.4487" width="11.4796" height="31.1881" filterUnits="userSpaceOnUse" color-interpolation-filters="sRGB">
<feFlood flood-opacity="0" result="BackgroundImageFix"/>
<feBlend mode="normal" in="SourceGraphic" in2="BackgroundImageFix" result="shape"/>
<feColorMatrix in="SourceAlpha" type="matrix" values="0 0 0 0 0 0 0 0 0 0 0 0 0 0 0 0 0 0 127 0" result="hardAlpha"/>
<feOffset dx="-3.78087" dy="-10.0823"/>
<feGaussianBlur stdDeviation="1.26029"/>
<feComposite in2="hardAlpha" operator="arithmetic" k2="-1" k3="1"/>
<feColorMatrix type="matrix" values="0 0 0 0 0.4375 0 0 0 0 0 0 0 0 0 0 0 0 0 0.25 0"/>
<feBlend mode="normal" in2="shape" result="effect1_innerShadow_1330_186"/>
</filter>
<filter id="filter6_i_1330_186" x="157.196" y="77.9144" width="14.5309" height="27.7365" filterUnits="userSpaceOnUse" color-interpolation-filters="sRGB">
<feFlood flood-opacity="0" result="BackgroundImageFix"/>
<feBlend mode="normal" in="SourceGraphic" in2="BackgroundImageFix" result="shape"/>
<feColorMatrix in="SourceAlpha" type="matrix" values="0 0 0 0 0 0 0 0 0 0 0 0 0 0 0 0 0 0 127 0" result="hardAlpha"/>
<feOffset dx="-3.78087" dy="-6.30145"/>
<feGaussianBlur stdDeviation="2.52058"/>
<feComposite in2="hardAlpha" operator="arithmetic" k2="-1" k3="1"/>
<feColorMatrix type="matrix" values="0 0 0 0 0.483333 0 0 0 0 0.0422917 0 0 0 0 0.0422917 0 0 0 0.25 0"/>
<feBlend mode="normal" in2="shape" result="effect1_innerShadow_1330_186"/>
</filter>
<filter id="filter7_i_1330_186" x="148.302" y="77.4487" width="11.4796" height="31.1881" filterUnits="userSpaceOnUse" color-interpolation-filters="sRGB">
<feFlood flood-opacity="0" result="BackgroundImageFix"/>
<feBlend mode="normal" in="SourceGraphic" in2="BackgroundImageFix" result="shape"/>
<feColorMatrix in="SourceAlpha" type="matrix" values="0 0 0 0 0 0 0 0 0 0 0 0 0 0 0 0 0 0 127 0" result="hardAlpha"/>
<feOffset dx="-3.78087" dy="-10.0823"/>
<feGaussianBlur stdDeviation="1.26029"/>
<feComposite in2="hardAlpha" operator="arithmetic" k2="-1" k3="1"/>
<feColorMatrix type="matrix" values="0 0 0 0 0.658824 0 0 0 0 0.203922 0 0 0 0 0.207843 0 0 0 0.25 0"/>
<feBlend mode="normal" in2="shape" result="effect1_innerShadow_1330_186"/>
</filter>
<filter id="filter8_dddd_1330_186" x="1.40039" y="255" width="206.773" height="52" filterUnits="userSpaceOnUse" color-interpolation-filters="sRGB">
<feFlood flood-opacity="0" result="BackgroundImageFix"/>
<feColorMatrix in="SourceAlpha" type="matrix" values="0 0 0 0 0 0 0 0 0 0 0 0 0 0 0 0 0 0 127 0" result="hardAlpha"/>
<feOffset dy="4"/>
<feGaussianBlur stdDeviation="2"/>
<feComposite in2="hardAlpha" operator="out"/>
<feColorMatrix type="matrix" values="0 0 0 0 1 0 0 0 0 1 0 0 0 0 1 0 0 0 0.25 0"/>
<feBlend mode="normal" in2="BackgroundImageFix" result="effect1_dropShadow_1330_186"/>
<feColorMatrix in="SourceAlpha" type="matrix" values="0 0 0 0 0 0 0 0 0 0 0 0 0 0 0 0 0 0 127 0" result="hardAlpha"/>
<feOffset dy="-4"/>
<feGaussianBlur stdDeviation="2"/>
<feComposite in2="hardAlpha" operator="out"/>
<feColorMatrix type="matrix" values="0 0 0 0 1 0 0 0 0 1 0 0 0 0 1 0 0 0 0.25 0"/>
<feBlend mode="normal" in2="effect1_dropShadow_1330_186" result="effect2_dropShadow_1330_186"/>
<feColorMatrix in="SourceAlpha" type="matrix" values="0 0 0 0 0 0 0 0 0 0 0 0 0 0 0 0 0 0 127 0" result="hardAlpha"/>
<feOffset dx="-4"/>
<feGaussianBlur stdDeviation="2"/>
<feComposite in2="hardAlpha" operator="out"/>
<feColorMatrix type="matrix" values="0 0 0 0 1 0 0 0 0 1 0 0 0 0 1 0 0 0 0.25 0"/>
<feBlend mode="normal" in2="effect2_dropShadow_1330_186" result="effect3_dropShadow_1330_186"/>
<feColorMatrix in="SourceAlpha" type="matrix" values="0 0 0 0 0 0 0 0 0 0 0 0 0 0 0 0 0 0 127 0" result="hardAlpha"/>
<feOffset dx="4"/>
<feGaussianBlur stdDeviation="2"/>
<feComposite in2="hardAlpha" operator="out"/>
<feColorMatrix type="matrix" values="0 0 0 0 1 0 0 0 0 1 0 0 0 0 1 0 0 0 0.25 0"/>
<feBlend mode="normal" in2="effect3_dropShadow_1330_186" result="effect4_dropShadow_1330_186"/>
<feBlend mode="normal" in="SourceGraphic" in2="effect4_dropShadow_1330_186" result="shape"/>
</filter>
<filter id="filter9_f_1330_186" x="52" y="228" width="95" height="21" filterUnits="userSpaceOnUse" color-interpolation-filters="sRGB">
<feFlood flood-opacity="0" result="BackgroundImageFix"/>
<feBlend mode="normal" in="SourceGraphic" in2="BackgroundImageFix" result="shape"/>
<feGaussianBlur stdDeviation="2.5" result="effect1_foregroundBlur_1330_186"/>
</filter>
<radialGradient id="paint0_radial_1330_186" cx="0" cy="0" r="1" gradientUnits="userSpaceOnUse" gradientTransform="translate(86.0239 78.2374) rotate(14.0501) scale(60.0269 22.9861)">
<stop stop-color="#FFB825"/>
<stop offset="1" stop-color="white" stop-opacity="0"/>
</radialGradient>
<linearGradient id="paint1_linear_1330_186" x1="0" y1="284.5" x2="199" y2="284.5" gradientUnits="userSpaceOnUse">
<stop stop-color="#FFB825"/>
<stop offset="1" stop-color="#EF5027"/>
</linearGradient>
</defs>
</svg>
