<svg width="337" height="232" viewBox="0 0 337 232" fill="none" xmlns="http://www.w3.org/2000/svg">
<mask id="path-1-outside-1_1330_187" maskUnits="userSpaceOnUse" x="3" y="9" width="331" height="201" fill="black">
<rect fill="white" x="3" y="9" width="331" height="201"/>
<path d="M58.7517 64.7476C59.3398 63.1138 60.4835 62.2969 62.1826 62.2969H77.8672C79.4356 62.2969 79.9257 63.1138 79.3376 64.7476L76.9849 70.4332C74.5015 76.5763 71.528 80.8896 68.0643 83.373C64.666 85.791 59.8953 87 53.7522 87H21.795C17.155 87 13.8547 85.3989 11.8942 82.1966C9.99897 78.9944 9.99897 75.0732 11.8942 70.4332L27.0886 32.9865C29.5719 26.8434 32.5128 22.5628 35.9111 20.1448C39.3748 17.6614 44.1781 16.4197 50.3212 16.4197H84.7291C86.3629 16.4197 86.8531 17.302 86.1995 19.0665L80.808 32.3983C80.1545 34.0975 78.9781 34.947 77.279 34.947H47.8705C47.1517 34.947 46.6942 35.2738 46.4981 35.9273L33.6564 67.4924C33.4604 68.1459 33.6564 68.4727 34.2446 68.4727H56.2029C56.9218 68.4727 57.3793 68.1459 57.5753 67.4924L58.7517 64.7476ZM51.3995 58.3758C49.635 58.3758 49.1449 57.5262 49.9291 55.827L54.1443 45.24C54.8632 43.5408 56.0722 42.6913 57.7714 42.6913H85.7094C87.4086 42.6913 87.8987 43.5408 87.1798 45.24L82.8666 55.9251C82.1477 57.5589 81.0041 58.3758 79.4356 58.3758H51.3995ZM74.1942 84.1572L128.306 18.5763C129.482 17.1386 130.822 16.4197 132.325 16.4197H147.813C149.316 16.4197 150.068 17.1386 150.068 18.5763L151.244 84.1572C151.244 86.0524 150.231 87 148.205 87H132.717C131.149 87 130.397 86.2811 130.462 84.8434V76.0208C130.462 75.4327 130.136 75.1386 129.482 75.1386H113.013C110.922 75.1386 110.661 74.191 112.229 72.2958L120.856 61.4146C121.574 60.4997 122.163 59.9442 122.62 59.7482C123.143 59.4868 123.927 59.3561 124.973 59.3561H129.58C130.234 59.3561 130.56 59.062 130.56 58.4738L130.462 43.4755L97.5249 84.8434C96.806 85.7583 96.1851 86.3465 95.6623 86.6079C95.2049 86.8693 94.486 87 93.5057 87H74.8804C72.8544 87 72.6257 86.0524 74.1942 84.1572ZM154.609 84.4513L181.077 18.9684C181.731 17.2693 182.907 16.4197 184.606 16.4197H198.624C200.062 16.4197 200.879 17.0406 201.075 18.2822L204.702 51.8079C204.833 52.2 204.931 52.3961 204.996 52.3961C205.127 52.3961 205.29 52.298 205.486 52.102L236.071 18.2822C237.247 17.0406 238.522 16.4197 239.894 16.4197H255.382C257.082 16.4197 257.604 17.2693 256.951 18.9684L230.483 84.4513C229.83 86.1504 228.621 87 226.856 87H211.466C209.767 87 209.244 86.1504 209.897 84.4513L218.72 62.493L204.016 77.6873C202.839 78.929 201.565 79.5499 200.193 79.5499H188.723C187.22 79.5499 186.371 78.929 186.174 77.6873L184.018 62.591L175.195 84.4513C174.542 86.1504 173.3 87 171.47 87H156.08C154.446 87 153.956 86.1504 154.609 84.4513ZM281.535 46.4163C282.319 44.6518 283.528 43.7696 285.162 43.7696H309.865C311.63 43.7696 312.12 44.6518 311.336 46.4163L307.121 57.0034C306.336 58.7679 305.127 59.6501 303.494 59.6501H278.79C277.026 59.6501 276.536 58.7679 277.32 57.0034L281.535 46.4163ZM304.18 68.4727C305.879 68.4727 306.402 69.3223 305.748 71.0214L300.357 84.3532C299.572 86.1177 298.363 87 296.73 87H242.716C240.952 87 240.461 86.1177 241.246 84.3532L267.615 19.0665C268.399 17.302 269.608 16.4197 271.242 16.4197H325.256C327.02 16.4197 327.51 17.302 326.726 19.0665L321.335 32.3983C320.681 34.0975 319.505 34.947 317.806 34.947H282.614C281.895 34.947 281.437 35.2738 281.241 35.9273L268.399 67.4924C268.203 68.1459 268.399 68.4727 268.988 68.4727H304.18ZM17.4944 186.433L32.6888 148.986C35.1722 142.843 38.113 138.563 41.5113 136.145C44.975 133.661 49.7784 132.42 55.9215 132.42H89.153C93.8584 132.42 97.1587 134.021 99.0539 137.223C101.014 140.425 101.047 144.346 99.1519 148.986L83.9575 186.433C81.4742 192.576 78.5006 196.89 75.037 199.373C71.5733 201.791 66.7699 203 60.6268 203H48.9615C47.197 203 46.7068 202.118 47.4911 200.353L52.8826 187.021C53.5361 185.322 54.7125 184.473 56.4116 184.473H63.1756C63.8944 184.473 64.3519 184.146 64.548 183.492L77.2916 151.927C77.4877 151.274 77.2916 150.947 76.7035 150.947H53.4708C52.7519 150.947 52.2944 151.274 52.0984 151.927L39.3547 183.492C39.1587 184.146 39.3547 184.473 39.9429 184.473H46.7068C48.406 184.473 48.9288 185.322 48.2753 187.021L42.8837 200.353C42.0995 202.118 40.8905 203 39.2567 203H27.3953C22.7553 203 19.455 201.399 17.4944 198.197C15.5992 194.994 15.5992 191.073 17.4944 186.433ZM110.172 132.518H126.248C127.817 132.518 128.601 133.204 128.601 134.576V200.157C128.601 202.052 127.555 203 125.464 203H109.682C108.113 203 107.329 202.314 107.329 200.941V135.361C107.329 133.465 108.276 132.518 110.172 132.518ZM133.012 192.609V171.631C133.012 170.847 133.078 170.226 133.208 169.768C133.404 169.311 133.862 168.657 134.581 167.808L161.244 134.576C162.355 133.204 163.662 132.518 165.165 132.518H182.418C183.725 132.518 184.346 132.779 184.281 133.302C184.281 133.759 183.922 134.446 183.203 135.361L136.051 192.609C135.005 193.851 134.221 194.472 133.698 194.472C133.241 194.472 133.012 193.851 133.012 192.609ZM200.786 162.416C201.571 160.652 202.78 159.77 204.413 159.77H229.117C230.881 159.77 231.371 160.652 230.587 162.416L226.372 173.003C225.588 174.768 224.379 175.65 222.745 175.65H198.042C196.277 175.65 195.787 174.768 196.571 173.003L200.786 162.416ZM223.431 184.473C225.13 184.473 225.653 185.322 224.999 187.021L219.608 200.353C218.824 202.118 217.615 203 215.981 203H161.967C160.203 203 159.713 202.118 160.497 200.353L186.866 135.066C187.651 133.302 188.86 132.42 190.493 132.42H244.507C246.272 132.42 246.762 133.302 245.977 135.066L240.586 148.398C239.932 150.097 238.756 150.947 237.057 150.947H201.865C201.146 150.947 200.688 151.274 200.492 151.927L187.651 183.492C187.455 184.146 187.651 184.473 188.239 184.473H223.431ZM227.03 200.353L253.399 135.066C254.183 133.302 255.392 132.42 257.026 132.42H303.1C307.74 132.42 311.007 134.054 312.902 137.321C314.863 140.523 314.896 144.412 313 148.986L304.276 169.768C302.577 173.755 300.355 176.532 297.61 178.101C294.931 179.669 290.944 180.454 285.651 180.454L293.199 200.255C293.983 202.085 293.166 203 290.748 203H274.475C272.841 203 271.829 202.445 271.436 201.334L263.692 180.454H262.712C261.013 180.454 260.49 179.604 261.143 177.905L266.241 165.357C267.025 163.593 268.234 162.71 269.868 162.71H285.847C286.5 162.71 286.958 162.384 287.219 161.73L291.14 151.927C291.336 151.274 291.14 150.947 290.552 150.947H268.594C267.875 150.947 267.417 151.274 267.221 151.927L247.616 200.353C246.831 202.118 245.622 203 243.989 203H228.5C226.736 203 226.245 202.118 227.03 200.353Z"/>
</mask>
<path d="M58.7517 64.7476C59.3398 63.1138 60.4835 62.2969 62.1826 62.2969H77.8672C79.4356 62.2969 79.9257 63.1138 79.3376 64.7476L76.9849 70.4332C74.5015 76.5763 71.528 80.8896 68.0643 83.373C64.666 85.791 59.8953 87 53.7522 87H21.795C17.155 87 13.8547 85.3989 11.8942 82.1966C9.99897 78.9944 9.99897 75.0732 11.8942 70.4332L27.0886 32.9865C29.5719 26.8434 32.5128 22.5628 35.9111 20.1448C39.3748 17.6614 44.1781 16.4197 50.3212 16.4197H84.7291C86.3629 16.4197 86.8531 17.302 86.1995 19.0665L80.808 32.3983C80.1545 34.0975 78.9781 34.947 77.279 34.947H47.8705C47.1517 34.947 46.6942 35.2738 46.4981 35.9273L33.6564 67.4924C33.4604 68.1459 33.6564 68.4727 34.2446 68.4727H56.2029C56.9218 68.4727 57.3793 68.1459 57.5753 67.4924L58.7517 64.7476ZM51.3995 58.3758C49.635 58.3758 49.1449 57.5262 49.9291 55.827L54.1443 45.24C54.8632 43.5408 56.0722 42.6913 57.7714 42.6913H85.7094C87.4086 42.6913 87.8987 43.5408 87.1798 45.24L82.8666 55.9251C82.1477 57.5589 81.0041 58.3758 79.4356 58.3758H51.3995ZM74.1942 84.1572L128.306 18.5763C129.482 17.1386 130.822 16.4197 132.325 16.4197H147.813C149.316 16.4197 150.068 17.1386 150.068 18.5763L151.244 84.1572C151.244 86.0524 150.231 87 148.205 87H132.717C131.149 87 130.397 86.2811 130.462 84.8434V76.0208C130.462 75.4327 130.136 75.1386 129.482 75.1386H113.013C110.922 75.1386 110.661 74.191 112.229 72.2958L120.856 61.4146C121.574 60.4997 122.163 59.9442 122.62 59.7482C123.143 59.4868 123.927 59.3561 124.973 59.3561H129.58C130.234 59.3561 130.56 59.062 130.56 58.4738L130.462 43.4755L97.5249 84.8434C96.806 85.7583 96.1851 86.3465 95.6623 86.6079C95.2049 86.8693 94.486 87 93.5057 87H74.8804C72.8544 87 72.6257 86.0524 74.1942 84.1572ZM154.609 84.4513L181.077 18.9684C181.731 17.2693 182.907 16.4197 184.606 16.4197H198.624C200.062 16.4197 200.879 17.0406 201.075 18.2822L204.702 51.8079C204.833 52.2 204.931 52.3961 204.996 52.3961C205.127 52.3961 205.29 52.298 205.486 52.102L236.071 18.2822C237.247 17.0406 238.522 16.4197 239.894 16.4197H255.382C257.082 16.4197 257.604 17.2693 256.951 18.9684L230.483 84.4513C229.83 86.1504 228.621 87 226.856 87H211.466C209.767 87 209.244 86.1504 209.897 84.4513L218.72 62.493L204.016 77.6873C202.839 78.929 201.565 79.5499 200.193 79.5499H188.723C187.22 79.5499 186.371 78.929 186.174 77.6873L184.018 62.591L175.195 84.4513C174.542 86.1504 173.3 87 171.47 87H156.08C154.446 87 153.956 86.1504 154.609 84.4513ZM281.535 46.4163C282.319 44.6518 283.528 43.7696 285.162 43.7696H309.865C311.63 43.7696 312.12 44.6518 311.336 46.4163L307.121 57.0034C306.336 58.7679 305.127 59.6501 303.494 59.6501H278.79C277.026 59.6501 276.536 58.7679 277.32 57.0034L281.535 46.4163ZM304.18 68.4727C305.879 68.4727 306.402 69.3223 305.748 71.0214L300.357 84.3532C299.572 86.1177 298.363 87 296.73 87H242.716C240.952 87 240.461 86.1177 241.246 84.3532L267.615 19.0665C268.399 17.302 269.608 16.4197 271.242 16.4197H325.256C327.02 16.4197 327.51 17.302 326.726 19.0665L321.335 32.3983C320.681 34.0975 319.505 34.947 317.806 34.947H282.614C281.895 34.947 281.437 35.2738 281.241 35.9273L268.399 67.4924C268.203 68.1459 268.399 68.4727 268.988 68.4727H304.18ZM17.4944 186.433L32.6888 148.986C35.1722 142.843 38.113 138.563 41.5113 136.145C44.975 133.661 49.7784 132.42 55.9215 132.42H89.153C93.8584 132.42 97.1587 134.021 99.0539 137.223C101.014 140.425 101.047 144.346 99.1519 148.986L83.9575 186.433C81.4742 192.576 78.5006 196.89 75.037 199.373C71.5733 201.791 66.7699 203 60.6268 203H48.9615C47.197 203 46.7068 202.118 47.4911 200.353L52.8826 187.021C53.5361 185.322 54.7125 184.473 56.4116 184.473H63.1756C63.8944 184.473 64.3519 184.146 64.548 183.492L77.2916 151.927C77.4877 151.274 77.2916 150.947 76.7035 150.947H53.4708C52.7519 150.947 52.2944 151.274 52.0984 151.927L39.3547 183.492C39.1587 184.146 39.3547 184.473 39.9429 184.473H46.7068C48.406 184.473 48.9288 185.322 48.2753 187.021L42.8837 200.353C42.0995 202.118 40.8905 203 39.2567 203H27.3953C22.7553 203 19.455 201.399 17.4944 198.197C15.5992 194.994 15.5992 191.073 17.4944 186.433ZM110.172 132.518H126.248C127.817 132.518 128.601 133.204 128.601 134.576V200.157C128.601 202.052 127.555 203 125.464 203H109.682C108.113 203 107.329 202.314 107.329 200.941V135.361C107.329 133.465 108.276 132.518 110.172 132.518ZM133.012 192.609V171.631C133.012 170.847 133.078 170.226 133.208 169.768C133.404 169.311 133.862 168.657 134.581 167.808L161.244 134.576C162.355 133.204 163.662 132.518 165.165 132.518H182.418C183.725 132.518 184.346 132.779 184.281 133.302C184.281 133.759 183.922 134.446 183.203 135.361L136.051 192.609C135.005 193.851 134.221 194.472 133.698 194.472C133.241 194.472 133.012 193.851 133.012 192.609ZM200.786 162.416C201.571 160.652 202.78 159.77 204.413 159.77H229.117C230.881 159.77 231.371 160.652 230.587 162.416L226.372 173.003C225.588 174.768 224.379 175.65 222.745 175.65H198.042C196.277 175.65 195.787 174.768 196.571 173.003L200.786 162.416ZM223.431 184.473C225.13 184.473 225.653 185.322 224.999 187.021L219.608 200.353C218.824 202.118 217.615 203 215.981 203H161.967C160.203 203 159.713 202.118 160.497 200.353L186.866 135.066C187.651 133.302 188.86 132.42 190.493 132.42H244.507C246.272 132.42 246.762 133.302 245.977 135.066L240.586 148.398C239.932 150.097 238.756 150.947 237.057 150.947H201.865C201.146 150.947 200.688 151.274 200.492 151.927L187.651 183.492C187.455 184.146 187.651 184.473 188.239 184.473H223.431ZM227.03 200.353L253.399 135.066C254.183 133.302 255.392 132.42 257.026 132.42H303.1C307.74 132.42 311.007 134.054 312.902 137.321C314.863 140.523 314.896 144.412 313 148.986L304.276 169.768C302.577 173.755 300.355 176.532 297.61 178.101C294.931 179.669 290.944 180.454 285.651 180.454L293.199 200.255C293.983 202.085 293.166 203 290.748 203H274.475C272.841 203 271.829 202.445 271.436 201.334L263.692 180.454H262.712C261.013 180.454 260.49 179.604 261.143 177.905L266.241 165.357C267.025 163.593 268.234 162.71 269.868 162.71H285.847C286.5 162.71 286.958 162.384 287.219 161.73L291.14 151.927C291.336 151.274 291.14 150.947 290.552 150.947H268.594C267.875 150.947 267.417 151.274 267.221 151.927L247.616 200.353C246.831 202.118 245.622 203 243.989 203H228.5C226.736 203 226.245 202.118 227.03 200.353Z" fill="#020070"/>
<path d="M58.7517 64.7476L64.8456 67.3593L64.9231 67.1784L64.9897 66.9933L58.7517 64.7476ZM79.3376 64.7476L85.4638 67.2826L85.5231 67.1393L85.5757 66.9933L79.3376 64.7476ZM76.9849 70.4332L70.8587 67.8982L70.8483 67.9233L70.8382 67.9484L76.9849 70.4332ZM68.0643 83.373L71.9081 88.775L71.9178 88.7681L71.9276 88.7611L68.0643 83.373ZM11.8942 82.1966L6.18856 85.5734L6.21385 85.6161L6.23978 85.6585L11.8942 82.1966ZM11.8942 70.4332L18.0319 72.9402L18.0348 72.9331L18.0377 72.926L11.8942 70.4332ZM27.0886 32.9865L33.2321 35.4793L33.2353 35.4713L27.0886 32.9865ZM35.9111 20.1448L39.7549 25.5468L39.7646 25.5399L39.7743 25.533L35.9111 20.1448ZM86.1995 19.0665L92.346 21.5522L92.3827 21.4612L92.4168 21.3692L86.1995 19.0665ZM80.808 32.3983L74.6616 29.9126L74.6403 29.9653L74.6199 30.0183L80.808 32.3983ZM46.4981 35.9273L52.6394 38.4258L52.758 38.1341L52.8485 37.8324L46.4981 35.9273ZM33.6564 67.4924L27.5152 64.9939L27.3965 65.2856L27.3061 65.5873L33.6564 67.4924ZM57.5753 67.4924L51.4814 64.8807L51.3331 65.2267L51.2249 65.5873L57.5753 67.4924ZM49.9291 55.827L55.9489 58.6054L56.0232 58.4443L56.0888 58.2795L49.9291 55.827ZM54.1443 45.24L48.0383 42.6567L48.0108 42.7218L47.9846 42.7875L54.1443 45.24ZM87.1798 45.24L81.0738 42.6567L81.0524 42.7073L81.0318 42.7582L87.1798 45.24ZM82.8666 55.9251L88.9351 58.5952L88.9763 58.5016L89.0146 58.4068L82.8666 55.9251ZM64.9897 66.9933C64.936 67.1427 64.6632 67.7624 63.9041 68.3046C63.1334 68.8551 62.4203 68.9269 62.1826 68.9269V55.6669C60.2458 55.6669 58.1113 56.1471 56.1969 57.5145C54.2942 58.8736 53.1555 60.7187 52.5136 62.5019L64.9897 66.9933ZM62.1826 68.9269H77.8671V55.6669H62.1826V68.9269ZM77.8671 68.9269C77.7437 68.9269 77.1685 68.9192 76.3959 68.6126C75.5292 68.2687 74.4695 67.56 73.7259 66.3207C73.0171 65.1393 72.9271 64.0276 72.9518 63.4104C72.9642 63.0999 73.006 62.8674 73.0363 62.7311C73.0671 62.5928 73.0952 62.5137 73.0995 62.5019L85.5757 66.9933C86.0242 65.7474 86.9551 62.5965 85.0963 59.4985C83.024 56.0448 79.4195 55.6669 77.8671 55.6669V68.9269ZM73.2113 62.2126L70.8587 67.8982L83.1111 72.9682L85.4638 67.2826L73.2113 62.2126ZM70.8382 67.9484C68.5852 73.5215 66.2248 76.5339 64.2011 77.9848L71.9276 88.7611C76.8312 85.2453 80.4178 79.6312 83.1316 72.9181L70.8382 67.9484ZM64.2206 77.9709C62.3618 79.2934 59.1375 80.37 53.7522 80.37V93.63C60.6531 93.63 66.9702 92.2885 71.9081 88.775L64.2206 77.9709ZM53.7522 80.37H21.795V93.63H53.7522V80.37ZM21.795 80.37C18.8336 80.37 18.0085 79.486 17.5486 78.7347L6.23978 85.6585C9.70096 91.3118 15.4764 93.63 21.795 93.63V80.37ZM17.5998 78.8198C17.1024 77.9794 16.6277 76.3781 18.0319 72.9402L5.75643 67.9263C3.37023 73.7684 2.89551 80.0093 6.18856 85.5734L17.5998 78.8198ZM18.0377 72.926L33.2321 35.4793L20.945 30.4937L5.75066 67.9404L18.0377 72.926ZM33.2353 35.4713C35.4995 29.8704 37.8273 26.9184 39.7549 25.5468L32.0673 14.7427C27.1982 18.2073 23.6444 23.8164 20.9418 30.5016L33.2353 35.4713ZM39.7743 25.533C41.7134 24.1427 44.9766 23.0497 50.3212 23.0497V9.78971C43.3796 9.78971 37.0361 11.1801 32.0479 14.7566L39.7743 25.533ZM50.3212 23.0497H84.7291V9.78971H50.3212V23.0497ZM84.7291 23.0497C84.7168 23.0497 82.056 23.0544 80.5264 20.3012C79.8693 19.1183 79.8243 18.0435 79.8578 17.5C79.8903 16.9751 80.0065 16.6983 79.9823 16.7638L92.4168 21.3692C92.8814 20.1147 93.8541 16.987 92.1177 13.8616C90.098 10.2261 86.3753 9.78971 84.7291 9.78971V23.0497ZM80.0531 16.5808L74.6616 29.9126L86.9544 34.884L92.346 21.5522L80.0531 16.5808ZM74.6199 30.0183C74.6376 29.9722 74.8621 29.4346 75.5538 28.9351C76.2797 28.4108 76.9807 28.317 77.279 28.317V41.577C79.2764 41.577 81.4152 41.0585 83.3174 39.6847C85.1854 38.3355 86.3248 36.5236 86.9961 34.7783L74.6199 30.0183ZM77.279 28.317H47.8705V41.577H77.279V28.317ZM47.8705 28.317C46.5151 28.317 44.7656 28.6321 43.1347 29.7971C41.4711 30.9853 40.5753 32.597 40.1477 34.0222L52.8485 37.8324C52.617 38.6041 52.048 39.7257 50.8419 40.5872C49.6684 41.4254 48.5071 41.577 47.8705 41.577V28.317ZM40.3569 33.4289L27.5152 64.9939L39.7977 69.9908L52.6394 38.4258L40.3569 33.4289ZM27.3061 65.5873C27.0654 66.3893 26.3832 68.992 27.9713 71.6387C29.8284 74.7339 32.9716 75.1027 34.2446 75.1027V61.8427C34.9294 61.8427 37.6805 62.048 39.3416 64.8165C40.7336 67.1364 40.0514 69.249 40.0068 69.3975L27.3061 65.5873ZM34.2446 75.1027H56.2029V61.8427H34.2446V75.1027ZM56.2029 75.1027C57.5584 75.1027 59.3078 74.7876 60.9388 73.6227C62.6024 72.4344 63.4982 70.8227 63.9257 69.3975L51.2249 65.5873C51.4564 64.8156 52.0254 63.6941 53.2316 62.8326C54.4051 61.9943 55.5663 61.8427 56.2029 61.8427V75.1027ZM63.6692 70.1041L64.8456 67.3593L52.6577 62.1359L51.4814 64.8807L63.6692 70.1041ZM51.3995 51.7458C51.4195 51.7458 51.9261 51.7384 52.6529 52.0123C53.4681 52.3195 54.6444 53.0267 55.4514 54.4254C56.2308 55.7765 56.2424 57.042 56.1662 57.7021C56.1279 58.0341 56.0627 58.275 56.0217 58.4059C56.0001 58.475 55.9813 58.5257 55.969 58.557C55.9567 58.5885 55.9491 58.6048 55.9489 58.6054L43.9093 53.0487C43.3841 54.1866 41.9737 57.599 43.9657 61.0518C46.1071 64.7634 50.044 65.0058 51.3995 65.0058V51.7458ZM56.0888 58.2795L60.3041 47.6925L47.9846 42.7875L43.7694 53.3746L56.0888 58.2795ZM60.2503 47.8233C60.2458 47.834 60.0382 48.3061 59.4021 48.7531C58.7289 49.2261 58.0747 49.3213 57.7714 49.3213V36.0613C55.7689 36.0613 53.6606 36.5812 51.7784 37.9038C49.9333 39.2004 48.7617 40.9468 48.0383 42.6567L60.2503 47.8233ZM57.7714 49.3213H85.7094V36.0613H57.7714V49.3213ZM85.7094 49.3213C85.6493 49.3213 85.1102 49.3232 84.3585 49.0315C83.5115 48.7028 82.3826 47.9833 81.6086 46.6416C80.8683 45.3585 80.8323 44.1621 80.8888 43.5323C80.9174 43.2142 80.9727 42.9818 81.0086 42.8537C81.0275 42.7863 81.0442 42.7365 81.0553 42.7055C81.0664 42.6743 81.0733 42.6578 81.0738 42.6567L93.2858 47.8233C93.7881 46.6361 95.0072 43.3312 93.0942 40.0153C90.9886 36.3656 87.1586 36.0613 85.7094 36.0613V49.3213ZM81.0318 42.7582L76.7186 53.4433L89.0146 58.4068L93.3278 47.7218L81.0318 42.7582ZM76.798 53.2549C76.7909 53.2712 76.989 52.8159 77.6161 52.368C78.2977 51.8811 79.0055 51.7458 79.4356 51.7458V65.0058C81.4342 65.0058 83.498 64.4619 85.3233 63.1581C87.094 61.8934 88.2234 60.2127 88.9351 58.5952L76.798 53.2549ZM79.4356 51.7458H51.3995V65.0058H79.4356V51.7458ZM74.1942 84.1572L79.3019 88.3843L79.3081 88.3767L74.1942 84.1572ZM128.306 18.5763L133.42 22.7959L133.428 22.7853L133.437 22.7747L128.306 18.5763ZM150.068 18.5763H143.438V18.6358L143.439 18.6952L150.068 18.5763ZM151.244 84.1572H157.874V84.0977L157.873 84.0383L151.244 84.1572ZM130.462 84.8434L137.085 85.1444L137.092 84.994V84.8434H130.462ZM112.229 72.2958L117.337 76.5229L117.381 76.4692L117.424 76.4146L112.229 72.2958ZM120.856 61.4146L126.051 65.5335L126.06 65.5222L126.069 65.5108L120.856 61.4146ZM122.62 59.7482L125.232 65.8421L125.411 65.7653L125.585 65.6782L122.62 59.7482ZM130.56 58.4738H137.19V58.4521L137.19 58.4305L130.56 58.4738ZM130.462 43.4755L137.092 43.4322L136.969 24.6588L125.276 39.3458L130.462 43.4755ZM97.5249 84.8434L92.3381 80.7137L92.3248 80.7304L92.3116 80.7472L97.5249 84.8434ZM95.6623 86.6079L92.6973 80.6778L92.5327 80.7601L92.3729 80.8514L95.6623 86.6079ZM79.3081 88.3767L133.42 22.7959L123.192 14.3568L69.0802 79.9376L79.3081 88.3767ZM133.437 22.7747C133.593 22.5841 133.574 22.6685 133.328 22.801C133.203 22.8679 133.042 22.9344 132.854 22.9822C132.664 23.03 132.483 23.0497 132.325 23.0497V9.78971C128.371 9.78971 125.284 11.7991 123.174 14.378L133.437 22.7747ZM132.325 23.0497H147.813V9.78971H132.325V23.0497ZM147.813 23.0497C147.615 23.0497 146.236 23.0069 144.921 21.75C143.552 20.4404 143.438 18.9564 143.438 18.5763H156.698C156.698 16.7585 156.208 14.1962 154.087 12.1678C152.021 10.1919 149.515 9.78971 147.813 9.78971V23.0497ZM143.439 18.6952L144.615 84.2761L157.873 84.0383L156.697 18.4574L143.439 18.6952ZM144.614 84.1572C144.614 83.9654 144.687 82.6345 145.955 81.4476C146.531 80.9086 147.129 80.6278 147.561 80.4929C147.77 80.4279 147.934 80.398 148.039 80.384C148.144 80.37 148.203 80.37 148.205 80.37V93.63C150.134 93.63 152.815 93.1876 155.014 91.131C157.296 88.9965 157.874 86.2442 157.874 84.1572H144.614ZM148.205 80.37H132.717V93.63H148.205V80.37ZM132.717 80.37C132.79 80.37 134.2 80.3695 135.56 81.6697C137.038 83.084 137.105 84.7158 137.085 85.1444L123.839 84.5423C123.754 86.4087 124.164 89.1189 126.394 91.252C128.505 93.2711 131.075 93.63 132.717 93.63V80.37ZM137.092 84.8434V76.0208H123.832V84.8434H137.092ZM137.092 76.0208C137.092 74.5138 136.642 72.2213 134.652 70.4311C132.796 68.7604 130.668 68.5086 129.482 68.5086V81.7686C128.949 81.7686 127.312 81.6638 125.782 80.2872C124.12 78.7911 123.832 76.9397 123.832 76.0208H137.092ZM129.482 68.5086H113.013V81.7686H129.482V68.5086ZM113.013 68.5086C112.86 68.5086 113.424 68.4723 114.265 68.811C115.28 69.2198 117.002 70.3523 117.64 72.6648C118.175 74.6024 117.546 76.035 117.42 76.3091C117.246 76.687 117.128 76.775 117.337 76.5229L107.121 68.0687C106.546 68.7642 105.873 69.6813 105.372 70.7699C104.919 71.7547 104.192 73.7796 104.858 76.191C105.626 78.9773 107.708 80.4652 109.311 81.1108C110.74 81.6864 112.121 81.7686 113.013 81.7686V68.5086ZM117.424 76.4146L126.051 65.5335L115.66 57.2958L107.034 68.1769L117.424 76.4146ZM126.069 65.5108C126.306 65.2094 126.41 65.1112 126.388 65.1319C126.372 65.147 126.283 65.2307 126.122 65.3463C125.968 65.4567 125.669 65.6549 125.232 65.8421L120.008 53.6542C118.755 54.1913 117.835 54.9705 117.284 55.4917C116.673 56.068 116.124 56.7049 115.642 57.3185L126.069 65.5108ZM125.585 65.6782C125.324 65.8086 125.109 65.8842 124.966 65.927C124.823 65.97 124.726 65.9879 124.69 65.9939C124.63 66.0039 124.708 65.9861 124.973 65.9861V52.7261C123.588 52.7261 121.563 52.864 119.655 53.8181L125.585 65.6782ZM124.973 65.9861H129.58V52.7261H124.973V65.9861ZM129.58 65.9861C130.766 65.9861 132.894 65.7342 134.751 64.0635C136.74 62.2733 137.19 59.9809 137.19 58.4738H123.93C123.93 57.5549 124.218 55.7036 125.88 54.2075C127.41 52.8308 129.047 52.7261 129.58 52.7261V65.9861ZM137.19 58.4305L137.092 43.4322L123.832 43.5188L123.931 58.5171L137.19 58.4305ZM125.276 39.3458L92.3381 80.7137L102.712 88.9731L135.649 47.6052L125.276 39.3458ZM92.3116 80.7472C92.2038 80.8843 92.1182 80.9856 92.0547 81.0569C91.9903 81.1291 91.9589 81.159 91.9603 81.1576C91.9619 81.1562 91.9751 81.1437 92 81.1226C92.0247 81.1016 92.0644 81.0691 92.1192 81.0284C92.2226 80.9515 92.416 80.8185 92.6973 80.6778L98.6273 92.5379C100.527 91.5882 101.898 90.0093 102.738 88.9395L92.3116 80.7472ZM92.3729 80.8514C92.9954 80.4958 93.4786 80.3999 93.5941 80.3789C93.7325 80.3538 93.7234 80.37 93.5057 80.37V93.63C94.802 93.63 96.955 93.5053 98.9517 92.3643L92.3729 80.8514ZM93.5057 80.37H74.8804V93.63H93.5057V80.37ZM74.8804 80.37C74.8816 80.37 74.9081 80.37 74.9566 80.3732C75.0046 80.3763 75.0841 80.3833 75.19 80.3992C75.3825 80.4281 75.7738 80.503 76.2667 80.7102C77.3782 81.1774 79.0721 82.4045 79.6343 84.7336C80.0914 86.6273 79.462 87.9943 79.3522 88.2273C79.189 88.5736 79.0885 88.6421 79.3019 88.3843L69.0864 79.9301C68.5156 80.6199 67.8555 81.5175 67.3574 82.5746C66.9127 83.5182 66.173 85.4775 66.7445 87.845C67.421 90.6479 69.4539 92.2304 71.129 92.9344C72.5868 93.5471 73.9959 93.63 74.8804 93.63V80.37ZM154.609 84.4513L148.463 81.9668L148.441 82.0188L148.421 82.0712L154.609 84.4513ZM181.077 18.9684L187.224 21.453L187.245 21.4009L187.265 21.3485L181.077 18.9684ZM201.075 18.2822L207.666 17.5691L207.649 17.4082L207.624 17.2482L201.075 18.2822ZM204.702 51.8079L198.11 52.521L198.187 53.229L198.412 53.9045L204.702 51.8079ZM205.486 52.102L210.174 56.7901L210.292 56.6724L210.403 56.549L205.486 52.102ZM236.071 18.2822L231.258 13.7225L231.205 13.7783L231.153 13.8352L236.071 18.2822ZM256.951 18.9684L263.098 21.453L263.119 21.4009L263.139 21.3485L256.951 18.9684ZM230.483 84.4513L224.336 81.9668L224.315 82.0188L224.295 82.0712L230.483 84.4513ZM209.897 84.4513L203.745 81.9795L203.727 82.0252L203.709 82.0712L209.897 84.4513ZM218.72 62.493L224.872 64.9647L213.956 57.8823L218.72 62.493ZM204.016 77.6873L199.251 73.0767L199.227 73.102L199.203 73.1276L204.016 77.6873ZM186.174 77.6873L179.611 78.6249L179.618 78.6732L179.626 78.7214L186.174 77.6873ZM184.018 62.591L190.581 61.6534L187.095 37.251L177.87 60.1097L184.018 62.591ZM175.195 84.4513L169.047 81.9699L169.027 82.0204L169.007 82.0712L175.195 84.4513ZM160.756 86.9358L187.224 21.453L174.93 16.4839L148.463 81.9668L160.756 86.9358ZM187.265 21.3485C187.247 21.3946 187.023 21.9321 186.331 22.4317C185.605 22.9559 184.904 23.0497 184.606 23.0497V9.78971C182.609 9.78971 180.47 10.3083 178.568 11.6821C176.7 13.0312 175.56 14.8432 174.889 16.5884L187.265 21.3485ZM184.606 23.0497H198.624V9.78971H184.606V23.0497ZM198.624 23.0497C198.462 23.0497 197.431 23.021 196.303 22.1639C195.058 21.2172 194.631 19.9828 194.526 19.3163L207.624 17.2482C207.322 15.34 206.389 13.1743 204.327 11.6068C202.382 10.1289 200.224 9.78971 198.624 9.78971V23.0497ZM194.483 18.9954L198.11 52.521L211.293 51.0948L207.666 17.5691L194.483 18.9954ZM198.412 53.9045C198.506 54.1867 198.681 54.6891 198.943 55.214C199.058 55.4443 199.348 56.0046 199.847 56.6037C200.044 56.8396 201.787 59.0261 204.996 59.0261V45.7661C206.684 45.7661 207.942 46.3998 208.648 46.8704C209.347 47.3367 209.8 47.8344 210.034 48.1149C210.492 48.665 210.737 49.1518 210.803 49.284C210.968 49.6129 211.028 49.8212 210.992 49.7113L198.412 53.9045ZM204.996 59.0261C206.691 59.0261 207.958 58.4092 208.628 58.0077C209.332 57.5849 209.85 57.1144 210.174 56.7901L200.798 47.4138C200.926 47.2856 201.264 46.9621 201.805 46.6374C202.311 46.3339 203.431 45.7661 204.996 45.7661V59.0261ZM210.403 56.549L240.988 22.7293L231.153 13.8352L200.569 47.6549L210.403 56.549ZM240.884 22.842C241.035 22.6828 241.022 22.7438 240.813 22.8456C240.576 22.961 240.248 23.0497 239.894 23.0497V9.78971C236.272 9.78971 233.357 11.5063 231.258 13.7225L240.884 22.842ZM239.894 23.0497H255.382V9.78971H239.894V23.0497ZM255.382 23.0497C255.316 23.0497 254.796 23.05 254.068 22.7718C253.255 22.4607 252.175 21.7872 251.402 20.5316C250.656 19.319 250.566 18.1627 250.599 17.5138C250.616 17.191 250.663 16.951 250.696 16.8131C250.73 16.6731 250.76 16.5954 250.763 16.5884L263.139 21.3485C263.628 20.077 264.672 16.794 262.695 13.5821C260.563 10.1163 256.889 9.78971 255.382 9.78971V23.0497ZM250.804 16.4839L224.336 81.9668L236.63 86.9358L263.098 21.453L250.804 16.4839ZM224.295 82.0712C224.33 81.9796 224.576 81.4293 225.274 80.9382C225.989 80.4361 226.645 80.37 226.856 80.37V93.63C228.832 93.63 230.975 93.1391 232.898 91.7874C234.806 90.4468 235.983 88.6221 236.671 86.8313L224.295 82.0712ZM226.856 80.37H211.466V93.63H226.856V80.37ZM211.466 80.37C211.532 80.37 212.052 80.3698 212.78 80.6479C213.593 80.959 214.673 81.6325 215.446 82.8881C216.192 84.1007 216.282 85.2571 216.249 85.9059C216.232 86.2287 216.185 86.4687 216.152 86.6066C216.118 86.7466 216.088 86.8243 216.085 86.8313L203.709 82.0712C203.22 83.3427 202.176 86.6258 204.153 89.8376C206.286 93.3034 209.959 93.63 211.466 93.63V80.37ZM216.049 86.9231L224.872 64.9647L212.568 60.0212L203.745 81.9795L216.049 86.9231ZM213.956 57.8823L199.251 73.0767L208.78 82.298L223.484 67.1036L213.956 57.8823ZM199.203 73.1276C199.052 73.2868 199.065 73.2257 199.274 73.1239C199.511 73.0086 199.839 72.9199 200.193 72.9199V86.1799C203.814 86.1799 206.729 84.4632 208.829 82.2471L199.203 73.1276ZM200.193 72.9199H188.723V86.1799H200.193V72.9199ZM188.723 72.9199C188.796 72.9199 189.766 72.9242 190.871 73.7312C192.131 74.6525 192.605 75.9035 192.723 76.6533L179.626 78.7214C179.94 80.7129 180.937 82.8951 183.047 84.4372C185.001 85.8651 187.147 86.1799 188.723 86.1799V72.9199ZM192.738 76.7497L190.581 61.6534L177.454 63.5286L179.611 78.6249L192.738 76.7497ZM177.87 60.1097L169.047 81.9699L181.344 86.9326L190.166 65.0723L177.87 60.1097ZM169.007 82.0712C169.06 81.934 169.326 81.3725 170.03 80.891C170.731 80.4114 171.342 80.37 171.47 80.37V93.63C173.429 93.63 175.575 93.1639 177.518 91.8346C179.463 90.5036 180.677 88.6677 181.383 86.8313L169.007 82.0712ZM171.47 80.37H156.08V93.63H171.47V80.37ZM156.08 80.37C156.182 80.37 156.755 80.3743 157.531 80.6849C158.408 81.0355 159.489 81.7662 160.23 83.0497C160.931 84.2659 160.988 85.3936 160.95 85.9905C160.931 86.2934 160.885 86.5159 160.854 86.64C160.838 86.705 160.824 86.7533 160.814 86.7835C160.804 86.8139 160.798 86.8301 160.798 86.8313L148.421 82.0712C147.948 83.3011 146.909 86.4958 148.744 89.676C150.811 93.2587 154.532 93.63 156.08 93.63V80.37ZM281.535 46.4163L275.477 43.7236L275.424 43.8427L275.375 43.9638L281.535 46.4163ZM311.336 46.4163L305.277 43.7236L305.224 43.8427L305.176 43.9638L311.336 46.4163ZM307.121 57.0034L313.179 59.6961L313.232 59.577L313.28 59.4559L307.121 57.0034ZM277.32 57.0034L283.379 59.6961L283.432 59.577L283.48 59.4559L277.32 57.0034ZM305.748 71.0214L311.895 73.5071L311.916 73.4544L311.936 73.4014L305.748 71.0214ZM300.357 84.3532L306.415 87.0459L306.461 86.9432L306.503 86.8389L300.357 84.3532ZM241.246 84.3532L247.304 87.0459L247.35 86.9418L247.393 86.8362L241.246 84.3532ZM267.615 19.0665L261.557 16.3738L261.51 16.4779L261.468 16.5835L267.615 19.0665ZM326.726 19.0665L320.668 16.3738L320.622 16.4765L320.58 16.5808L326.726 19.0665ZM321.335 32.3983L315.188 29.9126L315.167 29.9653L315.147 30.0183L321.335 32.3983ZM281.241 35.9273L287.382 38.4258L287.501 38.1341L287.592 37.8324L281.241 35.9273ZM268.399 67.4924L262.258 64.9939L262.14 65.2856L262.049 65.5873L268.399 67.4924ZM287.594 49.109C287.648 48.9866 287.506 49.373 286.938 49.7869C286.303 50.2505 285.615 50.3996 285.162 50.3996V37.1396C283.076 37.1396 280.966 37.7298 279.122 39.0756C277.346 40.3718 276.206 42.0816 275.477 43.7236L287.594 49.109ZM285.162 50.3996H309.865V37.1396H285.162V50.3996ZM309.865 50.3996C309.825 50.3996 309.289 50.4045 308.534 50.1091C307.678 49.7743 306.529 49.034 305.761 47.6511C305.031 46.3371 305.028 45.1306 305.096 44.5262C305.16 43.9503 305.31 43.6508 305.277 43.7236L317.394 49.109C317.916 47.9357 319.234 44.5989 317.352 41.2115C315.256 37.439 311.313 37.1396 309.865 37.1396V50.3996ZM305.176 43.9638L300.961 54.5509L313.28 59.4559L317.496 48.8688L305.176 43.9638ZM301.062 54.3107C301.008 54.4331 301.15 54.0467 301.717 53.6328C302.353 53.1693 303.041 53.0201 303.494 53.0201V66.2801C305.58 66.2801 307.69 65.6899 309.534 64.3441C311.31 63.0479 312.449 61.3381 313.179 59.6961L301.062 54.3107ZM303.494 53.0201H278.79V66.2801H303.494V53.0201ZM278.79 53.0201C278.831 53.0201 279.367 53.0152 280.122 53.3106C280.978 53.6454 282.127 54.3857 282.895 55.7686C283.625 57.0826 283.627 58.2892 283.56 58.8935C283.496 59.4694 283.346 59.7689 283.379 59.6961L271.261 54.3107C270.74 55.484 269.422 58.8208 271.304 62.2083C273.4 65.9807 277.342 66.2801 278.79 66.2801V53.0201ZM283.48 59.4559L287.695 48.8688L275.375 43.9638L271.16 54.5509L283.48 59.4559ZM304.18 75.1027C304.114 75.1027 303.593 75.1029 302.866 74.8247C302.052 74.5136 300.972 73.8402 300.2 72.5846C299.453 71.3719 299.363 70.2156 299.396 69.5668C299.413 69.244 299.46 69.004 299.494 68.8661C299.528 68.7261 299.557 68.6484 299.56 68.6414L311.936 73.4014C312.425 72.13 313.469 68.8469 311.493 65.6351C309.36 62.1693 305.686 61.8427 304.18 61.8427V75.1027ZM299.602 68.5357L294.21 81.8676L306.503 86.8389L311.895 73.5071L299.602 68.5357ZM294.298 81.6605C294.244 81.783 294.386 81.3966 294.954 80.9827C295.589 80.5191 296.277 80.37 296.73 80.37V93.63C298.816 93.63 300.926 93.0398 302.77 91.694C304.546 90.3978 305.685 88.688 306.415 87.0459L294.298 81.6605ZM296.73 80.37H242.716V93.63H296.73V80.37ZM242.716 80.37C242.756 80.37 243.293 80.3651 244.048 80.6604C244.903 80.9953 246.052 81.7356 246.821 83.1185C247.551 84.4324 247.553 85.639 247.486 86.2434C247.422 86.8193 247.272 87.1188 247.304 87.0459L235.187 81.6605C234.666 82.8339 233.348 86.1707 235.229 89.5581C237.325 93.3305 241.268 93.63 242.716 93.63V80.37ZM247.393 86.8362L273.763 21.5495L261.468 16.5835L235.098 81.8702L247.393 86.8362ZM273.674 21.7592C273.728 21.6367 273.586 22.0231 273.018 22.4371C272.383 22.9006 271.695 23.0497 271.242 23.0497V9.78971C269.156 9.78971 267.046 10.38 265.202 11.7257C263.426 13.0219 262.286 14.7317 261.557 16.3738L273.674 21.7592ZM271.242 23.0497H325.256V9.78971H271.242V23.0497ZM325.256 23.0497C325.215 23.0497 324.679 23.0546 323.924 22.7593C323.068 22.4244 321.919 21.6841 321.151 20.3012C320.421 18.9873 320.419 17.7807 320.486 17.1763C320.55 16.6004 320.7 16.3009 320.668 16.3738L332.785 21.7592C333.306 20.5858 334.624 17.2491 332.742 13.8616C330.647 10.0892 326.704 9.78971 325.256 9.78971V23.0497ZM320.58 16.5808L315.188 29.9126L327.481 34.884L332.873 21.5521L320.58 16.5808ZM315.147 30.0183C315.164 29.9722 315.389 29.4346 316.08 28.9351C316.806 28.4108 317.507 28.317 317.806 28.317V41.577C319.803 41.577 321.942 41.0585 323.844 39.6847C325.712 38.3355 326.852 36.5236 327.523 34.7783L315.147 30.0183ZM317.806 28.317H282.614V41.577H317.806V28.317ZM282.614 28.317C281.258 28.317 279.509 28.6321 277.878 29.7971C276.214 30.9853 275.318 32.597 274.891 34.0222L287.592 37.8324C287.36 38.6041 286.791 39.7257 285.585 40.5872C284.411 41.4254 283.25 41.577 282.614 41.577V28.317ZM275.1 33.4289L262.258 64.9939L274.541 69.9908L287.382 38.4258L275.1 33.4289ZM262.049 65.5873C261.808 66.3894 261.126 68.992 262.714 71.6387C264.571 74.7339 267.715 75.1027 268.988 75.1027V61.8427C269.672 61.8427 272.424 62.048 274.085 64.8165C275.477 67.1364 274.794 69.2489 274.75 69.3975L262.049 65.5873ZM268.988 75.1027H304.18V61.8427H268.988V75.1027ZM17.4944 186.433L23.6322 188.94L23.6351 188.933L23.638 188.926L17.4944 186.433ZM32.6888 148.986L38.8323 151.479L38.8355 151.471L32.6888 148.986ZM41.5113 136.145L45.3551 141.547L45.3648 141.54L45.3746 141.533L41.5113 136.145ZM99.0539 137.223L93.3483 140.6L93.3736 140.643L93.3995 140.685L99.0539 137.223ZM99.1519 148.986L93.0142 146.48L93.0113 146.487L93.0084 146.494L99.1519 148.986ZM83.9575 186.433L77.814 183.94L77.8108 183.948L83.9575 186.433ZM75.037 199.373L78.8321 204.809L78.8663 204.785L78.9002 204.761L75.037 199.373ZM47.4911 200.353L53.5496 203.046L53.5953 202.943L53.6375 202.839L47.4911 200.353ZM52.8826 187.021L59.029 189.507L59.0503 189.454L59.0707 189.401L52.8826 187.021ZM64.548 183.492L58.4001 181.01L58.2855 181.294L58.1976 181.587L64.548 183.492ZM77.2916 151.927L83.4395 154.409L83.5541 154.126L83.642 153.832L77.2916 151.927ZM52.0984 151.927L58.2463 154.409L58.3608 154.126L58.4488 153.832L52.0984 151.927ZM39.3547 183.492L33.2069 181.01L33.0923 181.294L33.0043 181.587L39.3547 183.492ZM48.2753 187.021L54.4217 189.507L54.443 189.454L54.4634 189.401L48.2753 187.021ZM42.8837 200.353L48.9423 203.046L48.988 202.943L49.0301 202.839L42.8837 200.353ZM17.4944 198.197L11.7888 201.573L11.8141 201.616L11.84 201.658L17.4944 198.197ZM23.638 188.926L38.8323 151.479L26.5453 146.494L11.3509 183.94L23.638 188.926ZM38.8355 151.471C41.0998 145.87 43.4276 142.918 45.3551 141.547L37.6676 130.743C32.7985 134.207 29.2446 139.816 26.5421 146.502L38.8355 151.471ZM45.3746 141.533C47.3136 140.143 50.5769 139.05 55.9215 139.05V125.79C48.9799 125.79 42.6364 127.18 37.6481 130.757L45.3746 141.533ZM55.9215 139.05H89.153V125.79H55.9215V139.05ZM89.153 139.05C92.231 139.05 92.9708 139.962 93.3483 140.6L104.76 133.846C101.347 128.08 95.4858 125.79 89.153 125.79V139.05ZM93.3995 140.685C93.9106 141.52 94.4023 143.081 93.0142 146.48L105.29 151.493C107.692 145.612 108.118 139.331 104.708 133.761L93.3995 140.685ZM93.0084 146.494L77.814 183.94L90.1011 188.926L105.295 151.479L93.0084 146.494ZM77.8108 183.948C75.5579 189.521 73.1974 192.534 71.1738 193.985L78.9002 204.761C83.8039 201.245 87.3905 195.631 90.1043 188.918L77.8108 183.948ZM71.2418 193.937C69.2919 195.298 66.0009 196.37 60.6268 196.37V209.63C67.539 209.63 73.8547 208.284 78.8321 204.809L71.2418 193.937ZM60.6268 196.37H48.9615V209.63H60.6268V196.37ZM48.9615 196.37C49.0018 196.37 49.5382 196.365 50.293 196.66C51.1488 196.995 52.2979 197.736 53.0662 199.118C53.7961 200.432 53.7984 201.639 53.7313 202.243C53.6673 202.819 53.5173 203.119 53.5496 203.046L41.4325 197.661C40.911 198.834 39.5929 202.171 41.4748 205.558C43.5706 209.331 47.5135 209.63 48.9615 209.63V196.37ZM53.6375 202.839L59.029 189.507L46.7362 184.536L41.3447 197.868L53.6375 202.839ZM59.0707 189.401C59.053 189.448 58.8285 189.985 58.1368 190.485C57.4109 191.009 56.7099 191.103 56.4116 191.103V177.843C54.4142 177.843 52.2754 178.361 50.3732 179.735C48.5052 181.084 47.3658 182.896 46.6945 184.641L59.0707 189.401ZM56.4116 191.103H63.1756V177.843H56.4116V191.103ZM63.1756 191.103C64.531 191.103 66.2805 190.788 67.9114 189.623C69.575 188.434 70.4708 186.823 70.8984 185.397L58.1976 181.587C58.4291 180.816 58.9981 179.694 60.2042 178.833C61.3777 177.994 62.539 177.843 63.1756 177.843V191.103ZM70.6958 185.974L83.4395 154.409L71.1438 149.445L58.4001 181.01L70.6958 185.974ZM83.642 153.832C83.8826 153.03 84.5648 150.428 82.9768 147.781C81.1197 144.686 77.9764 144.317 76.7035 144.317V157.577C76.0187 157.577 73.2675 157.372 71.6064 154.603C70.2145 152.283 70.8967 150.171 70.9412 150.022L83.642 153.832ZM76.7035 144.317H53.4708V157.577H76.7035V144.317ZM53.4708 144.317C52.1153 144.317 50.3659 144.632 48.7349 145.797C47.0713 146.985 46.1756 148.597 45.748 150.022L58.4488 153.832C58.2173 154.604 57.6483 155.726 56.4421 156.587C55.2686 157.425 54.1074 157.577 53.4708 157.577V144.317ZM45.9505 149.445L33.2069 181.01L45.5026 185.974L58.2463 154.409L45.9505 149.445ZM33.0043 181.587C32.7637 182.389 32.0815 184.992 33.6695 187.639C35.5267 190.734 38.6699 191.103 39.9429 191.103V177.843C40.6277 177.843 43.3788 178.048 45.0399 180.816C46.4319 183.136 45.7497 185.249 45.7051 185.398L33.0043 181.587ZM39.9429 191.103H46.7068V177.843H39.9429V191.103ZM46.7068 191.103C46.6409 191.103 46.1204 191.103 45.3928 190.825C44.5792 190.514 43.4995 189.84 42.7268 188.585C41.9805 187.372 41.8903 186.216 41.9236 185.567C41.9401 185.244 41.9875 185.004 42.0209 184.866C42.0547 184.726 42.0845 184.648 42.0872 184.641L54.4634 189.401C54.9524 188.13 55.9963 184.847 54.0198 181.635C51.887 178.169 48.2133 177.843 46.7068 177.843V191.103ZM42.1289 184.536L36.7373 197.868L49.0301 202.839L54.4217 189.507L42.1289 184.536ZM36.8252 197.661C36.7707 197.783 36.9134 197.397 37.4806 196.983C38.1158 196.519 38.8044 196.37 39.2567 196.37V209.63C41.3427 209.63 43.4528 209.04 45.297 207.694C47.0732 206.398 48.2125 204.688 48.9423 203.046L36.8252 197.661ZM39.2567 196.37H27.3953V209.63H39.2567V196.37ZM27.3953 196.37C24.4339 196.37 23.6088 195.486 23.1488 194.735L11.84 201.658C15.3012 207.312 21.0767 209.63 27.3953 209.63V196.37ZM23.2001 194.82C22.7027 193.979 22.228 192.378 23.6322 188.94L11.3567 183.926C8.97048 189.768 8.49576 196.009 11.7888 201.573L23.2001 194.82ZM133.208 169.768L127.114 167.157L126.949 167.543L126.833 167.947L133.208 169.768ZM134.581 167.808L139.642 172.09L139.698 172.024L139.752 171.957L134.581 167.808ZM161.244 134.576L156.091 130.405L156.082 130.416L156.073 130.427L161.244 134.576ZM184.281 133.302L177.702 132.48L177.651 132.889V133.302H184.281ZM183.203 135.361L188.32 139.576L188.369 139.517L188.416 139.457L183.203 135.361ZM136.051 192.609L141.122 196.88L141.146 196.852L141.169 196.824L136.051 192.609ZM110.172 139.148H126.248V125.888H110.172V139.148ZM126.248 139.148C126.212 139.148 124.946 139.159 123.647 138.022C122.178 136.737 121.971 135.159 121.971 134.576H135.231C135.231 132.621 134.631 130.014 132.379 128.043C130.295 126.22 127.853 125.888 126.248 125.888V139.148ZM121.971 134.576V200.157H135.231V134.576H121.971ZM121.971 200.157C121.971 199.905 122.07 198.549 123.365 197.377C124.535 196.316 125.64 196.37 125.464 196.37V209.63C127.379 209.63 130.053 209.21 132.269 207.202C134.609 205.082 135.231 202.304 135.231 200.157H121.971ZM125.464 196.37H109.682V209.63H125.464V196.37ZM109.682 196.37C109.718 196.37 110.984 196.359 112.283 197.496C113.751 198.781 113.959 200.358 113.959 200.941H100.699C100.699 202.897 101.298 205.504 103.551 207.475C105.635 209.298 108.077 209.63 109.682 209.63V196.37ZM113.959 200.941V135.361H100.699V200.941H113.959ZM113.959 135.361C113.959 135.435 113.936 136.708 112.728 137.917C111.52 139.125 110.246 139.148 110.172 139.148V125.888C108.202 125.888 105.507 126.385 103.351 128.54C101.196 130.696 100.699 133.391 100.699 135.361H113.959ZM139.642 192.609V171.631H126.382V192.609H139.642ZM139.642 171.631C139.642 171.526 139.644 171.444 139.647 171.381C139.65 171.319 139.654 171.283 139.655 171.271C139.656 171.259 139.654 171.279 139.646 171.328C139.641 171.353 139.634 171.388 139.624 171.431C139.614 171.474 139.601 171.527 139.583 171.59L126.833 167.947C126.46 169.255 126.382 170.574 126.382 171.631H139.642ZM139.302 172.38C139.214 172.586 139.14 172.714 139.119 172.75C139.094 172.792 139.093 172.79 139.13 172.737C139.207 172.626 139.366 172.416 139.642 172.09L129.519 163.525C128.768 164.413 127.733 165.714 127.114 167.157L139.302 172.38ZM139.752 171.957L166.416 138.725L156.073 130.427L129.409 163.659L139.752 171.957ZM166.397 138.748C166.495 138.628 166.426 138.752 166.14 138.903C165.825 139.068 165.467 139.148 165.165 139.148V125.888C161.302 125.888 158.215 127.781 156.091 130.405L166.397 138.748ZM165.165 139.148H182.418V125.888H165.165V139.148ZM182.418 139.148C182.862 139.148 182.246 139.226 181.292 138.824C180.745 138.594 179.669 138.03 178.791 136.791C177.808 135.403 177.535 133.82 177.702 132.48L190.86 134.124C191.06 132.523 190.734 130.711 189.612 129.127C188.595 127.692 187.294 126.964 186.437 126.603C184.862 125.94 183.282 125.888 182.418 125.888V139.148ZM177.651 133.302C177.651 132.57 177.79 132.013 177.889 131.7C177.99 131.377 178.095 131.165 178.138 131.083C178.215 130.936 178.21 130.984 177.989 131.264L188.416 139.457C188.915 138.822 189.448 138.069 189.884 137.236C190.26 136.519 190.911 135.104 190.911 133.302H177.651ZM178.085 131.146L130.933 188.394L141.169 196.824L188.32 139.576L178.085 131.146ZM130.98 188.338C130.59 188.801 130.459 188.89 130.563 188.808C130.622 188.761 130.872 188.568 131.295 188.366C131.7 188.174 132.543 187.842 133.698 187.842V201.102C136.31 201.102 138.15 199.714 138.794 199.204C139.682 198.501 140.466 197.659 141.122 196.88L130.98 188.338ZM133.698 187.842C135.249 187.842 136.729 188.427 137.846 189.439C138.823 190.322 139.241 191.268 139.405 191.714C139.704 192.525 139.642 193.009 139.642 192.609H126.382C126.382 193.45 126.435 194.866 126.963 196.298C127.241 197.054 127.802 198.233 128.95 199.272C130.239 200.438 131.919 201.102 133.698 201.102V187.842ZM200.786 162.416L194.728 159.724L194.675 159.843L194.627 159.964L200.786 162.416ZM230.587 162.416L224.528 159.724L224.476 159.843L224.427 159.964L230.587 162.416ZM226.372 173.003L232.43 175.696L232.483 175.577L232.532 175.456L226.372 173.003ZM196.571 173.003L202.63 175.696L202.683 175.577L202.731 175.456L196.571 173.003ZM224.999 187.021L231.146 189.507L231.167 189.454L231.187 189.401L224.999 187.021ZM219.608 200.353L225.666 203.046L225.712 202.943L225.754 202.839L219.608 200.353ZM160.497 200.353L166.555 203.046L166.602 202.942L166.644 202.836L160.497 200.353ZM186.866 135.066L180.808 132.374L180.762 132.478L180.719 132.583L186.866 135.066ZM245.977 135.066L239.919 132.374L239.873 132.477L239.831 132.581L245.977 135.066ZM240.586 148.398L234.439 145.913L234.418 145.965L234.398 146.018L240.586 148.398ZM200.492 151.927L206.634 154.426L206.752 154.134L206.843 153.832L200.492 151.927ZM187.651 183.492L181.509 180.994L181.391 181.286L181.3 181.587L187.651 183.492ZM206.845 165.109C206.899 164.987 206.757 165.373 206.19 165.787C205.554 166.25 204.866 166.4 204.413 166.4V153.14C202.327 153.14 200.217 153.73 198.373 155.076C196.597 156.372 195.458 158.082 194.728 159.724L206.845 165.109ZM204.413 166.4H229.117V153.14H204.413V166.4ZM229.117 166.4C229.076 166.4 228.54 166.404 227.785 166.109C226.929 165.774 225.78 165.034 225.012 163.651C224.282 162.337 224.28 161.131 224.347 160.526C224.411 159.95 224.561 159.651 224.528 159.724L236.646 165.109C237.167 163.936 238.485 160.599 236.603 157.211C234.507 153.439 230.565 153.14 229.117 153.14V166.4ZM224.427 159.964L220.212 170.551L232.532 175.456L236.747 164.869L224.427 159.964ZM220.313 170.311C220.259 170.433 220.401 170.047 220.969 169.633C221.604 169.169 222.293 169.02 222.745 169.02V182.28C224.831 182.28 226.941 181.69 228.785 180.344C230.561 179.048 231.701 177.338 232.43 175.696L220.313 170.311ZM222.745 169.02H198.042V182.28H222.745V169.02ZM198.042 169.02C198.082 169.02 198.618 169.015 199.373 169.311C200.229 169.645 201.378 170.386 202.146 171.769C202.876 173.083 202.879 174.289 202.811 174.893C202.747 175.469 202.597 175.769 202.63 175.696L190.513 170.311C189.991 171.484 188.673 174.821 190.555 178.208C192.651 181.981 196.594 182.28 198.042 182.28V169.02ZM202.731 175.456L206.946 164.869L194.627 159.964L190.412 170.551L202.731 175.456ZM223.431 191.103C223.365 191.103 222.844 191.103 222.117 190.825C221.303 190.514 220.224 189.84 219.451 188.585C218.705 187.372 218.614 186.216 218.648 185.567C218.664 185.244 218.712 185.004 218.745 184.866C218.779 184.726 218.809 184.648 218.811 184.641L231.187 189.401C231.677 188.13 232.72 184.847 230.744 181.635C228.611 178.169 224.937 177.843 223.431 177.843V191.103ZM218.853 184.536L213.461 197.868L225.754 202.839L231.146 189.507L218.853 184.536ZM213.549 197.661C213.495 197.783 213.638 197.397 214.205 196.983C214.84 196.519 215.529 196.37 215.981 196.37V209.63C218.067 209.63 220.177 209.04 222.021 207.694C223.797 206.398 224.937 204.688 225.666 203.046L213.549 197.661ZM215.981 196.37H161.967V209.63H215.981V196.37ZM161.967 196.37C162.008 196.37 162.544 196.365 163.299 196.66C164.155 196.995 165.304 197.736 166.072 199.118C166.802 200.432 166.804 201.639 166.737 202.243C166.673 202.819 166.523 203.119 166.555 203.046L154.438 197.661C153.917 198.834 152.599 202.171 154.481 205.558C156.576 209.331 160.519 209.63 161.967 209.63V196.37ZM166.644 202.836L193.014 137.549L180.719 132.583L154.349 197.87L166.644 202.836ZM192.925 137.759C192.979 137.637 192.837 138.023 192.27 138.437C191.634 138.901 190.946 139.05 190.493 139.05V125.79C188.407 125.79 186.297 126.38 184.453 127.726C182.677 129.022 181.538 130.732 180.808 132.374L192.925 137.759ZM190.493 139.05H244.507V125.79H190.493V139.05ZM244.507 139.05C244.467 139.05 243.93 139.055 243.175 138.759C242.32 138.424 241.171 137.684 240.402 136.301C239.672 134.987 239.67 133.781 239.737 133.176C239.801 132.6 239.951 132.301 239.919 132.374L252.036 137.759C252.557 136.586 253.876 133.249 251.994 129.862C249.898 126.089 245.955 125.79 244.507 125.79V139.05ZM239.831 132.581L234.439 145.913L246.732 150.884L252.124 137.552L239.831 132.581ZM234.398 146.018C234.416 145.972 234.64 145.435 235.332 144.935C236.058 144.411 236.759 144.317 237.057 144.317V157.577C239.054 157.577 241.193 157.058 243.095 155.685C244.963 154.336 246.103 152.524 246.774 150.778L234.398 146.018ZM237.057 144.317H201.865V157.577H237.057V144.317ZM201.865 144.317C200.509 144.317 198.76 144.632 197.129 145.797C195.465 146.985 194.57 148.597 194.142 150.022L206.843 153.832C206.611 154.604 206.042 155.726 204.836 156.587C203.663 157.425 202.501 157.577 201.865 157.577V144.317ZM194.351 149.429L181.509 180.994L193.792 185.991L206.634 154.426L194.351 149.429ZM181.3 181.587C181.06 182.389 180.377 184.992 181.965 187.639C183.823 190.734 186.966 191.103 188.239 191.103V177.843C188.924 177.843 191.675 178.048 193.336 180.816C194.728 183.136 194.046 185.249 194.001 185.398L181.3 181.587ZM188.239 191.103H223.431V177.843H188.239V191.103ZM227.03 200.353L233.088 203.046L233.134 202.942L233.177 202.836L227.03 200.353ZM253.399 135.066L247.341 132.374L247.294 132.478L247.252 132.583L253.399 135.066ZM312.902 137.321L307.167 140.648L307.207 140.716L307.248 140.783L312.902 137.321ZM313 148.986L319.114 151.553L319.12 151.538L319.126 151.524L313 148.986ZM304.276 169.768L310.375 172.368L310.382 172.351L310.389 172.335L304.276 169.768ZM297.61 178.101L294.321 172.344L294.29 172.362L294.261 172.379L297.61 178.101ZM285.651 180.454V173.824H276.028L279.455 182.815L285.651 180.454ZM293.199 200.255L287.004 202.617L287.052 202.743L287.105 202.867L293.199 200.255ZM271.436 201.334L277.688 199.127L277.671 199.077L277.653 199.028L271.436 201.334ZM263.692 180.454L269.908 178.148L268.305 173.824H263.692V180.454ZM261.143 177.905L255.001 175.409L254.978 175.467L254.955 175.525L261.143 177.905ZM266.241 165.357L260.182 162.664L260.139 162.762L260.098 162.862L266.241 165.357ZM287.219 161.73L293.375 164.192L287.219 161.73ZM291.14 151.927L297.296 154.39L297.406 154.115L297.49 153.832L291.14 151.927ZM267.221 151.927L273.367 154.415L273.483 154.129L273.572 153.832L267.221 151.927ZM247.616 200.353L253.674 203.046L253.719 202.944L253.761 202.841L247.616 200.353ZM233.177 202.836L259.547 137.549L247.252 132.583L220.882 197.87L233.177 202.836ZM259.458 137.759C259.512 137.637 259.37 138.023 258.802 138.437C258.167 138.901 257.479 139.05 257.026 139.05V125.79C254.94 125.79 252.83 126.38 250.986 127.726C249.21 129.022 248.07 130.732 247.341 132.374L259.458 137.759ZM257.026 139.05H303.1V125.79H257.026V139.05ZM303.1 139.05C306.007 139.05 306.744 139.918 307.167 140.648L318.638 133.995C315.27 128.189 309.472 125.79 303.1 125.79V139.05ZM307.248 140.783C307.764 141.626 308.242 143.15 306.875 146.449L319.126 151.524C321.549 145.674 321.962 139.421 318.557 133.859L307.248 140.783ZM306.887 146.42L298.163 167.202L310.389 172.335L319.114 151.553L306.887 146.42ZM298.177 167.169C296.838 170.31 295.417 171.718 294.321 172.344L300.899 183.857C305.292 181.347 308.316 177.199 310.375 172.368L298.177 167.169ZM294.261 172.379C293.082 173.069 290.496 173.824 285.651 173.824V187.084C291.392 187.084 296.779 186.27 300.959 183.823L294.261 172.379ZM279.455 182.815L287.004 202.617L299.394 197.894L291.846 178.092L279.455 182.815ZM287.105 202.867C287.088 202.827 286.846 202.277 286.857 201.377C286.87 200.323 287.238 199.008 288.229 197.898C289.12 196.899 290.083 196.555 290.457 196.449C290.835 196.342 290.985 196.37 290.748 196.37V209.63C292.215 209.63 295.671 209.472 298.12 206.729C301.163 203.321 300.009 199.315 299.293 197.644L287.105 202.867ZM290.748 196.37H274.475V209.63H290.748V196.37ZM274.475 196.37C274.338 196.37 274.886 196.336 275.678 196.77C276.633 197.294 277.353 198.178 277.688 199.127L265.184 203.54C265.911 205.6 267.335 207.318 269.302 208.397C271.107 209.386 272.979 209.63 274.475 209.63V196.37ZM277.653 199.028L269.908 178.148L257.476 182.759L265.22 203.639L277.653 199.028ZM263.692 173.824H262.712V187.084H263.692V173.824ZM262.712 173.824C262.778 173.824 263.298 173.823 264.026 174.101C264.84 174.413 265.919 175.086 266.692 176.342C267.438 177.554 267.528 178.711 267.495 179.359C267.479 179.682 267.431 179.922 267.398 180.06C267.364 180.2 267.334 180.278 267.332 180.285L254.955 175.525C254.466 176.796 253.422 180.079 255.399 183.291C257.532 186.757 261.205 187.084 262.712 187.084V173.824ZM267.286 180.4L272.383 167.853L260.098 162.862L255.001 175.409L267.286 180.4ZM272.299 168.05C272.354 167.927 272.211 168.314 271.644 168.728C271.009 169.191 270.32 169.34 269.868 169.34V156.08C267.782 156.08 265.672 156.671 263.828 158.016C262.051 159.313 260.912 161.022 260.182 162.664L272.299 168.05ZM269.868 169.34H285.847V156.08H269.868V169.34ZM285.847 169.34C287.323 169.34 289.005 168.952 290.533 167.86C292.026 166.794 292.891 165.401 293.375 164.192L281.063 159.268C281.285 158.713 281.791 157.81 282.826 157.07C283.897 156.305 285.023 156.08 285.847 156.08V169.34ZM293.375 164.192L297.296 154.39L284.984 149.465L281.063 159.268L293.375 164.192ZM297.49 153.832C297.731 153.03 298.413 150.428 296.825 147.781C294.968 144.686 291.825 144.317 290.552 144.317V157.577C289.867 157.577 287.116 157.372 285.455 154.603C284.063 152.283 284.745 150.171 284.79 150.022L297.49 153.832ZM290.552 144.317H268.594V157.577H290.552V144.317ZM268.594 144.317C267.238 144.317 265.489 144.632 263.858 145.797C262.194 146.985 261.298 148.597 260.871 150.022L273.572 153.832C273.34 154.604 272.771 155.726 271.565 156.587C270.391 157.425 269.23 157.577 268.594 157.577V144.317ZM261.076 149.439L241.47 197.865L253.761 202.841L273.367 154.415L261.076 149.439ZM241.557 197.661C241.503 197.783 241.645 197.397 242.212 196.983C242.848 196.519 243.536 196.37 243.989 196.37V209.63C246.075 209.63 248.185 209.04 250.029 207.694C251.805 206.398 252.944 204.688 253.674 203.046L241.557 197.661ZM243.989 196.37H228.5V209.63H243.989V196.37ZM228.5 196.37C228.54 196.37 229.077 196.365 229.832 196.66C230.687 196.995 231.836 197.736 232.605 199.118C233.335 200.432 233.337 201.639 233.27 202.243C233.206 202.819 233.056 203.119 233.088 203.046L220.971 197.661C220.45 198.834 219.132 202.171 221.013 205.558C223.109 209.331 227.052 209.63 228.5 209.63V196.37Z" fill="#00ED97" mask="url(#path-1-outside-1_1330_187)"/>
</svg>
