<svg width="667" height="375" viewBox="0 0 667 375" fill="none" xmlns="http://www.w3.org/2000/svg">
<g clip-path="url(#clip0_1369_531)">
<path d="M218 167.017L299.5 166.017L339 167.017L344.5 168.517L474 170.017L503.5 175.517L531 190.017L508 199.017L468 206.517H342.5L338 208.017L218 207.017V167.017Z" fill="#1FEDA2" fill-opacity="0.3"/>
<path d="M474 171.5L497.5 175.5L534.5 187L538 190.5L532 194.5L510 200L497.5 202.308L474 206V171.5Z" fill="white"/>
<path d="M494 172C495.991 173.908 503.396 182.912 503.396 189.487C503.397 199 495.74 205.34 493.5 207" stroke="black" stroke-width="2"/>
<rect x="343" y="170" width="82" height="37" fill="white"/>
<path d="M428 170H471V207L456.5 208H428V170Z" fill="white"/>
<path d="M289.5 129.5L295.5 40H315.5L318 42L342 168H297L282.5 156.5L289.5 129.5Z" fill="white"/>
<rect x="302" y="170" width="38" height="36" fill="white"/>
<path d="M289.5 129.5L295.5 40H315.5L318 42L342 168H297L282.5 156.5L289.5 129.5Z" fill="white"/>
<path d="M289 250L294 337H314L316.5 335L328.5 270L342.5 208H296L282.5 219L289 250Z" fill="white"/>
<g filter="url(#filter0_dd_1369_531)">
<path d="M147.5 178.5L162.5 172L189 171L187 198L188.5 204.5L171.5 203.5L157.5 201L149.5 198L147 195.5L147.5 178.5Z" fill="white"/>
</g>
<path d="M189.5 170.5C182.5 170.5 172.066 171.066 172.066 171.066C169.244 171.232 161.61 171.863 156.632 174.053C151.653 176.244 148.666 176.822 147.919 177.787C146.582 179.515 146.674 179.729 146.674 182.517C146.674 185.305 146.674 191.313 146.674 193.719C146.674 194.715 147.073 196.905 148.666 197.702C150.657 198.698 157.13 201.436 159.37 201.934C161.61 202.432 168.581 203.676 173.808 203.925C175.807 204.021 184.014 204.423 188.744 204.423" stroke="#1FEDA2" stroke-width="1.4936"/>
<g filter="url(#filter1_dd_1369_531)">
<path d="M190.041 117L198.5 116.5L209.265 117L223 160L217 161.5L216.347 166L217 172.5L223 177.5L229 180L229.5 197L223.5 198L218.371 203L216.347 208L216.853 215.5L223.5 216.5L209 260L190.041 261L191.559 210.5L191 205L188.524 204.5L186.5 194.5L187 182L188.524 172L190 170.5H191.559L190.041 117Z" fill="white"/>
</g>
<path d="M250.977 220.106C260.138 220.106 272.962 219.593 282.094 218.862C287.819 218.403 297.279 218.214 298.274 217.617C299.519 216.87 300.017 211.145 300.017 207.162C300.017 203.641 299.087 198.677 298.274 197.702C297.03 196.209 280.351 195.462 264.917 195.711C249.483 195.96 237.465 195.354 230.564 196.458C225.835 197.214 221.342 198.477 218.118 202.432C214.979 206.282 216.134 212.43 216.375 213.634C216.624 214.879 217.371 215.874 220.607 216.123C226.429 216.571 239.526 220.106 250.977 220.106Z" fill="white"/>
<path d="M537.5 189.985C537.334 190.732 536.604 192.375 535.011 192.973C533.019 193.719 482.486 208.406 456.846 208.158C436.333 207.958 372.125 207.245 342.585 206.913C342.349 206.913 328.893 265.163 328.893 265.163C328.893 265.163 316.723 331.679 316.198 333.122C315.202 335.861 313.957 337.105 309.974 337.105C306.788 337.105 298.026 337.105 294.043 337.105L289.313 249.73C289.313 249.73 284.913 230.916 282.094 218.862M282.094 218.862C272.962 219.593 260.138 220.106 250.977 220.106C239.526 220.106 226.429 216.571 220.607 216.123C217.371 215.874 216.624 214.879 216.375 213.634C216.134 212.43 214.979 206.282 218.118 202.432C221.342 198.477 225.835 197.214 230.564 196.458C237.465 195.354 249.483 195.96 264.917 195.711C280.351 195.462 297.03 196.209 298.274 197.702C299.087 198.677 300.017 203.641 300.017 207.162C300.017 211.145 299.519 216.87 298.274 217.617C297.279 218.214 287.819 218.403 282.094 218.862Z" stroke="#1FEDA2" stroke-width="1.4936"/>
<path d="M250.978 156.245C260.139 156.245 272.963 156.758 282.095 157.49C287.82 157.949 297.28 158.137 298.276 158.735C299.52 159.481 300.018 165.207 300.018 169.19C300.018 172.71 299.088 177.674 298.276 178.649C297.031 180.143 280.352 180.89 264.918 180.641C249.485 180.392 237.466 180.998 230.566 179.894C225.836 179.137 221.343 177.874 218.119 173.92C214.98 170.07 216.135 163.922 216.376 162.718C216.625 161.473 217.372 160.477 220.608 160.228C226.43 159.78 239.527 156.245 250.978 156.245Z" fill="white"/>
<path d="M537.501 190.234C537.335 189.487 536.107 187.097 534.514 186.5C532.522 185.753 487.963 170.07 462.323 170.319C441.811 170.518 372.126 169.107 342.586 169.439C342.351 169.439 330.139 112.069 330.139 112.069C330.139 112.069 318.964 45.553 318.439 44.1095C317.444 41.3713 317.194 39.8777 313.211 39.8777C310.025 39.8777 299.769 39.8777 295.786 39.8777L289.314 126.622C289.314 126.622 284.914 145.435 282.095 157.49M282.095 157.49C272.963 156.758 260.139 156.245 250.978 156.245C239.527 156.245 226.43 159.78 220.608 160.228C217.372 160.477 216.625 161.473 216.376 162.718C216.136 163.922 214.98 170.07 218.119 173.92C221.343 177.874 225.836 179.137 230.566 179.894C237.466 180.998 249.485 180.392 264.918 180.641C280.352 180.89 297.031 180.143 298.276 178.649C299.088 177.674 300.018 172.71 300.018 169.19C300.018 165.207 299.52 159.481 298.276 158.735C297.28 158.137 287.82 157.949 282.095 157.49Z" stroke="#1FEDA2" stroke-width="1.4936"/>
<path d="M222.849 216.621C222.45 217.219 213.721 244.751 209.406 258.442C209.987 259.023 209.356 260.235 202.187 260.434C195.018 260.633 191.068 260.517 189.989 260.434L191.483 206.415L190.736 204.424L188.496 204.424C187.749 201.934 186.305 195.611 186.504 190.234C186.703 184.858 186.587 184.011 186.504 184.26" stroke="#1FEDA2" stroke-width="1.4936"/>
<path opacity="0.5" d="M491.551 188.471L499.271 188.03C499.595 188.012 499.815 187.691 499.705 187.385C497.924 182.44 494.332 179.654 492.591 178.62C492.495 178.563 492.384 178.543 492.274 178.56C489.999 178.914 486.05 179.858 487.216 181.024C488.349 182.157 490.17 186.069 491.062 188.168C491.145 188.362 491.34 188.483 491.551 188.471Z" fill="#1FEDA2" stroke="#1FEDA2" stroke-width="1.4936"/>
<path opacity="0.5" d="M491.551 190.503L499.271 190.944C499.595 190.963 499.815 191.283 499.705 191.589C497.924 196.535 494.332 199.321 492.591 200.354C492.495 200.411 492.384 200.432 492.274 200.415C489.999 200.061 486.05 199.116 487.216 197.951C488.349 196.817 490.17 192.906 491.062 190.807C491.145 190.612 491.34 190.491 491.551 190.503Z" fill="#1FEDA2" stroke="#1FEDA2" stroke-width="1.4936"/>
<path d="M222.849 160.222C222.45 159.625 213.721 132.093 209.406 118.401C209.987 117.821 209.356 116.609 202.187 116.41C195.018 116.211 191.068 116.327 189.989 116.41L191.483 170.429L189.491 170.429L188.496 172.42C187.749 174.909 186.305 181.232 186.504 186.609C186.703 191.986 186.587 192.833 186.504 192.584" stroke="#1FEDA2" stroke-width="1.4936"/>
<path d="M463.566 198.449C464.941 198.449 466.056 199.564 466.056 200.939L466.056 202.07C466.056 202.27 465.894 202.432 465.694 202.432L461.439 202.432C461.239 202.432 461.077 202.27 461.077 202.07L461.077 200.939C461.077 199.564 462.192 198.449 463.566 198.449Z" fill="#1FEDA2" fill-opacity="0.5"/>
<path d="M449.627 198.449C451.002 198.449 452.116 199.564 452.116 200.939L452.116 202.07C452.116 202.27 451.954 202.432 451.754 202.432L447.5 202.432C447.3 202.432 447.138 202.27 447.138 202.07L447.138 200.939C447.138 199.564 448.252 198.449 449.627 198.449Z" fill="#1FEDA2" fill-opacity="0.5"/>
<path d="M435.686 198.449C437.061 198.449 438.176 199.564 438.176 200.939L438.176 202.07C438.176 202.27 438.014 202.432 437.814 202.432L433.559 202.432C433.359 202.432 433.197 202.27 433.197 202.07L433.197 200.939C433.197 199.564 434.312 198.449 435.686 198.449Z" fill="#1FEDA2" fill-opacity="0.5"/>
<path d="M463.566 180.027C464.941 180.027 466.056 178.913 466.056 177.538L466.056 176.406C466.056 176.207 465.894 176.044 465.694 176.044L461.439 176.044C461.239 176.044 461.077 176.207 461.077 176.406L461.077 177.538C461.077 178.913 462.192 180.027 463.566 180.027Z" fill="#1FEDA2" fill-opacity="0.5"/>
<path d="M449.627 180.027C451.002 180.027 452.116 178.913 452.116 177.538L452.116 176.406C452.116 176.207 451.954 176.044 451.754 176.044L447.5 176.044C447.3 176.044 447.138 176.207 447.138 176.406L447.138 177.538C447.138 178.913 448.252 180.027 449.627 180.027Z" fill="#1FEDA2" fill-opacity="0.5"/>
<path d="M435.686 180.027C437.061 180.027 438.176 178.913 438.176 177.538L438.176 176.406C438.176 176.207 438.014 176.044 437.814 176.044L433.559 176.044C433.359 176.044 433.197 176.207 433.197 176.406L433.197 177.538C433.197 178.913 434.312 180.027 435.686 180.027Z" fill="#1FEDA2" fill-opacity="0.5"/>
<path fill-rule="evenodd" clip-rule="evenodd" d="M304.745 42.6162L305.741 74.2308L300.257 74.2308L299.767 126.258L289.809 126.258L293.294 73.4838L293.342 73.4838L295.286 42.6162L304.745 42.6162ZM289.81 126.258L282.839 156.877L292.299 157.873L299.767 126.258L289.81 126.258Z" fill="#1FEDA2" fill-opacity="0.5"/>
<path fill-rule="evenodd" clip-rule="evenodd" d="M303.752 333.619L304.748 302.004L299.264 302.004L298.773 249.977L298.774 249.977L291.306 218.362L281.846 219.358L288.816 249.977L288.816 249.977L292.301 302.751L292.348 302.751L294.293 333.619L303.752 333.619Z" fill="#1FEDA2" fill-opacity="0.5"/>
<path d="M482.332 175.036C482.432 175.044 482.528 175.083 482.606 175.146L485.557 177.544C485.898 177.821 485.739 178.372 485.302 178.425L480.504 179.001C480.342 179.02 480.181 178.959 480.072 178.837L477.085 175.477C476.787 175.141 477.05 174.614 477.497 174.65L482.332 175.036Z" fill="#1FEDA2" fill-opacity="0.5"/>
<path d="M482.332 203.937C482.432 203.929 482.528 203.891 482.606 203.827L485.557 201.43C485.898 201.152 485.739 200.601 485.302 200.549L480.504 199.973C480.342 199.954 480.181 200.015 480.072 200.137L477.085 203.497C476.787 203.832 477.05 204.36 477.497 204.324L482.332 203.937Z" fill="#1FEDA2" fill-opacity="0.5"/>
<path d="M219.611 150.156L222.35 159.366L216.375 161.856L216.375 168.577L191.731 168.577L190.237 116.301L208.658 117.297L219.611 150.156Z" fill="#1FEDA2" fill-opacity="0.5"/>
<path d="M219.611 225.832L222.35 216.621L216.375 214.132L216.375 207.411L191.731 207.411L190.237 259.687L207.165 260.185L208.658 258.691L219.611 225.832Z" fill="#1FEDA2" fill-opacity="0.5"/>
<path d="M229.32 195.959L273.133 195.959L267.158 200.191C267.158 200.191 221.182 198.697 216.625 207.161C214.882 210.397 217.621 201.933 217.621 201.933L229.32 195.959Z" fill="url(#paint0_linear_1369_531)"/>
<path d="M229.32 180.019L273.133 180.019L267.158 175.787C267.158 175.787 221.182 177.28 216.625 168.817C214.882 165.58 217.621 174.044 217.621 174.044L229.32 180.019Z" fill="url(#paint1_linear_1369_531)"/>
<path d="M188.5 205.986C188.5 205.986 186.075 197 186.5 186.5C187.057 172.719 189.5 168.986 189.5 168.986" stroke="url(#paint2_linear_1369_531)"/>
<line x1="342" y1="217.5" x2="543" y2="217.5" stroke="white" stroke-dasharray="4 4"/>
<line x1="342" y1="158.5" x2="543" y2="158.5" stroke="white" stroke-dasharray="4 4"/>
<line x1="542.5" y1="159" x2="542.5" y2="217" stroke="white" stroke-dasharray="4 4"/>
<line x1="499.5" y1="159" x2="499.5" y2="217" stroke="white" stroke-dasharray="4 4"/>
<line x1="473.5" y1="159" x2="473.5" y2="217" stroke="white" stroke-dasharray="4 4"/>
<line x1="427.5" y1="159" x2="427.5" y2="217" stroke="white" stroke-dasharray="4 4"/>
<line x1="341.5" y1="36" x2="341.5" y2="344" stroke="white" stroke-dasharray="4 4"/>
<line x1="278.5" y1="36" x2="278.5" y2="145" stroke="white" stroke-dasharray="4 4"/>
<line x1="277.5" y1="234" x2="277.5" y2="343" stroke="white" stroke-dasharray="4 4"/>
<line x1="341" y1="167.5" x2="302" y2="167.5" stroke="white" stroke-dasharray="4 4"/>
<line x1="341" y1="212.5" x2="302" y2="212.5" stroke="white" stroke-dasharray="4 4"/>
<line x1="301" y1="189.5" x2="215" y2="189.5" stroke="white" stroke-dasharray="4 4"/>
<line x1="301" y1="233.5" x2="214" y2="233.5" stroke="white" stroke-dasharray="4 4"/>
<line x1="301" y1="145.5" x2="214" y2="145.5" stroke="white" stroke-dasharray="4 4"/>
<line x1="301.5" y1="145" x2="301.5" y2="234" stroke="white" stroke-dasharray="4 4"/>
<line x1="214.5" y1="145" x2="214.5" y2="234" stroke="white" stroke-dasharray="4 4"/>
<line x1="187.5" y1="106" x2="187.5" y2="271" stroke="white" stroke-dasharray="4 4"/>
<line x1="229.5" y1="106" x2="229.5" y2="145" stroke="white" stroke-dasharray="4 4"/>
<line x1="229.5" y1="234" x2="229.5" y2="271" stroke="white" stroke-dasharray="4 4"/>
<line x1="188" y1="270.5" x2="229" y2="270.5" stroke="white" stroke-dasharray="4 4"/>
<line x1="188" y1="106.5" x2="229" y2="106.5" stroke="white" stroke-dasharray="4 4"/>
<line x1="146" y1="158.5" x2="187" y2="158.5" stroke="white" stroke-dasharray="4 4"/>
<line x1="146" y1="217.5" x2="187" y2="217.5" stroke="white" stroke-dasharray="4 4"/>
<line x1="145.5" y1="218" x2="145.5" y2="158" stroke="white" stroke-dasharray="4 4"/>
<rect x="187" y="158" width="1" height="1" fill="white"/>
<rect x="301" y="167" width="1" height="1" fill="white"/>
<rect x="301" y="189" width="1" height="4" fill="white"/>
<rect x="301" y="189" width="1" height="1" fill="white"/>
<rect x="301" y="209" width="1" height="4" fill="white"/>
<rect x="341" y="209" width="1" height="4" fill="white"/>
<rect x="341" y="167" width="1" height="4" fill="white"/>
<rect x="341" y="156" width="1" height="3" fill="white"/>
<rect x="427" y="158" width="2" height="1" fill="white"/>
<rect x="472" y="158" width="2" height="1" fill="white"/>
<rect x="499" y="158" width="2" height="1" fill="white"/>
<rect x="499" y="217" width="2" height="1" fill="white"/>
<rect x="472" y="217" width="2" height="1" fill="white"/>
<rect x="427" y="217" width="2" height="1" fill="white"/>
<line x1="341" y1="343.5" x2="277" y2="343.5" stroke="white" stroke-dasharray="4 4"/>
<line x1="341" y1="36.5" x2="279" y2="36.5" stroke="white" stroke-dasharray="4 4"/>
</g>
<defs>
<filter id="filter0_dd_1369_531" x="139" y="167" width="54" height="45.5" filterUnits="userSpaceOnUse" color-interpolation-filters="sRGB">
<feFlood flood-opacity="0" result="BackgroundImageFix"/>
<feColorMatrix in="SourceAlpha" type="matrix" values="0 0 0 0 0 0 0 0 0 0 0 0 0 0 0 0 0 0 127 0" result="hardAlpha"/>
<feOffset dy="4"/>
<feGaussianBlur stdDeviation="2"/>
<feComposite in2="hardAlpha" operator="out"/>
<feColorMatrix type="matrix" values="0 0 0 0 1 0 0 0 0 1 0 0 0 0 1 0 0 0 0.25 0"/>
<feBlend mode="normal" in2="BackgroundImageFix" result="effect1_dropShadow_1369_531"/>
<feColorMatrix in="SourceAlpha" type="matrix" values="0 0 0 0 0 0 0 0 0 0 0 0 0 0 0 0 0 0 127 0" result="hardAlpha"/>
<feOffset dx="-4"/>
<feGaussianBlur stdDeviation="2"/>
<feComposite in2="hardAlpha" operator="out"/>
<feColorMatrix type="matrix" values="0 0 0 0 1 0 0 0 0 1 0 0 0 0 1 0 0 0 0.25 0"/>
<feBlend mode="normal" in2="effect1_dropShadow_1369_531" result="effect2_dropShadow_1369_531"/>
<feBlend mode="normal" in="SourceGraphic" in2="effect2_dropShadow_1369_531" result="shape"/>
</filter>
<filter id="filter1_dd_1369_531" x="178.5" y="112.5" width="55" height="156.5" filterUnits="userSpaceOnUse" color-interpolation-filters="sRGB">
<feFlood flood-opacity="0" result="BackgroundImageFix"/>
<feColorMatrix in="SourceAlpha" type="matrix" values="0 0 0 0 0 0 0 0 0 0 0 0 0 0 0 0 0 0 127 0" result="hardAlpha"/>
<feOffset dx="-4"/>
<feGaussianBlur stdDeviation="2"/>
<feComposite in2="hardAlpha" operator="out"/>
<feColorMatrix type="matrix" values="0 0 0 0 1 0 0 0 0 1 0 0 0 0 1 0 0 0 0.25 0"/>
<feBlend mode="normal" in2="BackgroundImageFix" result="effect1_dropShadow_1369_531"/>
<feColorMatrix in="SourceAlpha" type="matrix" values="0 0 0 0 0 0 0 0 0 0 0 0 0 0 0 0 0 0 127 0" result="hardAlpha"/>
<feOffset dy="4"/>
<feGaussianBlur stdDeviation="2"/>
<feComposite in2="hardAlpha" operator="out"/>
<feColorMatrix type="matrix" values="0 0 0 0 1 0 0 0 0 1 0 0 0 0 1 0 0 0 0.25 0"/>
<feBlend mode="normal" in2="effect1_dropShadow_1369_531" result="effect2_dropShadow_1369_531"/>
<feBlend mode="normal" in="SourceGraphic" in2="effect2_dropShadow_1369_531" result="shape"/>
</filter>
<linearGradient id="paint0_linear_1369_531" x1="237.286" y1="203.925" x2="271.639" y2="194.714" gradientUnits="userSpaceOnUse">
<stop stop-color="#1FEDA2" stop-opacity="0.5"/>
<stop offset="1" stop-color="#1FEDA2" stop-opacity="0"/>
</linearGradient>
<linearGradient id="paint1_linear_1369_531" x1="237.286" y1="172.053" x2="271.639" y2="181.263" gradientUnits="userSpaceOnUse">
<stop stop-color="#1FEDA2" stop-opacity="0.5"/>
<stop offset="1" stop-color="#1FEDA2" stop-opacity="0"/>
</linearGradient>
<linearGradient id="paint2_linear_1369_531" x1="190.5" y1="169.014" x2="189.5" y2="206.014" gradientUnits="userSpaceOnUse">
<stop stop-color="#363636"/>
<stop offset="1" stop-color="#5F5F5F"/>
</linearGradient>
<clipPath id="clip0_1369_531">
<rect width="375" height="667" fill="white" transform="translate(667) rotate(90)"/>
</clipPath>
</defs>
</svg>
