<svg width="667" height="375" viewBox="0 0 667 375" fill="none" xmlns="http://www.w3.org/2000/svg">
<g clip-path="url(#clip0_1486_8)">
<path d="M433.04 180.6C447.683 180.84 452.026 184.3 452.57 186.566C452.667 186.969 452.973 187.348 453.388 187.348H509.634C523.468 187.348 537.977 189.035 543.376 189.71C548.775 190.385 573.069 205.569 576.781 207.931C580.492 210.293 623.682 226.152 626.719 227.501C629.755 228.851 629.418 234.25 626.719 235.937C624.019 237.624 580.155 242.01 576.781 242.01C573.406 242.01 531.566 241.673 520.769 242.01C509.971 242.348 437.763 242.685 432.365 242.685C428.046 242.685 414.369 244.035 408.07 244.71C397.385 245.947 373.451 248.691 363.194 249.771C353.058 250.838 314.418 251.553 295.704 251.787C295.328 251.792 295.035 251.488 295.035 251.112V243.36C295.035 242.987 294.733 242.685 294.36 242.685H281.143C280.964 242.685 280.792 242.756 280.665 242.883L277.349 246.199C277.223 246.326 277.051 246.397 276.872 246.397H268.379C268.006 246.397 267.704 246.699 267.704 247.072V249.771C267.704 250.144 267.402 250.446 267.029 250.446H253.195C252.822 250.446 252.52 250.144 252.52 249.771V243.36C252.52 242.987 252.23 242.685 251.858 242.685H186.385C162.091 242.685 138.922 240.661 130.374 239.648C125.762 239.536 113.908 239.108 103.38 238.299C93.2898 237.523 73.3009 231.311 63.4382 227.925C62.9208 227.747 62.8291 227.062 63.2743 226.744L66.6561 224.329C66.8335 224.202 66.9387 223.998 66.9387 223.78V202.403C66.9387 202.085 66.7164 201.81 66.4053 201.743L63.7775 201.18C63.194 201.055 63.0711 200.331 63.6028 200.06C67.0824 198.287 75.6607 194.845 91.233 190.722C108.636 186.116 126 186.402 133.602 187.212C134.119 187.267 134.508 186.746 134.307 186.266L103.728 113.271C103.554 112.856 103.825 112.391 104.272 112.344C114.488 111.269 134.429 110.574 139.147 115.815C143.994 121.201 173.195 151.881 187.294 166.658C187.364 166.731 187.447 166.784 187.542 166.82L218.666 178.533C218.74 178.561 218.815 178.576 218.894 178.576C283.497 179.139 416.583 180.33 433.04 180.6Z" fill="#020070" fill-opacity="0.3" stroke="#020070" stroke-width="2.02452"/>
<g filter="url(#filter0_dd_1486_8)">
<path d="M104 114L105.5 112.5L118.5 111L128 111.5L137.5 115L187.5 167L222.5 179.5C222.5 179.5 196.672 183.536 180 185C162.282 186.556 134.5 187 134.5 187L104 114Z" fill="white"/>
</g>
<g filter="url(#filter1_dd_1486_8)">
<path d="M63.5 200.001C63.5 200.001 75.5545 194.787 94 192.5C142.275 186.512 234 188 234 188L233 242.5H166L98.5 238L62 228.001L67 224.001L66.5 202.001L63.5 200.001Z" fill="white"/>
</g>
<path d="M578 209.5L589.5 213L628.5 229L627 236L578 242V209.5Z" fill="white"/>
<g filter="url(#filter2_dd_1486_8)">
<path d="M533 188.5L545 190L576.5 208V241L533.5 241.5C533.5 241.5 530.797 227.56 530.5 219.5C530.075 207.946 533 188.5 533 188.5Z" fill="white"/>
</g>
<g filter="url(#filter3_dd_1486_8)">
<path d="M458 188L530 188.5C530 188.5 527.5 204.368 527.5 215C527.5 225.632 530.5 241.5 530.5 241.5L459 243L453 231L452 215V201L458 188Z" fill="white"/>
</g>
<g filter="url(#filter4_dd_1486_8)">
<path d="M248 199L338 194.5L346.5 205.5L349 215.5L343.5 228L338 236L245.5 233L238.5 216.5L248 199Z" fill="white"/>
</g>
<path d="M249.062 200.065L337.232 194.209C337.999 194.158 338.711 194.476 339.148 195.058C340.417 196.751 342.618 199.866 344.513 203.439C346.422 207.041 347.951 210.981 348.009 214.359C348.069 217.913 346.53 222.09 344.575 225.9C342.635 229.68 340.356 232.965 339.082 234.696C338.669 235.258 337.995 235.582 337.26 235.569L247.597 233.945C246.804 233.93 246.088 233.522 245.695 232.863C244.669 231.146 242.986 228.199 241.562 225.103C240.115 221.957 239.022 218.834 239.022 216.703C239.022 215.89 239.341 214.718 239.944 213.283C240.536 211.875 241.358 210.313 242.265 208.755C244.079 205.641 246.192 202.618 247.368 200.989C247.758 200.448 248.376 200.111 249.062 200.065Z" stroke="#020070" stroke-width="2.02452"/>
<g filter="url(#filter5_dd_1486_8)">
<path d="M376.721 191.914C377.333 191.148 378.265 190.722 379.246 190.722H428.37C429.203 190.722 430.004 191.027 430.58 191.629C433.144 194.31 440.223 202.744 440.462 214.341C440.702 225.991 433.25 235.361 430.591 238.327C430.009 238.976 429.177 239.313 428.306 239.319L378.725 239.637C377.657 239.644 376.654 239.151 376.046 238.272C373.237 234.207 365.412 221.953 366.229 212.654C366.917 204.825 374.071 195.228 376.721 191.914Z" fill="white"/>
<path d="M379.246 191.734H428.37C428.959 191.734 429.485 191.948 429.849 192.328C432.359 194.954 439.218 203.151 439.45 214.362C439.682 225.605 432.464 234.722 429.837 237.651C429.465 238.066 428.916 238.303 428.299 238.307L378.718 238.624C377.965 238.629 377.285 238.284 376.879 237.697C375.491 235.688 372.867 231.66 370.696 226.998C368.509 222.304 366.853 217.117 367.238 212.743C367.562 209.056 369.429 204.857 371.614 201.1C373.785 197.367 376.203 194.182 377.512 192.546C377.922 192.032 378.557 191.734 379.246 191.734Z" stroke="#020070" stroke-width="2.02452"/>
</g>
<path d="M379.246 191.734H428.37C428.959 191.734 429.485 191.948 429.849 192.328C432.359 194.954 439.218 203.151 439.45 214.362C439.682 225.605 432.464 234.722 429.837 237.651C429.465 238.066 428.916 238.303 428.299 238.307L378.718 238.624C377.965 238.629 377.285 238.284 376.879 237.697C375.491 235.688 372.867 231.66 370.696 226.998C368.509 222.304 366.853 217.117 367.238 212.743C367.562 209.056 369.429 204.857 371.614 201.1C373.785 197.367 376.203 194.182 377.512 192.546C377.922 192.032 378.557 191.734 379.246 191.734Z" stroke="#020070" stroke-width="2.02452"/>
<path d="M458.009 187.011C454.972 190.385 452.272 199.833 452.272 217.041C452.272 232.9 456.659 238.973 459.696 243.022" stroke="#020070" stroke-width="2.02452"/>
<path d="M479.266 194.771C479.941 192.409 476.904 192.746 474.879 192.746C473.087 192.746 471.843 193.758 471.505 195.445C471.149 197.227 472.484 197.47 474.205 197.47C476.566 197.47 478.61 197.065 479.266 194.771Z" fill="#020070" fill-opacity="0.5"/>
<path d="M499.23 194.771C499.905 192.409 496.868 192.746 494.843 192.746C493.051 192.746 491.807 193.758 491.469 195.445C491.113 197.227 492.448 197.47 494.168 197.47C496.53 197.47 498.574 197.065 499.23 194.771Z" fill="#020070" fill-opacity="0.5"/>
<path d="M518.801 194.771C519.476 192.409 516.439 192.746 514.415 192.746C512.622 192.746 511.378 193.758 511.04 195.445C510.684 197.227 512.019 197.47 513.74 197.47C516.102 197.47 518.145 197.065 518.801 194.771Z" fill="#020070" fill-opacity="0.5"/>
<path d="M538.65 242.01L538.642 242.01L460.067 242.678C459.955 242.679 459.85 242.624 459.786 242.532L455.932 236.899C455.911 236.869 455.896 236.835 455.886 236.799L454.734 232.652C454.674 232.437 454.836 232.224 455.059 232.224H539.144C540.059 232.224 540.891 231.696 541.281 230.868L543.253 226.677C543.308 226.56 543.426 226.484 543.556 226.483L600.734 226.159C600.921 226.158 601.073 226.309 601.073 226.496V239.111C601.073 239.283 600.943 239.428 600.772 239.446L577.062 242.01L538.65 242.01Z" fill="#020070" fill-opacity="0.5" stroke="#020070" stroke-width="2.02452"/>
<circle cx="473.866" cy="216.366" r="4.04904" fill="#020070" fill-opacity="0.5"/>
<circle cx="492.762" cy="216.366" r="4.04904" fill="#020070" fill-opacity="0.5"/>
<circle cx="513.007" cy="216.366" r="4.04904" fill="#020070" fill-opacity="0.5"/>
<path d="M548.099 196.459C547.649 195.332 549.91 195.279 551.354 195.354C552.102 195.392 552.818 195.645 553.462 196.028L567.292 204.267C567.586 204.443 567.462 204.894 567.119 204.894H555.185C555.185 204.894 548.774 198.146 548.099 196.459Z" fill="#020070" fill-opacity="0.5"/>
<path d="M106.115 118.428C105.936 117.985 106.263 117.502 106.741 117.502H115.484C115.72 117.502 115.939 117.626 116.062 117.828L156.799 185.394C157.06 185.825 156.773 186.379 156.27 186.415L134.577 187.987C134.284 188.008 134.011 187.838 133.902 187.566L106.115 118.428Z" fill="#020070"/>
<g filter="url(#filter6_d_1486_8)">
<path d="M251.507 241.673C251.507 241.673 292.703 241.944 318.991 242.01C345.279 242.076 430.677 242.01 430.677 242.01L386.137 247.072L340.248 250.783L294.697 251.795V243.023H280.862L276.476 246.397H267.366L266.691 250.108H252.857L251.507 241.673Z" fill="white"/>
<path d="M340.231 250.446L295.034 251.45V243.023V242.685H294.697H280.862H280.748L280.657 242.755L276.361 246.059H267.366H267.084L267.034 246.336L266.409 249.771H253.144L251.903 242.013L251.974 242.013L253.326 242.022C254.504 242.03 256.216 242.04 258.352 242.054C262.625 242.08 268.596 242.116 275.389 242.154C288.974 242.23 305.845 242.315 318.99 242.348C332.135 242.381 360.057 242.381 384.692 242.372C397.01 242.368 408.506 242.362 416.923 242.357C419.939 242.355 422.56 242.353 424.682 242.352L386.11 246.735L386.099 246.736L340.231 250.446Z" stroke="#020070" stroke-width="0.67484"/>
</g>
<path d="M340.205 249.949L295.532 250.942V243.023V242.756C303.701 242.795 311.889 242.827 318.989 242.845C332.134 242.878 360.057 242.878 384.692 242.87C396.493 242.866 407.539 242.86 415.846 242.855L386.057 246.24L340.205 249.949ZM275.386 242.652C276.869 242.66 278.39 242.669 279.942 242.677L276.192 245.562H267.366H266.669L266.544 246.247L265.994 249.273H253.569L252.487 242.514L253.323 242.52C254.501 242.527 256.213 242.538 258.349 242.551C262.622 242.578 268.593 242.614 275.386 242.652Z" stroke="white" stroke-width="1.67"/>
<path d="M463.744 211.979H465.769C466.328 211.979 466.781 212.432 466.781 212.991V213.666C466.781 214.225 466.328 214.678 465.769 214.678H463.744C463.185 214.678 462.732 214.225 462.732 213.666V212.991C462.732 212.432 463.185 211.979 463.744 211.979Z" stroke="#020070" stroke-width="0.67484"/>
<path d="M459.357 224.126L459.695 225.138L461.045 222.776L462.394 223.114L464.081 226.488L466.106 229.862L471.842 230.2L473.529 229.187L475.554 225.476C475.554 225.476 474.795 228.776 474.541 229.525C474.271 230.324 473.192 231.212 473.192 231.212H471.842H463.069C463.069 231.212 461.123 229.799 460.37 228.513C459.481 226.995 459.357 224.126 459.357 224.126Z" fill="#020070"/>
<path d="M474.469 224.195C474.653 224.006 474.793 223.875 474.956 223.788L475.154 223.788C475.121 223.972 475.078 224.208 475.026 224.471C474.905 225.083 474.739 225.826 474.558 226.383C474.364 226.979 474.034 227.722 473.748 228.324C473.606 228.624 473.476 228.885 473.382 229.072C473.335 229.165 473.297 229.239 473.271 229.29L473.254 229.323L472.377 230.2H469.817H464.695L463.818 225.813H463.821H463.829H463.837H463.845H463.853H463.861H463.87H463.878H463.887H463.895H463.904H463.913H463.922H463.93H463.939H463.948H463.957H463.967H463.976H463.985H463.994H464.004H464.013H464.023H464.032H464.042H464.051H464.061H464.071H464.081H464.091H464.101H464.111H464.121H464.131H464.141H464.152H464.162H464.172H464.183H464.193H464.204H464.215H464.225H464.236H464.247H464.258H464.269H464.28H464.291H464.302H464.313H464.324H464.335H464.347H464.358H464.369H464.381H464.392H464.404H464.415H464.427H464.439H464.451H464.462H464.474H464.486H464.498H464.51H464.522H464.535H464.547H464.559H464.571H464.584H464.596H464.608H464.621H464.633H464.646H464.659H464.671H464.684H464.697H464.709H464.722H464.735H464.748H464.761H464.774H464.787H464.8H464.814H464.827H464.84H464.853H464.867H464.88H464.893H464.907H464.92H464.934H464.948H464.961H464.975H464.989H465.002H465.016H465.03H465.044H465.058H465.072H465.086H465.1H465.114H465.128H465.142H465.156H465.17H465.185H465.199H465.213H465.228H465.242H465.256H465.271H465.285H465.3H465.314H465.329H465.344H465.358H465.373H465.388H465.402H465.417H465.432H465.447H465.462H465.477H465.492H465.507H465.522H465.537H465.552H465.567H465.582H465.597H465.612H465.628H465.643H465.658H465.674H465.689H465.704H465.72H465.735H465.75H465.766H465.781H465.797H465.812H465.828H465.844H465.859H465.875H465.891H465.906H465.922H465.938H465.953H465.969H465.985H466.001H466.017H466.033H466.048H466.064H466.08H466.096H466.112H466.128H466.144H466.16H466.176H466.192H466.208H466.225H466.241H466.257H466.273H466.289H466.305H466.322H466.338H466.354H466.37H466.387H466.403H466.419H466.435H466.452H466.468H466.484H466.501H466.517H466.534H466.55H466.566H466.583H466.599H466.616H466.632H466.649H466.665H466.682H466.698H466.715H466.731H466.748H466.764H466.781H466.798H466.814H466.831H466.847H466.864H466.881H466.897H466.914H466.93H466.947H466.964H466.98H466.997H467.014H467.03H467.047H467.064H467.08H467.097H467.114H467.13H467.147H467.164H467.18H467.197H467.214H467.231H467.247H467.264H467.281H467.297H467.314H467.331H467.348H467.364H467.381H467.398H467.414H467.431H467.448H467.464H467.481H467.498H467.515H467.531H467.548H467.565H467.581H467.598H467.615H467.631H467.648H467.665H467.681H467.698H467.715H467.731H467.748H467.764H467.781H467.798H467.814H467.831H467.847H467.864H467.881H467.897H467.914H467.93H467.947H467.963H467.98H467.996H468.013H468.029H468.046H468.062H468.078H468.095H468.111H468.128H468.144H468.16H468.177H468.193H468.209H468.226H468.242H468.258H468.275H468.291H468.307H468.323H468.34H468.356H468.372H468.388H468.404H468.42H468.436H468.452H468.469H468.485H468.501H468.517H468.533H468.549H468.564H468.58H468.596H468.612H468.628H468.644H468.66H468.676H468.691H468.707H468.723H468.738H468.754H468.77H468.785H468.801H468.817H468.832H468.848H468.863H468.879H468.894H468.91H468.925H468.94H468.956H468.971H468.986H469.002H469.017H469.032H469.047H469.062H469.078H469.093H469.108H469.123H469.138H469.153H469.168H469.183H469.197H469.212H469.227H469.242H469.257H469.271H469.286H469.301H469.315H469.33H469.345H469.359H469.374H469.388H469.402H469.417H469.431H469.445H469.46H469.474H469.488H469.502H469.516H469.531H469.545H469.559H469.573H469.586H469.6H469.614H469.628H469.642H469.656H469.669H469.683H469.697H469.71H469.724H469.737H469.751H469.764H469.777H469.791H469.804H469.817C471.886 225.813 472.973 225.412 473.68 224.909C473.992 224.688 474.221 224.451 474.409 224.257C474.429 224.236 474.449 224.215 474.469 224.195Z" fill="#020070" fill-opacity="0.5" stroke="#020070" stroke-width="0.67484"/>
<path d="M459.358 219.74C460.37 219.402 461.045 220.077 462.057 216.365C462.333 215.353 465.768 215.691 466.781 215.691C468.29 215.69 467.262 216.606 468.13 218.053C469.143 219.74 469.48 218.728 471.167 219.402C472.854 220.077 472.179 222.102 473.192 223.114C474.204 224.126 474.541 223.114 475.554 223.114C476.566 223.114 473.708 229.435 472.854 229.862C472.179 230.2 469.143 230.2 467.456 230.2C465.768 230.2 465.769 229.525 464.081 226.151C462.394 222.777 462.057 222.439 461.045 222.777C460.032 223.114 460.032 225.813 459.695 224.801C459.358 223.789 458.905 219.891 459.358 219.74Z" stroke="#020070" stroke-width="0.67484"/>
<path d="M484.519 211.979H486.543C487.102 211.979 487.555 212.432 487.555 212.991V213.666C487.555 214.225 487.102 214.678 486.543 214.678H484.519C483.96 214.678 483.506 214.225 483.506 213.666V212.991C483.506 212.432 483.96 211.979 484.519 211.979Z" stroke="#020070" stroke-width="0.67484"/>
<path d="M480.131 224.126L480.468 225.138L481.818 222.776L483.168 223.114L484.855 226.488L486.879 229.862L492.615 230.2L494.303 229.187L496.327 225.476C496.327 225.476 495.568 228.776 495.315 229.525C495.045 230.324 493.965 231.212 493.965 231.212H492.615H483.842C483.842 231.212 481.896 229.799 481.143 228.513C480.255 226.995 480.131 224.126 480.131 224.126Z" fill="#020070"/>
<path d="M495.243 224.195C495.427 224.006 495.568 223.875 495.731 223.788L495.928 223.788C495.896 223.972 495.853 224.208 495.801 224.471C495.679 225.083 495.514 225.826 495.332 226.383C495.138 226.979 494.808 227.722 494.522 228.324C494.38 228.624 494.251 228.885 494.156 229.072C494.109 229.165 494.071 229.239 494.045 229.29L494.028 229.323L493.151 230.2H490.592H485.47L484.592 225.813H484.595H484.603H484.611H484.619H484.628H484.636H484.644H484.653H484.661H484.67H484.679H484.687H484.696H484.705H484.714H484.723H484.732H484.741H484.75H484.759H484.769H484.778H484.787H484.797H484.807H484.816H484.826H484.836H484.845H484.855H484.865H484.875H484.885H484.895H484.906H484.916H484.926H484.936H484.947H484.957H484.968H484.978H484.989H485H485.01H485.021H485.032H485.043H485.054H485.065H485.076H485.087H485.098H485.11H485.121H485.132H485.144H485.155H485.167H485.178H485.19H485.202H485.213H485.225H485.237H485.249H485.261H485.273H485.285H485.297H485.309H485.321H485.333H485.346H485.358H485.37H485.383H485.395H485.408H485.42H485.433H485.446H485.458H485.471H485.484H485.497H485.51H485.523H485.536H485.549H485.562H485.575H485.588H485.601H485.614H485.628H485.641H485.654H485.668H485.681H485.695H485.708H485.722H485.736H485.749H485.763H485.777H485.79H485.804H485.818H485.832H485.846H485.86H485.874H485.888H485.902H485.916H485.931H485.945H485.959H485.973H485.988H486.002H486.016H486.031H486.045H486.06H486.074H486.089H486.103H486.118H486.133H486.147H486.162H486.177H486.192H486.207H486.221H486.236H486.251H486.266H486.281H486.296H486.311H486.326H486.341H486.357H486.372H486.387H486.402H486.417H486.433H486.448H486.463H486.479H486.494H486.509H486.525H486.54H486.556H486.571H486.587H486.602H486.618H486.634H486.649H486.665H486.681H486.696H486.712H486.728H486.744H486.759H486.775H486.791H486.807H486.823H486.839H486.855H486.871H486.887H486.903H486.919H486.935H486.951H486.967H486.983H486.999H487.015H487.031H487.047H487.064H487.08H487.096H487.112H487.128H487.145H487.161H487.177H487.194H487.21H487.226H487.243H487.259H487.275H487.292H487.308H487.324H487.341H487.357H487.374H487.39H487.407H487.423H487.44H487.456H487.473H487.489H487.506H487.522H487.539H487.555H487.572H487.589H487.605H487.622H487.638H487.655H487.672H487.688H487.705H487.721H487.738H487.755H487.771H487.788H487.805H487.821H487.838H487.855H487.871H487.888H487.905H487.922H487.938H487.955H487.972H487.988H488.005H488.022H488.038H488.055H488.072H488.089H488.105H488.122H488.139H488.155H488.172H488.189H488.205H488.222H488.239H488.256H488.272H488.289H488.306H488.322H488.339H488.356H488.372H488.389H488.406H488.422H488.439H488.456H488.472H488.489H488.506H488.522H488.539H488.555H488.572H488.589H488.605H488.622H488.638H488.655H488.671H488.688H488.705H488.721H488.738H488.754H488.771H488.787H488.804H488.82H488.836H488.853H488.869H488.886H488.902H488.918H488.935H488.951H488.968H488.984H489H489.016H489.033H489.049H489.065H489.082H489.098H489.114H489.13H489.146H489.162H489.179H489.195H489.211H489.227H489.243H489.259H489.275H489.291H489.307H489.323H489.339H489.355H489.371H489.387H489.402H489.418H489.434H489.45H489.466H489.481H489.497H489.513H489.529H489.544H489.56H489.575H489.591H489.607H489.622H489.638H489.653H489.669H489.684H489.699H489.715H489.73H489.745H489.761H489.776H489.791H489.806H489.822H489.837H489.852H489.867H489.882H489.897H489.912H489.927H489.942H489.957H489.972H489.987H490.002H490.016H490.031H490.046H490.061H490.075H490.09H490.104H490.119H490.133H490.148H490.162H490.177H490.191H490.206H490.22H490.234H490.248H490.263H490.277H490.291H490.305H490.319H490.333H490.347H490.361H490.375H490.389H490.402H490.416H490.43H490.444H490.457H490.471H490.485H490.498H490.512H490.525H490.538H490.552H490.565H490.578H490.592C492.66 225.813 493.747 225.412 494.454 224.909C494.766 224.688 494.995 224.451 495.183 224.257C495.204 224.236 495.224 224.215 495.243 224.195Z" fill="#020070" fill-opacity="0.5" stroke="#020070" stroke-width="0.67484"/>
<path d="M480.132 219.74C481.144 219.402 481.819 220.077 482.831 216.365C483.107 215.353 486.543 215.691 487.555 215.691C489.064 215.69 488.037 216.606 488.905 218.053C489.917 219.74 490.254 218.728 491.942 219.402C493.629 220.077 492.954 222.102 493.966 223.114C494.978 224.126 495.316 223.114 496.328 223.114C497.34 223.114 494.482 229.435 493.629 229.862C492.954 230.2 489.917 230.2 488.23 230.2C486.543 230.2 486.543 229.525 484.856 226.151C483.169 222.777 482.831 222.439 481.819 222.777C480.807 223.114 480.807 225.813 480.469 224.801C480.132 223.789 479.679 219.891 480.132 219.74Z" stroke="#020070" stroke-width="0.67484"/>
<path d="M504.088 211.979H506.112C506.672 211.979 507.125 212.432 507.125 212.991V213.666C507.125 214.225 506.672 214.678 506.112 214.678H504.088C503.529 214.678 503.076 214.225 503.076 213.666V212.991C503.076 212.432 503.529 211.979 504.088 211.979Z" stroke="#020070" stroke-width="0.67484"/>
<path d="M499.7 224.126L500.038 225.138L501.387 222.776L502.737 223.114L504.424 226.488L506.449 229.862L512.185 230.2L513.872 229.187L515.896 225.476C515.896 225.476 515.137 228.776 514.884 229.525C514.614 230.324 513.534 231.212 513.534 231.212H512.185H503.412C503.412 231.212 501.466 229.799 500.712 228.513C499.824 226.995 499.7 224.126 499.7 224.126Z" fill="#020070"/>
<path d="M514.812 224.195C514.997 224.006 515.137 223.875 515.3 223.788L515.498 223.788C515.465 223.972 515.422 224.208 515.37 224.471C515.249 225.083 515.083 225.826 514.901 226.383C514.707 226.979 514.378 227.722 514.092 228.324C513.95 228.624 513.82 228.885 513.726 229.072C513.679 229.165 513.641 229.239 513.614 229.29L513.597 229.323L512.721 230.2H510.161H505.039L504.162 225.813H504.164H504.172H504.18H504.189H504.197H504.205H504.214H504.222H504.231H504.239H504.248H504.257H504.265H504.274H504.283H504.292H504.301H504.31H504.319H504.329H504.338H504.347H504.357H504.366H504.376H504.386H504.395H504.405H504.415H504.425H504.435H504.445H504.455H504.465H504.475H504.485H504.495H504.506H504.516H504.527H504.537H504.548H504.558H504.569H504.58H504.591H504.601H504.612H504.623H504.634H504.645H504.657H504.668H504.679H504.69H504.702H504.713H504.725H504.736H504.748H504.759H504.771H504.783H504.794H504.806H504.818H504.83H504.842H504.854H504.866H504.878H504.89H504.903H504.915H504.927H504.94H504.952H504.965H504.977H504.99H505.002H505.015H505.028H505.04H505.053H505.066H505.079H505.092H505.105H505.118H505.131H505.144H505.157H505.17H505.184H505.197H505.21H505.224H505.237H505.251H505.264H505.278H505.291H505.305H505.319H505.332H505.346H505.36H505.374H505.388H505.401H505.415H505.429H505.443H505.457H505.472H505.486H505.5H505.514H505.528H505.543H505.557H505.571H505.586H505.6H505.615H505.629H505.644H505.658H505.673H505.687H505.702H505.717H505.731H505.746H505.761H505.776H505.791H505.806H505.821H505.835H505.85H505.865H505.881H505.896H505.911H505.926H505.941H505.956H505.971H505.987H506.002H506.017H506.033H506.048H506.063H506.079H506.094H506.11H506.125H506.141H506.156H506.172H506.187H506.203H506.219H506.234H506.25H506.266H506.281H506.297H506.313H506.329H506.345H506.36H506.376H506.392H506.408H506.424H506.44H506.456H506.472H506.488H506.504H506.52H506.536H506.552H506.568H506.584H506.601H506.617H506.633H506.649H506.665H506.681H506.698H506.714H506.73H506.747H506.763H506.779H506.795H506.812H506.828H506.845H506.861H506.877H506.894H506.91H506.927H506.943H506.96H506.976H506.992H507.009H507.025H507.042H507.059H507.075H507.092H507.108H507.125H507.141H507.158H507.174H507.191H507.208H507.224H507.241H507.258H507.274H507.291H507.307H507.324H507.341H507.357H507.374H507.391H507.407H507.424H507.441H507.457H507.474H507.491H507.508H507.524H507.541H507.558H507.574H507.591H507.608H507.624H507.641H507.658H507.675H507.691H507.708H507.725H507.741H507.758H507.775H507.792H507.808H507.825H507.842H507.858H507.875H507.892H507.908H507.925H507.942H507.958H507.975H507.992H508.008H508.025H508.042H508.058H508.075H508.092H508.108H508.125H508.141H508.158H508.175H508.191H508.208H508.224H508.241H508.257H508.274H508.29H508.307H508.323H508.34H508.356H508.373H508.389H508.406H508.422H508.439H508.455H508.471H508.488H508.504H508.521H508.537H508.553H508.57H508.586H508.602H508.618H508.635H508.651H508.667H508.683H508.699H508.716H508.732H508.748H508.764H508.78H508.796H508.812H508.828H508.844H508.86H508.876H508.892H508.908H508.924H508.94H508.956H508.972H508.988H509.003H509.019H509.035H509.051H509.067H509.082H509.098H509.114H509.129H509.145H509.16H509.176H509.191H509.207H509.222H509.238H509.253H509.269H509.284H509.299H509.315H509.33H509.345H509.361H509.376H509.391H509.406H509.421H509.436H509.451H509.466H509.482H509.496H509.511H509.526H509.541H509.556H509.571H509.586H509.6H509.615H509.63H509.645H509.659H509.674H509.688H509.703H509.717H509.732H509.746H509.761H509.775H509.789H509.803H509.818H509.832H509.846H509.86H509.874H509.888H509.902H509.916H509.93H509.944H509.958H509.972H509.986H509.999H510.013H510.027H510.04H510.054H510.067H510.081H510.094H510.108H510.121H510.134H510.148H510.161C512.229 225.813 513.316 225.412 514.023 224.909C514.335 224.688 514.564 224.451 514.753 224.257C514.773 224.236 514.793 224.215 514.812 224.195Z" fill="#020070" fill-opacity="0.5" stroke="#020070" stroke-width="0.67484"/>
<path d="M499.701 219.74C500.713 219.402 501.388 220.077 502.401 216.365C502.677 215.353 506.112 215.691 507.125 215.691C508.634 215.69 507.606 216.606 508.474 218.053C509.486 219.74 509.824 218.728 511.511 219.402C513.198 220.077 512.523 222.102 513.535 223.114C514.548 224.126 514.885 223.114 515.897 223.114C516.91 223.114 514.052 229.435 513.198 229.862C512.523 230.2 509.486 230.2 507.799 230.2C506.112 230.2 506.112 229.525 504.425 226.151C502.738 222.777 502.401 222.439 501.388 222.777C500.376 223.114 500.376 225.813 500.039 224.801C499.701 223.789 499.249 219.891 499.701 219.74Z" stroke="#020070" stroke-width="0.67484"/>
<path d="M522.982 211.979H525.007C525.566 211.979 526.019 212.432 526.019 212.991V213.666C526.019 214.225 525.566 214.678 525.007 214.678H522.982C522.423 214.678 521.97 214.225 521.97 213.666V212.991C521.97 212.432 522.423 211.979 522.982 211.979Z" stroke="#020070" stroke-width="0.67484"/>
<path d="M518.596 224.126L518.933 225.138L520.283 222.776L521.632 223.114L523.32 226.488L525.344 229.862L531.08 230.2L532.767 229.187L534.792 225.476C534.792 225.476 534.033 228.776 533.78 229.525C533.509 230.324 532.43 231.212 532.43 231.212H531.08H522.307C522.307 231.212 520.361 229.799 519.608 228.513C518.72 226.995 518.596 224.126 518.596 224.126Z" fill="#020070"/>
<path d="M533.708 224.195C533.892 224.006 534.032 223.875 534.195 223.788L534.393 223.788C534.361 223.972 534.317 224.208 534.265 224.471C534.144 225.083 533.979 225.826 533.797 226.383C533.603 226.979 533.273 227.722 532.987 228.324C532.845 228.624 532.715 228.885 532.621 229.072C532.574 229.165 532.536 229.239 532.51 229.29L532.493 229.323L531.616 230.2H529.056H523.934L523.057 225.813H523.06H523.068H523.076H523.084H523.092H523.101H523.109H523.118H523.126H523.135H523.143H523.152H523.161H523.17H523.179H523.188H523.197H523.206H523.215H523.224H523.234H523.243H523.252H523.262H523.271H523.281H523.291H523.3H523.31H523.32H523.33H523.34H523.35H523.36H523.37H523.381H523.391H523.401H523.412H523.422H523.433H523.443H523.454H523.464H523.475H523.486H523.497H523.508H523.519H523.53H523.541H523.552H523.563H523.574H523.586H523.597H523.609H523.62H523.632H523.643H523.655H523.666H523.678H523.69H523.702H523.714H523.726H523.738H523.75H523.762H523.774H523.786H523.798H523.81H523.823H523.835H523.848H523.86H523.873H523.885H523.898H523.91H523.923H523.936H523.949H523.962H523.974H523.987H524H524.013H524.027H524.04H524.053H524.066H524.079H524.093H524.106H524.119H524.133H524.146H524.16H524.173H524.187H524.2H524.214H524.228H524.242H524.255H524.269H524.283H524.297H524.311H524.325H524.339H524.353H524.367H524.381H524.395H524.41H524.424H524.438H524.452H524.467H524.481H524.496H524.51H524.525H524.539H524.554H524.568H524.583H524.598H524.612H524.627H524.642H524.657H524.671H524.686H524.701H524.716H524.731H524.746H524.761H524.776H524.791H524.806H524.821H524.837H524.852H524.867H524.882H524.897H524.913H524.928H524.943H524.959H524.974H524.99H525.005H525.021H525.036H525.052H525.067H525.083H525.098H525.114H525.13H525.145H525.161H525.177H525.193H525.208H525.224H525.24H525.256H525.272H525.288H525.304H525.32H525.335H525.351H525.367H525.383H525.399H525.416H525.432H525.448H525.464H525.48H525.496H525.512H525.528H525.545H525.561H525.577H525.593H525.609H525.626H525.642H525.658H525.675H525.691H525.707H525.724H525.74H525.756H525.773H525.789H525.806H525.822H525.839H525.855H525.872H525.888H525.904H525.921H525.938H525.954H525.971H525.987H526.004H526.02H526.037H526.053H526.07H526.087H526.103H526.12H526.136H526.153H526.17H526.186H526.203H526.22H526.236H526.253H526.27H526.286H526.303H526.32H526.336H526.353H526.37H526.386H526.403H526.42H526.436H526.453H526.47H526.487H526.503H526.52H526.537H526.553H526.57H526.587H526.604H526.62H526.637H526.654H526.67H526.687H526.704H526.72H526.737H526.754H526.771H526.787H526.804H526.821H526.837H526.854H526.871H526.887H526.904H526.921H526.937H526.954H526.97H526.987H527.004H527.02H527.037H527.053H527.07H527.087H527.103H527.12H527.136H527.153H527.169H527.186H527.202H527.219H527.235H527.252H527.268H527.285H527.301H527.318H527.334H527.351H527.367H527.383H527.4H527.416H527.432H527.449H527.465H527.481H527.498H527.514H527.53H527.546H527.563H527.579H527.595H527.611H527.627H527.643H527.66H527.676H527.692H527.708H527.724H527.74H527.756H527.772H527.788H527.804H527.82H527.836H527.851H527.867H527.883H527.899H527.915H527.931H527.946H527.962H527.978H527.993H528.009H528.025H528.04H528.056H528.071H528.087H528.102H528.118H528.133H528.149H528.164H528.18H528.195H528.21H528.226H528.241H528.256H528.271H528.287H528.302H528.317H528.332H528.347H528.362H528.377H528.392H528.407H528.422H528.437H528.452H528.466H528.481H528.496H528.511H528.525H528.54H528.555H528.569H528.584H528.598H528.613H528.627H528.642H528.656H528.67H528.685H528.699H528.713H528.727H528.742H528.756H528.77H528.784H528.798H528.812H528.826H528.84H528.854H528.867H528.881H528.895H528.909H528.922H528.936H528.949H528.963H528.976H528.99H529.003H529.017H529.03H529.043H529.056C531.125 225.813 532.212 225.412 532.919 224.909C533.231 224.688 533.46 224.451 533.648 224.257C533.669 224.236 533.688 224.215 533.708 224.195Z" fill="#020070" fill-opacity="0.5" stroke="#020070" stroke-width="0.67484"/>
<path d="M518.597 219.74C519.609 219.402 520.284 220.077 521.296 216.365C521.572 215.353 525.008 215.691 526.02 215.691C527.529 215.69 526.502 216.606 527.37 218.053C528.382 219.74 528.719 218.728 530.406 219.402C532.094 220.077 531.419 222.102 532.431 223.114C533.443 224.126 533.781 223.114 534.793 223.114C535.805 223.114 532.947 229.435 532.094 229.862C531.419 230.2 528.382 230.2 526.695 230.2C525.008 230.2 525.008 229.525 523.321 226.151C521.634 222.777 521.296 222.439 520.284 222.777C519.272 223.114 519.272 225.813 518.934 224.801C518.597 223.789 518.144 219.891 518.597 219.74Z" stroke="#020070" stroke-width="0.67484"/>
<path d="M544.051 215.017H551.137L556.198 212.317L558.897 207.256H566.321L562.946 212.992V214.342L575.768 215.017V225.814H544.051V215.017Z" fill="#020070"/>
<path d="M105.057 112.943L104 114L107.617 122.657L103.503 113.116L105.057 112.943Z" fill="#020070" fill-opacity="0.5"/>
<path d="M131.799 112.767L135.5 114L138.151 116.083L135.22 113.116L131.799 112.767Z" fill="#020070" fill-opacity="0.5"/>
<path d="M165.46 143.736L187.5 167L191.095 168.284L188.87 167.44L165.46 143.736Z" fill="#020070" fill-opacity="0.5"/>
<path d="M134.363 186.673H111.938L85.9568 192.747L62 199.495L66.7239 201.857C66.7239 201.857 76.9772 198.261 87.3065 197.133C97.6549 196.004 106.977 195.289 119.361 197.133C125.757 198.086 151.486 209.28 151.079 216.366C150.723 222.563 127.617 228.697 119.619 230.82C118.198 231.198 117.254 231.448 116.999 231.55C116.662 232.225 116.662 233.237 117.337 234.25C145.343 229.863 162.214 218.728 162.214 214.004C162.214 209.955 127.797 195.784 127.797 195.784V191.735C127.49 190.929 134.741 187.577 134.363 186.673Z" fill="#020070" fill-opacity="0.5"/>
<path d="M539.729 199.698L541.281 201.76C541.393 201.909 541.364 202.12 541.215 202.232L540.136 203.044C539.987 203.156 539.776 203.126 539.664 202.977L538.111 200.915C537.999 200.766 538.029 200.555 538.178 200.443L539.256 199.631C539.405 199.519 539.617 199.549 539.729 199.698Z" stroke="#020070" stroke-width="0.67484"/>
<path d="M537.977 214.005V213.993L537.976 213.981L537.328 204.583C537.316 204.4 537.359 204.218 537.454 204.06C537.754 203.561 538.443 203.476 538.856 203.888L539.144 204.176C539.282 204.314 539.377 204.489 539.418 204.68L540.27 208.658C540.333 208.949 540.471 209.219 540.672 209.439L543.564 212.621C543.68 212.749 543.762 212.905 543.801 213.074L546.377 224.237C546.524 224.871 546.042 225.477 545.391 225.477H538.989C538.43 225.477 537.977 225.024 537.977 224.465V214.005Z" stroke="#020070" stroke-width="0.67484"/>
<path fill-rule="evenodd" clip-rule="evenodd" d="M534.206 195.887C534.457 195.604 534.817 195.445 535.196 195.445H543.797C544.386 195.445 544.946 195.702 545.33 196.148L552.198 204.115C552.575 204.552 552.265 205.23 551.687 205.23H539.877L539.744 204.608C539.69 204.354 539.563 204.121 539.379 203.937L539.09 203.649C538.523 203.081 537.574 203.198 537.161 203.886C537.031 204.103 536.97 204.354 536.988 204.606L537.031 205.23H529.51C529.037 205.23 528.713 204.758 528.894 204.32C529.342 203.233 530.137 201.407 530.89 200.169C531.811 198.658 533.454 196.739 534.206 195.887ZM541.35 201.857L539.663 199.495L537.976 200.875L539.908 203.206L541.35 201.857Z" fill="#020070" fill-opacity="0.5"/>
<path d="M540.677 214.172C540.677 213.873 540.873 213.61 541.161 213.53C541.988 213.301 543.712 212.848 545.063 212.655C546.443 212.458 548.591 212.367 549.586 212.333C549.901 212.323 550.179 212.535 550.255 212.841L550.289 212.974C550.383 213.35 550.141 213.728 549.76 213.801L543.439 215.005C543.397 215.013 543.355 215.017 543.312 215.017H541.352C540.979 215.017 540.677 214.715 540.677 214.342V214.172Z" fill="#020070"/>
<path d="M537.639 224.464L538.652 225.476H544.388L541.351 231.212C541.351 231.212 529.24 231.983 532.578 231.212C536.965 230.2 537.639 224.464 537.639 224.464Z" fill="#020070"/>
<path fill-rule="evenodd" clip-rule="evenodd" d="M225.145 207.413C228.433 206.148 230.261 203.211 231.265 200.007C232.272 196.794 232.612 192.847 232.612 188.697H227.213C227.213 192.646 226.878 195.953 226.113 198.392C225.346 200.839 224.306 201.951 223.207 202.374C222.785 202.536 221.558 202.737 219.5 202.846C217.576 202.949 215.258 202.96 212.92 202.912C210.322 202.858 207.804 202.733 205.845 202.592C204.557 202.337 203.243 202.194 201.907 202.194H166.14C159.468 202.194 156.687 202.023 152.12 200.552C148.883 199.51 144.856 197.849 138.282 195.138L138.282 195.138C135.003 193.786 131.09 192.172 126.325 190.244L124.3 195.248C128.848 197.089 132.661 198.661 135.912 200.002L135.912 200.002C142.687 202.795 147.018 204.581 150.465 205.691C155.85 207.425 159.312 207.592 166.14 207.592H201.676C202.452 207.717 203.658 207.841 205.116 207.951C209.155 208.826 213.188 211.198 217.194 213.884C217.921 214.371 218.657 214.875 219.39 215.378L219.392 215.38L219.392 215.38C221.079 216.536 222.753 217.683 224.277 218.597C226.404 219.871 228.852 221.089 231.262 221.089H239.361V215.691H231.262C230.468 215.691 229.148 215.222 227.052 213.966C225.673 213.139 224.225 212.147 222.616 211.043L222.616 211.043C221.851 210.518 221.049 209.968 220.2 209.4C219.656 209.034 219.095 208.663 218.519 208.292C218.953 208.277 219.376 208.259 219.787 208.237C221.758 208.133 223.813 207.925 225.145 207.413Z" fill="#020070" fill-opacity="0.7"/>
<rect x="202.581" y="194.097" width="18.8955" height="10.7974" rx="0.67484" fill="#020070"/>
<rect x="185.035" y="201.52" width="3.3742" height="6.7484" rx="0.67484" fill="#020070"/>
<rect x="166.814" y="201.52" width="3.3742" height="6.7484" rx="0.67484" fill="#020070"/>
<rect x="192.458" y="201.52" width="0.67484" height="6.7484" rx="0.33742" fill="#020070"/>
<rect x="345.647" y="194.097" width="18.2207" height="6.07356" rx="3.03678" fill="#020070"/>
<circle cx="350.033" cy="231.55" r="3.71162" fill="#020070"/>
<circle cx="360.156" cy="231.55" r="3.71162" fill="#020070"/>
<path d="M183.686 223.452C183.686 232.225 183.685 237.624 184.023 237.624C190.743 237.624 200.894 237.624 200.894 237.624L204.268 235.599L227.55 235.937" stroke="#020070" stroke-opacity="0.7" stroke-width="0.67484"/>
<path d="M182.336 223.452C182.336 232.225 182.336 237.624 181.999 237.624C175.278 237.624 162.766 237.624 162.766 237.624" stroke="#020070" stroke-opacity="0.7" stroke-width="0.67484"/>
<path d="M185.035 223.452C185.035 232.225 185.035 235.937 185.373 235.937C192.093 235.937 200.219 235.937 200.219 235.937L203.593 233.912L226.875 234.25" stroke="#020070" stroke-opacity="0.7" stroke-width="0.67484"/>
<rect x="216.079" y="231.212" width="2.69936" height="6.7484" rx="1.34968" fill="#020070"/>
<path fill-rule="evenodd" clip-rule="evenodd" d="M183.195 189.22H180.313V223.451H191.111L185.037 217.377V213.666L202.921 203.206L203.595 189.034L183.195 189.22ZM182.339 192.071C182.339 191.698 182.641 191.396 183.013 191.396H187.062C187.435 191.396 187.737 191.698 187.737 192.071V198.145C187.737 198.517 187.435 198.819 187.062 198.819H183.013C182.641 198.819 182.339 198.517 182.339 198.145V192.071ZM188.412 192.071C188.412 191.698 188.714 191.396 189.087 191.396H189.762C190.135 191.396 190.437 191.698 190.437 192.071V192.746C190.437 193.119 190.135 193.421 189.762 193.421H189.087C188.714 193.421 188.412 193.119 188.412 192.746V192.071ZM189.087 194.096C188.714 194.096 188.412 194.398 188.412 194.77V195.445C188.412 195.818 188.714 196.12 189.087 196.12H189.762C190.135 196.12 190.437 195.818 190.437 195.445V194.77C190.437 194.398 190.135 194.096 189.762 194.096H189.087ZM188.412 197.47C188.412 197.097 188.714 196.795 189.087 196.795H189.762C190.135 196.795 190.437 197.097 190.437 197.47V198.145C190.437 198.517 190.135 198.819 189.762 198.819H189.087C188.714 198.819 188.412 198.517 188.412 198.145V197.47ZM196.173 192.071C195.986 192.071 195.835 192.222 195.835 192.408C195.835 192.595 195.986 192.746 196.173 192.746H201.572C201.758 192.746 201.909 192.595 201.909 192.408C201.909 192.222 201.758 192.071 201.572 192.071H196.173ZM195.835 193.758C195.835 193.572 195.986 193.421 196.173 193.421H201.572C201.758 193.421 201.909 193.572 201.909 193.758C201.909 193.945 201.758 194.096 201.572 194.096H196.173C195.986 194.096 195.835 193.945 195.835 193.758ZM196.173 194.77C195.986 194.77 195.835 194.921 195.835 195.108C195.835 195.294 195.986 195.445 196.173 195.445H201.572C201.758 195.445 201.909 195.294 201.909 195.108C201.909 194.921 201.758 194.77 201.572 194.77H196.173ZM195.835 196.458C195.835 196.271 195.986 196.12 196.173 196.12H201.572C201.758 196.12 201.909 196.271 201.909 196.458C201.909 196.644 201.758 196.795 201.572 196.795H196.173C195.986 196.795 195.835 196.644 195.835 196.458ZM196.173 197.47C195.986 197.47 195.835 197.621 195.835 197.807C195.835 197.994 195.986 198.145 196.173 198.145H201.572C201.758 198.145 201.909 197.994 201.909 197.807C201.909 197.621 201.758 197.47 201.572 197.47H196.173Z" fill="#020070" fill-opacity="0.5"/>
<path fill-rule="evenodd" clip-rule="evenodd" d="M228.224 208.943H201.905V217.041H228.224V208.943ZM228.899 217.041H230.806C231.315 217.041 231.805 216.85 232.179 216.505L234.373 214.48C235.241 213.678 235.241 212.306 234.373 211.505L232.179 209.48C231.805 209.135 231.315 208.943 230.806 208.943H228.899V217.041ZM199.241 208.943H201.231V217.041H199.241C198.781 217.041 198.335 216.885 197.976 216.598L195.445 214.573C194.432 213.763 194.432 212.222 195.445 211.412L197.976 209.387C198.335 209.1 198.781 208.943 199.241 208.943Z" fill="#020070"/>
<path fill-rule="evenodd" clip-rule="evenodd" d="M228.224 219.065H201.905V227.164H228.224V219.065ZM228.899 227.164H230.806C231.315 227.164 231.805 226.972 232.179 226.627L234.373 224.602C235.241 223.8 235.241 222.428 234.373 221.627L232.179 219.602C231.805 219.257 231.315 219.065 230.806 219.065H228.899V227.164ZM199.241 219.065H201.231V227.164H199.241C198.781 227.164 198.335 227.007 197.976 226.72L195.445 224.695C194.432 223.885 194.432 222.344 195.445 221.534L197.976 219.509C198.335 219.222 198.781 219.065 199.241 219.065Z" fill="#020070"/>
<rect x="153.992" y="224.464" width="9.44776" height="17.5458" rx="1.34968" fill="#020070"/>
<rect x="166.814" y="236.611" width="0.67484" height="2.02452" rx="0.33742" fill="#020070"/>
<rect x="163.441" y="228.514" width="0.67484" height="4.04904" rx="0.33742" fill="#020070"/>
<path d="M164.116 230.538C164.469 230.538 168.624 230.538 171.541 230.538C172.286 230.538 172.889 229.934 172.889 229.189V189.373" stroke="#020070" stroke-opacity="0.7" stroke-width="3.3742" stroke-linejoin="round"/>
<path d="M576.78 241.673L577 208" stroke="black" stroke-width="2.02452"/>
<rect x="-0.5" y="0.5" width="185" height="66" transform="matrix(-1 0 0 1 237 185)" stroke="white" stroke-dasharray="2 2"/>
<rect x="-0.5" y="0.5" width="145" height="77" transform="matrix(-1 0 0 1 237 107)" stroke="white" stroke-dasharray="2 2"/>
<rect x="-0.5" y="0.5" width="121" height="57" transform="matrix(-1 0 0 1 359 184)" stroke="white" stroke-dasharray="2 2"/>
<rect x="-0.5" y="0.5" width="204" height="23" transform="matrix(-1 0 0 1 442 242)" stroke="white" stroke-dasharray="2 2"/>
<rect x="-0.5" y="0.5" width="88" height="61" transform="matrix(-1 0 0 1 531 184)" stroke="white" stroke-dasharray="2 2"/>
<rect x="532.5" y="184.5" width="44" height="61" stroke="white" stroke-dasharray="2 2"/>
<rect x="-0.5" y="0.5" width="58" height="61" transform="matrix(-1 0 0 1 635 184)" stroke="white" stroke-dasharray="2 2"/>
<rect x="-0.5" y="0.5" width="83" height="57" transform="matrix(-1 0 0 1 443 184)" stroke="white" stroke-dasharray="2 2"/>
</g>
<defs>
<filter id="filter0_dd_1486_8" x="96" y="107" width="130.5" height="88" filterUnits="userSpaceOnUse" color-interpolation-filters="sRGB">
<feFlood flood-opacity="0" result="BackgroundImageFix"/>
<feColorMatrix in="SourceAlpha" type="matrix" values="0 0 0 0 0 0 0 0 0 0 0 0 0 0 0 0 0 0 127 0" result="hardAlpha"/>
<feOffset dy="4"/>
<feGaussianBlur stdDeviation="2"/>
<feComposite in2="hardAlpha" operator="out"/>
<feColorMatrix type="matrix" values="0 0 0 0 1 0 0 0 0 1 0 0 0 0 1 0 0 0 0.25 0"/>
<feBlend mode="normal" in2="BackgroundImageFix" result="effect1_dropShadow_1486_8"/>
<feColorMatrix in="SourceAlpha" type="matrix" values="0 0 0 0 0 0 0 0 0 0 0 0 0 0 0 0 0 0 127 0" result="hardAlpha"/>
<feOffset dx="-4"/>
<feGaussianBlur stdDeviation="2"/>
<feComposite in2="hardAlpha" operator="out"/>
<feColorMatrix type="matrix" values="0 0 0 0 1 0 0 0 0 1 0 0 0 0 1 0 0 0 0.25 0"/>
<feBlend mode="normal" in2="effect1_dropShadow_1486_8" result="effect2_dropShadow_1486_8"/>
<feBlend mode="normal" in="SourceGraphic" in2="effect2_dropShadow_1486_8" result="shape"/>
</filter>
<filter id="filter1_dd_1486_8" x="54" y="183.836" width="184" height="66.6641" filterUnits="userSpaceOnUse" color-interpolation-filters="sRGB">
<feFlood flood-opacity="0" result="BackgroundImageFix"/>
<feColorMatrix in="SourceAlpha" type="matrix" values="0 0 0 0 0 0 0 0 0 0 0 0 0 0 0 0 0 0 127 0" result="hardAlpha"/>
<feOffset dy="4"/>
<feGaussianBlur stdDeviation="2"/>
<feComposite in2="hardAlpha" operator="out"/>
<feColorMatrix type="matrix" values="0 0 0 0 1 0 0 0 0 1 0 0 0 0 1 0 0 0 0.25 0"/>
<feBlend mode="normal" in2="BackgroundImageFix" result="effect1_dropShadow_1486_8"/>
<feColorMatrix in="SourceAlpha" type="matrix" values="0 0 0 0 0 0 0 0 0 0 0 0 0 0 0 0 0 0 127 0" result="hardAlpha"/>
<feOffset dx="-4"/>
<feGaussianBlur stdDeviation="2"/>
<feComposite in2="hardAlpha" operator="out"/>
<feColorMatrix type="matrix" values="0 0 0 0 1 0 0 0 0 1 0 0 0 0 1 0 0 0 0.25 0"/>
<feBlend mode="normal" in2="effect1_dropShadow_1486_8" result="effect2_dropShadow_1486_8"/>
<feBlend mode="normal" in="SourceGraphic" in2="effect2_dropShadow_1486_8" result="shape"/>
</filter>
<filter id="filter2_dd_1486_8" x="522.458" y="184.5" width="58.042" height="65" filterUnits="userSpaceOnUse" color-interpolation-filters="sRGB">
<feFlood flood-opacity="0" result="BackgroundImageFix"/>
<feColorMatrix in="SourceAlpha" type="matrix" values="0 0 0 0 0 0 0 0 0 0 0 0 0 0 0 0 0 0 127 0" result="hardAlpha"/>
<feOffset dy="4"/>
<feGaussianBlur stdDeviation="2"/>
<feComposite in2="hardAlpha" operator="out"/>
<feColorMatrix type="matrix" values="0 0 0 0 1 0 0 0 0 1 0 0 0 0 1 0 0 0 0.25 0"/>
<feBlend mode="normal" in2="BackgroundImageFix" result="effect1_dropShadow_1486_8"/>
<feColorMatrix in="SourceAlpha" type="matrix" values="0 0 0 0 0 0 0 0 0 0 0 0 0 0 0 0 0 0 127 0" result="hardAlpha"/>
<feOffset dx="-4"/>
<feGaussianBlur stdDeviation="2"/>
<feComposite in2="hardAlpha" operator="out"/>
<feColorMatrix type="matrix" values="0 0 0 0 1 0 0 0 0 1 0 0 0 0 1 0 0 0 0.25 0"/>
<feBlend mode="normal" in2="effect1_dropShadow_1486_8" result="effect2_dropShadow_1486_8"/>
<feBlend mode="normal" in="SourceGraphic" in2="effect2_dropShadow_1486_8" result="shape"/>
</filter>
<filter id="filter3_dd_1486_8" x="444" y="184" width="90.5" height="67" filterUnits="userSpaceOnUse" color-interpolation-filters="sRGB">
<feFlood flood-opacity="0" result="BackgroundImageFix"/>
<feColorMatrix in="SourceAlpha" type="matrix" values="0 0 0 0 0 0 0 0 0 0 0 0 0 0 0 0 0 0 127 0" result="hardAlpha"/>
<feOffset dy="4"/>
<feGaussianBlur stdDeviation="2"/>
<feComposite in2="hardAlpha" operator="out"/>
<feColorMatrix type="matrix" values="0 0 0 0 1 0 0 0 0 1 0 0 0 0 1 0 0 0 0.25 0"/>
<feBlend mode="normal" in2="BackgroundImageFix" result="effect1_dropShadow_1486_8"/>
<feColorMatrix in="SourceAlpha" type="matrix" values="0 0 0 0 0 0 0 0 0 0 0 0 0 0 0 0 0 0 127 0" result="hardAlpha"/>
<feOffset dx="-4"/>
<feGaussianBlur stdDeviation="2"/>
<feComposite in2="hardAlpha" operator="out"/>
<feColorMatrix type="matrix" values="0 0 0 0 1 0 0 0 0 1 0 0 0 0 1 0 0 0 0.25 0"/>
<feBlend mode="normal" in2="effect1_dropShadow_1486_8" result="effect2_dropShadow_1486_8"/>
<feBlend mode="normal" in="SourceGraphic" in2="effect2_dropShadow_1486_8" result="shape"/>
</filter>
<filter id="filter4_dd_1486_8" x="230.5" y="190.5" width="122.5" height="53.5" filterUnits="userSpaceOnUse" color-interpolation-filters="sRGB">
<feFlood flood-opacity="0" result="BackgroundImageFix"/>
<feColorMatrix in="SourceAlpha" type="matrix" values="0 0 0 0 0 0 0 0 0 0 0 0 0 0 0 0 0 0 127 0" result="hardAlpha"/>
<feOffset dy="4"/>
<feGaussianBlur stdDeviation="2"/>
<feComposite in2="hardAlpha" operator="out"/>
<feColorMatrix type="matrix" values="0 0 0 0 1 0 0 0 0 1 0 0 0 0 1 0 0 0 0.3 0"/>
<feBlend mode="normal" in2="BackgroundImageFix" result="effect1_dropShadow_1486_8"/>
<feColorMatrix in="SourceAlpha" type="matrix" values="0 0 0 0 0 0 0 0 0 0 0 0 0 0 0 0 0 0 127 0" result="hardAlpha"/>
<feOffset dx="-4"/>
<feGaussianBlur stdDeviation="2"/>
<feComposite in2="hardAlpha" operator="out"/>
<feColorMatrix type="matrix" values="0 0 0 0 1 0 0 0 0 1 0 0 0 0 1 0 0 0 0.4 0"/>
<feBlend mode="normal" in2="effect1_dropShadow_1486_8" result="effect2_dropShadow_1486_8"/>
<feBlend mode="normal" in="SourceGraphic" in2="effect2_dropShadow_1486_8" result="shape"/>
</filter>
<filter id="filter5_dd_1486_8" x="359.17" y="186.722" width="85.2979" height="59.915" filterUnits="userSpaceOnUse" color-interpolation-filters="sRGB">
<feFlood flood-opacity="0" result="BackgroundImageFix"/>
<feColorMatrix in="SourceAlpha" type="matrix" values="0 0 0 0 0 0 0 0 0 0 0 0 0 0 0 0 0 0 127 0" result="hardAlpha"/>
<feOffset dy="3"/>
<feGaussianBlur stdDeviation="2"/>
<feComposite in2="hardAlpha" operator="out"/>
<feColorMatrix type="matrix" values="0 0 0 0 1 0 0 0 0 1 0 0 0 0 1 0 0 0 0.4 0"/>
<feBlend mode="normal" in2="BackgroundImageFix" result="effect1_dropShadow_1486_8"/>
<feColorMatrix in="SourceAlpha" type="matrix" values="0 0 0 0 0 0 0 0 0 0 0 0 0 0 0 0 0 0 127 0" result="hardAlpha"/>
<feOffset dx="-3"/>
<feGaussianBlur stdDeviation="2"/>
<feComposite in2="hardAlpha" operator="out"/>
<feColorMatrix type="matrix" values="0 0 0 0 1 0 0 0 0 1 0 0 0 0 1 0 0 0 0.4 0"/>
<feBlend mode="normal" in2="effect1_dropShadow_1486_8" result="effect2_dropShadow_1486_8"/>
<feBlend mode="normal" in="SourceGraphic" in2="effect2_dropShadow_1486_8" result="shape"/>
</filter>
<filter id="filter6_d_1486_8" x="247.507" y="241.673" width="187.17" height="18.123" filterUnits="userSpaceOnUse" color-interpolation-filters="sRGB">
<feFlood flood-opacity="0" result="BackgroundImageFix"/>
<feColorMatrix in="SourceAlpha" type="matrix" values="0 0 0 0 0 0 0 0 0 0 0 0 0 0 0 0 0 0 127 0" result="hardAlpha"/>
<feOffset dy="4"/>
<feGaussianBlur stdDeviation="2"/>
<feComposite in2="hardAlpha" operator="out"/>
<feColorMatrix type="matrix" values="0 0 0 0 1 0 0 0 0 1 0 0 0 0 1 0 0 0 0.25 0"/>
<feBlend mode="normal" in2="BackgroundImageFix" result="effect1_dropShadow_1486_8"/>
<feBlend mode="normal" in="SourceGraphic" in2="effect1_dropShadow_1486_8" result="shape"/>
</filter>
<clipPath id="clip0_1486_8">
<rect width="375" height="667" fill="white" transform="translate(667) rotate(90)"/>
</clipPath>
</defs>
</svg>
