<svg width="667" height="375" viewBox="0 0 667 375" fill="none" xmlns="http://www.w3.org/2000/svg">
<g clip-path="url(#clip0_1396_159)">
<path d="M218 168.952L299.5 168L339 165.5L344.5 170.381H470.5L503.5 177.048L531 190.857L508 199.429L468 206.571H342.5L338 208L218 207.048V168.952Z" fill="#020070" fill-opacity="0.3"/>
<path fill-rule="evenodd" clip-rule="evenodd" d="M495.459 175.153L474 171.5L474 206L497.041 202.38C499.667 199.408 502.397 194.994 502.396 189.487C502.396 186.505 500.687 182.819 498.601 179.529C497.543 177.862 496.424 176.35 495.459 175.153ZM498.478 175.804C499.08 176.627 499.695 177.52 500.289 178.458C502.403 181.791 504.396 185.895 504.396 189.487C504.397 194.535 502.363 198.715 500.053 201.836L510 200L532 194.5L538 190.5L534.5 187L498.478 175.804Z" fill="white"/>
<rect x="343" y="170" width="82" height="37" fill="white"/>
<path d="M428 170H471V207L456.5 208H428V170Z" fill="white"/>
<path d="M289.5 129.5L295.5 40H315.5L318 42L342 168H297L282.5 156.5L289.5 129.5Z" fill="white"/>
<rect x="302" y="170" width="38" height="36" fill="white"/>
<path d="M289.5 129.5L295.5 40H315.5L318 42L342 168H297L282.5 156.5L289.5 129.5Z" fill="white"/>
<path d="M289 250L294 337H314L316.5 335L328.5 270L342.5 208H296L282.5 219L289 250Z" fill="white"/>
<g filter="url(#filter0_dd_1396_159)">
<path d="M147.5 178.5L162.5 172L189 171L187 198L188.5 204.5L171.5 203.5L157.5 201L149.5 198L147 195.5L147.5 178.5Z" fill="white"/>
</g>
<path d="M189.5 170.5C182.5 170.5 172.066 171.066 172.066 171.066C169.244 171.232 161.61 171.863 156.632 174.053C151.653 176.244 148.666 176.822 147.919 177.787C146.582 179.515 146.674 179.729 146.674 182.517C146.674 185.305 146.674 191.313 146.674 193.719C146.674 194.715 147.073 196.905 148.666 197.702C150.657 198.698 157.13 201.436 159.37 201.934C161.61 202.432 168.581 203.676 173.808 203.925C175.807 204.021 184.014 204.423 188.744 204.423" stroke="#020070" stroke-width="1.4936"/>
<g filter="url(#filter1_dd_1396_159)">
<path d="M190.041 117L198.5 116.5L209.265 117L223 160L217 161.5L216.347 166L217 172.5L223 177.5L229 180L229.5 197L223.5 198L218.371 203L216.347 208L216.853 215.5L223.5 216.5L209 260L190.041 261L191.559 210.5L191 205L188.524 204.5L186.5 194.5L187 182L188.524 172L190 170.5H191.559L190.041 117Z" fill="white"/>
</g>
<path d="M250.977 220.106C260.138 220.106 272.962 219.593 282.094 218.861C287.819 218.402 297.279 218.214 298.274 217.617C299.519 216.87 300.017 211.144 300.017 207.161C300.017 203.641 299.087 198.677 298.274 197.702C297.03 196.208 280.351 195.461 264.917 195.71C249.483 195.959 237.465 195.353 230.564 196.457C225.835 197.214 221.342 198.477 218.118 202.432C214.979 206.281 216.134 212.43 216.375 213.634C216.624 214.878 217.371 215.874 220.607 216.123C226.429 216.571 239.526 220.106 250.977 220.106Z" fill="white"/>
<path d="M537.5 189.985C537.334 190.732 536.604 192.375 535.011 192.972C533.019 193.719 482.486 208.406 456.846 208.157C436.333 207.958 372.125 207.244 342.585 206.912C342.349 206.912 328.893 265.163 328.893 265.163C328.893 265.163 316.723 331.678 316.198 333.122C315.202 335.86 313.957 337.105 309.974 337.105C306.788 337.105 298.026 337.105 294.043 337.105L289.313 249.729C289.313 249.729 284.913 230.916 282.094 218.861M282.094 218.861C272.962 219.593 260.138 220.106 250.977 220.106C239.526 220.106 226.429 216.571 220.607 216.123C217.371 215.874 216.624 214.878 216.375 213.634C216.134 212.43 214.979 206.281 218.118 202.432C221.342 198.477 225.835 197.214 230.564 196.457C237.465 195.353 249.483 195.959 264.917 195.71C280.351 195.461 297.03 196.208 298.274 197.702C299.087 198.677 300.017 203.641 300.017 207.161C300.017 211.144 299.519 216.87 298.274 217.617C297.279 218.214 287.819 218.402 282.094 218.861Z" stroke="#020070" stroke-width="1.4936"/>
<path d="M250.978 156.246C260.139 156.246 272.963 156.759 282.095 157.49C287.82 157.949 297.28 158.138 298.276 158.735C299.52 159.482 300.018 165.207 300.018 169.19C300.018 172.711 299.088 177.675 298.276 178.65C297.031 180.143 280.352 180.89 264.918 180.641C249.485 180.392 237.466 180.998 230.566 179.894C225.836 179.138 221.343 177.875 218.119 173.92C214.98 170.07 216.136 163.922 216.376 162.718C216.625 161.473 217.372 160.478 220.608 160.229C226.43 159.781 239.527 156.246 250.978 156.246Z" fill="white"/>
<path d="M537.501 190.234C537.335 189.487 536.107 187.098 534.514 186.5C532.522 185.753 487.963 170.071 462.323 170.32C441.811 170.519 372.126 169.107 342.586 169.439C342.351 169.439 330.139 112.069 330.139 112.069C330.139 112.069 318.964 45.5534 318.439 44.11C317.444 41.3718 317.194 39.8782 313.211 39.8782C310.025 39.8782 299.769 39.8782 295.786 39.8782L289.314 126.623C289.314 126.623 284.914 145.436 282.095 157.49M282.095 157.49C272.963 156.759 260.139 156.246 250.978 156.246C239.527 156.246 226.43 159.781 220.608 160.229C217.372 160.478 216.625 161.473 216.376 162.718C216.136 163.922 214.98 170.07 218.119 173.92C221.343 177.875 225.836 179.138 230.566 179.894C237.466 180.998 249.485 180.392 264.918 180.641C280.352 180.89 297.031 180.143 298.276 178.65C299.088 177.675 300.018 172.711 300.018 169.19C300.018 165.207 299.52 159.482 298.276 158.735C297.28 158.138 287.82 157.949 282.095 157.49Z" stroke="#020070" stroke-width="1.4936"/>
<path d="M222.849 216.621C222.45 217.218 213.721 244.751 209.406 258.442C209.987 259.023 209.356 260.234 202.187 260.433C195.018 260.632 191.068 260.516 189.989 260.433L191.483 206.415L190.736 204.423L188.496 204.423C187.749 201.934 186.305 195.611 186.504 190.234C186.703 184.857 186.587 184.011 186.504 184.26" stroke="#020070" stroke-width="1.4936"/>
<path opacity="0.5" d="M491.551 188.471L499.271 188.03C499.595 188.012 499.815 187.691 499.705 187.385C497.924 182.44 494.332 179.654 492.591 178.62C492.495 178.563 492.384 178.543 492.274 178.56C489.999 178.914 486.05 179.858 487.216 181.024C488.349 182.157 490.17 186.069 491.062 188.168C491.145 188.362 491.34 188.483 491.551 188.471Z" fill="#020070" stroke="#020070" stroke-width="1.4936"/>
<path opacity="0.5" d="M491.551 190.503L499.271 190.944C499.595 190.962 499.815 191.283 499.705 191.589C497.924 196.534 494.332 199.32 492.591 200.354C492.495 200.411 492.384 200.431 492.274 200.414C489.999 200.06 486.05 199.116 487.216 197.951C488.349 196.817 490.17 192.905 491.062 190.806C491.145 190.612 491.34 190.491 491.551 190.503Z" fill="#020070" stroke="#020070" stroke-width="1.4936"/>
<path d="M222.849 160.223C222.45 159.625 213.721 132.093 209.406 118.402C209.987 117.821 209.356 116.61 202.187 116.41C195.018 116.211 191.068 116.327 189.989 116.41L191.483 170.429L189.491 170.429L188.496 172.421C187.749 174.91 186.305 181.233 186.504 186.61C186.703 191.987 186.587 192.833 186.504 192.584" stroke="#020070" stroke-width="1.4936"/>
<path d="M463.566 198.449C464.941 198.449 466.056 199.563 466.056 200.938L466.056 202.07C466.056 202.27 465.894 202.432 465.694 202.432L461.439 202.432C461.239 202.432 461.077 202.27 461.077 202.07L461.077 200.938C461.077 199.563 462.192 198.449 463.566 198.449Z" fill="#020070" fill-opacity="0.5"/>
<path d="M449.627 198.449C451.002 198.449 452.116 199.563 452.116 200.938L452.116 202.07C452.116 202.27 451.954 202.432 451.754 202.432L447.5 202.432C447.3 202.432 447.138 202.27 447.138 202.07L447.138 200.938C447.138 199.563 448.252 198.449 449.627 198.449Z" fill="#020070" fill-opacity="0.5"/>
<path d="M435.686 198.449C437.061 198.449 438.176 199.563 438.176 200.938L438.176 202.07C438.176 202.27 438.014 202.432 437.814 202.432L433.559 202.432C433.359 202.432 433.197 202.27 433.197 202.07L433.197 200.938C433.197 199.563 434.312 198.449 435.686 198.449Z" fill="#020070" fill-opacity="0.5"/>
<path d="M463.566 180.028C464.941 180.028 466.056 178.913 466.056 177.538L466.056 176.407C466.056 176.207 465.894 176.045 465.694 176.045L461.439 176.045C461.239 176.045 461.077 176.207 461.077 176.407L461.077 177.538C461.077 178.913 462.192 180.028 463.566 180.028Z" fill="#020070" fill-opacity="0.5"/>
<path d="M449.627 180.028C451.002 180.028 452.116 178.913 452.116 177.538L452.116 176.407C452.116 176.207 451.954 176.045 451.754 176.045L447.5 176.045C447.3 176.045 447.138 176.207 447.138 176.407L447.138 177.538C447.138 178.913 448.252 180.028 449.627 180.028Z" fill="#020070" fill-opacity="0.5"/>
<path d="M435.686 180.028C437.061 180.028 438.176 178.913 438.176 177.538L438.176 176.407C438.176 176.207 438.014 176.045 437.814 176.045L433.559 176.045C433.359 176.045 433.197 176.207 433.197 176.407L433.197 177.538C433.197 178.913 434.312 180.028 435.686 180.028Z" fill="#020070" fill-opacity="0.5"/>
<path fill-rule="evenodd" clip-rule="evenodd" d="M304.746 42.6157L305.742 74.2303L300.258 74.2303L299.768 126.257L289.81 126.257L293.295 73.4833L293.343 73.4833L295.287 42.6157L304.746 42.6157ZM289.811 126.258L282.84 156.876L292.3 157.872L299.768 126.258L289.811 126.258Z" fill="#020070" fill-opacity="0.5"/>
<path fill-rule="evenodd" clip-rule="evenodd" d="M303.752 333.619L304.748 302.005L299.264 302.005L298.773 249.977L298.774 249.977L291.306 218.363L281.846 219.359L288.816 249.977L288.816 249.977L292.301 302.751L292.348 302.751L294.293 333.619L303.752 333.619Z" fill="#020070" fill-opacity="0.5"/>
<path d="M482.333 175.037C482.433 175.045 482.529 175.083 482.607 175.147L485.558 177.545C485.899 177.822 485.74 178.373 485.303 178.425L480.505 179.001C480.343 179.02 480.182 178.959 480.073 178.838L477.086 175.477C476.788 175.142 477.051 174.614 477.498 174.65L482.333 175.037Z" fill="#020070" fill-opacity="0.5"/>
<path d="M482.333 203.938C482.433 203.93 482.529 203.891 482.607 203.828L485.558 201.43C485.899 201.153 485.74 200.602 485.303 200.549L480.505 199.974C480.343 199.954 480.182 200.015 480.073 200.137L477.086 203.498C476.788 203.833 477.051 204.36 477.498 204.325L482.333 203.938Z" fill="#020070" fill-opacity="0.5"/>
<path d="M219.611 150.155L222.35 159.366L216.375 161.855L216.375 168.576L191.731 168.576L190.237 116.3L208.658 117.296L219.611 150.155Z" fill="#020070" fill-opacity="0.5"/>
<path d="M219.611 225.832L222.35 216.621L216.375 214.132L216.375 207.411L191.731 207.411L190.237 259.687L207.165 260.185L208.658 258.691L219.611 225.832Z" fill="#020070" fill-opacity="0.5"/>
<path d="M229.32 195.959L273.133 195.959L267.158 200.191C267.158 200.191 221.182 198.698 216.625 207.161C214.882 210.398 217.621 201.934 217.621 201.934L229.32 195.959Z" fill="url(#paint0_linear_1396_159)"/>
<path d="M229.32 180.019L273.133 180.019L267.158 175.787C267.158 175.787 221.182 177.28 216.625 168.817C214.882 165.58 217.621 174.044 217.621 174.044L229.32 180.019Z" fill="url(#paint1_linear_1396_159)"/>
<path d="M188.5 205.986C188.5 205.986 186.075 197 186.5 186.5C187.057 172.719 189.5 168.986 189.5 168.986" stroke="url(#paint2_linear_1396_159)"/>
<rect x="341.5" y="158.5" width="86" height="59" stroke="white" stroke-dasharray="2 2"/>
<path d="M296.469 212H294.49V212.5H294.012L294.025 213.038L293.525 213.05L293.575 215.15L294.075 215.138L294.125 217.238L293.625 217.25L293.675 219.35L294.175 219.338L294.225 221.438L293.725 221.45L293.775 223.55L294.275 223.538L294.325 225.638L293.825 225.65L293.875 227.75L294.375 227.738L294.425 229.838L293.925 229.85L293.975 231.95L294.475 231.938L294.5 232.988L294.512 233.5H294H292.938V233H290.812V233.5H288.688V233H286.562V233.5H284.438V233H282.312V233.5H280.188V233H278.062V233.5H277.5V233.991H277V235.973H277.5V237.955H277V239.938H277.5V241.92H277V243.902H277.5V245.884H277V247.866H277.5V249.848H277V251.83H277.5V253.813H277V255.795H277.5V257.777H277V259.759H277.5V261.741H277V263.723H277.5V265.705H277V267.688H277.5V269.67H277V271.652H277.5V273.634H277V275.616H277.5V277.598H277V279.58H277.5V281.562H277V283.545H277.5V285.527H277V287.509H277.5V289.491H277V291.473H277.5V293.455H277V295.437H277.5V297.42H277V299.402H277.5V301.384H277V303.366H277.5V305.348H277V307.33H277.5V309.312H277V311.295H277.5V313.277H277V315.259H277.5V317.241H277V319.223H277.5V321.205H277V323.188H277.5V325.17H277V327.152H277.5V329.134H277V331.116H277.5V333.098H277V335.08H277.5V337.062H277V339.045H277.5V341.027H277V343.009H277.5V343.5H278V344H280V343.5H282V344H284V343.5H286V344H288V343.5H290V344H292V343.5H294V344H296V343.5H298V344H300V343.5H302V344H304V343.5H306V344H308V343.5H310V344H312V343.5H314V344H316V343.5H318V344H320V343.5H322V344H324V343.5H326V344H328V343.5H330V344H332V343.5H334V344H336V343.5H338V344H340V343.5H340.5V343H341V341H340.5V339H341V337H340.5V335H341V333H340.5V331H341V329H340.5V327H341V325H340.5V323H341V321H340.5V319H341V317H340.5V315H341V313H340.5V311H341V309H340.5V307H341V305H340.5V303H341V301H340.5V299H341V297H340.5V295H341V293H340.5V291H341V289H340.5V287H341V285H340.5V283H341V281H340.5V279H341V277H340.5V275H341V273H340.5V271H341V269H340.5V267H341V265H340.5V263H341V261H340.5V259H341V257H340.5V255H341V253H340.5V251H341V249H340.5V247H341V245H340.5V243H341V241H340.5V239H341V237H340.5V235H341V233H340.5V231H341V229H340.5V227H341V225H340.5V223H341V221H340.5V219H341V217H340.5V215H341V213H340.5V212.5H340.01V212H338.031V212.5H336.052V212H334.073V212.5H332.094V212H330.115V212.5H328.135V212H326.156V212.5H324.177V212H322.198V212.5H320.219V212H318.24V212.5H316.26V212H314.281V212.5H312.302V212H310.323V212.5H308.344V212H306.365V212.5H304.385V212H302.406V212.5H300.427V212H298.448V212.5H296.469V212Z" stroke="white" stroke-dasharray="2 2"/>
<path d="M296.469 212H294.49V212.5H294.012L294.025 213.038L293.525 213.05L293.575 215.15L294.075 215.138L294.125 217.238L293.625 217.25L293.675 219.35L294.175 219.338L294.225 221.438L293.725 221.45L293.775 223.55L294.275 223.538L294.325 225.638L293.825 225.65L293.875 227.75L294.375 227.738L294.425 229.838L293.925 229.85L293.975 231.95L294.475 231.938L294.5 232.988L294.512 233.5H294H292.938V233H290.812V233.5H288.688V233H286.562V233.5H284.438V233H282.312V233.5H280.188V233H278.062V233.5H277.5V233.991H277V235.973H277.5V237.955H277V239.938H277.5V241.92H277V243.902H277.5V245.884H277V247.866H277.5V249.848H277V251.83H277.5V253.813H277V255.795H277.5V257.777H277V259.759H277.5V261.741H277V263.723H277.5V265.705H277V267.688H277.5V269.67H277V271.652H277.5V273.634H277V275.616H277.5V277.598H277V279.58H277.5V281.562H277V283.545H277.5V285.527H277V287.509H277.5V289.491H277V291.473H277.5V293.455H277V295.437H277.5V297.42H277V299.402H277.5V301.384H277V303.366H277.5V305.348H277V307.33H277.5V309.312H277V311.295H277.5V313.277H277V315.259H277.5V317.241H277V319.223H277.5V321.205H277V323.188H277.5V325.17H277V327.152H277.5V329.134H277V331.116H277.5V333.098H277V335.08H277.5V337.062H277V339.045H277.5V341.027H277V343.009H277.5V343.5H278V344H280V343.5H282V344H284V343.5H286V344H288V343.5H290V344H292V343.5H294V344H296V343.5H298V344H300V343.5H302V344H304V343.5H306V344H308V343.5H310V344H312V343.5H314V344H316V343.5H318V344H320V343.5H322V344H324V343.5H326V344H328V343.5H330V344H332V343.5H334V344H336V343.5H338V344H340V343.5H340.5V343H341V341H340.5V339H341V337H340.5V335H341V333H340.5V331H341V329H340.5V327H341V325H340.5V323H341V321H340.5V319H341V317H340.5V315H341V313H340.5V311H341V309H340.5V307H341V305H340.5V303H341V301H340.5V299H341V297H340.5V295H341V293H340.5V291H341V289H340.5V287H341V285H340.5V283H341V281H340.5V279H341V277H340.5V275H341V273H340.5V271H341V269H340.5V267H341V265H340.5V263H341V261H340.5V259H341V257H340.5V255H341V253H340.5V251H341V249H340.5V247H341V245H340.5V243H341V241H340.5V239H341V237H340.5V235H341V233H340.5V231H341V229H340.5V227H341V225H340.5V223H341V221H340.5V219H341V217H340.5V215H341V213H340.5V212.5H340.01V212H338.031V212.5H336.052V212H334.073V212.5H332.094V212H330.115V212.5H328.135V212H326.156V212.5H324.177V212H322.198V212.5H320.219V212H318.24V212.5H316.26V212H314.281V212.5H312.302V212H310.323V212.5H308.344V212H306.365V212.5H304.385V212H302.406V212.5H300.427V212H298.448V212.5H296.469V212Z" stroke="white" stroke-dasharray="2 2"/>
<path d="M297.469 168H295.49V167.5H295.012L295.025 166.962L294.525 166.95L294.575 164.85L295.075 164.862L295.125 162.762L294.625 162.75L294.675 160.65L295.175 160.662L295.225 158.562L294.725 158.55L294.775 156.45L295.275 156.462L295.325 154.362L294.825 154.35L294.875 152.25L295.375 152.262L295.425 150.162L294.925 150.15L294.975 148.05L295.475 148.062L295.5 147.012L295.512 146.5H295H293.938V147H291.812V146.5H289.688V147H287.562V146.5H285.438V147H283.312V146.5H281.188V147H279.062V146.5H278.5V146.009H278V144.027H278.5V142.045H278V140.062H278.5V138.08H278V136.098H278.5V134.116H278V132.134H278.5V130.152H278V128.17H278.5V126.187H278V124.205H278.5V122.223H278V120.241H278.5V118.259H278V116.277H278.5V114.295H278V112.312H278.5V110.33H278V108.348H278.5V106.366H278V104.384H278.5V102.402H278V100.42H278.5V98.4375H278V96.4554H278.5V94.4732H278V92.4911H278.5V90.5089H278V88.5268H278.5V86.5447H278V84.5625H278.5V82.5804H278V80.5982H278.5V78.6161H278V76.6339H278.5V74.6518H278V72.6696H278.5V70.6875H278V68.7054H278.5V66.7232H278V64.7411H278.5V62.7589H278V60.7768H278.5V58.7946H278V56.8125H278.5V54.8304H278V52.8482H278.5V50.8661H278V48.8839H278.5V46.9018H278V44.9196H278.5V42.9375H278V40.9554H278.5V38.9732H278V36.9911H278.5V36.5H279V36H281V36.5H283V36H285V36.5H287V36H289V36.5H291V36H293V36.5H295V36H297V36.5H299V36H301V36.5H303V36H305V36.5H307V36H309V36.5H311V36H313V36.5H315V36H317V36.5H319V36H321V36.5H323V36H325V36.5H327V36H329V36.5H331V36H333V36.5H335V36H337V36.5H339V36H341V36.5H341.5V37H342V39H341.5V41H342V43H341.5V45H342V47H341.5V49H342V51H341.5V53H342V55H341.5V57H342V59H341.5V61H342V63H341.5V65H342V67H341.5V69H342V71H341.5V73H342V75H341.5V77H342V79H341.5V81H342V83H341.5V85H342V87H341.5V89H342V91H341.5V93H342V95H341.5V97H342V99H341.5V101H342V103H341.5V105H342V107H341.5V109H342V111H341.5V113H342V115H341.5V117H342V119H341.5V121H342V123H341.5V125H342V127H341.5V129H342V131H341.5V133H342V135H341.5V137H342V139H341.5V141H342V143H341.5V145H342V147H341.5V149H342V151H341.5V153H342V155H341.5V157H342V159H341.5V161H342V163H341.5V165H342V167H341.5V167.5H341.01V168H339.031V167.5H337.052V168H335.073V167.5H333.094V168H331.115V167.5H329.135V168H327.156V167.5H325.177V168H323.198V167.5H321.219V168H319.24V167.5H317.26V168H315.281V167.5H313.302V168H311.323V167.5H309.344V168H307.365V167.5H305.385V168H303.406V167.5H301.427V168H299.448V167.5H297.469V168Z" stroke="white" stroke-dasharray="2 2"/>
<rect x="-0.5" y="0.5" width="87" height="44" transform="matrix(-1 0 0 1 301 189)" stroke="white" stroke-dasharray="2 2"/>
<path d="M232.5 109V107H232V106.5H231.466V106H229.398V106.5H227.33V106H225.261V106.5H223.193V106H221.125V106.5H219.057V106H216.989V106.5H214.92V106H212.852V106.5H210.784V106H208.716V106.5H206.648V106H204.58V106.5H202.511V106H200.443V106.5H198.375V106H196.307V106.5H194.239V106H192.17V106.5H190.102V106H188.034V106.5H187.5V107.006H187V109.018H187.5V111.031H187V113.043H187.5V115.055H187V117.067H187.5V119.079H187V121.092H187.5V123.104H187V125.116H187.5V127.128H187V129.14H187.5V131.153H187V133.165H187.5V135.177H187V137.189H187.5V139.201H187V141.214H187.5V143.226H187V145.238H187.5V147.25H187V149.262H187.5V151.274H187V153.287H187.5V155.299H187V157.311H187.5V159.323H187V161.335H187.5V163.348H187V165.36H187.5V167.372H187V169.384H187.5V171.396H187V173.409H187.5V175.421H187V177.433H187.5V179.445H187V181.457H187.5V183.47H187V185.482H187.5V187.494H187V189.506H187.5V191.518H187V193.53H187.5V195.543H187V197.555H187.5V199.567H187V201.579H187.5V203.591H187V205.604H187.5V207.616H187V209.628H187.5V211.64H187V213.652H187.5V215.665H187V217.677H187.5V219.689H187V221.701H187.5V223.713H187V225.726H187.5V227.738H187V229.75H187.5V231.762H187V233.774H187.5V235.787H187V237.799H187.5V239.811H187V241.823H187.5V243.835H187V245.848H187.5V247.86H187V249.872H187.5V251.884H187V253.896H187.5V255.909H187V257.921H187.5V259.933H187V261.945H187.5V263.957H187V265.97H187.5V267.982H187V269.994H187.5V270.5H188.037V271H190.112V270.5H192.187V271H194.262V270.5H196.337V271H198.412V270.5H200.487V271H202.562V270.5H204.637V271H206.712V270.5H208.788V271H210.863V270.5H212.938V271H215.013V270.5H217.088V271H219.163V270.5H221.238V271H223.312V270.5H225.387V271H227.463V270.5H228V270.05H228.5V268.15H228V266.25H228.5V264.35H228V262.45H228.5V260.55H228V258.65H228.5V256.75H228V254.85H228.5V252.95H228V251.05H228.5V249.15H228V247.25H228.5V245.35H228V243.45H228.5V241.55H228V239.65H228.5V237.75H228V235.85H228.5V233.95H228V233.5H227.375V233H225.125V233.5H222.875V233H220.625V233.5H218.375V233H216.125V233.5H215H214.5V233V232.011H215V230.034H214.5V228.057H215V226.08H214.5V224.102H215V222.125H214.5V220.148H215V218.17H214.5V216.193H215V214.216H214.5V212.239H215V210.261H214.5V208.284H215V206.307H214.5V204.33H215V202.352H214.5V200.375H215V198.398H214.5V196.42H215V194.443H214.5V192.466H215V190.489H214.5V188.511H215V186.534H214.5V184.557H215V182.58H214.5V180.602H215V178.625H214.5V176.648H215V174.67H214.5V172.693H215V170.716H214.5V168.739H215V166.761H214.5V164.784H215V162.807H214.5V160.83H215V158.852H214.5V156.875H215V154.898H214.5V152.92H215V150.943H214.5V148.966H215V146.989H214.5V146V145.5H215H216.094V146H218.281V145.5H220.469V146H222.656V145.5H224.844V146H227.031V145.5H229.219V146H231.406V145.5H232V145H232.5V143H232V141H232.5V139H232V137H232.5V135H232V133H232.5V131H232V129H232.5V127H232V125H232.5V123H232V121H232.5V119H232V117H232.5V115H232V113H232.5V111H232V109H232.5Z" stroke="white" stroke-dasharray="2 2"/>
<rect x="-0.5" y="0.5" width="87" height="44" transform="matrix(-1 0 0 1 301 145)" stroke="white" stroke-dasharray="2 2"/>
<rect x="428.5" y="158.5" width="45" height="59" stroke="white" stroke-dasharray="2 2"/>
<rect x="474.5" y="158.5" width="25" height="59" stroke="white" stroke-dasharray="2 2"/>
<rect x="500.5" y="158.5" width="42" height="59" stroke="white" stroke-dasharray="2 2"/>
<rect x="144.5" y="158.5" width="42" height="59" stroke="white" stroke-dasharray="2 2"/>
</g>
<defs>
<filter id="filter0_dd_1396_159" x="139" y="167" width="54" height="45.5" filterUnits="userSpaceOnUse" color-interpolation-filters="sRGB">
<feFlood flood-opacity="0" result="BackgroundImageFix"/>
<feColorMatrix in="SourceAlpha" type="matrix" values="0 0 0 0 0 0 0 0 0 0 0 0 0 0 0 0 0 0 127 0" result="hardAlpha"/>
<feOffset dy="4"/>
<feGaussianBlur stdDeviation="2"/>
<feComposite in2="hardAlpha" operator="out"/>
<feColorMatrix type="matrix" values="0 0 0 0 1 0 0 0 0 1 0 0 0 0 1 0 0 0 0.25 0"/>
<feBlend mode="normal" in2="BackgroundImageFix" result="effect1_dropShadow_1396_159"/>
<feColorMatrix in="SourceAlpha" type="matrix" values="0 0 0 0 0 0 0 0 0 0 0 0 0 0 0 0 0 0 127 0" result="hardAlpha"/>
<feOffset dx="-4"/>
<feGaussianBlur stdDeviation="2"/>
<feComposite in2="hardAlpha" operator="out"/>
<feColorMatrix type="matrix" values="0 0 0 0 1 0 0 0 0 1 0 0 0 0 1 0 0 0 0.25 0"/>
<feBlend mode="normal" in2="effect1_dropShadow_1396_159" result="effect2_dropShadow_1396_159"/>
<feBlend mode="normal" in="SourceGraphic" in2="effect2_dropShadow_1396_159" result="shape"/>
</filter>
<filter id="filter1_dd_1396_159" x="178.5" y="112.5" width="55" height="156.5" filterUnits="userSpaceOnUse" color-interpolation-filters="sRGB">
<feFlood flood-opacity="0" result="BackgroundImageFix"/>
<feColorMatrix in="SourceAlpha" type="matrix" values="0 0 0 0 0 0 0 0 0 0 0 0 0 0 0 0 0 0 127 0" result="hardAlpha"/>
<feOffset dx="-4"/>
<feGaussianBlur stdDeviation="2"/>
<feComposite in2="hardAlpha" operator="out"/>
<feColorMatrix type="matrix" values="0 0 0 0 1 0 0 0 0 1 0 0 0 0 1 0 0 0 0.25 0"/>
<feBlend mode="normal" in2="BackgroundImageFix" result="effect1_dropShadow_1396_159"/>
<feColorMatrix in="SourceAlpha" type="matrix" values="0 0 0 0 0 0 0 0 0 0 0 0 0 0 0 0 0 0 127 0" result="hardAlpha"/>
<feOffset dy="4"/>
<feGaussianBlur stdDeviation="2"/>
<feComposite in2="hardAlpha" operator="out"/>
<feColorMatrix type="matrix" values="0 0 0 0 1 0 0 0 0 1 0 0 0 0 1 0 0 0 0.25 0"/>
<feBlend mode="normal" in2="effect1_dropShadow_1396_159" result="effect2_dropShadow_1396_159"/>
<feBlend mode="normal" in="SourceGraphic" in2="effect2_dropShadow_1396_159" result="shape"/>
</filter>
<linearGradient id="paint0_linear_1396_159" x1="237.286" y1="203.925" x2="271.639" y2="194.715" gradientUnits="userSpaceOnUse">
<stop stop-color="#020070" stop-opacity="0.5"/>
<stop offset="1" stop-color="#020070" stop-opacity="0"/>
</linearGradient>
<linearGradient id="paint1_linear_1396_159" x1="237.286" y1="172.053" x2="271.639" y2="181.263" gradientUnits="userSpaceOnUse">
<stop stop-color="#020070" stop-opacity="0.5"/>
<stop offset="1" stop-color="#020070" stop-opacity="0"/>
</linearGradient>
<linearGradient id="paint2_linear_1396_159" x1="190.5" y1="169.014" x2="189.5" y2="206.014" gradientUnits="userSpaceOnUse">
<stop stop-color="#363636"/>
<stop offset="1" stop-color="#5F5F5F"/>
</linearGradient>
<clipPath id="clip0_1396_159">
<rect width="375" height="667" fill="white" transform="translate(667) rotate(90)"/>
</clipPath>
</defs>
</svg>
