<svg width="148" height="37" viewBox="0 0 148 37" fill="none" xmlns="http://www.w3.org/2000/svg">
<g filter="url(#filter0_ii_1486_120)">
<rect width="148" height="37" rx="18.5" fill="#020070"/>
</g>
<path d="M30.184 19.352C30.376 19.352 30.4293 19.4427 30.344 19.624L30.2 20.008C30.136 20.1467 30.1733 20.216 30.312 20.216H34.136C34.2853 20.216 34.3867 20.1467 34.44 20.008L34.952 18.728C35.016 18.5893 34.9733 18.52 34.824 18.52H30.28C29.544 18.52 29.0267 18.2693 28.728 17.768C28.4293 17.256 28.424 16.632 28.712 15.896L29.448 14.104C29.832 13.1547 30.3013 12.4827 30.856 12.088C31.4213 11.6827 32.1787 11.48 33.128 11.48H38.232C38.968 11.48 39.4853 11.736 39.784 12.248C40.0827 12.7493 40.088 13.368 39.8 14.104L39.496 14.856C39.4107 15.0373 39.2827 15.128 39.112 15.128H36.52C36.328 15.128 36.2747 15.0373 36.36 14.856L36.504 14.472C36.568 14.3333 36.5307 14.264 36.392 14.264H32.728C32.5787 14.264 32.4773 14.3333 32.424 14.472L31.912 15.752C31.848 15.8907 31.8907 15.96 32.04 15.96H36.584C37.32 15.96 37.8373 16.216 38.136 16.728C38.4347 17.2293 38.44 17.848 38.152 18.584L37.416 20.376C37.0213 21.3253 36.5413 22.0027 35.976 22.408C35.4213 22.8027 34.6747 23 33.736 23H28.472C27.736 23 27.2133 22.7493 26.904 22.248C26.6053 21.736 26.6053 21.112 26.904 20.376L27.208 19.624C27.2933 19.4427 27.4213 19.352 27.592 19.352H30.184ZM39.0111 22.68L40.0191 15.144C40.0298 14.8987 40.1738 14.776 40.4511 14.776H42.8831C43.1178 14.776 43.2191 14.8773 43.1871 15.08L42.5631 19.336L45.7631 15.8C45.9445 15.608 46.1418 15.512 46.3551 15.512H48.4991C48.7125 15.512 48.8351 15.608 48.8671 15.8L49.8911 22.632C49.9231 22.8773 49.7951 23 49.5071 23H47.1071C46.8831 23 46.7711 22.904 46.7711 22.712L46.3071 18.296L42.3071 22.712C42.1258 22.904 41.9285 23 41.7151 23H39.3151C39.0805 23 38.9791 22.8933 39.0111 22.68ZM50.0351 18.12L52.0351 15.08C52.1738 14.8773 52.3605 14.776 52.5951 14.776H55.0271C55.2725 14.776 55.3365 14.8613 55.2191 15.032L50.7391 21.688C50.6431 21.8267 50.5631 21.896 50.4991 21.896C50.4245 21.896 50.3871 21.8373 50.3871 21.72L49.9071 18.664C49.8751 18.4827 49.9178 18.3013 50.0351 18.12ZM55.6734 15.128C55.7694 14.8933 55.94 14.776 56.1854 14.776H58.5534C58.7987 14.776 58.8734 14.8933 58.7774 15.128L55.7374 22.648C55.652 22.8827 55.4814 23 55.2254 23H52.8574C52.6227 23 52.548 22.8827 52.6334 22.648L55.6734 15.128ZM56.9694 11.928C57.0547 11.6933 57.2254 11.576 57.4814 11.576H59.8494C60.084 11.576 60.1587 11.6933 60.0734 11.928L59.3694 13.64C59.284 13.8853 59.1134 14.008 58.8574 14.008H56.4894C56.2547 14.008 56.18 13.8853 56.2654 13.64L56.9694 11.928ZM58.4535 20.664L59.7655 17.4C59.7975 17.336 59.7815 17.304 59.7175 17.304H59.1095C58.8855 17.304 58.8162 17.1813 58.9015 16.936L59.6375 15.128C59.7228 14.8933 59.8882 14.776 60.1335 14.776H60.7415C60.8162 14.776 60.8588 14.744 60.8695 14.68L61.6055 12.872C61.7015 12.6267 61.8668 12.504 62.1015 12.504H64.4855C64.7095 12.504 64.7788 12.6267 64.6935 12.872L63.9575 14.68C63.9468 14.744 63.9682 14.776 64.0215 14.776H65.8935C66.1388 14.776 66.2135 14.8933 66.1175 15.128L65.3815 16.936C65.2855 17.1813 65.1148 17.304 64.8695 17.304H62.9975C62.9335 17.304 62.8855 17.336 62.8535 17.4L61.7175 20.232C61.6642 20.392 61.7122 20.472 61.8615 20.472H63.8455C64.0695 20.472 64.1388 20.5893 64.0535 20.824L63.3175 22.648C63.2322 22.8827 63.0668 23 62.8215 23H59.8455C59.1628 23 58.6882 22.7867 58.4215 22.36C58.1655 21.9227 58.1762 21.3573 58.4535 20.664ZM65.9551 23C65.3685 23 64.9685 22.824 64.7551 22.472C64.5418 22.1093 64.5525 21.6347 64.7871 21.048L66.5311 16.728C66.8298 16.0027 67.1818 15.496 67.5871 15.208C67.9925 14.92 68.5578 14.776 69.2831 14.776H74.5631C74.8085 14.776 74.8831 14.8933 74.7871 15.128L74.0511 16.936C73.9551 17.1813 73.7845 17.304 73.5391 17.304H69.6351C69.4858 17.304 69.3791 17.3787 69.3151 17.528L68.2271 20.232C68.1631 20.392 68.2058 20.472 68.3551 20.472H72.2591C72.4938 20.472 72.5685 20.5893 72.4831 20.824L71.7471 22.648C71.6511 22.8827 71.4805 23 71.2351 23H65.9551ZM73.1985 22.648L77.8865 11.032C77.9932 10.7973 78.1638 10.68 78.3985 10.68H80.7665C81.0118 10.68 81.0812 10.7973 80.9745 11.032L76.2865 22.648C76.2012 22.8827 76.0358 23 75.7905 23H73.4225C73.1878 23 73.1132 22.8827 73.1985 22.648ZM78.7345 22.648L80.8465 17.416C80.9212 17.256 80.8892 17.176 80.7505 17.176H80.7025L79.3265 17.304H79.2785C79.0972 17.304 79.0492 17.192 79.1345 16.968L79.8065 15.336C79.9025 15.1013 80.0678 14.9627 80.3025 14.92C80.8465 14.8347 81.3318 14.7707 81.7585 14.728C82.1852 14.6747 82.5052 14.648 82.7185 14.648C83.3585 14.648 83.8118 14.8773 84.0785 15.336C84.3558 15.7947 84.3665 16.344 84.1105 16.984L81.8225 22.648C81.7372 22.8827 81.5718 23 81.3265 23H78.9425C78.7185 23 78.6492 22.8827 78.7345 22.648ZM91.7345 11.496H94.3585C94.6145 11.496 94.7425 11.608 94.7425 11.832V22.536C94.7425 22.8453 94.5718 23 94.2305 23H91.6545C91.3985 23 91.2705 22.888 91.2705 22.664V11.96C91.2705 11.6507 91.4252 11.496 91.7345 11.496ZM95.4625 21.304V17.88C95.4625 17.752 95.4732 17.6507 95.4945 17.576C95.5265 17.5013 95.6012 17.3947 95.7185 17.256L100.071 11.832C100.252 11.608 100.465 11.496 100.711 11.496H103.527C103.74 11.496 103.841 11.5387 103.831 11.624C103.831 11.6987 103.772 11.8107 103.655 11.96L95.9585 21.304C95.7878 21.5067 95.6598 21.608 95.5745 21.608C95.4998 21.608 95.4625 21.5067 95.4625 21.304ZM102.877 15.128C102.973 14.8933 103.143 14.776 103.389 14.776H105.757C106.002 14.776 106.077 14.8933 105.981 15.128L102.941 22.648C102.855 22.8827 102.685 23 102.429 23H100.061C99.8258 23 99.7512 22.8827 99.8365 22.648L102.877 15.128ZM104.173 11.928C104.258 11.6933 104.429 11.576 104.685 11.576H107.053C107.287 11.576 107.362 11.6933 107.277 11.928L106.573 13.64C106.487 13.8853 106.317 14.008 106.061 14.008H103.693C103.458 14.008 103.383 13.8853 103.469 13.64L104.173 11.928ZM110.921 17.688C111.294 17.7413 111.603 17.784 111.849 17.816C112.105 17.8373 112.259 17.848 112.313 17.848C112.473 17.848 112.579 17.832 112.633 17.8C112.697 17.7573 112.755 17.672 112.809 17.544L112.825 17.496C112.878 17.3467 112.894 17.256 112.873 17.224C112.862 17.1813 112.782 17.16 112.633 17.16H110.457C110.222 17.16 110.062 17.272 109.977 17.496L108.857 20.264C108.771 20.488 108.841 20.6 109.065 20.6H112.937C113.118 20.6 113.171 20.6907 113.097 20.872L112.345 22.728C112.27 22.9093 112.142 23 111.961 23H107.081C106.441 23 105.987 22.776 105.721 22.328C105.454 21.88 105.449 21.336 105.705 20.696L107.177 17.064C107.507 16.2533 107.918 15.6667 108.409 15.304C108.91 14.9413 109.577 14.76 110.409 14.76H114.537C115.23 14.76 115.71 14.952 115.977 15.336C116.243 15.7093 116.233 16.2533 115.945 16.968L115.401 18.344C115.102 19.08 114.755 19.6027 114.361 19.912C113.966 20.2213 113.481 20.376 112.905 20.376C112.681 20.376 112.291 20.344 111.737 20.28C111.193 20.2053 110.611 20.1147 109.993 20.008C109.811 19.976 109.763 19.8693 109.849 19.688L110.553 17.928C110.627 17.7573 110.713 17.672 110.809 17.672C110.83 17.672 110.846 17.6773 110.857 17.688C110.878 17.688 110.899 17.688 110.921 17.688ZM116.042 22.68L117.05 15.144C117.061 14.8987 117.205 14.776 117.482 14.776H119.914C120.149 14.776 120.25 14.8773 120.218 15.08L119.594 19.336L122.794 15.8C122.976 15.608 123.173 15.512 123.386 15.512H125.53C125.744 15.512 125.866 15.608 125.898 15.8L126.922 22.632C126.954 22.8773 126.826 23 126.538 23H124.138C123.914 23 123.802 22.904 123.802 22.712L123.338 18.296L119.338 22.712C119.157 22.904 118.96 23 118.746 23H116.346C116.112 23 116.01 22.8933 116.042 22.68ZM127.066 18.12L129.066 15.08C129.205 14.8773 129.392 14.776 129.626 14.776H132.058C132.304 14.776 132.368 14.8613 132.25 15.032L127.77 21.688C127.674 21.8267 127.594 21.896 127.53 21.896C127.456 21.896 127.418 21.8373 127.418 21.72L126.938 18.664C126.906 18.4827 126.949 18.3013 127.066 18.12Z" fill="#00ED97"/>
<defs>
<filter id="filter0_ii_1486_120" x="-1.74684" y="-1.74684" width="156.297" height="45.2975" filterUnits="userSpaceOnUse" color-interpolation-filters="sRGB">
<feFlood flood-opacity="0" result="BackgroundImageFix"/>
<feBlend mode="normal" in="SourceGraphic" in2="BackgroundImageFix" result="shape"/>
<feColorMatrix in="SourceAlpha" type="matrix" values="0 0 0 0 0 0 0 0 0 0 0 0 0 0 0 0 0 0 127 0" result="hardAlpha"/>
<feOffset dx="6.55063" dy="6.55063"/>
<feGaussianBlur stdDeviation="3.93038"/>
<feComposite in2="hardAlpha" operator="arithmetic" k2="-1" k3="1"/>
<feColorMatrix type="matrix" values="0 0 0 0 0.929167 0 0 0 0 0.929167 0 0 0 0 0.929167 0 0 0 0.25 0"/>
<feBlend mode="normal" in2="shape" result="effect1_innerShadow_1486_120"/>
<feColorMatrix in="SourceAlpha" type="matrix" values="0 0 0 0 0 0 0 0 0 0 0 0 0 0 0 0 0 0 127 0" result="hardAlpha"/>
<feOffset dx="-4.8038" dy="-4.36709"/>
<feGaussianBlur stdDeviation="0.873418"/>
<feComposite in2="hardAlpha" operator="arithmetic" k2="-1" k3="1"/>
<feColorMatrix type="matrix" values="0 0 0 0 0 0 0 0 0 0 0 0 0 0 0 0 0 0 0.25 0"/>
<feBlend mode="normal" in2="effect1_innerShadow_1486_120" result="effect2_innerShadow_1486_120"/>
</filter>
</defs>
</svg>
