<svg width="128" height="127" viewBox="0 0 128 127" fill="none" xmlns="http://www.w3.org/2000/svg">
<path d="M54.8232 19.946C58.9947 17.5375 64.1343 17.5375 68.3058 19.946L97.1495 36.5989C101.321 39.0073 103.891 43.4582 103.891 48.2751V81.5809C103.891 86.3978 101.321 90.8487 97.1495 93.2571L68.3058 109.91C64.1343 112.318 58.9947 112.318 54.8232 109.91L25.9795 93.2571C21.808 90.8487 19.2383 86.3978 19.2383 81.5809V48.2751C19.2383 43.4582 21.808 39.0073 25.9795 36.5989L54.8232 19.946Z" fill="#022D95"/>
<path d="M54.8232 19.946C58.9947 17.5375 64.1343 17.5375 68.3058 19.946L97.1495 36.5989C101.321 39.0073 103.891 43.4582 103.891 48.2751V81.5809C103.891 86.3978 101.321 90.8487 97.1495 93.2571L68.3058 109.91C64.1343 112.318 58.9947 112.318 54.8232 109.91L25.9795 93.2571C21.808 90.8487 19.2383 86.3978 19.2383 81.5809V48.2751C19.2383 43.4582 21.808 39.0073 25.9795 36.5989L54.8232 19.946Z" fill="#022D95"/>
<g filter="url(#filter0_ii_1330_243)">
<rect x="42.3848" y="41.895" width="38.2005" height="50.3347" rx="5.61771" fill="#D8BCFF"/>
</g>
<rect x="42.3848" y="62.5684" width="38.2005" height="16.179" fill="#020070"/>
<line x1="51.6372" y1="38.75" x2="51.6372" y2="44.1948" stroke="#FF7700" stroke-width="0.977482"/>
<g filter="url(#filter1_i_1330_243)">
<circle cx="51.6891" cy="37.9415" r="1.6637" fill="#E24A4C"/>
</g>
<ellipse cx="51.1197" cy="36.9628" rx="0.756229" ry="0.302491" transform="rotate(-35.4324 51.1197 36.9628)" fill="white" fill-opacity="0.54"/>
<line x1="72.0825" y1="38.75" x2="72.0825" y2="44.1948" stroke="#FF7700" stroke-width="0.977482"/>
<g filter="url(#filter2_i_1330_243)">
<circle cx="72.1344" cy="37.9415" r="1.6637" fill="#E24A4C"/>
</g>
<ellipse cx="71.565" cy="36.9628" rx="0.756229" ry="0.302491" transform="rotate(-35.4324 71.565 36.9628)" fill="white" fill-opacity="0.54"/>
<path d="M44.1816 66.4333C44.1816 64.9193 44.8859 63.6919 45.7546 63.6919H76.9891C77.8578 63.6919 78.562 64.9193 78.562 66.4333V74.6577C78.562 76.1717 77.8578 77.3991 76.9891 77.3991H45.7546C44.8859 77.3991 44.1816 76.1717 44.1816 74.6577V66.4333Z" fill="#FFB825"/>
<path fill-rule="evenodd" clip-rule="evenodd" d="M76.9891 66.0417H45.7546C45.6305 66.0417 45.5299 66.217 45.5299 66.4333V74.6577C45.5299 74.874 45.6305 75.0493 45.7546 75.0493H76.9891C77.1132 75.0493 77.2138 74.874 77.2138 74.6577V66.4333C77.2138 66.217 77.1132 66.0417 76.9891 66.0417ZM45.7546 63.6919C44.1816 63.6919 44.1816 63.6919 44.1816 65.543V74.6577C44.1816 77.3991 44.1816 77.3991 45.7546 77.3991H76.9891C78.562 77.3991 78.562 77.3991 78.562 75.8851V65.206C78.562 63.6919 78.562 63.6919 76.9891 63.6919H45.7546Z" fill="#EF5027"/>
<path fill-rule="evenodd" clip-rule="evenodd" d="M76.9891 66.0417H45.7546C45.6305 66.0417 45.5299 66.217 45.5299 66.4333V74.6577C45.5299 74.874 45.6305 75.0493 45.7546 75.0493H76.9891C77.1132 75.0493 77.2138 74.874 77.2138 74.6577V66.4333C77.2138 66.217 77.1132 66.0417 76.9891 66.0417ZM45.7546 63.6919C44.1816 63.6919 44.1816 63.6919 44.1816 65.543V74.6577C44.1816 77.3991 44.1816 77.3991 45.7546 77.3991H76.9891C78.562 77.3991 78.562 77.3991 78.562 75.8851V65.206C78.562 63.6919 78.562 63.6919 76.9891 63.6919H45.7546Z" fill="url(#paint0_radial_1330_243)" fill-opacity="0.8"/>
<rect x="69.125" y="67.2168" width="2.02238" height="6.26616" rx="0.898834" fill="#4B08DE"/>
<rect x="51.5977" y="67.2168" width="2.02238" height="6.26616" rx="0.898834" fill="#4B08DE"/>
<path d="M52.7198 65.939H57.2139L50.4727 75.152H45.9785L52.7198 65.939Z" fill="white" fill-opacity="0.2"/>
<path d="M58.337 65.939H59.2358L52.4945 75.152H51.5957L58.337 65.939Z" fill="white" fill-opacity="0.2"/>
<g filter="url(#filter3_i_1330_243)">
<rect x="48.4492" y="94.0278" width="26.0662" height="11.0107" rx="1.12354" fill="#DABFFF"/>
</g>
<g filter="url(#filter4_i_1330_243)">
<rect x="34.0703" y="66.8379" width="4.04475" height="8.53893" rx="0.898834" fill="#05006D"/>
</g>
<g filter="url(#filter5_i_1330_243)">
<rect x="38.5605" y="65.7148" width="3.37063" height="10.786" rx="0.898834" fill="#020070"/>
</g>
<g filter="url(#filter6_i_1330_243)">
<rect width="4.04475" height="8.53893" rx="0.898834" transform="matrix(-1 0 0 1 88.8984 66.8379)" fill="#020070"/>
</g>
<g filter="url(#filter7_i_1330_243)">
<rect width="3.37063" height="10.786" rx="0.898834" transform="matrix(-1 0 0 1 84.4023 65.7148)" fill="#020070"/>
</g>
<line x1="38.5605" y1="75.0394" x2="41.9312" y2="75.0394" stroke="#240C61" stroke-width="0.674126"/>
<line x1="38.5605" y1="73.4671" x2="41.9312" y2="73.4671" stroke="#240C61" stroke-width="0.674126"/>
<line x1="38.5605" y1="71.8939" x2="41.9312" y2="71.8939" stroke="#240C61" stroke-width="0.674126"/>
<line x1="38.5605" y1="70.3211" x2="41.9312" y2="70.3211" stroke="#240C61" stroke-width="0.674126"/>
<line x1="38.5605" y1="68.7484" x2="41.9312" y2="68.7484" stroke="#240C61" stroke-width="0.674126"/>
<line x1="38.5605" y1="67.1751" x2="41.9312" y2="67.1751" stroke="#240C61" stroke-width="0.674126"/>
<line x1="81.0332" y1="75.0394" x2="84.4038" y2="75.0394" stroke="#1E0259" stroke-width="0.674126"/>
<line x1="81.0332" y1="73.4671" x2="84.4038" y2="73.4671" stroke="#1E0259" stroke-width="0.674126"/>
<line x1="81.0332" y1="71.8939" x2="84.4038" y2="71.8939" stroke="#1E0259" stroke-width="0.674126"/>
<line x1="81.0332" y1="70.3211" x2="84.4038" y2="70.3211" stroke="#1E0259" stroke-width="0.674126"/>
<line x1="81.0332" y1="68.7484" x2="84.4038" y2="68.7484" stroke="#1E0259" stroke-width="0.674126"/>
<line x1="81.0332" y1="67.1751" x2="84.4038" y2="67.1751" stroke="#1E0259" stroke-width="0.674126"/>
<path d="M59.0117 85.2642H63.9553V85.4889C63.9553 86.7299 62.9493 87.736 61.7082 87.736H61.2588C60.0178 87.736 59.0117 86.7299 59.0117 85.4889V85.2642Z" fill="#EF5027"/>
<path d="M94.0036 42.0478L65.1598 25.3949C62.935 24.1104 60.194 24.1104 57.9692 25.3949L29.1255 42.0478C26.9007 43.3323 25.5301 45.7061 25.5301 48.2751V81.5809C25.5301 84.1499 26.9007 86.5238 29.1255 87.8082L57.9692 104.461C60.194 105.746 62.935 105.746 65.1598 104.461L94.0036 87.8082C96.2283 86.5237 97.5989 84.1499 97.5989 81.5809V48.2751C97.5989 45.7061 96.2284 43.3323 94.0036 42.0478ZM55.048 20.3352C59.0804 18.007 64.0486 18.007 68.0811 20.3352L96.9248 36.9881C100.957 39.3162 103.441 43.6188 103.441 48.2751V81.5809C103.441 86.2372 100.957 90.5398 96.9248 92.8679L68.081 109.521C64.0486 111.849 59.0804 111.849 55.048 109.521L26.2042 92.8679C22.1718 90.5398 19.6877 86.2372 19.6877 81.5809V48.2751C19.6877 43.6188 22.1718 39.3162 26.2042 36.9881L55.048 20.3352Z" fill="#FFB825" stroke="#EF5027" stroke-width="0.898834"/>
<mask id="path-36-inside-1_1330_243" fill="white">
<path fill-rule="evenodd" clip-rule="evenodd" d="M24.4062 92.2784C24.9378 92.7051 25.5054 93.0944 26.1063 93.4413L54.9501 110.094C59.1216 112.503 64.2611 112.503 68.4326 110.094L97.2763 93.4413C101.448 91.0329 104.018 86.582 104.018 81.7651V48.4593C104.018 43.6425 101.448 39.1915 97.2763 36.7831L96.9551 36.5977C100.114 39.133 101.996 42.988 101.996 47.1109V80.4168C101.996 85.2336 99.4265 89.6846 95.255 92.093L66.4113 108.746C62.2398 111.154 57.1003 111.154 52.9288 108.746L24.4062 92.2784Z"/>
</mask>
<path fill-rule="evenodd" clip-rule="evenodd" d="M24.4062 92.2784C24.9378 92.7051 25.5054 93.0944 26.1063 93.4413L54.9501 110.094C59.1216 112.503 64.2611 112.503 68.4326 110.094L97.2763 93.4413C101.448 91.0329 104.018 86.582 104.018 81.7651V48.4593C104.018 43.6425 101.448 39.1915 97.2763 36.7831L96.9551 36.5977C100.114 39.133 101.996 42.988 101.996 47.1109V80.4168C101.996 85.2336 99.4265 89.6846 95.255 92.093L66.4113 108.746C62.2398 111.154 57.1003 111.154 52.9288 108.746L24.4062 92.2784Z" fill="#EF5027"/>
<path d="M26.1063 93.4413L26.5558 92.6629L26.5558 92.6629L26.1063 93.4413ZM24.4062 92.2784L24.8557 91.5L23.8436 92.9794L24.4062 92.2784ZM54.9501 110.094L54.5006 110.873L54.5006 110.873L54.9501 110.094ZM68.4326 110.094L68.882 110.873L68.882 110.873L68.4326 110.094ZM97.2763 93.4413L97.7257 94.2198L97.7257 94.2198L97.2763 93.4413ZM97.2763 36.7831L96.8269 37.5615L96.8269 37.5615L97.2763 36.7831ZM96.9551 36.5977L97.4045 35.8192L96.3924 37.2986L96.9551 36.5977ZM95.255 92.093L94.8056 91.3146L94.8056 91.3146L95.255 92.093ZM66.4113 108.746L66.8607 109.524L66.8607 109.524L66.4113 108.746ZM52.9288 108.746L52.4794 109.524L52.4794 109.524L52.9288 108.746ZM26.5558 92.6629C25.9948 92.339 25.4649 91.9757 24.9689 91.5775L23.8436 92.9794C24.4106 93.4345 25.0161 93.8498 25.6569 94.2198L26.5558 92.6629ZM55.3995 109.316L26.5558 92.6629L25.6569 94.2198L54.5006 110.873L55.3995 109.316ZM67.9831 109.316C64.0897 111.564 59.2929 111.564 55.3995 109.316L54.5006 110.873C58.9502 113.442 64.4324 113.442 68.882 110.873L67.9831 109.316ZM96.8269 92.6629L67.9831 109.316L68.882 110.873L97.7257 94.2198L96.8269 92.6629ZM103.119 81.7651C103.119 86.2609 100.72 90.4151 96.8269 92.6629L97.7257 94.2198C102.175 91.6508 104.916 86.9031 104.916 81.7651H103.119ZM103.119 48.4593V81.7651H104.916V48.4593H103.119ZM96.8269 37.5615C100.72 39.8094 103.119 43.9636 103.119 48.4593H104.916C104.916 43.3213 102.175 38.5737 97.7257 36.0047L96.8269 37.5615ZM96.5057 37.3761L96.8269 37.5615L97.7257 36.0047L97.4045 35.8192L96.5057 37.3761ZM96.3924 37.2986C99.3403 39.6649 101.097 43.263 101.097 47.1109H102.895C102.895 42.713 100.887 38.6012 97.5177 35.8967L96.3924 37.2986ZM101.097 47.1109V80.4168H102.895V47.1109H101.097ZM101.097 80.4168C101.097 84.9125 98.699 89.0667 94.8056 91.3146L95.7044 92.8714C100.154 90.3024 102.895 85.5547 102.895 80.4168H101.097ZM94.8056 91.3146L65.9619 107.968L66.8607 109.524L95.7044 92.8714L94.8056 91.3146ZM65.9619 107.968C62.0685 110.215 57.2716 110.215 53.3782 107.968L52.4794 109.524C56.929 112.093 62.4111 112.093 66.8607 109.524L65.9619 107.968ZM53.3782 107.968L24.8557 91.5L23.9568 93.0568L52.4794 109.524L53.3782 107.968Z" fill="#EF5027" mask="url(#path-36-inside-1_1330_243)"/>
<mask id="mask0_1330_243" style="mask-type:alpha" maskUnits="userSpaceOnUse" x="-13" y="-8" width="114" height="108">
<path d="M59.7827 -8L-8.30378 28.4028L-13.0008 99.8601L100.018 -5.97762L59.7827 -8Z" fill="white" fill-opacity="0.2"/>
</mask>
<g mask="url(#mask0_1330_243)">
<path d="M67.996 20.1606C63.8245 17.7522 58.685 17.7522 54.5135 20.1606L25.6698 36.8135C21.4983 39.222 18.9286 43.6729 18.9286 48.4897V81.7956C18.9286 86.6124 21.4983 91.0634 25.6698 93.4718L54.5135 110.125C58.685 112.533 63.8245 112.533 67.9961 110.125L96.8398 93.4718C101.011 91.0634 103.581 86.6124 103.581 81.7956V48.4897C103.581 43.6729 101.011 39.222 96.8398 36.8135L67.996 20.1606Z" fill="white" fill-opacity="0.2"/>
</g>
<mask id="mask1_1330_243" style="mask-type:alpha" maskUnits="userSpaceOnUse" x="8" y="19" width="114" height="108">
<path d="M81.1147 19.1396L15.1748 83.8557L8.33121 127L121.35 21.162L81.1147 19.1396Z" fill="white" fill-opacity="0.2"/>
</mask>
<g mask="url(#mask1_1330_243)">
<path d="M69.5703 21.1606C65.3988 18.7522 60.2593 18.7522 56.0878 21.1606L27.244 37.8135C23.0725 40.222 20.5028 44.6729 20.5028 49.4897V82.7956C20.5028 87.6124 23.0725 92.0634 27.244 94.4718L56.0878 111.125C60.2593 113.533 65.3988 113.533 69.5703 111.125L98.414 94.4718C102.585 92.0634 105.155 87.6124 105.155 82.7956V49.4897C105.155 44.6729 102.585 40.222 98.414 37.8135L69.5703 21.1606Z" fill="white" fill-opacity="0.2"/>
</g>
<defs>
<filter id="filter0_ii_1330_243" x="41.2612" y="40.9962" width="39.3247" height="51.2333" filterUnits="userSpaceOnUse" color-interpolation-filters="sRGB">
<feFlood flood-opacity="0" result="BackgroundImageFix"/>
<feBlend mode="normal" in="SourceGraphic" in2="BackgroundImageFix" result="shape"/>
<feColorMatrix in="SourceAlpha" type="matrix" values="0 0 0 0 0 0 0 0 0 0 0 0 0 0 0 0 0 0 127 0" result="hardAlpha"/>
<feOffset dx="2.6965" dy="3.37063"/>
<feComposite in2="hardAlpha" operator="arithmetic" k2="-1" k3="1"/>
<feColorMatrix type="matrix" values="0 0 0 0 1 0 0 0 0 1 0 0 0 0 1 0 0 0 0.25 0"/>
<feBlend mode="normal" in2="shape" result="effect1_innerShadow_1330_243"/>
<feColorMatrix in="SourceAlpha" type="matrix" values="0 0 0 0 0 0 0 0 0 0 0 0 0 0 0 0 0 0 127 0" result="hardAlpha"/>
<feOffset dx="-1.12354" dy="-0.898834"/>
<feGaussianBlur stdDeviation="1.01119"/>
<feComposite in2="hardAlpha" operator="arithmetic" k2="-1" k3="1"/>
<feColorMatrix type="matrix" values="0 0 0 0 0.0791493 0 0 0 0 0.106234 0 0 0 0 0.404167 0 0 0 0.25 0"/>
<feBlend mode="normal" in2="effect1_innerShadow_1330_243" result="effect2_innerShadow_1330_243"/>
</filter>
<filter id="filter1_i_1330_243" x="49.4204" y="35.6728" width="3.93311" height="3.93262" filterUnits="userSpaceOnUse" color-interpolation-filters="sRGB">
<feFlood flood-opacity="0" result="BackgroundImageFix"/>
<feBlend mode="normal" in="SourceGraphic" in2="BackgroundImageFix" result="shape"/>
<feColorMatrix in="SourceAlpha" type="matrix" values="0 0 0 0 0 0 0 0 0 0 0 0 0 0 0 0 0 0 127 0" result="hardAlpha"/>
<feOffset dx="-0.604983" dy="-0.604983"/>
<feGaussianBlur stdDeviation="0.604983"/>
<feComposite in2="hardAlpha" operator="arithmetic" k2="-1" k3="1"/>
<feColorMatrix type="matrix" values="0 0 0 0 0.479167 0 0 0 0 0 0 0 0 0 0 0 0 0 0.25 0"/>
<feBlend mode="normal" in2="shape" result="effect1_innerShadow_1330_243"/>
</filter>
<filter id="filter2_i_1330_243" x="69.8657" y="35.6728" width="3.93311" height="3.93262" filterUnits="userSpaceOnUse" color-interpolation-filters="sRGB">
<feFlood flood-opacity="0" result="BackgroundImageFix"/>
<feBlend mode="normal" in="SourceGraphic" in2="BackgroundImageFix" result="shape"/>
<feColorMatrix in="SourceAlpha" type="matrix" values="0 0 0 0 0 0 0 0 0 0 0 0 0 0 0 0 0 0 127 0" result="hardAlpha"/>
<feOffset dx="-0.604983" dy="-0.604983"/>
<feGaussianBlur stdDeviation="0.604983"/>
<feComposite in2="hardAlpha" operator="arithmetic" k2="-1" k3="1"/>
<feColorMatrix type="matrix" values="0 0 0 0 0.479167 0 0 0 0 0 0 0 0 0 0 0 0 0 0.25 0"/>
<feBlend mode="normal" in2="shape" result="effect1_innerShadow_1330_243"/>
</filter>
<filter id="filter3_i_1330_243" x="47.5504" y="94.0278" width="26.9652" height="11.9096" filterUnits="userSpaceOnUse" color-interpolation-filters="sRGB">
<feFlood flood-opacity="0" result="BackgroundImageFix"/>
<feBlend mode="normal" in="SourceGraphic" in2="BackgroundImageFix" result="shape"/>
<feColorMatrix in="SourceAlpha" type="matrix" values="0 0 0 0 0 0 0 0 0 0 0 0 0 0 0 0 0 0 127 0" result="hardAlpha"/>
<feOffset dx="-2.6965" dy="0.898834"/>
<feGaussianBlur stdDeviation="0.449417"/>
<feComposite in2="hardAlpha" operator="arithmetic" k2="-1" k3="1"/>
<feColorMatrix type="matrix" values="0 0 0 0 0.0184722 0 0 0 0 0.0681713 0 0 0 0 0.316667 0 0 0 0.25 0"/>
<feBlend mode="normal" in2="shape" result="effect1_innerShadow_1330_243"/>
</filter>
<filter id="filter4_i_1330_243" x="33.3962" y="65.9391" width="4.71905" height="9.4379" filterUnits="userSpaceOnUse" color-interpolation-filters="sRGB">
<feFlood flood-opacity="0" result="BackgroundImageFix"/>
<feBlend mode="normal" in="SourceGraphic" in2="BackgroundImageFix" result="shape"/>
<feColorMatrix in="SourceAlpha" type="matrix" values="0 0 0 0 0 0 0 0 0 0 0 0 0 0 0 0 0 0 127 0" result="hardAlpha"/>
<feOffset dx="-0.674126" dy="-1.12354"/>
<feGaussianBlur stdDeviation="0.449417"/>
<feComposite in2="hardAlpha" operator="arithmetic" k2="-1" k3="1"/>
<feColorMatrix type="matrix" values="0 0 0 0 0.483333 0 0 0 0 0.0422917 0 0 0 0 0.0422917 0 0 0 0.25 0"/>
<feBlend mode="normal" in2="shape" result="effect1_innerShadow_1330_243"/>
</filter>
<filter id="filter5_i_1330_243" x="38.1111" y="65.2654" width="3.82051" height="11.2355" filterUnits="userSpaceOnUse" color-interpolation-filters="sRGB">
<feFlood flood-opacity="0" result="BackgroundImageFix"/>
<feBlend mode="normal" in="SourceGraphic" in2="BackgroundImageFix" result="shape"/>
<feColorMatrix in="SourceAlpha" type="matrix" values="0 0 0 0 0 0 0 0 0 0 0 0 0 0 0 0 0 0 127 0" result="hardAlpha"/>
<feOffset dx="-0.674126" dy="-1.79767"/>
<feGaussianBlur stdDeviation="0.224709"/>
<feComposite in2="hardAlpha" operator="arithmetic" k2="-1" k3="1"/>
<feColorMatrix type="matrix" values="0 0 0 0 0.4375 0 0 0 0 0 0 0 0 0 0 0 0 0 0.25 0"/>
<feBlend mode="normal" in2="shape" result="effect1_innerShadow_1330_243"/>
</filter>
<filter id="filter6_i_1330_243" x="84.1794" y="65.9391" width="4.71905" height="9.4379" filterUnits="userSpaceOnUse" color-interpolation-filters="sRGB">
<feFlood flood-opacity="0" result="BackgroundImageFix"/>
<feBlend mode="normal" in="SourceGraphic" in2="BackgroundImageFix" result="shape"/>
<feColorMatrix in="SourceAlpha" type="matrix" values="0 0 0 0 0 0 0 0 0 0 0 0 0 0 0 0 0 0 127 0" result="hardAlpha"/>
<feOffset dx="-0.674126" dy="-1.12354"/>
<feGaussianBlur stdDeviation="0.449417"/>
<feComposite in2="hardAlpha" operator="arithmetic" k2="-1" k3="1"/>
<feColorMatrix type="matrix" values="0 0 0 0 0.483333 0 0 0 0 0.0422917 0 0 0 0 0.0422917 0 0 0 0.25 0"/>
<feBlend mode="normal" in2="shape" result="effect1_innerShadow_1330_243"/>
</filter>
<filter id="filter7_i_1330_243" x="80.5818" y="65.2654" width="3.82051" height="11.2355" filterUnits="userSpaceOnUse" color-interpolation-filters="sRGB">
<feFlood flood-opacity="0" result="BackgroundImageFix"/>
<feBlend mode="normal" in="SourceGraphic" in2="BackgroundImageFix" result="shape"/>
<feColorMatrix in="SourceAlpha" type="matrix" values="0 0 0 0 0 0 0 0 0 0 0 0 0 0 0 0 0 0 127 0" result="hardAlpha"/>
<feOffset dx="-0.674126" dy="-1.79767"/>
<feGaussianBlur stdDeviation="0.224709"/>
<feComposite in2="hardAlpha" operator="arithmetic" k2="-1" k3="1"/>
<feColorMatrix type="matrix" values="0 0 0 0 0.658824 0 0 0 0 0.203922 0 0 0 0 0.207843 0 0 0 0.25 0"/>
<feBlend mode="normal" in2="shape" result="effect1_innerShadow_1330_243"/>
</filter>
<radialGradient id="paint0_radial_1330_243" cx="0" cy="0" r="1" gradientUnits="userSpaceOnUse" gradientTransform="translate(56.653 65.0626) rotate(14.0501) scale(22.5847 8.64839)">
<stop stop-color="#FFB825"/>
<stop offset="1" stop-color="white" stop-opacity="0"/>
</radialGradient>
</defs>
</svg>
