<svg width="125" height="30" viewBox="0 0 125 30" fill="none" xmlns="http://www.w3.org/2000/svg">
<path d="M6.648 17.352H10.608V19.608C10.608 22.8 8.904 24.336 5.544 24.336C2.904 24.336 0.528 23.256 0.528 19.344V11.568C0.528 7.656 2.904 6.576 5.544 6.576C8.448 6.576 10.608 7.44 10.608 11.136V13.008H6.624V10.656C6.624 9.96 6.408 9.312 5.544 9.312C4.728 9.312 4.512 9.96 4.512 10.656V20.256C4.512 20.952 4.728 21.6 5.544 21.6C6.408 21.6 6.624 20.952 6.624 20.256L6.648 17.352ZM15.4768 24H11.6848V6.912H15.4768V24ZM20.3753 24H16.5833V10.272H20.3753V24ZM20.3753 9.336H16.5833V6.912H20.3753V9.336ZM26.8337 15.12V13.56C26.8337 13.056 26.6417 12.6 26.0417 12.6C25.4417 12.6 25.2497 13.056 25.2497 13.56V20.712C25.2497 21.216 25.4417 21.672 26.0417 21.672C26.6417 21.672 26.8337 21.216 26.8337 20.712V18.576H30.6257V20.592C30.6257 23.184 28.7057 24.168 26.0177 24.168C23.1857 24.168 21.4577 22.992 21.4577 20.352V13.944C21.4577 11.688 23.1377 10.104 26.0177 10.104C28.4657 10.104 30.6257 11.016 30.6257 13.968V15.12H26.8337ZM35.4684 24H31.6764V6.912H35.4684V16.536H35.5164L37.4604 10.272H41.1324L38.9484 16.416L41.3244 24H37.4604L35.5164 16.824H35.4684V24ZM51.2653 13.56V20.712C51.2653 21.216 51.4573 21.672 52.0573 21.672C52.6573 21.672 52.8493 21.216 52.8493 20.712V13.56C52.8493 13.056 52.6573 12.6 52.0573 12.6C51.4573 12.6 51.2653 13.056 51.2653 13.56ZM56.6413 13.968V20.52C56.6413 23.064 54.4813 24.168 52.0573 24.168C49.6333 24.168 47.4733 23.064 47.4733 20.52V13.968C47.4733 11.496 49.1053 10.104 52.0573 10.104C55.0093 10.104 56.6413 11.496 56.6413 13.968ZM61.4841 10.272V11.976H61.5321C61.8921 10.776 62.8041 10.104 64.2921 10.104C65.9961 10.104 66.8601 11.28 66.8601 13.248V24H63.0681V14.472C63.0681 13.872 63.0201 13.224 62.3001 13.224C61.5801 13.224 61.4841 13.872 61.4841 14.472V24H57.6921V10.272H61.4841ZM77.2809 18.984V20.472C77.2809 20.952 77.6169 21.192 77.9769 21.192C78.7689 21.192 78.8649 20.664 78.8649 19.44V17.064C78.1209 17.592 77.2809 17.904 77.2809 18.984ZM78.8649 24V22.392H78.8169C78.3609 23.376 77.6649 24.168 76.1529 24.168C74.4969 24.168 73.4889 23.16 73.4889 21.36V19.32C73.4889 15.72 78.8649 16.152 78.8649 13.608C78.8649 13.056 78.6969 12.6 78.0729 12.6C77.4489 12.6 77.2809 13.056 77.2809 13.608V15.12H73.4889V13.848C73.4889 11.088 75.7929 10.104 78.0729 10.104C80.3529 10.104 82.6569 11.088 82.6569 13.848V24H78.8649ZM87.4997 10.272V12.072H87.5717C88.0757 10.872 88.9157 10.104 90.3077 10.104C92.2277 10.104 92.8757 11.376 92.8757 12.792V17.688H89.0837V14.352C89.0837 13.8 88.9157 13.224 88.2917 13.224C87.6677 13.224 87.4997 13.8 87.4997 14.352V24H83.7077V10.272H87.4997ZM103.094 17.568H97.7184V20.352C97.7184 21.168 98.0064 21.672 98.5104 21.672C99.1104 21.672 99.3024 21.168 99.3024 20.352V18.576H103.094V20.592C103.094 23.184 101.174 24.168 98.5104 24.168C96.0864 24.168 93.9264 23.064 93.9264 20.52V13.968C93.9264 11.496 95.5584 10.104 98.5104 10.104C100.934 10.104 103.094 11.016 103.094 13.968V17.568ZM97.7184 15.288H99.3024V13.416C99.3024 12.888 99.0384 12.6 98.5104 12.6C97.9824 12.6 97.7184 12.888 97.7184 13.416V15.288ZM107.937 18.984V20.472C107.937 20.952 108.273 21.192 108.633 21.192C109.425 21.192 109.521 20.664 109.521 19.44V17.064C108.777 17.592 107.937 17.904 107.937 18.984ZM109.521 24V22.392H109.473C109.017 23.376 108.321 24.168 106.809 24.168C105.153 24.168 104.145 23.16 104.145 21.36V19.32C104.145 15.72 109.521 16.152 109.521 13.608C109.521 13.056 109.353 12.6 108.729 12.6C108.105 12.6 107.937 13.056 107.937 13.608V15.12H104.145V13.848C104.145 11.088 106.449 10.104 108.729 10.104C111.009 10.104 113.313 11.088 113.313 13.848V24H109.521ZM123.532 15.12H119.74V13.632C119.74 13.056 119.548 12.6 118.948 12.6C118.348 12.6 118.156 13.056 118.156 13.632C118.156 15.984 123.46 15.552 123.46 20.016C123.46 22.728 121.828 24.168 118.66 24.168C116.236 24.168 114.364 23.232 114.364 20.76V18.576H118.156V20.64C118.156 21.216 118.348 21.672 118.948 21.672C119.548 21.672 119.74 21.216 119.74 20.64C119.74 17.376 114.364 18.384 114.364 13.92C114.364 11.184 116.308 10.104 118.804 10.104C121.684 10.104 123.532 11.232 123.532 13.536V15.12Z" fill="#14127A"/>
</svg>
