<svg width="667" height="375" viewBox="0 0 667 375" fill="none" xmlns="http://www.w3.org/2000/svg">
<g clip-path="url(#clip0_1441_40)">
<rect x="-0.5" y="0.5" width="185" height="67" transform="matrix(-1 0 0 1 237 184)" stroke="white" stroke-dasharray="2 2"/>
<rect x="-0.5" y="0.5" width="145" height="77" transform="matrix(-1 0 0 1 237 107)" stroke="white" stroke-dasharray="2 2"/>
<rect x="-0.5" y="0.5" width="122" height="58" transform="matrix(-1 0 0 1 359 184)" stroke="white" stroke-dasharray="2 2"/>
<rect x="-0.5" y="0.5" width="206" height="23" transform="matrix(-1 0 0 1 443 242)" stroke="white" stroke-dasharray="2 2"/>
<rect x="-0.5" y="0.5" width="89" height="61" transform="matrix(-1 0 0 1 532 184)" stroke="white" stroke-dasharray="2 2"/>
<rect x="532.5" y="184.5" width="45" height="61" stroke="white" stroke-dasharray="2 2"/>
<rect x="-0.5" y="0.5" width="58" height="61" transform="matrix(-1 0 0 1 635 184)" stroke="white" stroke-dasharray="2 2"/>
<rect x="-0.5" y="0.5" width="84" height="58" transform="matrix(-1 0 0 1 443 184)" stroke="white" stroke-dasharray="2 2"/>
</g>
<defs>
<clipPath id="clip0_1441_40">
<rect width="375" height="667" fill="white" transform="translate(667) rotate(90)"/>
</clipPath>
</defs>
</svg>
