<svg width="667" height="375" viewBox="0 0 667 375" fill="none" xmlns="http://www.w3.org/2000/svg">
<g clip-path="url(#clip0_1403_358)">
<rect x="-0.5" y="0.5" width="185" height="67" transform="matrix(-1 0 0 1 237 184)" stroke="white" stroke-dasharray="2 2"/>
<rect x="-0.5" y="0.5" width="145" height="77" transform="matrix(-1 0 0 1 237 107)" stroke="white" stroke-dasharray="2 2"/>
<rect x="-0.5" y="0.5" width="122" height="58" transform="matrix(-1 0 0 1 359 184)" stroke="white" stroke-dasharray="2 2"/>
<rect x="-0.5" y="0.5" width="206" height="23" transform="matrix(-1 0 0 1 443 242)" stroke="white" stroke-dasharray="2 2"/>
<rect x="-0.5" y="0.5" width="89" height="61" transform="matrix(-1 0 0 1 532 184)" stroke="white" stroke-dasharray="2 2"/>
<rect x="532.5" y="184.5" width="45" height="61" stroke="white" stroke-dasharray="2 2"/>
<rect x="-0.5" y="0.5" width="58" height="61" transform="matrix(-1 0 0 1 635 184)" stroke="white" stroke-dasharray="2 2"/>
<rect x="-0.5" y="0.5" width="84" height="58" transform="matrix(-1 0 0 1 443 184)" stroke="white" stroke-dasharray="2 2"/>
<path d="M138.704 211.552V209.888C139.6 209.888 140.8 209.616 140.992 208.608H143.232V220H140.576V211.552H138.704Z" fill="white"/>
<path d="M163.912 150.336H168.008V152H161.256V150.592C161.256 146.928 165.352 145.296 165.352 143.024C165.352 142.464 165.096 142.208 164.632 142.208C164.168 142.208 163.912 142.464 163.912 143.024V144.672H161.256V143.424C161.256 140.656 163.208 140.384 164.712 140.384C166.232 140.384 168.008 140.992 168.008 143.392C168.008 146.016 165.528 147.184 164.328 149.232C164.12 149.6 163.912 149.872 163.912 150.336Z" fill="white"/>
<path d="M294.368 215.616H297.024V217.536C297.024 218 297.152 218.4 297.696 218.4C298.24 218.4 298.384 218 298.384 217.536V216.096C298.384 215.12 297.84 215.072 297.12 215.072H296.224V213.248H297.248C297.824 213.248 298.384 213.024 298.384 212.24V210.912C298.384 210.528 298.128 210.208 297.696 210.208C297.008 210.208 297.024 210.912 297.024 211.44V212.704H294.368V211.072C294.368 208.88 296.4 208.384 297.664 208.384C299.312 208.384 301.04 209.024 301.04 210.928V211.648C301.04 213.264 300.4 213.84 299.392 214.064C299.376 214.08 299.376 214.08 299.376 214.048V214.144C300.4 214.288 301.04 214.736 301.04 216.208V217.472C301.04 219.44 299.504 220.224 297.664 220.224C295.552 220.224 294.368 219.424 294.368 217.568V215.616Z" fill="white"/>
<path d="M397.32 215.472H399.976V217.52C399.976 218.048 400.248 218.4 400.696 218.4C401.144 218.4 401.432 218.048 401.432 217.52V214.688C401.432 214.16 401.16 213.808 400.712 213.808C400.36 213.808 399.976 214.256 399.976 214.608H397.32V208.608H404.008V210.272H399.848C399.816 210.992 399.768 211.712 399.736 212.432H399.768C400.44 211.856 401.096 211.648 401.752 211.648C403.128 211.648 404.088 212.48 404.088 214.336V216.992C404.088 219.456 402.424 220.224 400.696 220.224C398.872 220.224 397.32 219.296 397.32 217.648V215.472Z" fill="white"/>
<path d="M491.056 212.64H488.4V211.216C488.4 210.672 488.304 210.208 487.696 210.208C487.104 210.208 487.008 210.672 487.008 211.216V213.92C487.568 213.456 488.08 213.168 488.864 213.168C490.08 213.168 491.056 213.92 491.056 215.376V217.28C491.056 219.456 489.328 220.224 487.872 220.224C485.648 220.224 484.352 219.264 484.352 217.008V211.136C484.352 209.216 486.096 208.384 487.808 208.384C489.904 208.384 491.056 209.264 491.056 211.216V212.64ZM487.776 215.248C487.28 215.248 487.008 215.52 487.008 215.888V217.904C487.008 218.176 487.232 218.4 487.728 218.4C488.176 218.4 488.4 218.176 488.4 217.872V215.824C488.4 215.488 488.224 215.248 487.776 215.248Z" fill="white"/>
<path d="M555.32 210.272H551.144V208.608H558.152V210.224L554.408 220H551.576L555.32 210.272Z" fill="white"/>
<path d="M609.152 216.368V217.344C609.152 219.36 607.536 220.224 605.632 220.224C603.6 220.224 602.272 219.264 602.272 217.28V216.048C602.272 214.912 603.104 214.208 604.048 214.064V214C603.168 213.84 602.272 213.184 602.272 211.968V211.104C602.272 208.928 604.336 208.384 605.792 208.384C607.488 208.384 609.152 208.992 609.152 211.072V212.08C609.152 212.96 608.336 213.808 607.36 214V214.064C608.304 214.272 609.152 214.56 609.152 216.368ZM604.928 215.744V217.792C604.928 218.288 605.28 218.4 605.744 218.4C606.224 218.4 606.496 218.272 606.496 217.792V215.76C606.496 215.28 606.272 214.992 605.696 214.992C605.104 214.992 604.928 215.312 604.928 215.744ZM604.928 210.96V212.656C604.928 213.216 605.232 213.328 605.696 213.328C606.176 213.328 606.496 213.232 606.496 212.592V210.976C606.496 210.448 606.256 210.208 605.712 210.208C605.168 210.208 604.928 210.528 604.928 210.96Z" fill="white"/>
<path d="M332.048 256.392V254.568L335.152 247.608H338.368V254.568H339.248V256.392H338.368V259H335.888V256.392H332.048ZM335.856 249.976L333.808 254.568H335.888V249.976H335.856Z" fill="white"/>
</g>
<defs>
<clipPath id="clip0_1403_358">
<rect width="375" height="667" fill="white" transform="translate(667) rotate(90)"/>
</clipPath>
</defs>
</svg>
