<svg width="667" height="375" viewBox="0 0 667 375" fill="none" xmlns="http://www.w3.org/2000/svg">
<g clip-path="url(#clip0_1403_632)">
<rect x="341.5" y="158.5" width="86" height="59" stroke="white" stroke-dasharray="2 2"/>
<path d="M342 215V213H341.5V212.5H340.975V212H338.925V212.5H336.875V212H334.825V212.5H332.775V212H330.725V212.5H328.675V212H326.625V212.5H324.575V212H322.525V212.5H320.475V212H318.425V212.5H316.375V212H314.325V212.5H312.275V212H310.225V212.5H308.175V212H306.125V212.5H304.075V212H302.025V212.5H301.5V213.05H301V215.15H301.5V217.25H301V219.35H301.5V221.45H301V223.55H301.5V225.65H301V227.75H301.5V229.85H301V231.95H301.5V233V233.5H301H300V233H298V233.5H296V233H294V233.5H292V233H290V233.5H288V233H286V233.5H284V233H282V233.5H280V233H278V233.5H277.5V233.991H277V235.973H277.5V237.955H277V239.938H277.5V241.92H277V243.902H277.5V245.884H277V247.866H277.5V249.848H277V251.83H277.5V253.813H277V255.795H277.5V257.777H277V259.759H277.5V261.741H277V263.723H277.5V265.705H277V267.688H277.5V269.67H277V271.652H277.5V273.634H277V275.616H277.5V277.598H277V279.58H277.5V281.562H277V283.545H277.5V285.527H277V287.509H277.5V289.491H277V291.473H277.5V293.455H277V295.437H277.5V297.42H277V299.402H277.5V301.384H277V303.366H277.5V305.348H277V307.33H277.5V309.312H277V311.295H277.5V313.277H277V315.259H277.5V317.241H277V319.223H277.5V321.205H277V323.188H277.5V325.17H277V327.152H277.5V329.134H277V331.116H277.5V333.098H277V335.08H277.5V337.062H277V339.045H277.5V341.027H277V343.009H277.5V343.5H278.016V344H280.047V343.5H282.078V344H284.109V343.5H286.141V344H288.172V343.5H290.203V344H292.234V343.5H294.266V344H296.297V343.5H298.328V344H300.359V343.5H302.391V344H304.422V343.5H306.453V344H308.484V343.5H310.516V344H312.547V343.5H314.578V344H316.609V343.5H318.641V344H320.672V343.5H322.703V344H324.734V343.5H326.766V344H328.797V343.5H330.828V344H332.859V343.5H334.891V344H336.922V343.5H338.953V344H340.984V343.5H341.5V343H342V341H341.5V339H342V337H341.5V335H342V333H341.5V331H342V329H341.5V327H342V325H341.5V323H342V321H341.5V319H342V317H341.5V315H342V313H341.5V311H342V309H341.5V307H342V305H341.5V303H342V301H341.5V299H342V297H341.5V295H342V293H341.5V291H342V289H341.5V287H342V285H341.5V283H342V281H341.5V279H342V277H341.5V275H342V273H341.5V271H342V269H341.5V267H342V265H341.5V263H342V261H341.5V259H342V257H341.5V255H342V253H341.5V251H342V249H341.5V247H342V245H341.5V243H342V241H341.5V239H342V237H341.5V235H342V233H341.5V231H342V229H341.5V227H342V225H341.5V223H342V221H341.5V219H342V217H341.5V215H342Z" stroke="white" stroke-dasharray="2 2"/>
<path d="M342 165V167H341.5V167.5H340.975V168H338.925V167.5H336.875V168H334.825V167.5H332.775V168H330.725V167.5H328.675V168H326.625V167.5H324.575V168H322.525V167.5H320.475V168H318.425V167.5H316.375V168H314.325V167.5H312.275V168H310.225V167.5H308.175V168H306.125V167.5H304.075V168H302.025V167.5H301.5V167.083H301V165.25H301.5V163.417H301V161.583H301.5V159.75H301V157.917H301.5V156.083H301V154.25H301.5V152.417H301V150.583H301.5V148.75H301V146.917H301.5V146V145.5H301H300.042V146H298.125V145.5H296.208V146H294.292V145.5H292.375V146H290.458V145.5H288.542V146H286.625V145.5H284.708V146H282.792V145.5H280.875V146H278.958V145.5H278.5V145.018H278V143.054H278.5V141.089H278V139.125H278.5V137.161H278V135.196H278.5V133.232H278V131.268H278.5V129.304H278V127.339H278.5V125.375H278V123.411H278.5V121.446H278V119.482H278.5V117.518H278V115.554H278.5V113.589H278V111.625H278.5V109.661H278V107.696H278.5V105.732H278V103.768H278.5V101.804H278V99.8393H278.5V97.875H278V95.9107H278.5V93.9464H278V91.9822H278.5V90.0179H278V88.0536H278.5V86.0893H278V84.125H278.5V82.1607H278V80.1964H278.5V78.2321H278V76.2679H278.5V74.3036H278V72.3393H278.5V70.375H278V68.4107H278.5V66.4464H278V64.4821H278.5V62.5179H278V60.5536H278.5V58.5893H278V56.625H278.5V54.6607H278V52.6964H278.5V50.7321H278V48.7679H278.5V46.8036H278V44.8393H278.5V42.875H278V40.9107H278.5V38.9464H278V36.9821H278.5V36.5H279V36H281V36.5H283V36H285V36.5H287V36H289V36.5H291V36H293V36.5H295V36H297V36.5H299V36H301V36.5H303V36H305V36.5H307V36H309V36.5H311V36H313V36.5H315V36H317V36.5H319V36H321V36.5H323V36H325V36.5H327V36H329V36.5H331V36H333V36.5H335V36H337V36.5H339V36H341V36.5H341.5V37H342V39H341.5V41H342V43H341.5V45H342V47H341.5V49H342V51H341.5V53H342V55H341.5V57H342V59H341.5V61H342V63H341.5V65H342V67H341.5V69H342V71H341.5V73H342V75H341.5V77H342V79H341.5V81H342V83H341.5V85H342V87H341.5V89H342V91H341.5V93H342V95H341.5V97H342V99H341.5V101H342V103H341.5V105H342V107H341.5V109H342V111H341.5V113H342V115H341.5V117H342V119H341.5V121H342V123H341.5V125H342V127H341.5V129H342V131H341.5V133H342V135H341.5V137H342V139H341.5V141H342V143H341.5V145H342V147H341.5V149H342V151H341.5V153H342V155H341.5V157H342V159H341.5V161H342V163H341.5V165H342Z" stroke="white" stroke-dasharray="2 2"/>
<rect x="-0.5" y="0.5" width="87" height="44" transform="matrix(-1 0 0 1 301 189)" stroke="white" stroke-dasharray="2 2"/>
<path d="M232.5 109V107H232V106.5H231.466V106H229.398V106.5H227.33V106H225.261V106.5H223.193V106H221.125V106.5H219.057V106H216.989V106.5H214.92V106H212.852V106.5H210.784V106H208.716V106.5H206.648V106H204.58V106.5H202.511V106H200.443V106.5H198.375V106H196.307V106.5H194.239V106H192.17V106.5H190.102V106H188.034V106.5H187.5V107.006H187V109.018H187.5V111.031H187V113.043H187.5V115.055H187V117.067H187.5V119.079H187V121.092H187.5V123.104H187V125.116H187.5V127.128H187V129.14H187.5V131.153H187V133.165H187.5V135.177H187V137.189H187.5V139.201H187V141.214H187.5V143.226H187V145.238H187.5V147.25H187V149.262H187.5V151.274H187V153.287H187.5V155.299H187V157.311H187.5V159.323H187V161.335H187.5V163.348H187V165.36H187.5V167.372H187V169.384H187.5V171.396H187V173.409H187.5V175.421H187V177.433H187.5V179.445H187V181.457H187.5V183.47H187V185.482H187.5V187.494H187V189.506H187.5V191.518H187V193.53H187.5V195.543H187V197.555H187.5V199.567H187V201.579H187.5V203.591H187V205.604H187.5V207.616H187V209.628H187.5V211.64H187V213.652H187.5V215.665H187V217.677H187.5V219.689H187V221.701H187.5V223.713H187V225.726H187.5V227.738H187V229.75H187.5V231.762H187V233.774H187.5V235.787H187V237.799H187.5V239.811H187V241.823H187.5V243.835H187V245.848H187.5V247.86H187V249.872H187.5V251.884H187V253.896H187.5V255.909H187V257.921H187.5V259.933H187V261.945H187.5V263.957H187V265.97H187.5V267.982H187V269.994H187.5V270.5H188.037V271H190.112V270.5H192.187V271H194.262V270.5H196.337V271H198.412V270.5H200.487V271H202.562V270.5H204.637V271H206.712V270.5H208.788V271H210.863V270.5H212.938V271H215.013V270.5H217.088V271H219.163V270.5H221.238V271H223.312V270.5H225.387V271H227.463V270.5H228V270.05H228.5V268.15H228V266.25H228.5V264.35H228V262.45H228.5V260.55H228V258.65H228.5V256.75H228V254.85H228.5V252.95H228V251.05H228.5V249.15H228V247.25H228.5V245.35H228V243.45H228.5V241.55H228V239.65H228.5V237.75H228V235.85H228.5V233.95H228V233.5H227.375V233H225.125V233.5H222.875V233H220.625V233.5H218.375V233H216.125V233.5H215H214.5V233V232.011H215V230.034H214.5V228.057H215V226.08H214.5V224.102H215V222.125H214.5V220.148H215V218.17H214.5V216.193H215V214.216H214.5V212.239H215V210.261H214.5V208.284H215V206.307H214.5V204.33H215V202.352H214.5V200.375H215V198.398H214.5V196.42H215V194.443H214.5V192.466H215V190.489H214.5V188.511H215V186.534H214.5V184.557H215V182.58H214.5V180.602H215V178.625H214.5V176.648H215V174.67H214.5V172.693H215V170.716H214.5V168.739H215V166.761H214.5V164.784H215V162.807H214.5V160.83H215V158.852H214.5V156.875H215V154.898H214.5V152.92H215V150.943H214.5V148.966H215V146.989H214.5V146V145.5H215H216.094V146H218.281V145.5H220.469V146H222.656V145.5H224.844V146H227.031V145.5H229.219V146H231.406V145.5H232V145H232.5V143H232V141H232.5V139H232V137H232.5V135H232V133H232.5V131H232V129H232.5V127H232V125H232.5V123H232V121H232.5V119H232V117H232.5V115H232V113H232.5V111H232V109H232.5Z" stroke="white" stroke-dasharray="2 2"/>
<rect x="-0.5" y="0.5" width="87" height="44" transform="matrix(-1 0 0 1 301 145)" stroke="white" stroke-dasharray="2 2"/>
<rect x="427.5" y="158.5" width="46" height="59" stroke="white" stroke-dasharray="2 2"/>
<rect x="473.5" y="158.5" width="26" height="59" stroke="white" stroke-dasharray="2 2"/>
<rect x="499.5" y="158.5" width="43" height="59" stroke="white" stroke-dasharray="2 2"/>
<rect x="145.5" y="158.5" width="42" height="59" stroke="white" stroke-dasharray="2 2"/>
<path d="M162.704 185.552V183.888C163.6 183.888 164.8 183.616 164.992 182.608H167.232V194H164.576V185.552H162.704Z" fill="white"/>
<path d="M199.912 192.336H204.008V194H197.256V192.592C197.256 188.928 201.352 187.296 201.352 185.024C201.352 184.464 201.096 184.208 200.632 184.208C200.168 184.208 199.912 184.464 199.912 185.024V186.672H197.256V185.424C197.256 182.656 199.208 182.384 200.712 182.384C202.232 182.384 204.008 182.992 204.008 185.392C204.008 188.016 201.528 189.184 200.328 191.232C200.12 191.6 199.912 191.872 199.912 192.336Z" fill="white"/>
<path d="M254.368 169.616H257.024V171.536C257.024 172 257.152 172.4 257.696 172.4C258.24 172.4 258.384 172 258.384 171.536V170.096C258.384 169.12 257.84 169.072 257.12 169.072H256.224V167.248H257.248C257.824 167.248 258.384 167.024 258.384 166.24V164.912C258.384 164.528 258.128 164.208 257.696 164.208C257.008 164.208 257.024 164.912 257.024 165.44V166.704H254.368V165.072C254.368 162.88 256.4 162.384 257.664 162.384C259.312 162.384 261.04 163.024 261.04 164.928V165.648C261.04 167.264 260.4 167.84 259.392 168.064C259.376 168.08 259.376 168.08 259.376 168.048V168.144C260.4 168.288 261.04 168.736 261.04 170.208V171.472C261.04 173.44 259.504 174.224 257.664 174.224C255.552 174.224 254.368 173.424 254.368 171.568V169.616Z" fill="white"/>
<path d="M254.048 215.392V213.568L257.152 206.608H260.368V213.568H261.248V215.392H260.368V218H257.888V215.392H254.048ZM257.856 208.976L255.808 213.568H257.888V208.976H257.856Z" fill="white"/>
<path d="M306.32 101.472H308.976V103.52C308.976 104.048 309.248 104.4 309.696 104.4C310.144 104.4 310.432 104.048 310.432 103.52V100.688C310.432 100.16 310.16 99.808 309.712 99.808C309.36 99.808 308.976 100.256 308.976 100.608H306.32V94.608H313.008V96.272H308.848C308.816 96.992 308.768 97.712 308.736 98.432H308.768C309.44 97.856 310.096 97.648 310.752 97.648C312.128 97.648 313.088 98.48 313.088 100.336V102.992C313.088 105.456 311.424 106.224 309.696 106.224C307.872 106.224 306.32 105.296 306.32 103.648V101.472Z" fill="white"/>
<path d="M313.056 283.64H310.4V282.216C310.4 281.672 310.304 281.208 309.696 281.208C309.104 281.208 309.008 281.672 309.008 282.216V284.92C309.568 284.456 310.08 284.168 310.864 284.168C312.08 284.168 313.056 284.92 313.056 286.376V288.28C313.056 290.456 311.328 291.224 309.872 291.224C307.648 291.224 306.352 290.264 306.352 288.008V282.136C306.352 280.216 308.096 279.384 309.808 279.384C311.904 279.384 313.056 280.264 313.056 282.216V283.64ZM309.776 286.248C309.28 286.248 309.008 286.52 309.008 286.888V288.904C309.008 289.176 309.232 289.4 309.728 289.4C310.176 289.4 310.4 289.176 310.4 288.872V286.824C310.4 286.488 310.224 286.248 309.776 286.248Z" fill="white"/>
<path d="M318.32 188.272H314.144V186.608H321.152V188.224L317.408 198H314.576L318.32 188.272Z" fill="white"/>
<path d="M391.152 191.368V192.344C391.152 194.36 389.536 195.224 387.632 195.224C385.6 195.224 384.272 194.264 384.272 192.28V191.048C384.272 189.912 385.104 189.208 386.048 189.064V189C385.168 188.84 384.272 188.184 384.272 186.968V186.104C384.272 183.928 386.336 183.384 387.792 183.384C389.488 183.384 391.152 183.992 391.152 186.072V187.08C391.152 187.96 390.336 188.808 389.36 189V189.064C390.304 189.272 391.152 189.56 391.152 191.368ZM386.928 190.744V192.792C386.928 193.288 387.28 193.4 387.744 193.4C388.224 193.4 388.496 193.272 388.496 192.792V190.76C388.496 190.28 388.272 189.992 387.696 189.992C387.104 189.992 386.928 190.312 386.928 190.744ZM386.928 185.96V187.656C386.928 188.216 387.232 188.328 387.696 188.328C388.176 188.328 388.496 188.232 388.496 187.592V185.976C388.496 185.448 388.256 185.208 387.712 185.208C387.168 185.208 386.928 185.528 386.928 185.96Z" fill="white"/>
<path d="M446.352 190.968H449.008V192.392C449.008 192.936 449.104 193.4 449.712 193.4C450.304 193.4 450.4 192.936 450.4 192.392V189.688C449.84 190.152 449.328 190.44 448.544 190.44C447.328 190.44 446.352 189.688 446.352 188.232V186.328C446.352 184.152 448.08 183.384 449.536 183.384C451.76 183.384 453.056 184.344 453.056 186.6V192.472C453.056 194.392 451.312 195.224 449.6 195.224C447.504 195.224 446.352 194.344 446.352 192.392V190.968ZM449.632 188.36C450.128 188.36 450.4 188.088 450.4 187.72V185.704C450.4 185.432 450.176 185.208 449.68 185.208C449.232 185.208 449.008 185.432 449.008 185.736V187.784C449.008 188.12 449.184 188.36 449.632 188.36Z" fill="white"/>
<path d="M479.704 186.552V184.888C480.6 184.888 481.8 184.616 481.992 183.608H484.232V195H481.576V186.552H479.704ZM490.838 192.632V185.976C490.838 185.416 490.534 185.208 490.118 185.208C489.702 185.208 489.414 185.416 489.414 185.976V192.632C489.414 193.192 489.702 193.4 490.118 193.4C490.534 193.4 490.838 193.192 490.838 192.632ZM493.494 186.712V192.12C493.494 194.296 492.182 195.224 490.134 195.224C488.118 195.224 486.758 194.296 486.758 192.12V186.712C486.758 184.024 488.678 183.384 490.166 183.384C491.974 183.384 493.494 184.024 493.494 186.712Z" fill="white"/>
<path d="M514.704 186.552V184.888C515.6 184.888 516.8 184.616 516.992 183.608H519.232V195H516.576V186.552H514.704ZM522.126 186.552V184.888C523.022 184.888 524.222 184.616 524.414 183.608H526.654V195H523.998V186.552H522.126Z" fill="white"/>
</g>
<defs>
<clipPath id="clip0_1403_632">
<rect width="375" height="667" fill="white" transform="translate(667) rotate(90)"/>
</clipPath>
</defs>
</svg>
